<?xml version="1.0" encoding="UTF-8"?>
<svg id="Layer_2" data-name="Layer 2" xmlns="http://www.w3.org/2000/svg" viewBox="0 0 521.87 865.9">
  <defs>
    <style>
      .cls-1 {
        fill: #f9ecd8;
      }

      .cls-2 {
        fill: #aa7b1b;
      }
    </style>
  </defs>
  <g id="Layer_1-2" data-name="Layer 1">
    <g>
      <path class="cls-1" d="M521.83,794.17c0-.13,0-.26,0-.39-.65-.41-.39-1.48-.4-2.14-1.26-101.84.02-203.86.02-306.12.01-137.52-1.46-274.69-.02-411.33,0-.66-.25-1.74.4-2.14v-.39c-.11-10.91.35-23.84-.39-34.6-1.09-15.82-13.11-33.29-29.43-35.52-19.37-2.64-39.84-1.11-59.47-1.03-53.34.22-106.95-1.12-159.85-.09-12,.23-24.01.04-36.04,0-48.83-.16-98.18.29-147.35.09-19.63-.08-40.1-1.62-59.47,1.03C13.51,3.77,1.47,21.24.39,37.06c-.9,13.16.03,27.1.03,40.26-.02,91.68.45,183.44.37,275.62-.04,41.43-.66,83.11-.39,124.77.67,103.53.01,207.26.03,310.41,0,13.2-.89,27.08-.06,40.29,1.01,15.97,12.94,33.63,29.45,35.89,16.49,2.25,34.8,1.53,51.69,1.46,117.57-.51,233.44-.92,351.02-.43,19.63.08,40.1,1.62,59.47-1.03,16.32-2.23,28.34-19.7,29.43-35.51.74-10.75.28-23.69.39-34.6Z"/>
      <g id="J4Zeor.tif">
        <g>
          <path class="cls-2" d="M521.83,71.65v.39c-.65.41-.39,1.48-.4,2.14-1.43,136.64.04,273.81.03,411.33,0,102.26-1.29,204.27-.03,306.12,0,.66-.25,1.74.4,2.14,0,.13,0,.26,0,.39-.11,10.91.35,23.84-.39,34.6-1.09,15.82-13.11,33.29-29.43,35.51-19.37,2.64-39.84,1.11-59.47,1.03-117.57-.49-233.44-.08-351.01.43-16.89.07-35.2.79-51.69-1.46-16.51-2.25-28.44-19.92-29.45-35.89-.84-13.21.06-27.09.06-40.29-.02-103.15.64-206.88-.03-310.41-.27-41.66.36-83.33.39-124.77.08-92.18-.39-183.94-.37-275.62,0-13.16-.93-27.1-.03-40.26C1.47,21.24,13.51,3.77,29.82,1.54,49.2-1.1,69.66.44,89.3.52c49.17.2,98.52-.25,147.35-.09,12.03.04,24.04.23,36.04,0,52.9-1.02,106.51.32,159.85.09,19.63-.08,40.1-1.62,59.47,1.03,16.32,2.23,28.34,19.7,29.43,35.51.74,10.75.28,23.69.39,34.6ZM261.11,8.32c-.11-.84.4-5.47-.58-5.47-1.21,1.39-.34,3.76-.58,5.47h1.17ZM255.12,5.23c-1.19.3-1.48,2.96,0,3.41,3.43,1.03,2.06-3.93,0-3.41ZM265.29,5.23c-1.43.55-2.32,3.18-.46,3.49,2.96.49,2.47-3.99.46-3.49ZM251.23,8.42c-2.48-2.57-4.77,2.84-1.23,3.03,1.72.09,2.25-1.97,1.23-3.03ZM269.81,8.42c-1.03,1.06-.49,3.12,1.23,3.03,3.54-.19,1.25-5.6-1.23-3.03ZM57.73,11.95c-2.3-3.19-7.85,2.43-4.4,4.98,2.97,2.2,6.84-1.59,4.4-4.98ZM251.18,13.63c-17.04,12.09.72,37.87,18.11,26.53,17.97-11.72-1.53-38.3-18.11-26.53ZM465.66,11.95c-2.44,3.39,1.43,7.18,4.4,4.98,3.45-2.56-2.1-8.18-4.4-4.98ZM246.16,13.09c-.15-.26-1.83-1.16-2.24-.69-.85.65-1.58,1.46-1,2.56.71.83,1.87,1.5,2.97,1.01.48-.35.55-2.39.28-2.88ZM274.88,13.09c-.28.49-.21,2.53.28,2.88,1.1.49,2.26-.17,2.97-1.01.58-1.1-.15-1.9-1-2.56-.41-.48-2.1.43-2.24.69ZM42.21,35.3l-25.01-17.98,17.99,24.43c.11.88-.13.47-.59.58-4.25,1.05-9.14,1.24-13.49,1.97l3.64,2.02c2.45.85,4.79,1.99,7.19,2.97.87.35,3.2.46,3.26,1.47l-13.71,20.13,20.12-13.7c.88-.06.73,1.64,1.07,2.47,1.45,3.53,2.85,7.27,4.57,10.67.21.41-.2.74.82.56.52-4.24.73-9.45,1.94-13.51.13-.44-.26-.69.59-.57l22.28,17.19.51-1.28c-5.01-6.57-9.52-13.64-14.79-20.01-.6-.72-1.15-1.13-1.95-1.58l.28-.97,13.8-1.97c-3.9-2.82-9.08-4.43-13.6-5.93l-.35-.92,13.95-19.73c-2.93.91-18.91,13.81-20.12,13.71-.97-.08-1.51-3.17-1.98-4.32-1.04-2.56-2.09-5.2-3.24-7.7-.27-.59-.65-1.87-1.24-2.08l-1.96,14.07ZM506.58,17.31l-24.42,17.99c-.88.11-.47-.14-.58-.59-1.07-4.22-1.11-9.18-1.97-13.49-.59.21-.96,1.49-1.24,2.08-1.15,2.51-2.2,5.15-3.24,7.7-.47,1.15-1.01,4.24-1.98,4.32-1.21.1-17.19-12.8-20.12-13.71l13.95,19.73c-.15,1.37-.94.83-1.82,1.18-4.04,1.66-8.63,3.11-12.14,5.66l13.8,1.97.28.97c-.8.45-1.35.85-1.95,1.58-5.15,6.23-9.51,13.15-14.5,19.51l.03,1.6,22.48-17.01c.85-.13.46.13.59.57,1.22,4.06,1.42,9.27,1.94,13.51,1.02.18.61-.14.82-.56,1.72-3.4,3.12-7.14,4.57-10.67.34-.84.19-2.53,1.07-2.47l20.12,13.7-13.71-20.13c.07-1.01,2.39-1.11,3.26-1.47,2.4-.97,4.74-2.12,7.19-2.97l3.64-2.02c-4.35-.73-9.24-.91-13.49-1.97-.46-.11-.7.29-.59-.58l17.99-24.43ZM239.68,21.54c.84,1.35,5.02.82,2.83-2.25-2.05-2.87-3.81.67-2.83,2.25ZM281.36,21.54c.98-1.58-.78-5.12-2.83-2.25-2.19,3.07,1.99,3.59,2.83,2.25ZM36.65,23.08c1.69-1.7-.87-5.74-3.16-4.23-2.83,1.87,1,6.41,3.16,4.23ZM490.06,18.98c-2.05-1.9-5.17,2.24-3.32,4.1s5.88-1.73,3.32-4.1ZM113.3,22.73c1.05-1.63-.56-2.81-2.14-3.04-3.37-.49-11.36-.81-14.82-.74-.52,0-2.47.4-2.51.89.46.65.49,1.89,1.15,2.34,1.42.97,12.34,1.57,14.66,1.39.61-.05,3.47-.57,3.65-.85ZM410.09,22.73c.97,1.51,16.64.59,18.31-.55.67-.45.69-1.69,1.15-2.34-.04-.49-1.99-.88-2.51-.89-3.46-.07-11.45.25-14.82.74-.51.07-1.76.34-2.01.73l-.13,2.31ZM124.01,21.9c1.34,1.12,10.13.74,12.22.87,15.65.94,31.64,1.31,47.28,1.61,3.86.08,4.84-3.02,1.95-3.54-7.27-1.32-16.37.42-23.84-.81-3.99-.16-8.08.3-12.06.27-7.46-.04-17.53-1.1-24.7-.28-1.27.15-1.89,1.01-.85,1.87ZM399.37,21.9c1.04-.87.42-1.73-.85-1.87-7.16-.82-17.24.23-24.7.28-3.97.02-8.07-.44-12.06-.27-7.47,1.22-16.58-.52-23.84.81-2.89.53-1.91,3.62,1.95,3.54,15.64-.31,31.63-.67,47.28-1.61,2.09-.13,10.88.25,12.22-.87ZM93.42,23.57c-.34,2.52-.37,5.09-.77,7.6-.23,1.41-1.73,6.2-1.52,6.97.13.46.61.74.92,1.06,2.13-2.18,2.77-6.17,2.91-9.16.03-.54-.03-8.28-1.54-6.47ZM429.97,23.57c-1.51-1.81-1.57,5.93-1.54,6.47.14,2.99.78,6.98,2.91,9.16.31-.32.79-.6.92-1.06.21-.77-1.29-5.56-1.52-6.97-.4-2.5-.43-5.08-.77-7.6ZM230.62,26.69h12.51v-1.17c-1.76-.04-3.49.38-5.25.4-1.11.02-6.38-.41-6.67-.26-.51.26-.69.42-.58,1.03ZM290.42,26.69c.1-.6-.07-.77-.58-1.03-.3-.15-5.56.27-6.67.26-1.77-.02-3.49-.44-5.26-.4v1.17h12.51ZM144.21,28.67c-1.26.11-2.44-.35-3.67-.43-9.94-.66-20.14.41-30.11-.08-2.95-.14-5.97-.25-8.8-1.08.5,4.76-.64,9.97-2.07,14.55-8.33,26.63-34.93,50.76-61.17,58.45-4.59,1.34-9.48,1.95-14.16,2.85.69,4.91.38,10.06-.02,15.03.86,10.26-1.06,21.12-.02,31.3.05.44.03.87.43,1.17,5.88,4.81,14.45,7.81,22.1,7.25,4.03-.29,12.55-2.19,15.93-4.32.53-.33,5.27-5.3,5.35-5.68.15-.73-1.39-.8-2.14-1.35-1.43-1.06-6.97-7.65-7.65-9.16-.5-1.12-.72-2.48.78-2.79,1.94-.4,6.07,4.64,7.49,5.84,15.26,12.91,35.5,4.62,48.05-7.77,7.74-7.64,10.03-22.57,6.84-32.66-1.5-4.77-4.63-9.31-7.07-13.67-2.61,1.2-5.47,2.14-8.38,1.95,3.98,4.18,9.23,7.31,10.77,13.27.64,2.48,1.12,8.66.47,11.07-.27,1.01-2.53,3.73-3.77,2.97-1.47-.9-.72-10.83-1.32-13.34-.92-3.81-7.54-8.69-9.88-12.03l.2-2.72c-4.68.17-8.67-2.57-12.78-4.41-1.3-1.36-.03-2.1-.5-3.39,1.08.34,1.18-.73,1.65-.93,1.67-.69,7.27,2.15,9.33,2.63,6.57,1.52,14.96-.33,19.09-5.91.34-.45.35-1.28.78-1.88,1.65-2.32,4.11-2.54,4.68-6.65.21-1.52-.66-3.81.8-4.27-.42-1.1-4.13-1.55-5.35-2.07-.77-.33-4.68-2.47-5.08-2.93-.89-1.01.21-3.38,1.17-3.33,4.66,1.02,8.95,3.02,13.78,2.68,9.69-.69,15.86-5.34,19.25-14.37.43-1.14.45-2.91.87-3.72.46-.89,3.71-2.98,4.26-1.22.19.59-1.03,6.25-1.34,7.17-1.71,4.94-7.23,11.84-11.79,14.4-2.99,1.68-7.25,3.02-10.68,3.2-.16,1.71-.19,3.85-.56,5.5-.81,3.62-5.22,8.92-7.65,11.89-1.15,1.41-2.75,2.49-3.84,3.98,1.86,3.69,3.83,7.35,5.61,11.09,1.25,2.62.57,3.29,3.84,4.76,4.23,1.91,7.59.3,11.62,1.76l-.08,1.63c-4.21,1.99-8.9,1.32-13.22.46l1.17,6.65c2.92-.35,5.89.87,8.8,1.16,13.86,1.41,28.35-4.5,38.51-13.85,3.83-3.52,6.4-8.24,6.87-13.48l-.43-.79-23.04,1.18c-1.83-4.15,3.29-3.98,6.02-4.52l26.91-9.64c-.03-1.61,1.25-3.05,1.41-4.56.12-1.1-1.16-7.69-1.96-7.86-3.01,1.25-6.05,2.54-9.26,3.25-2.69.59-11.52,1.76-13.56.43-2.18-1.42-1.08-4.13,1.38-4.47,4.22-.59,8.44.32,13.14-.9,10.77-2.81,20.15-13.89,19.42-25.26l-11.09-2h-40.21c-.92.22-.38,3.19-.48,4.12-.94,8.07-9.36,18.97-18.45,16.54-.88-1.25.28-1.64,1.28-2.28,4-2.53,5.98-2,8.78-6.55,2.21-3.59,3.54-7.57,2.73-11.79ZM422.15,27.09c-3.84,1.28-7.95.58-11.9,1.19l-73.82.45c-2.62.8-7.34,15.53-8.18,18.59-2.1,1.58-3.67-1.62-3.35-3.51.39-2.31,3.6-9.25,4.8-11.64.6-1.2,1.81-2.14,1.76-3.51l-6.25.97c-1.24,3.04-4.09,7.02-4.3.98-1.18.23-3.9.22-4.69.98-.34.33-2.33,6.16-2.63,7.15-12.53,42.13,14.54,85.83,57.82,92.85,29.6,4.8,59.87-9.23,75.11-34.96,1.28-2.16,6.34-12.2,6.04-14.13-.23-1.5-2.98-2.67-4.04-3.79l-2.15,2.54-.18-5.27-3.72-3.14c-.27,1.94-.9,3.84-1.56,5.68-.94,2.6-3.05,10.4-6.68,8.14-1.67-2.73,1.21-6.13,2.25-8.66,1.19-2.87,2.35-5.79,3.19-8.78-6.48-8.34-12.29-17.41-15.47-27.57-1.43-4.58-2.57-9.79-2.07-14.55ZM242.29,32.5c.92-2.77-2.45-4.83-3.26-1.69-.45,1.75,1.87,2.72,3.26,1.69ZM281.32,29.54c-1.5-1.3-3.32,1.3-2.56,2.96,2.2,1.54,4.57-1.21,2.56-2.96ZM195.83,68.13l32.81-11.95c3.51-5.71,5.21-12.25,7.82-18.36-.07-.96-10.01-2.35-11.42-2.64-6.31-1.28-12.65-2.88-19.06-3.42.52,9.65-4.98,17.63-12.04,23.63,1.47,4.18,3.13,8.29,1.88,12.72ZM309.97,32.56c-8.43.73-15.9,4.55-23.84,7.04-.18.2.91,3.23,1.1,3.78,2.43,6.82,7.66,15.52,9.2,22.11.19.81.35,1.44-.24,2.16-.46.16-1.13.46-1.6.38-.71-.13-10.54-6.91-11.94-7.94-3.06-2.24-6.44-6.06-9.82-7.77-.4-.2-.72-.26-1.16-.21l-3.52,22.68,37.75-2.72c.45-.67-.95-8.46-1.03-9.97-.32-6.22,1.36-12.05,1.36-18.22l3.74-11.31ZM242.93,35.4c-1.08.08-2.22,2.77-.31,3.35,3.27.99,2.19-3.49.31-3.35ZM278.12,35.4c-1.89-.15-2.96,4.33.31,3.35,1.91-.58.78-3.26-.31-3.35ZM245.66,39.33c-.82.09-1.21,1.61-.9,2.33,3.63,3.98,4.45-2.72.9-2.33ZM275.38,39.33c-3.55-.38-2.72,6.31.9,2.33.31-.73-.08-2.24-.9-2.33ZM251.14,42.81c-1.18.09-1.59,3.29.4,3.29,2.47-.27,1.09-3.4-.4-3.29ZM269.91,42.81c-1.49-.11-2.86,3.02-.4,3.29,1.98,0,1.58-3.2.4-3.29ZM257.5,45.15l-1.28-.77c-2.01,1.07-1.64,4.06,1.01,3.26l.27-2.49ZM259.54,45.26c-.53,3.39.39,8,0,11.53h1.95v-11.53c0-1.06-1.74-1.36-1.95,0ZM263.54,45.15l.27,2.49c2.65.8,3.02-2.19,1.01-3.26l-1.28.77ZM90.29,47.03l-1.76.39c-.44,2.07-6.84,11.7-6.7,12.72.05.38.6.66.84.96,1.97-.95,8.41-13.32,7.62-14.07ZM433.1,47.03c-.79.75,5.65,13.12,7.62,14.07.25-.3.79-.59.84-.96.13-1.02-6.26-10.65-6.7-12.72l-1.76-.39ZM250.16,52.89c-4.96.59-7.99,4.86-11.76,7.59-3.63,2.63-7.69,4.7-11.16,7.57-4.14-.34-1.06-4.21-.57-6.41.14-.61.05-.61-.54-.54l-54.14,19.15,81.69-4.69-3.52-22.67ZM32.17,74.51c-3.05,2.48-2.99,8.37.96,9.94,6.24,2.48,10.13-4.04,6.92-9.26-1.84-3-5.39-2.7-7.88-.67ZM491.22,74.51c-8.86-7.23-13.31,11.39-2.81,10.44,5.44-.5,6.56-7.38,2.81-10.44ZM293.55,76.74l-23.21.83-2.81.7-5.41,35.64c-.73.59-1.99.55-2.61-.2l-5.47-34.99-68.77,4.27c.12.48.64.57.61,1.19-.55,11.68-9.68,21.44-19.26,26.92-3.44,1.97-9.18,4.35-12.88,5.39-5.23,1.47-10.15,1.43-15.52.85-3.84-.42-7.87-1.3-11.58-2.29-.85,6.99-2.73,13.39-6.88,19.12-5.26,7.27-21.72,17.55-30.46,18.41-5.66.56-11.73-.92-17.13-2.37-3.8,5.41-7.71,8.69-14.09,10.67-7.66,2.38-15.51,2.48-23.31.69.42,1.9.03,3.52-.02,5.26-.66,24.29-.07,48.57-.11,72.91-.2,111.6-.77,221.85-.11,333.26.02,3.97-.38,13.98.35,17.16.06.28,1.52,3.3,1.66,3.43.64.58,3.64,1.42,4.65,2.01,2.68,1.56,8.05,7.16,10.21,9.7,9.08,10.65,14.61,23.24,13.88,37.54,3.07.58,6.54,2.27,9.17,3.92.58-1.3,3.3-1.81,4.69-1.95,17.15-1.71,28.69,5.76,37.18,19.89,2.67,4.44,4.4,9.62,6.02,14.52,6.86-2.4,14.88-2.01,21.89-.2,2.7.7,5.58,1.92,7.94,3.4,2.22,1.39,3.47,3.09,5.54,4.49,3.99-2.96,8.32-5.72,13.4-6.42,12.53-1.73,24.6,2.26,34.09,10.28.75.64,2.86,3.46,3.41,3.63,2.37.73,5.17-2.2,8.12-2.3,9.52-.32,18.3,7.02,24.25,13.7.64.72,1.39,2.38,1.92,2.77,1.08.78,4.4-.02,5.88-.04,13.81-.24,27.69,1.33,41.4,1.23.5,0,1.07.4,1.61.37.94-.06,2.12-2.96,2.77-3.89,6.69-9.66,17.16-13.83,28.87-12.95,3.64.27,7.19,1.4,10.77,1.97-.02-2.21.55-4.29,1.27-6.36,1.49-4.28,4.81-9.93,8.11-13,3.03-2.82,6.71-4.6,10.37-6.44.2-2.2-.09-4.16.24-6.41,2.24-15.11,10.8-26.81,26.15-30.14,2.87-8.54,10.34-15.23,19.52-15.86-.43-8.9,8.02-15.5,16.04-16.8-1.39-4.92-1.4-9.8,1.11-14.34,3.2-5.8,13.14-12.48,19.51-14.11.79-.2,1.6.03,2.39-.15,1.58-4.47,3.56-7.56,7.09-10.69,7.18-6.36,15.76-9.8,25.5-8.68,3.83.44,7.58,2.6,11.46,3.04l.53-.05.43-1.72c-.63-85.32.02-170.11.02-255.29,0-32.47,1.1-65.85-.43-98.14-.1-2.01.11-4.06.01-6.08-1.94,1.07-2.84,3.06-5.41,2.29-1.16-2.45.89-4.47,1.13-7.16,1.03-11.31-5.35-21.91-16.8-24.28-12.67-2.62-23.07,2.29-35.54-4.72-4.35-2.45-8.31-6.44-11.39-10.31,1.15,9.46,2.78,18.88,3.9,28.35.28,2.39.14,5.13.4,7.42,1.73,14.93,5.17,31.81,3.57,46.59-.11,1-.06,5.66-1.09,5.97-1.08.32-5.13-2.54-5.71-3.58l-21.5-56.31-14.37-35.86c-1.81,3.73-4.29,8.15-5.2,12.2-2.83,12.53,5.68,19.49,6.88,31.27,1.71,16.65-7.88,42.04-27.68,41.37-1.74-.06-6.7-.38-8.12-.87-.67-.23-1.14-.98-1.65-1.46.15-2.83,3.76-2.83,6.02-4.54,12.29-9.31,10.85-23.22,1.8-34.18-8.27-10.01-16.88-14.09-17.79-29.13-.52-8.67,1.75-17.95,7.42-24.63l-.58-.19-22.34,21.64c-6.22,7.1-12.75,14.05-19.11,20.96-6.86,7.47-16.09,19.26-24.3,24.96-1.67,1.16-3.79,2.89-5.99,1.83-1.84-.89-.93-5.2.5-6.16l49.14-83.56c-.57-.5-10.83,2.49-12.32,3.12-10.98,4.67-11.28,13.19-17.61,21.49-9.33,12.23-35.62,22.3-49,11.92-1.56-1.21-7.45-9.39-8.02-11.13-.5-1.54-.37-3.69,1.77-3.32.8.14,2.23,1.43,3.22,1.85,8.39,3.54,19.27.88,24.89-6.26,6.8-8.63,5.34-19.14,7.85-29.17,2-7.96,6.69-13.31,12.9-18.38l10.13-5.3ZM307.61,79.09c-4.44.64-8.61.33-12.88,1.76-9.84,3.29-18.29,11.3-20.48,21.64-2.59,12.23-.65,23.27-11.78,32.5-6.6,5.48-14.62,6.4-22.86,5.09,4.74,11.51,23.68,9.09,32.7,4.76,3.99-1.91,10.67-6.2,13.62-9.45,5.67-6.24,6.65-14.79,13.51-20.11,6.35-4.93,14.28-7.19,22.25-7.65-5.24-7.01-9.54-14.64-12.49-22.9-.48-.34-9.15,2.85-9.77.78-.83-2.8,7.09-4.16,8.97-3.28l-.79-3.12ZM48.46,88.47c-.76-.73-9.02,3.53-10.56,4.1-6.6,2.43-12.73,2.94-19.62,3.84-3.03,1.33-1.85,3.16-1.84,5.55.05,37.01-.05,74.88-.44,112.19-.05,4.47-.14,8.23-.41,12.53-.02.33.42,4.41.49,4.63.17.52.83.78,1.32.94,3.23-1.92,1.41-6.19,1.35-9.07-.24-10.82.31-21.63-.22-32.42l.29-91.47.59-.59c3.37-.45,7.09-.67,10.39-1.33s16.7-5.13,18.31-7.49c.32-.47.46-.8.36-1.39ZM506.45,97.22c-1.89-1.75-7.3-1.38-9.79-1.77-8.45-1.31-12.65-4.68-19.78-6.81-2.02-.6-2.8-.05-1.2,1.59,1.89,1.94,11.21,5.32,14.16,6.17,4.57,1.3,9.42,1.73,14.14,2.28l.59.59.29,91.47c-.53,10.79.02,21.61-.22,32.42-.06,2.88-1.89,7.15,1.35,9.07.49-.16,1.15-.41,1.32-.94.07-.22.51-4.31.49-4.63-.27-4.3-.37-8.06-.41-12.53-.39-37.3-.48-75.18-.44-112.19,0-1.13.5-2.19.46-3.14,0-.09-.89-1.53-.96-1.59ZM499.55,133.04v-10.75c-15.15-10.23-30.32-20.52-44.37-32.24l-8.8,15.43c-.14.87.22.47.57.63,1.19.54,7.39,2.26,6.05,4.23-2.95,1.21-5.86-1.73-8.7-2.34l-1.43,2.18,56.69,22.88ZM478.74,97.2c-3.69-1.45-6.44-2.8-9.96-4.35-1.48-.65-3.32-1.1-4.92-1.72-.28-.11-1.25-.83-.86.07l25.51,19.14c1.46.57,10.27,7.4,11.04,6.66-.45-4.64-.63-9.48,0-14.07-4.68-.9-9.58-1.5-14.16-2.85-2.24-.66-4.75-2.14-6.65-2.88ZM335.6,121.47c-1.56-1.23-3.1-2.52-4.72-3.68l-5.69-6.07-2.24.3-47.38,81.62,10.75-9.76c16.68-16.72,31.82-34.87,48.84-51.24.99-.96,6.87-5.65,6.84-6.44-2.08-1.67-4.33-3.08-6.41-4.72ZM439.35,114.66c-4.1.64-1.44,7.73-.2,10.17,2.3,4.56,6.47,8,10.36,11.13-1.17,1.4-2.27.77-3.66.14-3.62-1.63-8.23-6.35-10.08-9.85-1.13-2.14-1.33-4.15-2.19-6.03-.18-.4.08-.61-.66-.48-4.44,3.42-8.98,7.08-14.24,9.02-.18,3.06,2.31,5.8,1.52,8.95-3.16.17-4.04-4.17-4.71-6.61l-2.53.74c1.12,10.97,8.21,21.32,18.31,25.9,8.67,3.94,15.06,1.4,23.92,1.92,11.36.67,22,6.28,25.89,17.46,1.35,3.87,1.48,7.76,1.86,11.82.97-.37,1.51-2.81,1.85-3.04.41-.27,1.16.07,1.89-.65,3.47-3.37,2.05-14.16.87-18.51-2.19-8.06-8.92-18.13-15.85-22.85-6.46-4.4-15.24-4.73-21.01-9.48-5.74-4.73-9.89-12.53-11.33-19.75ZM499.49,136.22l-53.11-20.97c.99,3.69,2.54,8.11,4.92,11.1,4.03,5.06,11.68,5.56,16.71,8.31,3.73,2.04,11.01,7.34,13.75,10.48,1.47,1.69,2.01,3.46,3.16,5.05,3.41,4.72,5.86,6.8,7.48,12.85,1.61,6.07,1.59,16.49-.99,22.25-1.16,2.6-1.33,2.75-2.2,5.62-.26.86-1.19,1.36-1.38,2.56-.3,1.94.29,4.95.28,6.89-.56,112.77.29,224.86.08,337.88,0,4.46-.18,8.94-.12,13.39.03,2.89-.49,5.86.14,8.72,1.6-.5,1.92-2.05,3.64-2.81,2.18-.96,4.36-.64,6.66-.76l.47-.31.15-119.06c.26-94.67-.28-190.35.15-284.48.03-5.55.53-11.15.21-16.73ZM378.76,137.73c-2.61-.43-5.33-.42-7.96-.84-7.55-1.19-14.19-3.6-21.17-6.59-1.13-.48-2.16-1.26-3.2-1.91l-2.07,1.71c3.03.18,3.22,1.47,1.88,3.84-2.04,3.63-4.09,5.35-5.5,9.74-3.62,11.23-1.69,22.03,6.34,30.61,7.74,8.27,15.28,13.65,16.42,26.19.77,8.45-3.71,16.78-9.97,22.09-.5,1.16,4.31.84,5.05.75,6.8-.86,13.65-10.3,16.33-16.12,2.81-6.12,4.67-17.56,3.33-24.2-1.43-7.05-6.62-13.26-7.26-20.1-.64-6.92,1.62-14.06,4.83-20.09.36-.68,3.17-4.83,2.94-5.07ZM406.09,134.62c-3.75.48-7.4,1.69-11.15,2.27-1.75.27-10.78.65-11.28,1.23-.23.26-.58,1.41-.56,1.77,5.65,11.79,9.57,24.33,14.25,36.53,6.41,16.72,13.26,33.28,19.54,50.05l.97,1.17c-.64-8.4-1.28-16.83-2.39-25.17-2.72-20.42-7.12-40.51-8.94-61.04-.2-2.26.41-4.65-.43-6.82ZM28.81,591.54l1.48-1.86c.3-124.29.5-248.29.19-371.59-.04-16.4-.26-32.87,0-49.3.03-1.74,1.01-8.17.02-8.98-.34-.28-1.19-.32-1.7-.65-1.53-1-2.89-2.27-4.56-3.06l.38,435.32,4.19.12ZM17.97,238.99c-.28-.25-1.46.47-1.74.8-1.06,1.27-.48,8.7-.23,10.75.15,1.22,1.08,2.14,1.67.86.67-1.46.93-11.84.29-12.41ZM505.81,251.89l1.19-.17c.38-2.28,1.48-9.89.33-11.71-.32-.51-1.09-.97-1.71-1.02-1,.02-.47,12.48.2,12.91ZM19.06,258.24c-6.55-1.94-7.36,8.29-1.33,7.62,3.25-.36,2.65-5.66,1.33-7.62ZM504.33,258.24c-1.32,1.96-1.93,7.26,1.33,7.62,6.03.67,5.22-9.56-1.33-7.62ZM19.06,272.32c-1.83-2.53-5.85,2.39-2.66,4.36,2.28,1.4,3.95-2.57,2.66-4.36ZM507.22,272.36c-2.53-2.68-4.71,2.67-2.31,4.19,2.21,1.4,4.54-1.83,2.31-4.19ZM15.93,360.28c-.44-.45-1.74-.59-2.37-.42-1.13.31-.66,1.22-.79,1.42s-.87.25-1.02.71c-.87,2.71,4.36,6.39,5.28,1.71.1-.52-.83-3.16-1.1-3.43ZM510.62,361.28c-.13-.2.34-1.11-.79-1.42-.63-.17-1.92-.03-2.37.42-.15.15-1.19,2.91-1.17,3.17.31,3.98,5.59,2.74,5.38-1.14-.05-.86-.88-.76-1.05-1.03ZM16.71,372.41c-1.8-1.68-6.36.44-7.23,2.55-1.07,2.61.44,6.67,3.32,7.42,3.78.98,6.07-2.16,5.56-5.53-.09-.57-1.36-4.17-1.65-4.44ZM511.54,372.44c-1.06-.52-3.68-.8-4.69-.16-.51.32-1.74,4.12-1.82,4.92-.13,1.28.83,4.39,2.04,4.99,4.15,2.07,8.56-3.06,6.85-7.24-.15-.36-2.15-2.4-2.37-2.51ZM16.32,389.19c-5.25.69-1.85,8.18,1.86,5.02,1.09-.93,1.46-3.03.62-4.12-.57-.74-1.59-1.02-2.48-.9ZM506.09,389.19c-3.2.58-2.15,6.39,1.38,5.74s2.69-6.48-1.38-5.74ZM499.15,614.71c-.79-4.46-.04-8.99.01-13.46.1-8.21.51-16.89.02-25.04-.13-2.22-1.69-3.19-3.35-4.5-10.81-8.52-19.9-13.21-34.28-10.44-9.18,1.77-13.77,6.49-17.55,14.5-1.66,3.51-4.71.54-8.24,1.51-8.66,2.39-15.65,9.56-15.19,18.88.07,1.44,1.17,5.31.62,6.43-.73,1.47-2.13.76-3.03.91-7.49,1.25-14.03,4.3-15.14,12.63l.36.74c4.88.14,9.69,2.72,13.49,5.66,4.2-4.99,10.34-5.56,16.22-3.51.32-2.75,1.73-5.61,3.21-7.94,6.18-9.76,18.59-15.9,30.03-12.2,4.75,1.54,7.79,5.42,9.77,9.8,2.37-.34,3.91-1.45,6.46-1.42,7.46.07,10.53,1.85,15.5,6.8.34.34.33.86,1.1.66ZM14.96,568.08c2.09,2.58,6.73-.89,4.19-4-2.55-2.16-6.17,1.55-4.19,4ZM507.27,563.61c-3.67-1.56-5.38,4.46-1.48,5.22,2.08.4,3.69-1.46,3.08-3.49-.03-.11-1.5-1.68-1.61-1.73ZM18.76,613.34v-34.8c0-.55-1.94-1.09-2.29.06-.41,1.34-.43,5.03-.47,6.61-.2,9.25.93,18.79.42,28.13.08,1.61,2.08.91,2.34,0ZM504.63,578.55v34.8c0,.44,1.98,1.93,2.34,0-.52-9.34.62-18.88.42-28.13-.03-1.58-.06-5.26-.47-6.61-.31-1-2.06-.81-2.29-.06ZM38.93,601.58c-3-2.03-8.98-4.74-12.57-4.86-.67-.02-1.43-.11-1.68.65l-.06,4.83c4.92.07,9.75,2.34,13.48,5.48,2.34,1.98,8.6,9.46,8.78,12.34.11,1.68-1.28,2.41-2.64,1.64-.55-.31-2.8-5.88-3.66-7.09-2.85-4.01-9.79-8.93-14.8-9.08-.36-.01-.62-.35-.98.22l.25,27.53c2.72,11.1,6.92,22.2,12.26,32.3,2.78,5.26,6.39,10,9.23,15.22,9.54-5.3,23.24.27,29.66,8.14,1.95,2.39,8.43,12.55,5.79,15.25-4.94,1.91-4.12-2.92-5.19-6.16-3.86-11.63-16.35-17.49-27.94-14.86l.08.9c11.83,17.86,28.36,32.42,47.4,42.14,6.43-2.03,13.24-2.67,19.78-4.11,3.86-.85,7.68-2.4,11.63-3.23,18.25-3.85,37.68-5.59,56.18-7.93l25.99-1.18c-1.36-5.93-5.52-8.88-9.63-12.65-.59-.54-.95-1.6-1.61-2.22-6.97-6.52-24.65-10.02-33.55-6.28-1.37.58-2.1,2.23-4.07,1.99,1.68,3.55,4.78,8.94,1,12.03-2.19.33-3.39-4.78-4.18-6.23-2.65-4.83-9.44-10.9-14.89-12.55-6.3-1.92-13.58-1.96-19.88-.05-.64,2.75.19,11.52-2.81,12.77-.85.35-1.69-.22-1.84-1.09-.66-3.71.08-8.41-.48-12.03-.35-2.23-3.04-8.81-4.13-11.12-4.23-8.98-11.71-17.87-21.5-20.72-4.22-1.23-9.05-1.76-13.37-.9,1.55,3.59,5.52,7.38,2.68,11.27-2.08,1.33-4.42-4.16-5.48-5.56-.64-.85-3.64-4.62-4.27-5.1-1.27-.95-8.5-4.03-10.14-4.36-1.92-.39-8.28.38-9.27-.69-.09-.09-.11-.58-.27-.89-.25-.48-.94-.42-.08-1.98,1.36-2.48,6.46-.92,8.85-1.3,1.38-1.39-3.66-17-4.7-19.36-3.12-7.06-10.73-16.68-17.34-21.15ZM472.35,610.97c.25-.26.93-.49.96-.74-2.76-7.27-9.84-9.01-16.91-7.98-9.43,1.38-17.73,8.44-20.94,17.3,7.77,4.38,12.91,13.96,10.93,22.91,16.53-2.46,32.46,7.96,40.45,21.89,5.47-6.27.19-11.91-4.28-16.65-1.57-1.66-4.02-2.59-4.45-4.99.38-1.99,4.27.24,5.21.92,1.95,1.42,3.53,4,5.28,5.67l3.12,4.89c1.61-3.72,3.2-7.55,4.42-11.42,3.95-12.62,6.62-28.36-10.54-30.64-6.69-.89-13.3,2.58-17.91,7.26-2.26-3.94,2.57-6.22,4.66-8.43ZM416.45,627.85c-3.68-3.87-10.99-6.95-16.37-6.28-7.48.93-12.37,4.75-16.63,10.74,4.33.26,8.13,1.14,12.07,2.99,1.54.72,9.03,4.36,6.51,6.44-.9.74-8.86-3.64-10.76-4.15-13.01-3.5-25.01,3.49-30.57,15.17-1.38,2.9-3.16,7.84-3.44,11.03-.12,1.4-.09,2.92.34,4.27.49.7,6.33-.93,7.67-.94.83,0,2.87.31,3.86.44,1.07.14,5.8.95,6.08,1.76.39,1.17-.75,2.17-1.81,2.41-2.7.6-7.44.15-10.43.52-1.86.23-7.1,1.96-9.05,2.68-7.69,2.84-13.5,10.58-15.62,18.39-1.59,5.83,2.24,4.75,5.28,8.12.48.54,2.24,3.28,2.27,3.89.09,1.91-3.69-.39-4.63-.86-8.19-4.04-11.53-6.1-21.3-6.24-9.12-.13-18.9,3-22.86,11.9,2.08-.19,4.09.45,6.13.61,6.03.49,12.22.51,18.3.95,18.51,1.32,37.06,2.37,55.45,4.75,1.26.16,4.05,1.04,4.99.92,1.36-.18,1.15-3,1.58-4.18,6.74-18.71,26.26-28.5,45.6-23.9,1.82.43,3.32,1.11,4.95,1.98,2.23-2.22,5.82-3.64,8.88-4.3,4.2-.9,13.98-.58,17.63,1.73,1.21.77,5.88,6.3,6.31,6.19,1.36-2.05,10.66-13.55,10.31-14.95-.27-1.08-2.76-3.74-3.65-4.61-3.36-3.31-9.64-8.17-14-9.83-1.1-.42-7.15-2.14-7.7-1.48,1.7,1.17,4.33,9.03,2.7,10.12-1.96,1.31-3.62-4.17-4.27-5.16-2.28-3.48-10-7.09-14.05-7.93-9.87-2.04-21.39,2.64-26.99,10.97,2.21.71,5.62,1.87,6.15,4.41.8,3.83-4.26.93-6.4.54-2.83-.52-5.58-.81-8.34.15-1.59.55-5.1,3.78-6.09,1.74-1.69-3.49,7.96-7.62,10.72-7.08,1.39-4.43,5.86-8.05,9.69-10.44,8.51-5.31,18.2-7.48,27.88-3.78,1.17.44,4.63,2.71,5.33,2.82.61.1,2.03-.38,3.09-.31,11.99.88,21.07,7.07,28.13,16.44,2.18-1.95,3.24-4.6,4.74-7.03l.07-.87c-4.64-12.93-19.5-23.24-33.36-22.61-2.4.11-5.66.82-8.08,1.3-.94.19-7.42,2.7-6.8.25,1.34-2.31,4.27-3.61,6.87-3.9.53-3.99.6-7.14-.97-10.93-3.65-8.83-13.98-13.07-22.47-8.21.27,2.11,2.83,3.75,2.33,5.96-.02.07-.95,1.07-1.03,1.08-1.75.22-3.17-2.54-4.27-3.69ZM19.83,624.98c-3.12-1.69-6.55.21-5.34,3.95,1.84,5.68,8.21,1.15,5.34-3.95ZM508.01,630.61c2.44-2.48,1.08-6.55-2.81-6.32-2.44.14-2.73,4.26-1.77,5.9.96,1.64,3.32,1.7,4.58.42ZM20.3,642.1c-1.51-.22-2.59.96-2.65,2.42,5.17,21.79,16.16,42.21,30.84,59.02,7.03,8.05,22.47,22.46,32.74,25.23,2.32.62,4.15-.91,2.41-2.42-.79-.69-5.42-2.41-6.9-3.27-23.81-13.81-48.19-47.8-55.05-74.35-.58-2.23-.46-4.51-1.39-6.63ZM504.9,642.59c-.49-.41-1.18-.59-1.81-.49-.93,2.12-.81,4.39-1.39,6.63-6.86,26.55-31.24,60.54-55.05,74.35-1.48.86-6.11,2.58-6.9,3.27-.95.83-.77,2.02.28,2.54.8.39,1.35.1,2.12-.11,10.9-2.93,27-18.42,34.32-27.08,13.93-16.48,24.26-36.11,29.26-57.17.08-.57-.45-1.61-.84-1.93ZM10.94,659.68c-1.24.14-1.82.48-1.97,1.74-.5,4.17-.29,13.23.04,17.58.1,1.29,1.27,2.27,2.22,1.31,1.53-1.54.17-5.18.11-7.14s.31-12.99-.4-13.48ZM513.91,680.31l.49-19.27c-.12-.91-1.11-1.32-1.95-1.37-.71.5-.33,11.59-.4,13.48-.05,1.58-1.77,7.42.98,7.46l.88-.31ZM458.74,693.46c-3.78-2.75-11.83-3.7-16.27-2.72-1,.22-5.9,1.69-5.81,2.68.97,1.53,3.04,4.58,3.08,6.37.04,1.46-.94,2.75-2.37,1.54-2.96-2.48-2.86-6.13-8.09-7.93-15.68-5.4-36.16,4.27-41.63,19.91-.64,1.83-1.91,4.71.4,5.3,8.44,2.15,17.8,3.14,26.38,4.89,4.31.88,8.61,2.09,12.85,3.23,7.74-5.09,16.01-9.52,23.2-15.46,2.74-2.27,9.27-7.95,11.28-10.59.54-.71,1.29-1.41.99-2.41-1.47-1.21-2.59-3.78-4.01-4.81ZM10.4,810.06c.88-1.97.14-3.57.18-5.52.44-22.23.89-44.59,1.16-66.85.07-5.98-.1-12.01-.03-18.03.1-8.11,1.37-19.13.36-26.91-.07-.54-.4-2.07-.96-2.19-.72.11-1.84.72-2.05,1.43-.27.91-.41,5.16-.46,6.55-1.43,36.15-.07,72.55-1.16,108.73-.05,1.71-1.36,3.34,1.41,3.7.55.07,1.35-.47,1.55-.92ZM513.72,810.87c.66.23,1.16.11,1.76-.18,1.6-.77.49-2.07.47-3.41-.51-36.1.27-72.62-1.16-108.73-.05-1.38-.19-5.64-.46-6.55-.21-.71-1.33-1.32-2.05-1.43-.56.12-.89,1.65-.96,2.19-.61,4.73-.09,12.09-.05,17.12.26,31.38.92,63.19,1.55,94.66.03,1.45-.86,5.69.9,6.32ZM236.09,708.16c-7.25-5.46-15.47-8.42-24.62-7.04l3.35,8.56c3.81-.35,7.84-.58,11.68-.64,2.92-.04,6.01.84,9.03-.09.55-.17.69.23.57-.79ZM435.83,826.23c.74.75,5.86-5.11,6.28-6.03,1.85-4.11,1.6-10.22,2.5-14.7,2.81-13.99,11.8-28.45,15.57-42.29,2.9-10.63.8-15.14-8.2-20.58-13.75-8.31-33.12-12.87-48.91-15.59-16.54-2.86-33.19-5.72-49.92-7.54-48.07-5.21-98.74-5.74-146.99-3.51-5.72.26-12.27.16-17.96.77-2.02.22-3.89,1.62-5.89,1.92-5.6.84-12.87.36-18.73.82-26.55,2.06-57.2,7.54-82,17.29-4.13,1.62-16.11,7.45-18.66,10.66-5.16,6.51-1.58,15.99.99,22.86,4.25,11.37,11.27,24.91,13.37,36.67.72,4.04.59,10.31,2.49,13.85.33.61,3.59,4.29,4.25,3.83,1.9-8.94,10.71-10.25,17.62-13.86l17.19-5.29c.37,4.4-.53,8.74-.77,13.1-.2,3.63.28,11.96-1.15,14.88-.17.35-.21.77-.64.94-.6.13-3.84-2.12-5.08-2.31-11.54-1.79-29.74,3.01-35.04-10.7-1.76-4.57-1.57-9.33-2.38-14.04-.97-5.59-3-9.56-4.88-14.67-1.98-5.38-3.93-10.76-5.99-16.1-12.79.69-25.82,2.42-37.47,7.97,3.57,5.03,5.56,10.57,5.87,16.8.54,10.78-4.24,20.87-5.47,31.31-.54,4.54-.23,8.61.77,13.08,9.58-3.25,19.56-6.79,29.9-7.06s21.91,1.15,32.45,1.97c8.07.62,27.49,2.21,31.53-6.77,3.44-7.64-2.85-26.53,7.14-30,49.9-8.49,99.65-9.12,150.12-7.01,34.64,1.45,68.43,1.64,103.01,6.05,4.61.59,9.76,1.57,14.17,2.64,2.32.56,3.74,1.52,5.07,3.53.77,8.1.41,17.24,2.66,25.1.9,3.16,2.85,3.97,5.85,5.1,7.85,2.94,16.28,1.98,24.41,1.36,23.07-1.76,36.23-3.68,58.84,3.72.94.31,1.89,1.44,3.11,1.37,4.97-18.25-8.72-34.17-3.01-52.86.99-3.25,3.28-5.84,4.19-8.91-5.34-1.47-10.51-3.78-15.94-4.98-6.95-1.53-14.29-1.74-21.35-2.48-2.07,5.2-3.84,10.53-5.79,15.78-1,2.69-2.54,5.18-3.41,7.93-1.59,5.06-1.63,9.73-2.47,14.74-3.75,22.43-21.1,14.11-36.86,17.31-1.22.25-2.22.78-3.29,1.36-2.92-8.54-3.51-17.64-4.3-26.58,7.19,1.03,14.35,3.6,20.98,6.57,4.85,2.18,14.68,5.82,12.24,12.58ZM244.59,804.24c.2-.18.2-.68.48-.89-.36-.49-.96-.67-1.53-.8-1.71-.4-6.34-.5-8.41-.58-13.02-.5-27.82-.63-40.77-.28-6.05.17-12.14.85-18.16,1.48-2.21,2.61-.73,3.63,2.26,3.52,5.31-.19,10.68-.88,15.99-1.21,15.36-1.02,33.44,1.57,48.49-.77.54-.08,1.24-.08,1.66-.47ZM166.41,808.53c.67-.59,1.43-3.38.1-4.02-.29-.14-5.55.16-6.44.22-7.52.54-15.34,2.81-22.97,3.22-3.93.32-5.99,4.87-.48,4.6s12.5-2.06,18.36-2.75c2.16-.25,10.17-.16,11.43-1.28ZM339.26,805.16c-.33-.51-10.32-.99-11.49-.8s-2.5,1.1-2.2,2.48c.22,1.02,8.6,1.5,9.99,1.4,2.3-.17,3.99-.48,3.7-3.08ZM393.93,810.27c-1.79-.08-3.57-.93-5.25-1.2-10.95-1.77-23.69-3.31-34.74-3.96-1.9-.11-7.55-1.89-7.62,1.41-.04,1.91,2.17,1.86,3.76,2.07,11.92,1.57,24.56,2.14,36.64,3.62,1.09.13,5.72,1.22,6.12.94.23-.16.27-.67.45-.92l.71.33-.07-2.28ZM95.37,820.36c4.15-1.24,8.21-2.73,12.42-3.8,2.03-.52,7.57-1.13,8.79-1.76,1.29-.67.77-1.9-.64-1.85-3.8.15-12.69,2.87-16.58,4.18-1.66.56-4.47.98-4,3.23ZM405.24,813c-1.25.34-1.22,1.25.02,1.79,2.02.89,7.28,1.45,9.95,2.17,3.11.85,7.19,2.72,10.06,3.24,1.8.33,1.29-1.06-.1-1.86-2.99-1.73-11.11-3.68-14.72-4.43-.91-.19-4.69-1.04-5.2-.9ZM11.72,828.77c-.25-2.48.18-5.3,0-7.82l-.91-.53c-2.2.61-2.46,1.94-2.6,4.06-.47,6.93,1.84,15.4,5.92,21.04,1.17,1.62,2.32,3.17,4.44,3.24,3.26-.48-2.64-7.22-3.23-8.37-1.37-2.68-3.33-8.68-3.63-11.62ZM511.66,820.95v7.82c0,2.16-2.54,9.49-3.63,11.62-.59,1.15-6.48,7.89-3.23,8.37,2.13-.07,3.27-1.63,4.44-3.24,4.08-5.64,6.39-14.1,5.92-21.04-.14-2.11-.4-3.45-2.6-4.06l-.91.53ZM93.03,820.76c-2.37-.85-4.25,4.23-2.14,4.69.9.2,2.5-4.33,2.14-4.69ZM429.97,825.45c3.28.01,1.09-5.36-1.57-4.69-.27,1.82,1.67,2.85,1.57,4.69ZM493.68,853.99c-2.08-.32-3.66.97-5.65,1.36-2.58.5-9.72.28-11.29,2.13-1.66,1.95,4.19,1.68,5.38,1.6,3.21-.2,11.56-1,11.56-5.09ZM39.2,858.95c.67.56,2.29.84,3.19.92,7.5.63,20.55.39,28.16-.41,2.4-.25,4.34-2.41,1.58-2.75-10.82-1.33-22,.4-32.87-.61l-.96,1.2c0,.31.64,1.44.9,1.65ZM99.22,860.19c1.24-2.63-.17-2.71-2.36-3.18-2.03-.44-8.28-1.06-10.29-1-1.62.05-4.16,1.25-2.11,2.87,2.14,1.7,11.62.81,14.77,1.31ZM466.71,858.29c-3.61-.95-7.2-.38-10.71-.46-17.37-.39-34.9.22-52.42.24-88.07.06-175.72-.57-263.82-.16-10.33.05-20.66.19-30.9-.8l.2,1.17c-2.6.17-1.88,2.6-.61,3.96.55.58,3.68-.41,4.7-.45,15.62-.65,31.42.31,47.01.31,91.17,0,182.12-1.02,273.16-.7,10.62.04,21.32.89,31.94,0,.97-.82,1.5-1.76,1.46-3.11Z"/>
          <path class="cls-2" d="M88.73,742.95c-.88-.98,3.29-3.9,4.02-4.38,12.2-3.56,24.25-7.76,36.61-10.69,8.54-2.02,17.89-4,26.6-3.9.76.44.7,2.31.36,3.09-1.07,1.52-4.07.82-5.65,1.03-21.03,2.75-41.37,10.14-61.96,14.85Z"/>
          <path class="cls-2" d="M219.97,792.12c-.85.71-11.06,1.53-13,1.65-4.95.32-10.34.04-15.24.4-7.21.53-13.97,2.16-21.51,2.18-.35,0-1.72-.14-1.77-.43-.33-1.81,1.6-2.11,3.04-2.43,10.93-2.46,24.21-2.81,35.47-3.62,3.01-.22,10.17-1.68,12.82-.31.98.51.79,2.05.18,2.56Z"/>
          <path class="cls-2" d="M95.74,835.64l.02,1.14c-8.41.75-16.56-1.96-24.82-2.73-6.21-.58-16.13-.46-22.24.43-1.51.22-9.8,2.52-10.4,1.92l.47-2.66c18.69-6.07,38.17-.86,56.96,1.91Z"/>
          <path class="cls-2" d="M397.14,801.98c-1.24-1.57,5.48-1.21,6.05-1.16,5.29.4,20.34,4.53,25.23,6.82,1.06.5,5.29,3.03,6.06,3.71,1.02.9,1.54,3.86-.1,4.27-1.76.28-2.16-1.55-3.05-2.29-9.03-7.5-23.53-7.01-34.2-11.34Z"/>
          <path class="cls-2" d="M94.2,809.8c.07-1.56,1.89-2.68,3.2-3.24,4.4-1.88,18.62-5.87,23.28-6.43,2.24-.27,3.52.68,1.63,2.42-1.41,1.3-13.01,3.78-15.79,4.54-1.9.52-11.26,4.21-12.33,2.71Z"/>
          <path class="cls-2" d="M492.51,839.91c-3.01.3-5.61-1.56-8.42-2.32-2.73-.74-9.41-1.42-11.26-2.81-1.11-.84-1.31-1.61.06-2.2,2.5-1.08,17.41,2.89,19.25,4.8.53.55-.05,1.78.37,2.53Z"/>
          <path class="cls-2" d="M472.44,780.16c2.59-.87,9.19,1.08,11.85,2.1,2.13.81,9.38,3.58,5.35,5.99-5.49-2.87-11.53-4.32-17.45-6.01l-.71-.76c.19-.49.42-1.13.96-1.31Z"/>
          <path class="cls-2" d="M49.58,780.15l.44,1.89c-4.35,1.31-8.8,2.42-13.1,3.91-1.07.37-5.47,2.83-6.02,1.93-1.36-2.25,3.28-4.23,4.67-4.84,4.27-1.89,9.32-3.38,14-2.89Z"/>
          <path class="cls-2" d="M75.71,748.7c-1.6,1.28-4.04,2.2-5.71,3.48-1.47,1.12-2.45,2.88-4.2,3.63l-.92-.55c.94-3.66,4.21-6.77,7.3-8.71,1.84-1.16,5.49-3.97,6.21-.45-1.23.44-2.03,2.09-2.68,2.61Z"/>
          <path class="cls-2" d="M446.78,834.44c-.15-1,.62-1.01,1.3-1.24,2.31-.77,6.56-.94,9.07-1,1.42-.03,8.97.29,9.17,1.27-.93,2.4-3.87.99-5.65.96-4.62-.09-9.27.1-13.89.01Z"/>
          <path class="cls-2" d="M90.95,812.43c-.41.46-1.58.86-2.23,1.48-2.11,2.01-3.17,4.34-6.64,4.5-.75-3.12,3.18-5.62,5.59-6.72.87-.4,3.77-1.79,3.73-.18-.11.33-.22.66-.46.92Z"/>
          <path class="cls-2" d="M170.72,723.89c.35.29.53,2.28.29,2.63-1.15,1.64-9.12,1.85-7.04-1.56.67-1.1,5.79-1.89,6.75-1.07Z"/>
          <path class="cls-2" d="M378.42,799.6l-.05-1.52c2.94-.1,6.64-.83,9.52.06.93.29.81,1.5.29,2.12l-1.04.56-8.72-1.23Z"/>
          <path class="cls-2" d="M111.01,835.61c.86,2.31-5.97,2.18-6.25,1.95-.22-1.81,5.96-2.22,6.25-1.95Z"/>
          <path class="cls-2" d="M443.64,86.9c.11.58.36,1.02.31,1.65-.43,5.75-7.17,14.82-11.24,18.88-1.49,1.48-11.12,9.67-12.4,9.9-1.69.3-2.61-1.53-1.7-2.89.64-.97,5.56-4.15,6.86-5.26,6.83-5.84,11.64-12.11,15.9-20.06l2.27-2.21Z"/>
          <path class="cls-2" d="M343.08,113.99c-.37-.33-.95-.28-1.33-.63-1.45-1.34-4.89-3.99-3.84-6.13l.87-.73c1.52-.37,8.15,5.91,9.92,7.15,1.41.99,3.27,2.29,4.78,3.04,2.09,1.04,9.86,3.02,10.37,4.9.88,3.25-3.27,2.9-5.3,2.15-6.25-2.33-10.65-5.5-15.47-9.75Z"/>
          <path class="cls-2" d="M328.3,82.96c-1.93.19-3.38-.91-4.16-2.61-1.92-4.19-2.58-16.65-1.96-21.3.34-2.5,1.69-4.64,3.24-6.55,3.06.97.78,5.4.57,8.02-.26,3.42.03,7.44.49,10.84.39,2.9,2.06,7.48,2.22,9.91.04.59-.23,1.15-.41,1.69Z"/>
          <path class="cls-2" d="M381.17,124.88c.35-.23,7.07-.3,8.34-.45,3.53-.44,7.09-1.3,10.46-2.44,2.03-.68,8.72-4.14,9.91-4.21.8-.05,1.36.34,1.67,1.06.43,1.72-3.59,4.06-4.94,4.7-5.44,2.59-16.69,5.48-22.54,4.38-1.17-.22-4.77-1.85-2.89-3.05Z"/>
          <path class="cls-2" d="M316.63,53.29c2.99-.18,1.2,3.32,1.14,5.25-.26,7.53,1.13,15.76,3.25,22.98.25.87,3.2,6.16,1.25,6.56s-4.74-7.38-5.16-8.91c-2.18-7.98-3.84-18.11-.49-25.87Z"/>
          <path class="cls-2" d="M339.17,92.89c1,.91,2.81,4.63,3.87,6.1.7.97,4.1,3.83,3.25,5.08-2.27,1.18-4.55-.66-6.35-1.99-1.79-1.32-6.75-5.89-6.14-8.25.02-.09,1.18-1.36,1.26-1.41.31-.16.78.37,1.03.26.1-.05-.09-.74.63-.74.58,0,2.01.55,2.44.94Z"/>
          <path class="cls-2" d="M373.96,115.92c2.23-.52,3.56.21,5.48.61.72.15,1.68-.72,2.26.48,1.5,3.14-6.94,3.67-8.79,2.14-1.32-1.09-.44-2.88,1.05-3.23Z"/>
          <path class="cls-2" d="M431.8,89.29c1.06-.29,1.73.95,1.52,1.91-.26,1.25-3.07,5.47-4.25,5.97-1.5.63-2.38-1.65-2.03-2.83.19-.65,4.23-4.91,4.76-5.06Z"/>
          <path class="cls-2" d="M334.14,44.61c-.24.15-1.31.16-1.46.03-1.32-1.56,2.58-8.82,3.67-8.56.59.14.91,1.39.83,1.97-.07.48-2.72,6.38-3.03,6.57Z"/>
          <path class="cls-2" d="M318.86,46.53c-1,1.08-2.16.04-2.2-1.26-.02-.9,1.39-5.34,2-5.97.83-.86,2.18.27,2.17,1.19,0,.32-1.76,5.81-1.97,6.04Z"/>
          <path class="cls-2" d="M326.03,93.97c1.14-.83,5.47,2.51,5.05,4.06-.66,2.44-7.14-2.54-5.05-4.06Z"/>
          <path class="cls-2" d="M192.7,38.42c.84,2.06-1.4,4.93-2.74,6.46-4.96,5.63-14.3,8.41-21.57,9.33-2.43.3-4.84-.01-7.24-.24-.61-.96-1.97-1.85-1.68-3.17.06-.27.69-.18.76-.5.04-.2-.34-.69-.19-.94.35-.58,3.54-1.19,4.3-1.16,1.04.04,2.19.62,3.21.65,5.44.15,12.22-2.17,16.68-5.01,1.07-.68,7.74-6.09,8.47-5.41Z"/>
          <path class="cls-2" d="M57.02,144.81c2.32,4.74-4.08,6.2-7.69,6.88-4.45.83-14.98.53-12.11-6.44,2.42-1.19,4.83.59,7.23.99,4.66.78,8.11-.53,12.57-1.43Z"/>
          <path class="cls-2" d="M163.98,93.22c1.97,1.69-.36,3.97-1.8,5.18-3.55,3-11.46,5.46-16.1,4.83-2.73-.37-2.84-3.76-1.6-4.51,2.48-1.5,7.53-.68,10.71-1.44,3.19-.76,5.82-2.77,8.78-4.06Z"/>
          <path class="cls-2" d="M51.98,104.11c.41,5.6-6.37,11.51-11.58,12.08-1.84.2-9.69-1.85-10.24-3.77-.36-1.27.22-2.76,1.69-2.82.76-.03,1.92,1.13,2.82,1.47,4.63,1.75,8.6.79,12.24-2.46,1.77-1.59,2.59-4.48,5.08-4.5Z"/>
          <path class="cls-2" d="M99.13,130.82c-.13-.24-.76,0-.63-.32.75-.45.9-1.69,1.38-2.14.57-.55,1.5-.51,2.13-1,1.41-1.1,3.69-3.17,4.87-4.5,1.21-1.35,2.03-4.55,3.97-3.13,2.56,1.87.1,5.12-1.23,7.03-1.79,2.55-4.81,6.08-8.18,5.93-2-.09-1.55-.51-2.3-1.86Z"/>
          <path class="cls-2" d="M155.56,46.24c2.1,6.7-4.24,12.38-9.5,15.32-.93.52-3.34,1.94-4.18.92-1.72-2.08.64-2.29,1.69-3.02,3.46-2.37,7.23-4.86,9.27-8.71.4-.75,1.53-5.35,2.72-4.51Z"/>
          <path class="cls-2" d="M58.18,117.06c1.04,2.19,2.35,4.48,3.99,6.28,1.73,1.9,5.71,3.5,3.27,6.54-2.67,1.93-6.56-2.97-7.75-5.1-1.24-2.22-2.15-4.55-1.82-7.15l2.31-.58Z"/>
          <path class="cls-2" d="M80.33,83.78c.47-.1,2.1,2.17,2.73,2.72,1.06.91,4.18,2.74,5.47,3.16,2.14.7,5.91-.31,5.08,3.5-.51,1.14-4.54.35-5.6.1-1.7-.4-3.27-.92-4.74-1.89-2.15-1.41-6.08-5.38-2.94-7.6Z"/>
          <path class="cls-2" d="M81.99,134.7c.67.77-.19,2.43-.37,3.34-1.5.54-3.08.66-4.64.31-2.07-.47-8.26-4.44-6.63-6.98,1.99-1.52,4.19.93,6.05,1.69.95.39,5.31,1.32,5.59,1.64Z"/>
          <path class="cls-2" d="M106.42,75.08c-.56-.55-.67-1.79.07-2.28,3.28-.59,5.31-2.79,8.03-4.5.57-.27.93-.23,1.39.23,2.56,2.57-7.15,8.86-9.49,6.55Z"/>
          <path class="cls-2" d="M94.98,70.48c.37-.28,2.5,1.19,3.12,1.37,1.3.38,5.81.21,4.81,2.42-1.12,2.47-9.24-.5-7.93-3.8Z"/>
          <path class="cls-2" d="M137.19,68.92c1.35,1.99-1.77,8.97-4.31,7.25-1.24-.84.92-2.6,1.34-3.38.76-1.43,1.11-3.89,2.97-3.87Z"/>
          <path class="cls-2" d="M326.66,701.63c.97.75,1.69,3.63.27,4.14-1.71.61-3.25-.99-4.74-1.42-4.86-1.38-11.41.74-16,2.56-1.02.4-2.12,2.15-3.24.65-.51-1.89,5.37-5.71,6.95-6.33,3.71-1.45,13.6-2.05,16.77.4Z"/>
          <path class="cls-2" d="M375.09,686.12c-1.03,2.07-3.13.9-3.36-1.65-.31-3.53,2.25-9.55,4.52-12.26,1.74-2.07,9.92-6.96,12.3-5.33,2.79,1.92-4.82,4.03-5.7,4.5-3.4,1.81-5.76,5.26-6.65,8.98-.45,1.87-.16,3.83-1.11,5.74Z"/>
          <path class="cls-2" d="M412.3,641.03c2.03-.2,8.84.14,7.52,3.22-1.9.65-3.77-.28-5.68-.23-2.54.06-6.73,1.52-8.91,2.84-1.4.85-4.74,4.47-5.86,4.18-2.02-.51-.23-3.12.52-4.05,2.59-3.25,8.36-5.56,12.42-5.95Z"/>
          <path class="cls-2" d="M428.66,634.79c1.11,1.18,1.71,2.74.68,4.19-1.8.48-2.17-.82-2.99-1.32-2.87-1.76-3.92-2.43-7.54-2.24-1,.05-6.17,1.57-3.45-1.11,3.02-2.97,10.35-2.68,13.3.48Z"/>
          <path class="cls-2" d="M400.96,684.23c-2.28,1.06-4.15,1.09-6.26,2.81-1.16.95-1.91,3.56-4.15,2.3-.63-3.75,3.55-6.95,6.83-7.74,2.18-.53,4.14-.03,3.59,2.64Z"/>
          <path class="cls-2" d="M455.16,648.93c2.37-.55,9.8-.01,9.98,3.15.24,4.08-5.4.43-7.79-.05-1.69-.34-4.18.48-4.68-1.49.61-1.06,1.37-1.36,2.48-1.61Z"/>
          <path class="cls-2" d="M374.83,689.01c.4,2.41,4.06,5.46,1.34,7.39-2.07-.35-3.85-6.24-2.51-7.23l1.17-.16Z"/>
          <path class="cls-2" d="M397.13,651.47c1.98,2.06-3.27,9.11-3.55,4.89-.14-2.08,1.42-4.5,3.55-4.89Z"/>
          <path class="cls-2" d="M92.14,668.38c.89.56,5.25,5.31,5.9,6.42,1.08,1.86,3.45,8.32,2.08,10.05-.46.58-1.66-.42-1.22,1.8-5.81.79-3.88-3.97-5.35-6.94-.07-.15-1.02-1.46-1.29-1.86-2.24-3.37-7.76-6.94-11.93-8.2-2.02-.61-12.86-1.18-13.02-3.13-.26-3.08,11.24-2.81,13.4-2.54,3.39.42,8.58,2.61,11.43,4.4Z"/>
          <path class="cls-2" d="M149.19,692.64c1.64,1.45,4.48,7.02,4.63,9.24.15,2.26-1.14,5.48-3.85,4.63-1.86-.58-1.23-4.28-1.62-5.8-.08-.32-2.61-4.39-2.93-4.78-1.19-1.42-7.45-3.81-7.45-5.18,0-3.82,9.71.55,11.23,1.88Z"/>
          <path class="cls-2" d="M106.25,697.16l-1.11.05.31.93-.56.58c-2.59.71-2.78-1.06-4.03-2.11-3.28-2.77-5.5-3.99-9.61-5.24-1.4-.43-3.85-.03-3.24-2.1.75-2.55,7.93-1.22,9.89-.64,3.26.97,9.88,4.45,8.35,8.53Z"/>
          <path class="cls-2" d="M197.16,698.61c.97,1.14,5.12,5.12,2.2,6.2-2.11.78-6.22-5.29-7.98-6.67-1.47-1.16-5.2-2.09-4.68-4.34,1.34-3.12,7.41,1.18,8.92,2.63.66.63.95,1.5,1.53,2.18Z"/>
          <path class="cls-2" d="M62.15,690.96c3.23-1.37,5.93,1.34,8.02,3.51,1.46,1.52,7.71,9.82,5.3,11.57-2.71.88-2.87-2.95-3.86-4.8-.35-.65-1.76-2.67-2.25-3.22-1.61-1.81-5.51-3.96-6.65-5.47-.4-.53-.73-.82-.56-1.58Z"/>
          <path class="cls-2" d="M45.67,628.72c-3.92,1.26-3.63-2.02-5.08-4.37-.71-1.15-6.35-6.55-5.8-7.29,1.77-.85,3.99.67,5.44,1.79,1.74,1.34,7.18,7.8,5.44,9.87Z"/>
          <path class="cls-2" d="M113.98,711.15c-.59,1.04-1.89,1.23-2.97.72-1.25-.59-1.55-4.5-1.89-5.93-.4-1.67-1.92-2.69.34-4.24,4.14-.57,6.16,6.59,4.52,9.45Z"/>
          <path class="cls-2" d="M181.33,692.16c.2.3.03,1.17-.16,1.53-.91,1.74-6.3-.24-8.15.41-1.65-1.59,1.69-2.67,3.07-2.77.74-.05,5.03.53,5.23.83Z"/>
          <path class="cls-2" d="M476.78,567.12c4.66-.67,8.02.08,11.63,3.02,1.69,1.38,4.87,4.03,2.74,6.27-1.58,1.66-4.33-2.77-5.69-3.71-1.25-.86-4.53-2.09-6.04-2.37-1.33-.25-5.6.64-6.03-.82-.15-1.65,2.09-2.2,3.4-2.39Z"/>
          <path class="cls-2" d="M453.29,573.13c-1.26,1.18-2.5,2.3-3.64,3.6-3.26.88.72-5.46,1.44-6.38,2.82-3.62,8.36-6.96,13.07-6.06,1.61.31,2.36,2.67.99,3.31-1,.47-2.53.06-3.68.23-3.29.48-5.96,3.22-8.18,5.3Z"/>
          <path class="cls-2" d="M426.4,596.28l-1.53-.12c-3.37-4.28,4.56-14.61,8.52-15.01,1.29-.13,2.54,1.98,2.16,2.94-.43,1.08-4.44,3.52-5.75,5.24-1.56,2.06-2.47,4.57-3.41,6.95Z"/>
          <path class="cls-2" d="M488.74,583.7c-.45-.58-2.06-3.4-2.09-4.01-.16-2.71,3.04-1.62,4.5-.55,4.32,3.2,1.71,9.81-2.4,4.56Z"/>
          <path class="cls-2" d="M441.59,579.99c4.4-.94,6.9,4.75,1.08,4.23-3.67-.33-3.96-3.61-1.08-4.23Z"/>
          <path class="cls-2" d="M468.28,623.71c-.54-4.93,4.81-7.8,9.05-8.74,2.09-.46,5.28-1.49,6.04,1.3.6,2.19-4.06,1.79-5.41,2.07-2.26.48-3.9,1.56-5.74,2.86-1.27.89-2.06,2.71-3.94,2.51Z"/>
          <path class="cls-2" d="M473.61,638.7c1.43,1.12.42,3.02-1.22,3.03-1.21,0-5.91-2.11-7.61-2.59-.98-.28-3.95.04-3.95-1.54.1-.56.72-1.34,1.2-1.56,1.78-.8,9.94,1.38,11.58,2.66Z"/>
          <path class="cls-2" d="M348.27,167.83c-2.53.31-3.84-3.45-4.5-5.47-.84-2.59-1.56-6.09-1.36-8.8.11-1.43,1.53-7.26,3.31-7.25l1.02.58c.61.77-1.01,4.86-1.17,6.32-.61,5.85,1.95,9.18,2.69,14.61Z"/>
          <path class="cls-2" d="M373.97,184.75c.25.24,1.56,3.16,1.64,3.64.55,3.47-.29,8.91-1.34,12.3-.45,1.44-2.13,6.74-4.08,4.06-.83-1.13,1.78-6.93,2.14-8.73.4-1.97.71-4.43.52-6.42-.12-1.18-1.6-4.68-.71-5.31.27-.19,1.53.18,1.83.48Z"/>
          <path class="cls-2" d="M351.6,132.75c2.79.22-1.44,7.02-2.38,8.07-.47.52-1.02,1.46-1.91,1.2-2.22-.65,1.48-9.5,4.29-9.28Z"/>
          <path class="cls-2" d="M295.12,86.51c.33,2.71-3.76,3.25-5.87,4.49-2.34,1.38-3.6,2.83-5.16,5-.55.76-3.73,7.06-4.99,5.75-.58-5.33,6.02-12.68,10.73-14.48,1.68-.64,3.51-.88,5.29-.76Z"/>
          <path class="cls-2" d="M264.35,135.88c.45-.54,2.56-1.51,3.41-2.26,1.49-1.3,2.87-4.66,4.9-3.34.62.86-1.57,3.79-2.18,4.5-1.03,1.21-4.39,4.2-5.99,3.69-1-.44-.72-1.9-.14-2.59Z"/>
          <path class="cls-2" d="M421.76,141.64c2.85-.49,3.71,3.48,5.31,5.44,1.22,1.49,2.42,2.4,4.06,3.36,2.08,1.22,5.51,2.09,7.19,3.37s.07,2-1.52,1.94c-5.53-.2-15.85-7.7-15.04-14.11Z"/>
          <path class="cls-2" d="M476.14,154.09c-1.82-2.82-4.96-5.37-7.74-7.3-.69-.48-6.25-2.98-2.28-3.23,3.1-.2,7.52,4.03,9.39,6.28.98,1.18,3.82,4.37.63,4.25Z"/>
          <path class="cls-2" d="M480.4,158.06c2.94.22,4.11,4.89,4.57,7.35.15.8.7,2.24-.08,2.82-1.53.24-5.27-9.35-4.49-10.16Z"/>
          <path class="cls-2" d="M426.4,696.87c.58,3.97-6.05,1.48-8.68,1.55-4.78.13-7.8,2.04-11.7,4.28-.56.32-.47,1.36-2.37.7-2.24-.77.36-3.65,1.33-4.4,5.61-4.33,14.98-4.8,21.42-2.13Z"/>
          <path class="cls-2" d="M306.84,146.72c-.06-.83-.06-1.52.21-2.32.73-2.17,5.18-8.99,6.68-11.31.69-1.07,4.38-6.91,5.41-6.7,1.44,1.19-.66,3.9-1.43,5.21-1.09,1.85-8.76,14.26-9.48,14.75-.47.32-.8.46-1.39.36Z"/>
          <path class="cls-2" d="M325.83,113.9c3.27-.73-1.74,8.6-3.5,8.56-2.99-.93,2.58-8.36,3.5-8.56Z"/>
          <path class="cls-2" d="M391.66,151.8c.42.02.91-.09,1.32.05,1.05.36,6.57,18.28,7.9,20.66l-.46,1.16-1.53-.37c-1.06-2.53-8.27-20.49-7.23-21.5Z"/>
          <path class="cls-2" d="M390.88,147.11c-2.93,1.33-5.36-7.94-4.69-8.6,2.87-1.28,5.27,8.02,4.69,8.6Z"/>
          <path class="cls-2" d="M283.35,71.23c-.4.58-9.59,1.47-10.65,1.14s-.83-1.27-.02-1.85c1.14-.81,6.09-1.27,7.75-1.23s3.34-.47,2.92,1.94Z"/>
          <path class="cls-2" d="M479.11,119.84c.78.75.14,1.78-.86,1.83-.51.03-3.09-.97-3.83-1.24-2.8-1.04-14.45-5.81-16.07-7.39-.43-.42-.82-.52-.63-1.31.66-.97,1.32-.47,2.16-.22l19.23,8.33Z"/>
          <path class="cls-2" d="M496.38,127.92c-.93.73-9.27-2.25-8.95-3.67.65-2.85,8.25,1.71,9.36,2.73l-.41.95Z"/>
          <path class="cls-2" d="M218.7,73.22c.42.12.73.89.58,1.36-.35,1.15-9.71,1.87-11.28,1.73l-.09-1.74c.3-.35,3.03-1.35,3.37-1.35,1.64,0,6.26-.33,7.43,0Z"/>
          <path class="cls-2" d="M229.45,74.78c-.04-.58.08-1.26.42-1.73.84-1.14,7.45-1.6,9.11-1.64,1.51-.04,2.08.86.85,1.83-1.11.88-9.75,2.15-10.38,1.54Z"/>
        </g>
      </g>
    </g>
  </g>
</svg>