<?xml version="1.0" encoding="UTF-8"?>
<svg id="Layer_2" data-name="Layer 2" xmlns="http://www.w3.org/2000/svg" viewBox="0 0 521.87 865.9">
  <defs>
    <style>
      .cls-1 {
        fill: #f9ecd8;
      }

      .cls-2 {
        fill: #aa7b1b;
      }
    </style>
  </defs>
  <g id="Layer_1-2" data-name="Layer 1">
    <g>
      <path class="cls-1" d="M521.83,794.17c0-.13,0-.26,0-.39-.65-.41-.39-1.48-.4-2.14-1.26-101.84.02-203.86.02-306.12.01-137.52-1.46-274.69-.02-411.33,0-.66-.25-1.74.4-2.14v-.39c-.11-10.91.35-23.84-.39-34.6-1.09-15.82-13.11-33.29-29.43-35.52-19.37-2.64-39.84-1.11-59.47-1.03-53.34.22-106.95-1.12-159.85-.09-12,.23-24.01.04-36.04,0-48.83-.16-98.18.29-147.35.09-19.63-.08-40.1-1.62-59.47,1.03C13.51,3.77,1.47,21.24.39,37.06c-.9,13.16.03,27.1.03,40.26-.02,91.68.45,183.44.37,275.62-.04,41.43-.66,83.11-.39,124.77.67,103.53.01,207.26.03,310.41,0,13.2-.89,27.08-.06,40.29,1.01,15.97,12.94,33.63,29.45,35.89,16.49,2.25,34.8,1.53,51.69,1.46,117.57-.51,233.44-.92,351.02-.43,19.63.08,40.1,1.62,59.47-1.03,16.32-2.23,28.34-19.7,29.43-35.51.74-10.75.28-23.69.39-34.6Z"/>
      <g id="RXu6SM.tif">
        <path class="cls-2" d="M47.4.12c2.74-.07,5.59.27,8.11.24,15.54-.18,30.94.22,46.55.28,49.85.2,99.28-.42,149.33-.28,2,0,1.68-.07,3.62.25,5.35.89,10.43-.24,15.5-.25,50.06-.17,99.48.48,149.33.28,22.81-.09,45.85-1.62,68.45.49,8.34.78,13.06,2.59,19.51,8.22,16.72,14.59,13.36,31.66,13.46,51.4.42,81.24,0,163.21.04,244.77.08,162.99-.07,326.72.03,490.29.01,22.6,4.81,47.5-16.09,62.88-5.95,4.38-9.84,5.41-16.95,6.08-22.59,2.11-45.63.58-68.45.49-49.85-.2-99.28.45-149.33.28-5.07-.02-10.15-1.14-15.5-.25-1.94.32-1.62.25-3.62.25-50.06.14-99.48-.48-149.33-.28-22.82.09-45.85,1.62-68.45-.49-8.34-.78-13.06-2.59-19.51-8.22-16.82-14.67-13.39-31.62-13.46-51.4-.28-81.24-.04-163.21-.04-244.77-.02-163.02.07-326.74-.03-490.29-.01-21.38-4.57-44.74,13.32-60.56C24.32.3,34.14.48,47.4.12ZM260.96,3.08h-.78v5.47h.78V3.08ZM254.95,5.45c-1.85.64-.35,4.36,1.7,3.31,1.9-.97.02-3.91-1.7-3.31ZM265.14,5.49c-2.61.73-1.27,4.98,1.27,2.85,1.22-1.03.54-3.35-1.27-2.85ZM251.48,8.64c-1.17-2.03-4.9.2-2.64,2.45,1.78,1.77,3.54-.87,2.64-2.45ZM269.64,8.64c-.91,1.58.86,4.22,2.64,2.45,2.26-2.25-1.47-4.48-2.64-2.45ZM57.56,11.81c-2.36-2.61-7.2,2.07-4.39,4.98s7.49-1.56,4.39-4.98ZM251.02,13.86c-14.3,10.42-3.48,32.5,13.07,28.52,17.04-4.1,16.08-27.77-1.44-31.05-4.54-.85-7.98-.14-11.63,2.53ZM465.92,11.81c-3.1,3.42,1.69,7.78,4.39,4.98s-2.03-7.59-4.39-4.98ZM244.04,12.52c-2.1.57-.9,4.28,1.29,3.7s1.31-4.41-1.29-3.7ZM276.1,12.52c-2.38.44-1.82,3.95.23,3.76,2.42-.23,2.56-4.28-.23-3.76ZM40.94,35.45c-.09-.05-.67-1.2-1.23-1.69-6.94-5.94-15.34-11.1-22.68-16.61l18.37,24.44c.35.72-.76.68-1.17.77-3.76.9-7.76.96-11.53,1.77-.53.11-1.01,0-1.37.58l13.6,5.35.32.91-13.92,20.13,20.12-14.09c1.2-.02.89,1.56,1.18,2.36.72,1.97,1.69,3.86,2.35,5.86l2.92,5.87c.77-4.32,1-8.84,1.95-13.12.12-.54-.33-1.12.6-.96l22.66,16.82.41-1.18-16.63-22.08c-.16-.95.43-.48.98-.58,4.34-.79,8.75-1.24,13.09-1.97l-11.72-5.28c-.78-.3-2.39.05-2.37-1.17l13.7-20.13-19.4,14-1.23-.4-5.36-13.59c-1.21,1.65-1.91,13.56-2.55,14.07-.07.06-.88.05-1.1-.08ZM489.5,40.87l17.34-23.71c-5.76,4.03-11.56,8.1-17.16,12.35-2.35,1.78-5.2,3.69-6.88,6.04l-.98-.27-2.54-13.81-5.36,13.59-1.23.4-19.4-14,13.7,20.13c.02,1.22-1.58.87-2.37,1.17l-11.72,5.28c4.35.74,8.75,1.18,13.09,1.97.55.1,1.14-.37.98.58l-16.81,22.67,1.17.4,22.08-16.63c.93-.16.48.41.6.96.95,4.28,1.18,8.8,1.95,13.12l2.92-5.87c.67-1.99,1.64-3.89,2.35-5.86.29-.8-.02-2.38,1.18-2.36l20.12,14.09-13.92-20.13.32-.91,13.6-5.35-14.07-2.55,1.03-1.31ZM239.87,18.35l-.22,3.11c4.5,3,4.49-3.5.22-3.11ZM281.26,18.35c-4.27-.39-4.27,6.11.22,3.11l-.22-3.11ZM36.48,19.2c-4.96-2.4-5.23,5.13-.5,4.21,1.9-.37,1.02-3,.5-4.21ZM490.33,19.21c-.76-.77-2.41-.38-3.33,0-.45.94-1.18,3.39-.1,4.01,2.69,1.49,5.33-2.09,3.43-4.01ZM94.63,21.63c1.21,1.3,2.45,1.14,4.3,1.38,3.36.45,8.4.71,11.74.41,1.21-.11,3.07-.51,2.93-2.15-.2-2.35-4.59-1.32-6.06-1.41-2.1-.13-12.43-1.5-13.33-.38-.14,1.26-.32,1.34.42,2.13ZM429.34,21.34c.13-.27.05-1.72-.26-2.05-1.32-.82-10.85.45-13.15.58-1.52.09-6.32-1.01-6.06,1.76.24,2.54,8.29,1.9,10.39,1.79,1.59-.08,6.49-.46,7.74-.87.09-.03,1.29-1.13,1.33-1.21ZM186.15,21.22c-2.53-1.11-8.37-.42-11.41-.53-15.26-.52-32.18-1.19-47.27-.81-1.06.03-2.3.71-3.51.4-1.04,1.82,1.09,2.15,2.36,2.31,8.86,1.08,18.76.58,27.73.81s21.11,1.41,30.1.81c1.45-.1,3.15-.1,2.92-2.09,0-.06-.87-.87-.93-.9ZM399.73,20.28c-1.28.31-2.61-.38-3.73-.41-15.06-.39-32.02.3-47.27.81-3.04.1-6.36-.27-9.35.03-1.19.12-2.54.41-2.99,1.68.2,1.67,1.09,1.69,2.53,1.81,5.61.47,13.46-.58,19.28-.68,12.19-.21,27.38.81,39.26-1,1.58-.24,2.56-.36,2.26-2.24ZM94.42,23.41c-.75-.12-1.05.31-1.17.98-.34,1.96-.13,4.65-.43,6.61-.23,1.48-2.58,7.35-.93,8.05.83.36.79.02,1.06-.5,2.22-4.18,2.28-10.57,1.47-15.14ZM430.62,39.05c3.3,0,.37-5.88.03-8.05-.28-1.82,0-5.34-.5-6.93-.16-.51-.58-.76-1.1-.65-1.09,5.35-.37,10.59,1.57,15.64ZM242.93,26.89c.82-2.17-.33-1.13-1.32-1.13-2.18.01-4.32.35-6.27.38-1.4.02-3.58-1.22-4.88.2.47.72,1.03.55,1.73.6,3.35.26,7.31-.29,10.73-.05ZM278.2,26.89c3.42-.24,7.38.31,10.73.05.7-.05,1.26.11,1.73-.6-1.3-1.41-3.48-.17-4.88-.2-1.94-.03-4.09-.37-6.27-.38-.99,0-2.14-1.04-1.32,1.13ZM250.01,51.95l-23.22,16.03c-.57-.11-1.59-.44-1.75-1.04-.44-1.58,7.56-18.54,8.73-21.66.51-1.35,2.44-6.3,2.5-7.29.04-.54-.16-.64-.61-.82l-43.71-8.28c-18.94-.22-37.85-.06-56.68-.36-9.22-.15-19.46.18-28.55-.41-1.63-.11-3.25-.65-4.87-.8-.02,9.15-3.13,18.43-7.37,26.45-11.17,21.14-32.71,39.2-55.88,46.16-4.45,1.34-9.63,2.43-14.15,2.85v660.35c4.52.42,9.7,1.51,14.15,2.85,28.91,8.69,59.68,37.61,63.19,68.55.15,1.34,0,2.71.05,4.05,1.62-.14,3.24-.69,4.87-.8,25.71-1.68,52.49.22,78.21-.48,10.16-.28,22.15-2.89,32.28-4.83,6.25-1.19,12.47-2.67,18.73-3.86.53-.33.31-.56.23-1-.32-1.75-1.71-5.18-2.4-7.01-1.17-3.11-9.17-20.08-8.73-21.66.22-.78,1.96-1.33,2.67-.84,3.84,2.99,8.2,5.36,12.11,8.24.92.68,9.45,8.43,10.19,7.59l9.1-61.1c.06-1.55,2.49-2.04,3.2-.66.36.68.77,3.52.94,4.53,2.01,11.81,3.14,23.92,4.98,35.77,1.11,7.16,2.49,14.31,3.67,21.46,7.05-4.52,13.19-10.23,20.36-14.63,1.37-.84,2.82-2.17,4.29-.75.59,2.43-5.57,14.59-6.85,17.74-1.62,3.99-3.06,8.05-4.51,12.1,10.64,2.16,21.32,4.52,32.01,6.41,6.12,1.08,11.28,1.92,17.43,2.16,17.94.7,36.07.11,53.95.39,9.22.15,19.46-.18,28.55.41,1.63.11,3.25.65,4.87.8.02-9.15,3.13-18.43,7.37-26.45,11.17-21.14,32.71-39.2,55.88-46.16,4.45-1.34,9.63-2.43,14.15-2.85V102.78c-4.52-.42-9.7-1.51-14.15-2.85-28.91-8.69-59.68-37.61-63.19-68.55-.15-1.34,0-2.71-.05-4.05-1.62.14-3.24.69-4.87.8-9.09.59-19.33.27-28.55.41-17.89.28-36.01-.31-53.95.39-6.15.24-11.31,1.08-17.43,2.16-10.69,1.89-21.37,4.25-32.01,6.41,1.45,4.05,2.88,8.11,4.51,12.1,1.81,4.45,4.41,9.07,5.95,13.59.29.86,1.49,3.83.64,4.44-1.59.88-2.96-.38-4.28-1.2-7.05-4.4-13.15-9.98-20.12-14.48-1.18,7.15-2.56,14.3-3.67,21.46-1.86,11.96-2.97,24.19-5.04,36.1-.39,2.25-.49,6.4-3.71,4.51l-9.48-62.07ZM242.09,32.69c2.05-2.07-2.33-5.38-2.97-1.95-.33,1.74,1.74,3.2,2.97,1.95ZM279.04,32.69c1.23,1.24,3.29-.21,2.97-1.95-.64-3.42-5.02-.12-2.97,1.95ZM242.85,35.57c-1.6.4-1.48,3.57.64,3.39,2.63-.23,1.09-3.82-.64-3.39ZM277.65,35.58c-1.82.47-2.03,3.57.25,3.38s1.6-3.86-.25-3.38ZM245.56,39.46c-1.84.57-.6,4.28,1.71,3.32,2.02-1.16-.23-3.78-1.71-3.32ZM274.92,39.49c-3.54.51-1.27,5.91,1.6,2.05-.19-1.08-.3-2.23-1.6-2.05ZM251.03,42.99c-1.19.28-1.51,3.34.65,3.04,2.76-.38.61-3.33-.65-3.04ZM269.82,43c-1.77.15-2.64,3.13-.06,3.07,1.97-.04,1.38-3.19.06-3.07ZM257.34,47.55c.25-.21.31-.63.39-.94.02-1.1-1.08-2.35-2.24-2.09-1.38,1.74.13,4.47,1.85,3.03ZM261.35,44.52h-1.56v11.92l.97.58.59-.58v-11.92ZM265.64,44.53c-1.26-.22-2.14.91-2.24,2.09.05,2.35,4.4,1.13,2.24-2.09ZM90.12,46.87c-.9-.92-2.47,2.3-2.8,2.86-1.2,2.03-4.43,7.47-5.1,9.36-.22.62-.4,1.17-.3,1.85.95.98,3.81-3.51,4.22-4.18.78-1.28,4.78-9.08,3.98-9.89ZM441.55,60.94c.1-.68-.08-1.22-.3-1.85-.68-1.89-3.91-7.33-5.1-9.36-.66-1.11-1.37-3.16-2.8-2.86-.79.82,3.2,8.61,3.98,9.89.41.67,3.27,5.16,4.22,4.18ZM32.01,74.76c-4.76,4.06-.87,12.29,5.72,9.82,7.57-2.83,1.85-16.27-5.72-9.82ZM491.46,74.76c-7.57-6.45-13.29,6.99-5.72,9.82,6.59,2.47,10.48-5.77,5.72-9.82ZM18.15,232.14c.79-.5,1.28-4.95,1.26-6.01-.02-1.14-.75-2.61-.84-4.27-.2-3.83.02-7.91,0-11.73-.22-34.61.51-69.63.38-104.03,0-2.2-.45-4.37-.3-6.58l.6-.57c7.27-.74,14.15-2.2,20.95-4.85,2.01-.78,7.8-2.81,8.33-4.98l-.43-.8c-6.87,2.69-12.96,5.82-20.36,7-2.18.35-9.08.42-10.45,1.58-.34.28-.25,1.19-1.02,1.47-.05,35.42.07,70.83-.04,106.28-.02,7.57-.23,15.16-.63,22.71-.07,1.29.39,6.15,2.55,4.78ZM506.34,97.05c-1.44-1.34-12.53-1.9-15.55-2.65-4.76-1.19-10.04-4.78-14.12-5.82-2.36-.6-2.09.54-.72,1.9,3.01,2.99,16.54,6.67,21.04,7.5,2.04.38,5.42.34,7.25.96,1.24.41.3,5.62.29,7.16-.13,34.4.59,69.42.38,104.03-.02,3.82.2,7.9,0,11.73-.14,2.67-1.27,5.63-.56,8.4.37,1.42,2.04,3.15,3,1.07,1.11-2.41-.04-4.68-.1-6.75-1.17-41.72.8-83.74.03-125.54,0-.3-.85-1.9-.93-1.97ZM18.2,239.23c-.63-.28-2.35.44-2.35.98v10.95c0,.09.71.79.97.86.5.08,1.37-.81,1.37-1.25v-11.53ZM507.62,251.15c.47-1.73,0-8.57,0-10.95,0-.54-1.72-1.26-2.35-.98v11.53c0,.48.82,1.26,1.37,1.25.23-.04.93-.72.97-.86ZM16.93,258.07c-4.06.59-4.43,6.83-.8,7.66,5.63,1.29,5.08-8.28.8-7.66ZM505.16,258.05c-1.21.35-2.25,4.03-2.03,5.07.87,4.07,6.75,3.46,6.75-1.03,0-2.31-2.38-4.73-4.73-4.04ZM18.9,272.16c-3.61-2.18-5.24,4.74-1.32,4.57,2.59-.11,2-2.93,1.32-4.57ZM507.53,276.27c1.45-1.47.45-3.48-.95-4.56-2.75-.88-3.89,4.89-.69,5.02.49.02,1.3-.12,1.64-.46ZM15.73,360.16c-2.13-1.61-2.82,1.11-4.08,2,.13,2.05,2.07,5.03,4.35,3.38.26-.19.21-.7.4-1.03.09-.16.58-.2.63-.45.15-.75-.68-3.44-1.3-3.9ZM510.88,361.47c-.42-.6-.14-1.34-1.29-1.66-2.11-.59-3.17,2.33-3.17,3.97,0,.1.97,1.7,1.05,1.76,2.29,1.63,4.21-1.3,4.35-3.38-.06-.34-.74-.4-.94-.69ZM16.89,381.79c1.92-1.72,1.66-6.14.48-8.21-1.86-3.27-7.61-1.01-8.14,2.32-.7,4.43,4.2,8.99,7.66,5.89ZM512.59,373.05c-.42-.33-3.83-1.24-4.34-1.18-3.91.43-4.92,12.59,2.11,10.66,3.88-1.07,5.42-6.93,2.22-9.47ZM14.51,390.36c-.37.37-.96.4-.99,1.11-.12,2.75,2.26,4.67,4.66,2.75,2.83-2.26-.29-7.27-3.66-3.86ZM508.66,389.9c-4.69-3.04-6.46,4.99-1.23,4.97,1.77,0,2.6-1.79,2.53-3.4-.01-.29-1.09-1.44-1.3-1.57ZM14.82,476.01c4.69,3.04,6.46-4.99,1.23-4.97-1.77,0-2.6,1.79-2.53,3.4.01.29,1.09,1.44,1.3,1.57ZM508.96,475.54c.37-.37.96-.4.99-1.11.12-2.75-2.26-4.67-4.66-2.75-2.83,2.26.29,7.27,3.66,3.86ZM16.89,484.11c-3.46-3.1-8.36,1.46-7.66,5.89.52,3.33,6.28,5.59,8.14,2.32,1.18-2.07,1.45-6.49-.48-8.21ZM512.59,492.85c3.19-2.54,1.66-8.41-2.22-9.47-7.04-1.94-6.02,10.23-2.11,10.66.51.06,3.92-.85,4.34-1.18ZM16.14,500.52c-1.93-2.05-4.55,1.14-4.49,3.22,1.16.45,1.02,1.79,1.96,2.24,2.18,1.06,3.44-2.18,3.44-3.86,0-.09-.85-1.54-.91-1.6ZM510.88,504.43c.2-.28.88-.34.94-.69-.14-2.08-2.06-5.01-4.35-3.38-.08.06-1.05,1.66-1.05,1.76,0,1.64,1.07,4.55,3.17,3.97,1.15-.32.87-1.06,1.29-1.66ZM18.86,589.66c-2.84-2.32-5.24,2.74-1.97,4.53,2.38.76,3.41-3.35,1.97-4.53ZM507.53,589.63c-.73-.74-2.31-.57-3.05.2-1.22,1.28-.26,5.06,2.1,4.36,1.41-1.08,2.4-3.09.95-4.56ZM16.13,600.18c-3.08.7-3.35,5.58-.63,7.12,1.8,1.02,3.16,1.03,4.07-.94,1.4-3.03.52-7.08-3.44-6.18ZM505.15,600.17c-3.24,1.01-2.35,10.05,2.82,7.13,3.64-2.05,1.64-8.52-2.82-7.13ZM15.85,614.75c-.47,1.73,0,8.57,0,10.95,0,.54,1.72,1.26,2.35.98v-11.53c0-.48-.82-1.26-1.37-1.25-.23.04-.93.72-.97.86ZM505.28,626.68c.63.28,2.35-.44,2.35-.98v-10.95c0-.09-.71-.79-.97-.86-.5-.08-1.37.81-1.37,1.25v11.53ZM18.15,633.77c-2.16-1.37-2.62,3.48-2.55,4.78.33,6.18.6,12.15.63,18.45.16,36.75-.06,73.72.04,110.54.77.28.69,1.19,1.02,1.47,1.37,1.16,8.27,1.24,10.45,1.58,7.39,1.18,13.49,4.3,20.36,7l.43-.8c-.53-2.16-6.31-4.19-8.33-4.98-4.4-1.71-9.05-3.03-13.7-3.89-2.04-.38-5.42-.34-7.25-.96-1.24-.41-.3-5.62-.29-7.16.13-34.4-.59-69.42-.38-104.03.02-3.82-.2-7.9,0-11.73.15-2.83,1.14-5.17.61-8.2-.02-.12-.94-2.03-1.04-2.09ZM507.1,767.7l.16-106.44c0-6.54-.2-13.29-.02-19.92.06-2.08,1.21-4.34.1-6.75-.96-2.09-2.63-.35-3,1.07-.71,2.77.42,5.73.56,8.4.2,3.83-.02,7.91,0,11.73.22,34.61-.51,69.63-.38,104.03,0,2.2.45,4.37.3,6.58l-.6.57c-7.27.74-14.15,2.2-20.95,4.85-2.08.81-5.84,2.11-7.34,3.61-1.36,1.36-1.64,2.5.72,1.9,4.08-1.04,9.36-4.63,14.12-5.82,2.9-.73,14.07-1.38,15.4-2.5.06-.05.88-1.23.91-1.31ZM32.01,791.14c7.57,6.45,13.29-6.99,5.72-9.82-6.59-2.47-10.48,5.77-5.72,9.82ZM491.46,791.14c4.76-4.06.87-12.29-5.72-9.82-7.57,2.83-1.85,16.27,5.72,9.82ZM56.9,815.91l16.62-22.67-.41-1.18-22.66,16.82c-.93.16-.48-.41-.6-.96-.95-4.28-1.18-8.8-1.95-13.12l-2.92,5.87c-.67,1.99-1.64,3.89-2.35,5.86-.29.8.02,2.38-1.18,2.36l-20.12-14.09,13.92,20.13-.32.91-13.6,5.35c.36.59.84.47,1.37.58,3.77.81,7.76.87,11.53,1.77.41.1,1.53.06,1.17.77l-18.37,24.44c5.76-4.03,11.56-8.1,17.16-12.35,2.35-1.78,5.2-3.69,6.88-6.04l.98.27,2.54,13.81,5.36-13.59,1.23-.4,19.4,14-13.7-20.13c-.02-1.22,1.58-.87,2.37-1.17l11.72-5.28-14.07-1.96ZM474,808.87l-22.67-16.62-1.17.4,16.81,22.67c.16.95-.43.48-.98.58-4.34.79-8.75,1.24-13.09,1.97l11.72,5.28c.78.3,2.39-.05,2.37,1.17l-13.7,20.13,19.4-14,1.23.4,5.36,13.59,2.54-13.81.98-.27c1.67,2.35,4.53,4.25,6.88,6.04,5.6,4.25,11.4,8.32,17.16,12.35l-18.37-24.44c-.35-.72.76-.68,1.17-.77,3.76-.9,7.76-.96,11.53-1.77.53-.11,1.01,0,1.37-.58l-13.6-5.35-.32-.91,13.92-20.13-20.12,14.09c-1.2.02-.89-1.56-1.18-2.36-.72-1.97-1.69-3.86-2.35-5.86l-2.92-5.87-1.96,14.07ZM90.12,819.03c.79-.82-3.2-8.61-3.98-9.89-.41-.67-3.27-5.16-4.22-4.18-.1.68.08,1.22.3,1.85.68,1.89,3.91,7.33,5.1,9.36.33.56,1.91,3.78,2.8,2.86ZM441.55,804.96c-.95-.98-3.81,3.51-4.22,4.18-.78,1.28-4.78,9.08-3.98,9.89,1.43.3,2.14-1.75,2.8-2.86,1.2-2.03,4.43-7.47,5.1-9.36.22-.62.4-1.17.3-1.85ZM261.35,821.38v-11.92l-.97-.58-.59.58v11.92h1.56ZM257.34,818.35c-1.72-1.44-3.22,1.29-1.85,3.03,1.16.26,2.26-.99,2.24-2.09-.08-.31-.14-.73-.39-.94ZM265.64,821.38c2.17-3.22-2.19-4.44-2.24-2.09.1,1.18.97,2.31,2.24,2.09ZM251.07,819.87c-1.93.48-.8,4.31,1.26,2.46,1.57-1.4.12-2.81-1.26-2.46ZM269.45,819.87c-1.55.21-1.82,1.43-.66,2.46,2.3,2.04,3.31-2.82.66-2.46ZM246.39,823c-.5.08-1.67.85-1.77,1.36,1.26,5.75,5.71-1.96,1.77-1.36ZM251.32,852.51c9.87,6.26,24.87-.87,25.12-12.88.34-17.1-21.95-22.81-30.11-8.05-3.76,6.8-1.68,16.7,5,20.93ZM274.13,823c-2.84.71.72,5.4,2.11,2.51.73-1.52-.88-2.81-2.11-2.51ZM92.86,826.86c-3.3,0-.37,5.88-.03,8.05.28,1.82,0,5.34.5,6.93.16.51.58.76,1.1.65,1.09-5.35.37-10.59-1.57-15.64ZM243.23,826.95c-3.13.26-.59,5.59,1.33,2.47.8-1.3.11-2.59-1.33-2.47ZM277.63,826.95c-1.52.13-1.84,1.51-.87,2.67,2.3,2.76,3.99-2.94.87-2.67ZM429.05,842.49c.75.12,1.05-.31,1.17-.98.34-1.96.13-4.65.43-6.61.23-1.48,2.58-7.35.93-8.05-.83-.36-.79-.02-1.06.5-2.22,4.18-2.28,10.57-1.47,15.14ZM242.09,833.21c-1.23-1.24-3.29.21-2.97,1.95.64,3.42,5.02.12,2.97-1.95ZM279.04,833.21c-2.05,2.07,2.33,5.38,2.97,1.95.33-1.74-1.74-3.2-2.97-1.95ZM242.93,839.01c-3.42.24-7.38-.31-10.73-.05-.7.05-1.26-.11-1.73.6,1.3,1.41,3.48.17,4.88.2,1.94.03,4.09.37,6.27.38.99,0,2.14,1.04,1.32-1.13ZM278.2,839.01c-.82,2.17.33,1.13,1.32,1.13,2.18-.01,4.32-.35,6.27-.38,1.4-.02,3.58,1.22,4.88-.2-.47-.72-1.03-.55-1.73-.6-3.35-.26-7.31.29-10.73.05ZM186.59,842.2c-1.15-1.16-5.88-.17-7.57-.14-15.27.25-30.74-.13-46.08.83-2.81.18-5.74.39-8.53.86-.86.27-.68,1.11-.67,1.88,1.28-.31,2.61.38,3.73.41,3.56.09,7.71-.41,11.3-.42,14.6-.08,30.15.67,44.59-.36,1.5-.11,5.27-.99,3.21-3.05ZM399.73,845.62c.3-1.88-.68-2-2.26-2.24-8.57-1.31-19.27-.64-28.06-.87-1.67-.04-3.38-.36-5.05-.38-8.08,1.04-17.49-1.1-25.44-.43-1.44.12-2.33.14-2.53,1.81.45,1.27,1.8,1.55,2.99,1.68,2.99.31,6.31-.07,9.35.03,15.24.52,32.2,1.2,47.27.81,1.12-.03,2.45-.72,3.73-.41ZM36.48,846.7c.53-1.22,1.41-3.84-.5-4.21-4.73-.92-4.46,6.61.5,4.21ZM94.13,844.56c-.13.27-.05,1.72.26,2.05,1.32.82,10.85-.45,13.15-.58,1.52-.09,6.32,1.01,6.06-1.76-.24-2.54-8.29-1.9-10.39-1.79-1.59.08-6.49.46-7.74.87-.09.03-1.29,1.13-1.33,1.21ZM428.85,844.27c-1.21-1.3-2.45-1.14-4.3-1.38-3.36-.45-8.4-.71-11.74-.41-1.21.11-3.07.51-2.93,2.15.2,2.35,4.59,1.32,6.06,1.41,2.1.13,12.43,1.5,13.33.38.14-1.26.32-1.34-.42-2.13ZM490.33,846.7c1.89-1.92-.74-5.5-3.43-4.01-1.07.63-.35,3.07.1,4.01.92.38,2.57.77,3.33,0ZM239.87,847.56c4.27.39,4.27-6.11-.22-3.11l.22,3.11ZM281.26,847.56l.22-3.11c-4.5-3-4.49,3.5-.22,3.11ZM57.56,854.1c3.1-3.42-1.69-7.78-4.39-4.98-2.81,2.91,2.03,7.59,4.39,4.98ZM465.92,854.1c2.36,2.61,7.2-2.07,4.39-4.98s-7.49,1.56-4.39,4.98ZM244.79,849.62c-2.18.2-2.54,3.63-.44,3.83,2.93.28,2.82-4.05.44-3.83ZM276.07,849.62c-1.82.15-2.15,3.05-.27,3.66,3.27,1.06,2.94-3.88.27-3.66ZM251.48,857.27c.91-1.58-.86-4.22-2.64-2.45-2.26,2.25,1.47,4.48,2.64,2.45ZM269.64,857.27c1.17,2.03,4.9-.2,2.64-2.45-1.78-1.77-3.54.87-2.64,2.45ZM255.77,857.01c-2.51.37-2,4.4.49,3.27,1.78-.81,1.43-3.55-.49-3.27ZM264.75,857.01c-2.88.71.83,5.61,2.12,2.5.57-1.39-.85-2.81-2.12-2.5ZM260.96,857.35h-.78v5.47h.78v-5.47Z"/>
      </g>
    </g>
  </g>
</svg>