<?xml version="1.0" encoding="UTF-8"?>
<svg id="Layer_2" data-name="Layer 2" xmlns="http://www.w3.org/2000/svg" viewBox="0 0 521.9 866.08">
  <defs>
    <style>
      .cls-1 {
        fill: #f9ecd8;
      }

      .cls-2 {
        fill: #aa7b1b;
      }
    </style>
  </defs>
  <g id="Layer_1-2" data-name="Layer 1">
    <g>
      <path class="cls-1" d="M521.84,794.25c0-.13,0-.26,0-.39-.65-.41-.39-1.48-.4-2.14-1.26-101.84.02-203.86.02-306.12.01-137.52-1.46-274.69-.02-411.33,0-.66-.25-1.74.4-2.14v-.39c-.11-10.91.35-23.84-.39-34.6-1.09-15.82-13.11-33.29-29.43-35.52-19.37-2.64-39.84-1.11-59.47-1.03-53.34.22-106.95-1.12-159.85-.09-12,.23-24.01.04-36.04,0-48.83-.16-98.18.29-147.35.09-19.63-.08-40.1-1.62-59.47,1.03C13.53,3.85,1.49,21.33.41,37.14c-.9,13.16.03,27.1.03,40.26-.02,91.68.45,183.44.37,275.62-.04,41.43-.66,83.11-.39,124.77.67,103.53.01,207.26.03,310.41,0,13.2-.89,27.08-.06,40.29,1.01,15.97,12.94,33.63,29.45,35.89,16.49,2.25,34.8,1.53,51.69,1.46,117.57-.51,233.44-.92,351.02-.43,19.63.08,40.1,1.62,59.47-1.03,16.32-2.23,28.34-19.7,29.43-35.51.74-10.75.28-23.69.39-34.6Z"/>
      <g id="CCLXzU.tif">
        <g>
          <path class="cls-2" d="M47.14.08l14.07.2c63.37,1.23,126.4-1.03,189.93,0,3.74.06,7.08.62,10.96.43,31.83-1.53,65-.06,96.89-.03,32.61.03,65.54-.55,98.13-.46,11.14.03,22.38-.48,33.56.83,17.07,2,29.64,19.71,30.7,36.15,1.33,20.68-.24,43.99-.26,64.85,0,1.59.27,3.43.26,5.17-.26,220.26.02,443.98,0,664.22,0,18.37,1.16,39.05,0,57.12-1.04,16.26-13.47,33.98-30.35,36.1-22.43,2.81-48.6.62-71.47.53-49.66-.19-99.06,1.24-148.9.28-2.88-.06-5.64-.29-8.55-.43-3.88-.19-7.22.37-10.96.43-49.87.81-99.22-.47-148.9-.28-22.97.09-48.54,2.15-71.13-.49-16.55-1.94-29.54-19.32-30.7-35.36-.94-13.07.05-27.89.05-41.07.02-86.03.43-171.83.37-258.45-.04-48.37-.97-97.12-.47-145.76,1.05-102.28.11-204.73.1-306.58,0-8.51-.41-17.27-.32-25.82.18-17.61.49-31.79,15.34-43.57C25.76-.07,34.57.74,47.14.08ZM260.49,3c-.77,0-1.01,4.83,0,5.46.88,0,.88-5.46,0-5.46ZM257.11,8.41c.24-.37.12-1.85-.13-2.29l-2.5-.74c-1.72,2.01,1.63,4.61,2.64,3.03ZM266.51,5.38l-2.5.74c-1.4,4.45,4.35,2.87,2.5-.74ZM250.44,7.8c-.54-.2-.98-.22-1.48.08-3,3.75,4.08,5.14,2.47,1.07-.03-.07-.92-1.13-.99-1.15ZM269.84,8.61c-2.36,4.45,5.23,3.2,2.19-.73-.78-.59-1.81.03-2.19.73ZM53.31,12.12c-1.73,1.75-.88,5.15,1.62,5.37,6.32.56,3.03-10.06-1.62-5.37ZM270.73,14.84c-6.01-5.01-15.92-5.44-21.59.26-12.06,12.11.17,32.19,16.66,26.75,11.39-3.75,14.04-19.4,4.92-27.01ZM470.02,12.12c-4.65-4.69-7.94,5.93-1.62,5.37,2.49-.22,3.35-3.63,1.62-5.37ZM243.76,12.43c-1.34.44-1.48,2.83.24,3.56,3.14,1.34,3.06-4.65-.24-3.56ZM275.82,12.45c-1.66.5-1.39,3.8.3,3.83,2.91.06,2.8-4.76-.3-3.83ZM44.19,21.37c-1.05,3.55-.67,10.27-2.04,13.4-.17.39-.4.79-.89.67l-24.43-18.37,18.38,24.05-.24,1-13.45,1.92c-.74.57,2.23,1.73,2.59,1.9,3.06,1.46,7.26,3.17,10.49,3.98.54.13.64-.33.61.58l-13.69,20.12,20.12-13.7c.92-.03.44.1.6.6,1.2,3.71,2.54,7.48,4.23,11.02.14.29,1.06,2.84,1.63,2.08l1.95-13.42.98-.27c.23.08.39.87.77,1.18,4.22,3.44,8.74,6.73,13.15,9.93.87.64,8.13,6.16,8.55,5.71.12-1.23-.78-2.15-1.4-3.09-3.82-5.81-9.41-13.22-13.9-18.54-.45-.54-1-.78-1.5-1.24l.67-.89,13.4-2.04-3.64-2.02c-3.35-1.03-6.45-3.19-9.96-3.52l-.38-.99,13.59-19.67-19.66,13.61c-1.57-.18-.87-1.39-1.31-2.59-.6-1.6-1.49-3.08-1.89-4.76l-3.31-6.65ZM506.89,17.07l-24.43,18.37c-.49.12-.72-.28-.89-.67-1.37-3.13-.99-9.85-2.04-13.4l-3.31,6.65c-.41,1.68-1.29,3.16-1.89,4.76-.45,1.19.26,2.41-1.31,2.59l-19.66-13.61,13.59,19.67c-.17,1.5-1.75.99-3.16,1.53-2.41.92-4.72,2.17-7.19,2.97l-3.64,2.02,13.4,2.04.67.89c-.5.46-1.05.7-1.5,1.24-4.49,5.33-10.09,12.74-13.9,18.54-.62.94-1.52,1.86-1.4,3.09.42.45,7.68-5.07,8.55-5.71,4.4-3.2,8.93-6.49,13.15-9.93.38-.31.54-1.1.77-1.18l.98.27,1.95,13.42c.57.76,1.49-1.79,1.63-2.08,1.68-3.54,3.03-7.3,4.23-11.02.16-.5-.32-.63.6-.6l20.12,13.7-13.69-20.12c-.03-.91.07-.45.61-.58,3.23-.81,7.43-2.52,10.49-3.98.36-.17,3.34-1.33,2.59-1.9l-13.45-1.92-.24-1,18.38-24.05ZM240.01,18.28c-1.1,1.93-.19,4.91,2.31,3.68,1.98-.98-.53-4.37-2.31-3.68ZM280.98,18.28c-1.78-.69-4.29,2.7-2.31,3.68,2.5,1.23,3.41-1.75,2.31-3.68ZM33.92,18.69c-2,.55-1.74,3.92.39,4.56,4.35,1.32,3.43-5.61-.39-4.56ZM488.44,18.7c-3.55.44-2.89,6.02.86,4.42,2.39-1.02,1.82-4.75-.86-4.42ZM94.25,19.06c-.59.35.08,2.65.53,3.1.95.96,14.39,1.4,16.43,1.17.92-.11,2-.31,2.16-1.39l-.57-1.78c-1.65-1.09-3.52-.25-5.09-.35-4.48-.3-8.95-1.1-13.47-.75ZM429.08,19.06c-4.52-.35-8.99.44-13.47.75-1.57.11-3.44-.73-5.09.35-1.33,1.85-.44,2.94,1.59,3.17s15.48-.2,16.43-1.17c.45-.46,1.12-2.75.53-3.1ZM186.34,21.08c-1.56-.91-9.1-.39-11.45-.47-11.47-.4-22.89-.35-34.4-.39-5.1-.02-10.94-.72-15.99,0-.57.08-1.14-.37-.99.57.13,1.05,1.34,1.5,2.25,1.66,1.77.32,4.92.35,6.95.48,15.46,1.02,32.92,1.1,48.44,1.2,1.28,0,4.48.22,5.42-.38s.42-2.3-.23-2.67ZM399.81,20.2c-4.09,0-8.23-.44-12.3-.42-15.23.06-32.24-.22-47.31.79-1.52.1-3.96.18-4,2.11-.03,1.3,1.5,1.36,2.44,1.44,6.19.55,14.73-.61,21.16-.72,8.27-.14,16.65-.13,24.97-.46,3.78-.15,9.22.15,12.8-.49,1.22-.22,2.47-.82,2.24-2.25ZM91.48,38.96c1.61,1.06,2.87-4.72,3.07-5.73.59-3.01.92-7.16-.54-9.9l-.92,2.97c-.11,1.58-.04,3.19-.31,4.75-.24,1.4-2.37,7.21-1.3,7.91ZM429.9,23.33c-.86-.15-.94.39-1.18,1-.83,2.09-.28,7.58.27,9.88.2.86,1.39,5.75,2.86,4.75,1.06-.73-1.11-6.73-1.36-8.2-.38-2.31-.22-5.04-.59-7.43ZM243.1,25.28c-4.14.75-8.34.53-12.5.39v1.17s12.13-.19,12.13-.19l.38-1.38ZM290.39,25.67l-4.85.35-7.66-.74c-.15,1.25.17,1.44,1.34,1.58,3.24.39,7.78-.63,11.16-.02v-1.17ZM236.46,37.41c-3.36-.68-6.71-1.56-10.07-2.24-17.57-3.57-33.08-6.44-51.02-6.61-16.61-.16-33.01-.12-49.59-.45-7.99-.16-16.21.45-24.14-.87.35,2.52.03,5.43-.43,7.97-3.95,21.77-22.81,43.64-41.26,54.91-11.2,6.84-21.74,10.13-34.51,12.81-.5.1-.75-.1-1.17-.23v660.35c.43-.12.68-.33,1.17-.23,12.77,2.68,23.32,5.97,34.51,12.81,18.45,11.27,37.31,33.14,41.26,54.91.46,2.54.78,5.45.43,7.97,7.93-1.32,16.15-.72,24.14-.87,14.07-.28,28.03-.61,42.1-.72,7.59-.06,16.38.8,23.83.02,10.59-1.11,24.04-4.19,34.68-6.35,3.36-.68,6.71-1.56,10.07-2.24-1.44-4.05-2.88-8.11-4.51-12.1-1.28-3.14-7.43-15.31-6.85-17.74,1.46-1.42,2.92-.09,4.29.75,7.16,4.39,13.3,10.11,20.35,14.63,1.18-7.15,2.56-14.3,3.67-21.46,1.84-11.85,2.96-23.95,4.98-35.77.17-1.01.59-3.85.94-4.53.71-1.37,3.14-.89,3.2.66l9.1,61.1c.74.84,9.27-6.91,10.19-7.59,3.91-2.88,8.26-5.25,12.1-8.24.71-.49,2.45.06,2.67.84.44,1.57-7.56,18.54-8.73,21.66-.69,1.83-2.08,5.26-2.4,7.01-.08.44-.31.67.23,1,6.25,1.19,12.48,2.66,18.72,3.86,9.75,1.86,20.57,4.17,30.32,4.51,21.08.73,42.17.31,63.21.72,7.99.16,16.21-.45,24.14.87-.35-2.52-.03-5.43.43-7.97,3.95-21.77,22.81-43.64,41.26-54.91,11.2-6.84,21.74-10.13,34.51-12.81.5-.1.75.1,1.17.23V102.69c-.43.12-.68.33-1.17.23-12.77-2.68-23.32-5.97-34.51-12.81-18.45-11.27-37.31-33.14-41.26-54.91-.46-2.54-.78-5.45-.43-7.97-7.93,1.32-16.15.72-24.14.87-21.04.41-42.13,0-63.21.72-9.75.34-20.58,2.65-30.32,4.51-6.32,1.21-12.66,2.59-18.94,4.04-.3.38,2.1,7.04,2.5,8.1,1.17,3.07,9.06,19.79,8.62,21.37-.18.64-1.46,1.1-2.08,1.04-1.85-.18-10.12-7.5-12.69-8.44-.72-1.02-9.66-8.19-10.19-7.59l-9.1,61.1c-.02,1.15-1.34,1.68-2.35,1.4-1.17-.32-1.59-4.05-1.79-5.27-2.01-11.82-3.13-23.92-4.98-35.77-1.11-7.16-2.49-14.31-3.67-21.46-7.05,4.52-13.19,10.23-20.35,14.63-1.36.84-2.82,2.17-4.29.75-.59-2.43,5.57-14.59,6.85-17.74,1.62-3.99,3.06-8.05,4.51-12.1ZM242.23,30.06c-1.12-1.96-4.23.09-3.23,1.85,1.37,2.43,4.47.31,3.23-1.85ZM278.76,30.06c-1.24,2.16,1.87,4.28,3.23,1.85,1-1.77-2.11-3.81-3.23-1.85ZM244.61,38.51c1.3-2.05-2.39-4.76-3-1.61-.44,2.23,2.54,2.34,3,1.61ZM276.38,38.51c.46.73,3.44.62,3-1.61-.62-3.16-4.3-.45-3,1.61ZM247.67,40.26c-.35-.47-2.07-1.21-2.57-.87-1.41,2.32,1.41,4.98,3,2.46.07-.32-.22-1.31-.43-1.59ZM275.9,39.39c-2.51-.48-4.57,3.03-1.35,3.5,1.75-.58,2.16-1.9,1.35-3.5ZM252.82,45.56c.8-1.28-.77-3.01-2.27-2.67-.42,1.32-1.05,3.17.92,3.1.25,0,1.28-.31,1.35-.43ZM270.44,42.89c-2.41-.39-3.58,3.01-.92,3.1,1.97.07,1.34-1.79.92-3.1ZM255.88,44.48c-1.61.4-1.64,3.94,1.04,3.04,1.34-.45.61-3.45-1.04-3.04ZM259.52,45.02v11.34c0,.74,1.95.74,1.95,0v-11.34c0-.58-1.69-.92-1.95,0ZM264.48,44.48c-1.61.4-1.64,3.94,1.04,3.04,1.34-.45.61-3.45-1.04-3.04ZM89.33,46.79c-.71.62-1.2,1.43-1.69,2.23-1.3,2.14-4.93,8.36-5.64,10.39-.26.75-.52.86.29,1.45.85.16,1.06-.32,1.53-.81,1.26-1.31,6.74-11.35,6.47-12.67l-.97-.59ZM433.62,46.79c-.58.12-.51.7-.42,1.19.38,2.1,4.93,10.9,6.47,12.31.43.4.69.72,1.37.58.81-.6.55-.7.29-1.45-.39-1.11-5.91-11.09-6.57-11.81-.31-.33-.56-.93-1.13-.81ZM35.5,73.06c-7.71,1.14-6.81,12.35.26,12.01,7.78-.37,6.62-13.03-.26-12.01ZM486.08,73.06c-3.56.58-4.82,6.69-3.21,9.28,1.6,2.57,5.02,3.31,7.66,1.84,5.87-3.26,1.74-12.13-4.46-11.12ZM18.79,98.78c6.92-.56,13.63-1.87,20.15-4.28,1.68-.62,9.98-3.66,9.56-5.68l-1.28-.53c-4.72,2.1-10.01,4.93-15.04,6.09-4.31.99-9.37.82-13.5,1.74-.94.21-2.34,1.67-2.55,2.56-.2.84.38,1.98.36,3.02-.64,36.01.29,72.38-.02,108.71-.05,5.41-.53,10.82-.84,16.01-.02.38.42,4.3.51,4.62.16.55.7,1.01,1.29,1.07,2.91,0,1.38-7.18,1.35-8.79-.27-13.61.26-27.23-.23-40.74l.24-83.8ZM504.55,98.78c.06,11.94-.03,23.89-.02,35.8.02,29.53.62,59.2.03,88.75-.03,1.61-1.56,8.79,1.35,8.79.59-.06,1.13-.52,1.29-1.07.09-.32.53-4.24.51-4.62-.5-8.39-.79-17.18-.83-25.78-.16-33.11.55-66.15-.03-98.94-.02-1.04.56-2.18.36-3.02-.21-.89-1.61-2.35-2.55-2.56-4.13-.93-9.19-.75-13.5-1.74-5.03-1.16-10.32-3.99-15.04-6.09l-1.28.53c-.43,2.02,7.88,5.06,9.56,5.68,6.52,2.41,13.23,3.72,20.15,4.28ZM17.99,239.15c-.27-.18-1.56.19-1.84.47-1.27,1.28.19,9.59-.11,11.77,2.92,1.88,1.96-3.84,2.02-5.37.08-2.2.91-4.62-.06-6.87ZM507.19,239.63c-.29-.29-1.57-.66-1.84-.47-.16.58-.35,1.14-.41,1.74-.14,1.45,0,8.02.35,9.39s.75,2.23,2.02,1.11c-.3-2.17,1.16-10.49-.11-11.77ZM17.14,258c-4.73.5-4.83,8.09.28,7.76,4.18-.27,2.95-7.55.77-7.87-.36-.05-.7.08-1.05.11ZM504.81,257.96c-3.38,2.92-1.53,9.82,3.36,7.3,3.44-1.78.85-8.47-3.36-7.3ZM18.67,276.16c1.82-1.49.33-5.91-2.38-4.21.04.65-.99,1.39-1.01,1.48-.51,2.2,1.5,4.27,3.39,2.72ZM507.18,272.12c-2.38-2.55-4.83,3.14-2.15,4.3,2.05.88,3.5-.99,3.02-2.98-.06-.25-.52-.29-.61-.45-.17-.29-.16-.76-.26-.87ZM11.84,361.6c-.46,1.72,1.7,5.51,3.64,4.26,2.88-1.86.77-6.84-1.5-6.25l-2.14,1.99ZM511.5,361.6c-1.47-.51-1.27-2.42-3.05-1.88-2.21.68-2.8,4.71-.59,6.14,1.94,1.26,4.1-2.54,3.64-4.26ZM11.51,381.7c2.66,1.65,5.12,1.23,6.41-1.73.76-1.75.15-5.28-.74-6.87-1.1-1.98-4.1-1.26-5.71-.33-2.99,1.73-2.83,7.15.04,8.93ZM512.16,381.25c2.56-2.15,2.63-6.8-.29-8.49-.93-.54-3.48-1.22-4.47-.8-2.08.87-2.86,6.22-1.84,8.27,1.53,3.07,4.21,3.03,6.61,1.02ZM18.29,394.24c.24-.19,1.09-1.69,1.12-2.02.35-4.08-6.66-4.2-5.68.76.39,1.95,3.23,2.35,4.57,1.26ZM508.7,389.82c-5.71-2.95-6.4,5.91-.85,4.92,2.13-.38,2.52-4.06.85-4.92ZM18.29,471.49c-1.33-1.09-4.18-.69-4.57,1.26-.5,2.53,1.08,4.17,3.68,3.7,2.17-.39,2.52-3.62.88-4.97ZM509.5,475.19c2.11-6.43-7.83-4.72-5.12.07,1.11,1.96,4.68,1.28,5.12-.07ZM11.18,484.48c-2.56,2.15-2.63,6.8.29,8.49.93.54,3.48,1.22,4.47.8,2.08-.87,2.86-6.22,1.84-8.27-1.53-3.07-4.21-3.03-6.61-1.02ZM511.83,484.04c-2.66-1.65-5.12-1.23-6.41,1.73-.76,1.75-.15,5.28.74,6.87,1.1,1.98,4.1,1.26,5.71.33,2.99-1.73,2.83-7.15-.04-8.93ZM11.84,504.14c1.47.51,1.27,2.42,3.05,1.88,2.21-.68,2.8-4.71.59-6.14-1.94-1.26-4.1,2.54-3.64,4.26ZM511.5,504.14c.46-1.72-1.7-5.51-3.64-4.26-2.88,1.86-.77,6.84,1.5,6.25l2.14-1.99ZM18.67,589.57c-1.89-1.55-3.9.53-3.39,2.72.02.09,1.05.83,1.01,1.48,2.71,1.71,4.2-2.71,2.38-4.21ZM507.93,592.46c1.7-4.88-6.73-4.18-3.23,1.33.59.51,1.45.4,2.11.09.08-.04,1.08-1.34,1.11-1.42ZM16.35,600.1c-4.84.81-2.78,8.79,2.18,7.68,2.73-2.48,2.37-8.44-2.18-7.68ZM505.22,600.08c-.99.3-2.24,2.17-2.24,3.24-.01,1.32.88,4.52,2.53,4.53,6.05.03,5.2-9.4-.28-7.77ZM17.99,626.58c.97-2.26.14-4.68.06-6.87-.06-1.53.91-7.25-2.02-5.37.3,2.18-1.16,10.49.11,11.77.29.29,1.57.66,1.84.47ZM507.24,614.13l-1.14-.26c-.63.4-.65.95-.81,1.58-.36,1.37-.47,7.51-.37,9.01.11,1.51.65,3.27,2.27,1.65,1.25-1.26-.15-9.81.06-11.98ZM18.79,766.95c-.06-11.94.03-23.89.02-35.8-.02-29.53-.62-59.2-.03-88.75.03-1.61,1.56-8.79-1.35-8.79-.59.06-1.13.52-1.29,1.07-.09.32-.53,4.24-.51,4.62.5,8.39.79,17.18.83,25.78.16,33.11-.55,66.15.03,98.94.02,1.04-.56,2.18-.36,3.02.21.89,1.61,2.35,2.55,2.56,4.13.93,9.19.75,13.5,1.74,5.03,1.16,10.32,3.99,15.04,6.09l1.28-.53c.43-2.02-7.88-5.06-9.56-5.68-6.52-2.41-13.23-3.72-20.15-4.28ZM504.55,766.95c-6.92.56-13.63,1.87-20.15,4.28-1.68.62-9.98,3.66-9.56,5.68l1.28.53c4.72-2.1,10.01-4.93,15.04-6.09,4.31-.99,9.37-.82,13.5-1.74.94-.21,2.34-1.67,2.55-2.56.2-.84-.38-1.98-.36-3.02.64-36.01-.29-72.38.02-108.71.05-5.41.53-10.82.84-16.01.02-.38-.42-4.3-.51-4.62-.16-.55-.7-1.01-1.29-1.07-2.91,0-1.38,7.18-1.35,8.79.27,13.61-.26,27.23.23,40.74l-.24,83.8ZM35.12,780.72c-5.43.48-6.91,7.58-2.63,10.65,5.51,3.94,9.47-.92,8.55-6.6-.38-2.31-3.65-4.25-5.92-4.05ZM487.26,780.71c-9.12,1.03-4.76,17.2,3.8,10.48,4.51-3.54,1.77-11.11-3.8-10.48ZM73.5,791.98c-.42-.45-7.68,5.07-8.55,5.71-4.4,3.2-8.93,6.49-13.15,9.93-.38.31-.54,1.1-.77,1.18l-.98-.27-1.95-13.42c-.57-.76-1.49,1.79-1.63,2.08-1.68,3.54-3.03,7.3-4.23,11.02-.16.5.32.63-.6.6l-20.12-13.7,13.69,20.12c.03.91-.07.45-.61.58-3.23.81-7.43,2.52-10.49,3.98-.36.17-3.34,1.33-2.59,1.9l13.45,1.92.24,1-18.38,24.05,24.43-18.37c.49-.12.72.28.89.67,1.37,3.13.99,9.85,2.04,13.4l3.31-6.65c.41-1.68,1.29-3.16,1.89-4.76.45-1.19-.26-2.41,1.31-2.59l19.66,13.61-13.59-19.67c.17-1.5,1.75-.99,3.16-1.53,2.41-.92,4.72-2.17,7.19-2.97l3.64-2.02-13.4-2.04-.67-.89c.5-.46,1.05-.7,1.5-1.24,4.49-5.33,10.09-12.74,13.9-18.54.62-.94,1.52-1.86,1.4-3.09ZM472.57,808.71c-.11-.06-.28-.78-.64-1.09-4.05-3.39-8.85-6.8-13.15-9.93-.87-.64-8.13-6.16-8.55-5.71-.12,1.23.78,2.15,1.4,3.09,3.82,5.81,9.41,13.22,13.9,18.54.45.54,1,.78,1.5,1.24l-.67.89-13.4,2.04,3.64,2.02c3.35,1.03,6.45,3.19,9.96,3.52l.38.99-13.59,19.67,19.66-13.61c1.57.18.87,1.39,1.31,2.59.6,1.6,1.49,3.08,1.89,4.76l3.31,6.65c1.05-3.55.67-10.27,2.04-13.4.17-.39.4-.79.89-.67l24.43,18.37-18.38-24.05.24-1,13.45-1.92c.74-.57-2.23-1.73-2.59-1.9-3.06-1.46-7.26-3.17-10.49-3.98-.54-.13-.64.33-.61-.58l13.69-20.12-20.12,13.7c-.92.03-.44-.1-.6-.6-1.2-3.71-2.54-7.48-4.23-11.02-.14-.29-1.06-2.84-1.63-2.08l-1.96,13.68c-.35-.03-.77.11-1.1-.08ZM82.3,804.88c-.81.6-.55.7-.29,1.45.39,1.11,5.91,11.09,6.57,11.81.9.96,1.84,1.21,1.56-.37-.38-2.1-4.93-10.9-6.47-12.31-.43-.4-.69-.72-1.37-.58ZM440.32,804.93c-1.46.4-6.79,10.97-7.12,12.83-.49,2.74,1.84.03,2.49-1.04,2.03-3.36,3.58-7.33,5.77-10.66.42-.77-.34-1.4-1.14-1.14ZM259.52,809.37v11.34c0,.74,1.95.74,1.95,0v-11.34c0-.58-1.69-.92-1.95,0ZM255.47,818.22c-1.34.45-.61,3.45,1.04,3.04s1.64-3.94-1.04-3.04ZM264.06,818.22c-1.34.45-.61,3.45,1.04,3.04s1.64-3.94-1.04-3.04ZM252.82,820.18c-.07-.12-1.1-.42-1.35-.43-1.97-.07-1.34,1.79-.92,3.1,1.5.34,3.08-1.39,2.27-2.67ZM270.44,822.85c.42-1.32,1.05-3.17-.92-3.1-2.66.09-1.49,3.49.92,3.1ZM247.67,825.48c.21-.28.49-1.27.43-1.59-1.59-2.52-4.41.14-3,2.46.5.34,2.22-.4,2.57-.87ZM272.28,849.31c12.07-14.05-4.87-33.38-20.54-23.87-14.31,8.69-6.3,32.75,11.39,28.98,3.13-.67,7.07-2.7,9.15-5.12ZM275.9,826.35c.81-1.6.39-2.92-1.35-3.5-3.22.47-1.16,3.98,1.35,3.5ZM93.43,842.41c.86.15.94-.39,1.18-1,.83-2.09.28-7.58-.27-9.88-.2-.86-1.39-5.75-2.86-4.75-1.06.73,1.11,6.73,1.36,8.2.38,2.31.22,5.04.59,7.43ZM244.61,827.22c-.46-.73-3.44-.62-3,1.61.62,3.16,4.3.45,3-1.61ZM276.38,827.22c-1.3,2.05,2.39,4.76,3,1.61.44-2.23-2.54-2.34-3-1.61ZM431.85,826.77c-1.61-1.06-2.87,4.72-3.07,5.73-.59,3.01-.92,7.16.54,9.9l.92-2.97c.11-1.58.04-3.19.31-4.75.24-1.4,2.37-7.21,1.3-7.91ZM242.23,835.68c1.24-2.16-1.87-4.28-3.23-1.85-1,1.77,2.11,3.81,3.23,1.85ZM278.76,835.68c1.12,1.96,4.23-.09,3.23-1.85-1.37-2.43-4.47-.31-3.23,1.85ZM243.1,840.45l-.38-1.38-12.12-.19v1.17s4.84-.35,4.84-.35l7.66.74ZM290.39,838.89l-12.12.19-.38,1.38c4.14-.75,8.34-.53,12.5-.39v-1.17ZM186.73,842.12c-1.23-1.17-6.28-.18-7.96-.15-15.16.26-30.49-.16-45.69.82-2.05.13-5.94.18-7.63.58-1.14.27-2.14.85-1.93,2.17,4.09,0,8.23.44,12.3.42,12.93-.05,26.14-.37,39.07-.83,2.34-.08,9.88.44,11.45-.47.6-.35,1.06-1.9.39-2.54ZM399.81,845.54c.23-1.44-1.02-2.03-2.24-2.25-3.58-.64-9.02-.34-12.8-.49-5.2-.21-10.42-.24-15.66-.38-9.1-.24-21.82-1.57-30.48-.81-.94.08-2.47.14-2.44,1.44.05,1.93,2.48,2.01,4,2.11,15.07,1.01,32.08.74,47.31.79,4.07.02,8.21-.42,12.3-.42ZM34.31,842.49c-2.38.72-2.24,4.4-.07,4.62,3.81.38,4.1-5.84.07-4.62ZM94.25,846.67c4.52.35,8.99-.44,13.47-.75,1.57-.11,3.44.73,5.09-.35,1.33-1.85.44-2.94-1.59-3.17s-15.48.2-16.43,1.17c-.45.46-1.12,2.75-.53,3.1ZM429.08,846.67c.59-.35-.08-2.65-.53-3.1-.95-.96-14.39-1.4-16.43-1.17-.92.11-2,.31-2.16,1.39l.57,1.78c1.65,1.09,3.52.25,5.09.35,4.48.3,8.95,1.1,13.47.75ZM487.24,842.49c-1.84.56-1.48,4.22,1.2,4.55,3.74.46,2.7-5.73-1.2-4.55ZM240.01,847.46c1.78.69,4.29-2.7,2.31-3.68-2.5-1.23-3.41,1.75-2.31,3.68ZM280.98,847.46c1.1-1.93.19-4.91-2.31-3.68-1.98.98.53,4.37,2.31,3.68ZM53.31,853.61c4.65,4.69,7.94-5.93,1.62-5.37-2.49.22-3.35,3.63-1.62,5.37ZM470.02,853.61c1.73-1.75.88-5.15-1.62-5.37-6.32-.56-3.03,10.06,1.62,5.37ZM244.56,849.5c-3.03.44-1.94,5.08.89,3.66,1.39-.69,1.06-3.95-.89-3.66ZM275.82,849.5c-1.85.45-1.43,4.75,1.42,3.81,2-.66.8-4.35-1.42-3.81ZM251.15,857.12c2.36-4.45-5.23-3.2-2.19.73.78.59,1.81-.03,2.19-.73ZM270.55,857.94c.54.2.98.22,1.48-.08,3-3.75-4.08-5.14-2.47-1.07.03.07.92,1.13.99,1.15ZM257.11,857.33c-1-1.58-4.35,1.02-2.64,3.03l2.5-.74c.25-.44.37-1.92.13-2.29ZM266.51,860.36c1.84-3.6-3.91-5.19-2.5-.74l2.5.74ZM260.49,857.28c-.77,0-1.01,4.83,0,5.46.88,0,.88-5.46,0-5.46Z"/>
          <path class="cls-2" d="M218.1,76.1c8.74-1.8,15.8-7.16,23.74-10.84.45-.21.46-.71.8-.87,1.48-.72,3.12.29,3.51,1.83,1.17,4.63,1.24,10.91,2.14,15.84,2.07,11.24,5.05,22.42,7.44,33.61l4.77,15.55,4.78-15.55c2.39-11.19,5.37-22.37,7.44-33.61.91-4.93.97-11.21,2.14-15.84.39-1.54,2.03-2.55,3.51-1.83.34.16.35.67.8.87,7.94,3.67,15,9.04,23.74,10.84l-10.31-32.15c-.35-1.06.96-1.55,1.65-2.12,11.03-2.19,22.35-6.41,33.27-8.55,16.17-3.16,37.67,1.5,54.51-1.76l29.33.02c.33.01.56.15.79.38.68.68,1.14,9.8,1.53,11.76,1.27,6.33,7,17.9,10.68,23.33,12.31,18.18,38.48,37.91,60.17,42.24,1.33.27,3.38-.18,4.54.54s1.74,3.2,1.83,4.42c.46,6.4.13,14.17.16,20.73.24,55.93-.92,111.03-.52,166.55.31,43.26.65,86.45.66,129.81.02,106.94-1.06,212.75-.32,320.19.04,1.02-.96,3.52-1.81,4.05-1.16.73-3.21.28-4.54.54-28.75,5.74-59.52,33.34-69.36,60.8-2,5.59-1.64,9.59-2.47,15.12-.09.63-.37,1.5-1.02,1.72-15.36.08-30.8.46-46.04-1.12-11.77-.85-26.78,1.66-38.12-.56-10.92-2.14-22.24-6.37-33.27-8.55-.69-.57-2-1.06-1.65-2.12l10.31-32.15c-8.74,1.8-15.8,7.16-23.74,10.84-.45.21-.46.71-.8.87-1.48.72-3.12-.29-3.51-1.83-1.17-4.63-1.24-10.91-2.14-15.84-1.17-6.36-3.4-12.89-3.99-19.47-2.64-9.93-4.7-20.02-8.23-29.7l-4.77,15.55c-2.39,11.19-5.37,22.37-7.44,33.61-.91,4.93-.97,11.21-2.14,15.84-.39,1.54-2.03,2.55-3.51,1.83-.34-.16-.35-.67-.8-.87-7.94-3.67-15-9.04-23.74-10.84l10.34,32.86-2.74,1.92c-11.31,1.18-24.6,7.69-35.55,8.61-16.59,1.4-34.47-1.34-51.17,1.2l-29.92-.21c-.46-.42-.66-1-.75-1.59-.82-5.53-.47-9.54-2.47-15.12-9.84-27.46-40.61-55.06-69.36-60.8-1.33-.27-3.38.18-4.54-.54s-1.74-3.2-1.83-4.42c-.46-6.4-.13-14.17-.16-20.73-.21-50.16.47-99.7.31-149.4-.26-78.22-.24-156.76-.18-234.96.05-70.47-.43-140.25-.13-211.08.03-6.56-.31-14.34.16-20.73.09-1.23.73-3.73,1.83-4.42,1.16-.73,3.21-.28,4.54-.54,21.68-4.33,47.86-24.06,60.17-42.24,3.68-5.44,9.41-17,10.68-23.33.75-3.76.49-8.15,1.53-11.76l.79-.38c15.25.06,30.59-.43,45.72,1.19h34.78s35.84,8.7,35.84,8.7l2.48,2.25-10.38,32.42Z"/>
        </g>
      </g>
      <g id="CyTaF7.tif">
        <g>
          <path class="cls-1" d="M481.07,458.63v.39c-.87,2.16-.73,2.86-3.32,3.13-1.96.2-12.86.23-14-.46-1.34-.8-.41-2.18.4-3.07h16.92Z"/>
          <path class="cls-1" d="M236.43,310.84c.7.45,8.36-.99,9.92-1.12,10.03-.82,20.73-.8,30.76.12,3.48.32,6.99,1.05,10.48,1.44-.27-1.88.13-4.06.5-5.95,3.43-17.6,6.17-35.24,9.17-52.98,3.93-23.3,7.35-46.85,11.57-70.13,1.66-9.18,3.99-18.22,6.14-27.28,1.42-.06,2.52.12,2.73,1.79.11.95-.63,5.98-.83,7.34-2.69,18.59-6.04,37.54-9.31,55.96-2.94,16.58-6.64,33.02-8.97,49.67-1.88,13.48-3.23,27.07-4.78,40.56-.09.8-.46,1.46-.75,2.18l16.02,4.3c-.06-3.95,2.11-7.65,3.33-11.33,6.21-18.71,13.55-36.73,20.1-55.34.47-1.34,1.67-8.1,3.66-7.93s2.32,1.61,2.24,3.27c-.24,5.1-3.2,12.2-4.69,17.21-4.77,16.04-10.33,32.37-16.42,47.68-.47,1.17-3.15,6.87-3.14,7.42.02,1.38,4.61,2.43,5.94,3.03,2.41,1.1,6.12,3.39,8.42,4.1.38.12.83.23,1.2.02.32-.19,2.95-5.66,3.44-6.53,16.51-29.86,31.62-60.81,49-90.43,1.1-1.79,3.95-.85,3.84,1-.04.7-3.67,8-4.32,9.35-11.03,22.65-23.42,44.69-35.01,67.01-3.92,7.54-7.31,15.36-11.79,22.6l13.67,8.79c.71-2.92,3.4-4.68,5.08-6.85,10.03-12.97,20.28-25.85,30.71-38.48,3.83-4.64,7.44-9.5,11.3-14.11,2.1-.82,2.75.35,2.39,2.39-.51,2.85-7.43,11.49-9.61,14.24-9.31,11.74-18.89,23.11-27.91,35.02-2.57,3.4-4.54,7.61-8,10.18l12.66,11.29c.63-.83,1.18-1.64,1.95-2.35,16.45-15.37,31.35-32.56,47.49-48.66,12.34-12.31,25.77-23.49,37.31-36.56l1.37-.34c1.07,2.05.69,2.3-.36,4.09-6.39,10.95-20.81,22.47-29.93,31.43-17.74,17.43-34.27,36.4-51.76,54.15-.62.63-.77,1.75-1.96,1.78l8.4,9.75c1.04-1.09,2.72-1.59,3.82-2.33,12.13-8.2,23.28-19.19,36.24-26.4,1.41-.78,2.68-1.44,4.31-.96.11,1.1-.74,1.95-1.36,2.74-4.9,6.18-21.22,17.67-28.25,23.04-3.45,2.64-7.27,4.88-10.67,7.62l-.31.72,1.03,1.64c-1.22,1.22-1.89,2.73-1.86,4.49-.65.15-.79-.21-1.16-.59-2.06-2.11-4.28-6.09-6.28-8.48-18.56-22.15-46.23-39.44-74.16-46.71-53.71-13.97-109.33,3.89-146.03,44.49-.9.99-4.69,6.29-5.45,6.15-.46-.08-.71-.96-1.44-.73,1.74,1.85,3.56,4.5,4.13,7,.56,2.46-.7,4.55-.04,6.69.51,1.68,4.53,7.66,5.76,9.48,5.16,7.69,11.7,15.53,18.69,21.57.76.66,3.95,3.46,4.51,3.7.59.25.6-.13.59-.59-.02-2.6-3.48-14.68-4.77-17.13-.83-1.58-2.94-2.83-3.55-4.66-2.45-7.4,6.15-10.54,9.87-5.17,1.46,2.11,3.61,9.98,4.9,13.08,2.4,5.76,5.64,11.22,7.45,17.24,5.02-.11,8.59-5.49,10.87-9.45,5.97-10.4,9.67-23.28,9.25-35.3-7.78-2.15-7.12-16.77,1-17.77,5.18-.64,9.73.64,11,6.11.96,4.15.26,5.97-1.52,9.61-.31.64-1.32.99-1.05,1.9,1.86,7.8,5.51,14.79,9.93,21.38,5.97,8.89,13.85,18.98,24.59,21.93l2.15-15.84,1.21-15.64c-.08-1.5-2.7-2.39-3.13-5.5-.85-6.18,1.95-12.23,9.13-11.08,1.38.22,5.32,2.92,5.9,4.25,1.3,2.97,1.15,7.5-.82,10.16-.75,1-1.81,1.28-2.15,2.16,1.57,7.15,1.73,14.61,2.81,21.86.44,2.97,1.71,6.34,1.52,9.23.75.52,7.28-3.57,8.34-4.36,3.91-2.92,8.17-8,11.13-11.93,6.05-8.03,11.34-16.73,13.69-26.62-.75-2.13-2.62-4.33-2.97-6.63-.26-1.74.41-5.65,1.18-7.23,1.7-3.49,6.35-4.17,9.87-3.8,8.52.88,9.23,15.44,1.35,17.8-.42,12.12,3.35,25.09,9.39,35.55,2.23,3.86,5.94,9.35,10.93,9.14,2.48-8.07,6.64-15.46,9.71-23.32,1.77-4.54,1.92-10.67,8.8-9.39,3.67.68,4.56,4.42,3.5,7.62-.61,1.84-2.71,3.08-3.55,4.66-1.29,2.45-4.75,14.52-4.77,17.13,0,.45,0,.84.59.59.55-.24,3.74-3.04,4.51-3.7,5.92-5.12,11.33-11.33,15.95-17.66,1.97-2.7,8.75-12.46,8.7-15.18-.03-1.46-.62-2.56-.39-4.27.37-2.67,3.61-8.01,6.21-9.03,3.63-1.42,8.88-.37,10.85,3.24,1.87,3.43,1.3,4.76.98,8.2-.05.58-.41,1.02.49.87l7.28-4.84c6.15-2.82,12.13-7.74,18.32-10.61,2.59-1.2,4.2-1.43,7.04-1.75l-3.93,4.47c-10.08,6.53-20,12.74-29.71,19.93-3.07,2.28-3.88.73-1.89,5,.13.29.52.28.64.5.08.14-.23.89.28,1.36.94.87,3.94.37,4.13,2.73l51.1-18.66,1.66-.1c.48,3.03-.49,2.92-2.79,4.05l-48.31,19.31-1.24,1.84,5.05,15.05c7.46-1.39,14.91-3.06,22.28-4.86,2.08-.51,12.51-4.12,13.65-2.93.02.67.26,1.4-.23,1.97-.58.68-6.92,2.96-8.24,3.39-8.33,2.72-17.1,4.11-25.51,6.54-1.15,1.15.17,2.21.38,3.18.77,3.53,1.32,7.1,1.98,10.69,4.23.05,8.48-.04,12.68-.38,11.87-.96,24.6-3.7,36.36-4.29.8-.04,2.03-.28,2.42.58,1.29,2.98-8.66,4.03-10.34,4.79l-39.6,5.35c-.88.6.12,3.7.19,4.73.27,3.9.33,7.61.62,11.52,7.99.3,16.07.07,24.05.38.83.03,1.57.36,2.33.4,1,.06,6.75-.22,6.86.62-.05,2.1-.44,2.11-2.22,2.45-8.07,1.58-19.3.29-27.72.82-1.11.07-2.17.5-3.3.41l-1.18,15.63c5.12.47,10.3.91,15.38,1.62,7.74,1.08,16.57,2.13,24.18,3.57,2.1.4,7.97,1.62,9.58,2.54,1.03.59,1.25,1.33,1.11,2.45-.6.62-1.96.41-2.75.37-11.66-.62-24.23-3.29-35.97-4.29-4.05-.35-8.19-.41-12.27-.36l-2.74,13.99,25.19,6.27c1.14.37,8.12,3.04,8.53,3.49.36.4.41,1.31.27,1.75-.54,1.78-10.83-1.98-12.45-2.38-7.67-1.88-15.43-3.51-23.14-5.2-1.28,5.75-3.45,11.25-5.87,16.61,11.8,3.63,22.96,9.07,34.41,13.68,2.42.97,17.66,6.21,18.28,7.32.33.57-.03,1.92.08,2.66l-54.93-18.78-3.65,7.33c-.35,1.34,1.72,1.61,2.65,2.28,5.7,4.15,11.36,8.18,17.25,12.07,5.69,3.75,12.43,6.58,16.39,12.33-2.9-.25-4.77-.55-7.39-1.8-5.24-2.5-12.29-7.07-17.27-10.09-4.94-2.99-9.64-6.36-14.61-9.24l-6.58,10.47c-1.49-.02-.91.98-1.58,2.14-.34.59-2.6,2.5-2.61,2.85l30.96,23.66c1,1.27,11.05,8.61,9.68,10.14-.68-.01-1.26.37-1.96.22-1.71-.36-8.85-5.43-10.83-6.77-10.55-7.15-20.35-15.43-30.81-22.75h-.54s-1.62,2.7-1.62,2.7l-.69-.32c-.31.75-.7,1.49-1.25,2.1-1.36,1.52-3.26,3.12-4.66,4.68,7.48,8.16,15.27,15.98,22.86,24.03,10.13,10.75,19.95,21.68,30.47,32.07,9.18,9.07,18.59,16.92,26.78,27.16.99,1.24,4.37,5.53,4.14,6.83-.07.42-.63.98-.64,1.54l-1.36-.35c-13.37-14.63-28.47-27.57-42.41-41.64-13.29-13.41-25.58-27.62-38.82-40.71-1.53-1.52-3.73-2.7-5.19-4.41-.24-.04-1.75,1.02-1.98,1.26-1.91,2.01-5.35,5.03-7.73,6.92-.54.43-3.61,2.01-3.32,2.34.31-.05.56.06.77.3,8.25,9.2,15.5,21,23.22,30.81,6.13,7.79,13.73,15.4,19.16,23.66.96,1.46,3.62,5.24,2.2,6.8l-1.39.57c-1.21-.05-2.17-2.43-2.93-3.3-14.88-17.03-30.04-35.96-43.77-53.95-.6-.78-.36-2-1.76-1.77-.18.14-.17.58-.32.65-2.76,1.27-8.35,4.38-11.07,6.15-.22.14-1.3,1.25-1.28,1.54.7.99.93,2.22,1.46,3.27,14.47,28.66,30.74,56.99,44.92,86.02.65,1.34,4.28,8.65,4.32,9.35.11,1.85-2.73,2.79-3.84,1-12.19-20.65-23.22-42.03-34.47-63.14-4.91-9.22-9.57-18.28-14.54-27.29-1.18-2.14-2.27-4.4-3.42-6.57-.56-.39-7.02,3.07-8.17,3.58-1.4.62-7.4,2.22-7.42,3.6l3.15,7.43c6.67,18.82,14.66,38.17,19.46,57.93.48,1.99,1.55,4.87,1.65,6.96.11,2.43-.55,2.91-2.89,3.3-1.27-.36-2.65-6.89-3.12-8.25-6.43-18.58-13.95-36.49-20.08-54.96-1.22-3.67-3.24-7.51-3.25-11.41l-16.02,3.91c-.18.98.65,1.67.76,2.56,2.33,18.9,3.82,38.2,7.11,57,2.01,11.52,5.23,23.06,7.23,34.52,2.54,14.58,4.15,29.36,6.5,43.99.83,5.17,3.19,12.65,3.05,17.71-.05,1.81-1.18,2.26-2.75,2.13-2.16-9.06-4.47-18.1-6.14-27.28-4.24-23.25-7.64-46.84-11.57-70.13-2.99-17.74-5.62-35.4-9.16-52.98-.27-1.36-.34-5-.59-5.7-.11-.3-.21-.51-.54-.61-6.85.95-13.75,1.85-20.68,1.95-5.9.08-13.21-.15-19.13-.81-1.72-.19-10.27-1.98-11.15-1.55.19,4.58-1.77,9.18-2.62,13.6-3.03,15.84-4.51,32.63-7.26,48.64-1.94,11.27-4.56,22.48-6.49,33.77-2.94,17.16-4.59,34.43-8.83,51.36-.31,1.25-2.21,8.45-2.77,8.58-.89-.17-2.02-.8-2.14-1.77-.13-1.03.59-5.51.8-6.98,2.96-20.15,6.13-41.73,9.87-61.68,3.39-18.06,7.18-34.88,9.66-53.27,1.36-10.13,3.09-21.54,3.52-31.65.03-.73.45-1.41.39-2.15l-15.63-4.3c-.13,3.8-2.13,7.68-3.34,11.33-4.32,13.01-9.42,24.9-14.12,37.87-2.46,6.78-4.27,13.84-6.77,20.59-.43,1.15-1.38,4.27-2.37,4.69-1.11.48-1.59-1.12-2.75-1.22.14-6.84,2.91-13.31,4.83-19.8,3.65-12.36,7.84-24.99,12.29-37.04,2.21-5.99,4.79-11.87,7.18-17.79l-.09-.54-14.68-6.64c-1.15-.18-4.33,6.77-5.05,8.11-14.49,26.75-28.31,54.74-44,81.47-1.8,3.07-2.83,7.25-6.34,8.84l-1.82-1.77c3.64-8.08,7.6-16.02,11.63-23.91,10.64-20.83,22.18-42.06,32.91-62.95l6.69-12.77-13.7-8.24-47.02,59.11-1.21.54c-1.33-1.41-1.8-.59-1.23-3.17,1.05-4.8,12.32-16.53,15.85-20.99,8.67-10.94,16.61-22.51,24.99-33.42.6-.78,4.69-4.64,4.7-5.16l-12.69-11.13c-.84,2.09-2.61,2.62-3.91,3.92-8.18,8.16-15.93,16.89-24.03,25.2-13.95,14.34-28.5,28.08-42.82,42.02-5.7,5.55-10.88,11.83-16.81,17.12-2.86-1.6.77-5.72,2.16-7.55,8.97-11.81,20.58-21.15,31.03-31.51,15.21-15.07,29.33-31.19,44-46.68,1.01-1.06,6.28-5.68,6.27-6.63-1.41-1.24-2.86-2.7-4.12-4.1-.85-.94-3.48-4.92-4.59-4.64-.33.08-4.81,2.98-5.47,3.45-8.43,6-16.55,13.14-25.19,19.09-2.4,1.66-7.83,5.71-10.19,6.62-1.1.42-2.02.63-3.22.49.86-4.13,5.44-5.99,8.02-8.98l32.66-24.87c.35-1.66-2.39-3.84-3.18-5.02-.47-.7-.9-1.54-1.48-2.41-1.7-2.57-3.37-5.2-4.8-7.91-1.31-.32-2.44.12-3.57.74-.24.13-.32.59-.59.76-8.96,5.53-17.83,11.18-27.13,16.09-1.38.73-3.17,2.21-4.8,2.71s-3.01.14-4.52.76l2.34-3.32c9.6-6.9,19.92-12.86,29.41-19.86,1.68-1.24,3.53-2.4,5.36-3.43l-3.7-8.17-.7-.34c-10.17,4.25-20.74,7.69-31.14,11.49-4.91,1.79-9.7,3.97-14.66,5.67-1.91.65-6.26,2.47-7.92,2.66-1.5.18-1.66-1.71-1.08-2.68.91-1.5,16.34-6.67,19.16-7.8,11.4-4.6,22.57-9.8,34.18-13.87l-6.1-16.2c-7.7,1.82-15.53,3.32-23.22,5.24-2.98.74-9.13,3.48-11.9,2.95-1.1-.21-1.26-1.01-.79-1.96.44-.89,7.88-3.45,9.38-3.92,8.4-2.62,17.24-3.94,25.6-6.66l-2.73-14.04-52.24,4.89c.03-.42-.13-.97.07-1.35.87-1.66,9-3.37,11.13-3.77,12.04-2.26,26.28-3.9,38.55-5.2.45-.05.88.28,1.33.17,1.07-.7-.3-5.54-.38-6.73-.05-.73.33-1.38.29-1.89-.19-2.38-.52-4.82-.73-7.2l-30.65-.82c-1.83-.35-3.68-.09-3.75-2.49l4.51-1.03,30.31-.77c-.28-5.36.55-10.72,1.17-16.02-3.25-.29-6.61-.5-9.85-.91-9.88-1.25-21.1-2.54-30.79-4.35-3.58-.67-7.1-1.62-10.55-2.77l-.61-2.54,52.58,5.09,3.13-14.07c-1.32.3-2.14-.52-3.26-.85-7.81-2.26-15.95-3.5-23.72-5.99-1.51-.48-8.31-2.73-8.79-3.72s-.3-1.76.8-1.97c2.4-.44,9.14,2.35,11.83,3.02,7.98,1.99,16.15,3.37,24.08,5.56l6.09-16.17c-5.56-2.37-11.5-4.37-17.17-6.68-6.16-2.51-12.2-5.32-18.39-7.8-2.76-1.11-17.39-6.01-18.4-7.4-.54-.75-.73-3,.54-2.91,1.01.07,4.64,1.46,5.95,1.89,15.6,5.04,31.59,11.85,46.99,17.5.74.27,1.51.51,2.26.75l4.49-8.08c-.33,0-.76.06-1.03-.13-3.21-2.2-6.18-5.04-9.4-7.23-8.2-5.59-17.13-10.32-25.16-16.28l-2.72-3.73c1.87.48,3.39.47,5.28,1.17,6.51,2.43,17.43,9.91,23.55,13.66,2.74,1.68,5.9,4.21,8.4,5.61.8.45,2.26.56,2.65.86.44.33.35,2.33,1.17,1.15.88-1.26-.65-3.38-1-4.84-.68-2.85-.27-5.63,1.23-8.18,2.06-3.52,4.83-3.08,8.36-3.76-2.08-1.41-3.91-3.14-5.89-4.66-9.59-7.34-21.75-15.4-30.3-23.42-1.69-1.58-3.7-3.25-4.06-5.73,5.23.01,8.82,5.1,13.43,7.1l31.34,23.37h.56c1.98-3.45,5.3-6.05,7.8-9.22.13-.75-5.74-6.04-6.63-6.98-14.73-15.4-28.78-31.59-44-46.67-10.48-10.38-22.24-19.82-31.2-31.73-1.41-1.87-4.78-5.69-1.99-7.39l17.19,17.59c23.7,20.77,44.44,44.47,66.46,66.81,1.31,1.32,3.51,1.85,3.72,4.31l12.52-9.95.8-1.55-3.82-3.5-1.83-3.24-6.51-7.86c-7.39-11.32-16.54-21.67-24.83-32.12-1.64-2.07-11.14-12.93-9.11-15.21.98-.11,1.7-1.13,2.55-.33,3.42,4.3,6.78,8.73,10.29,12.96,10.49,12.64,20.77,25.49,30.7,38.48,2.07,2.71,5.49,5.06,6.03,8.63l1.46-.3c3.25-2.56,6.85-4.63,10.3-6.9,1.16-.76,2.48-.07,1.9-2.3-.08-.29-.6-.3-.73-.59-9.88-22.22-23.35-44.71-34.58-66.58-5.46-10.64-11.05-21.23-15.9-32.16l1.56-1.62,2.54,1.41c14.27,24.14,26.57,48.99,39.73,73.53,2.67,4.97,5.59,10.22,8.32,15.22,1.61,2.94,2.98,6.05,4.92,8.78l15.88-6.44c1.83-.66-.56-.93-.91-1.32-.95-1.06-5.36-12.78-6.23-15.07-5.63-14.89-11.89-32.34-15.97-47.74-.57-2.14-2.64-9.77-2.08-11.48.42-1.29,3.1-2.52,3.76-.36,2.8,7.97,5.18,16.07,8.04,24.01,4.67,12.93,9.84,24.86,14.13,37.86,1.34,4.05,3.58,8.22,3.33,12.5l16.42-4.3c-1.71-2.74-.86-5.16-1.18-8-1.89-16.87-4.27-35.55-7.15-52.27-1.62-9.37-4.27-18.62-6.03-27.97-3.72-19.82-6.89-41.31-9.82-61.33-.25-1.73-.91-5.48-.83-6.94.06-1.12,1.01-2.02,2.11-2.16.49.11,2.47,7.36,2.78,8.57,4.48,17.79,6.18,36,9.28,54.04,1.29,7.51,3.19,14.99,4.48,22.49,2.6,15.16,4.6,30.37,6.8,45.58,1.3,9,3.9,17.77,5.09,26.77ZM213.98,359.83c-2.39.54-3.43,4.61-3.37,6.72.15,5.04,7.29,9.88,11.31,5.52,2.76-3,2.01-11-2.34-12.13-1.21-.32-4.39-.37-5.6-.1ZM311.32,359.84c-4.76.97-5.58,9.47-2.22,12.59,4.16,3.86,10.87-1.19,10.88-6.19.01-5.68-3.32-7.49-8.66-6.4ZM166.95,409.63c-1.95-2.1-4.2-4.83-6.01-7.09-2.11-2.64-13.46-18.56-13.3-20.68.14-1.9,1.18-2.91.69-5.8-1.36-7.98-13.12-9.18-13.89-1.94-.39,3.66,1.03,6.91,4.67,8.02s3.61-.97,6.12,2.88c6.54,10.04,17.67,36.28,6.68,46.01-2.64,2.33-5.97.34-5.4,4.7.25,1.94,2.41,6.07,4.65,4.33-1.73-1.37-3.3-4.44-1.75-6.44,2.54,4.16,2.67,7.47,6.83,2.13,2.4-3.07,2.93-5.99,4.24-9.44.16-.41.33-1.35.84-1.3.9,6.75-3.07,12.46-8.23,16.29l3.94,16.93,3.51-1.57c-.4-1.26-1.13-2.03-1.46-3.42-.49-2.04-1.57-7.8-1.63-9.73-.02-.62-.13-1.36.56-1.69s.7.67.86,1.07c1.57,3.91,2.82,8.36,2.85,12.6,3.39-1.09,6.63-2.86,10.08-3.8,18.33-4.98,41.07-6.75,60.1-7.52,17.22-.7,34.77-.24,51.99.37,7.67.27,22.47.1,29.37,1.91.57.15,1.05-.25.91.64-.44,2.95-7.64,1.53-9.81,1.49-26.68-.5-53.97-2.49-80.69-.13-3.71.33-7.66,1.24-11.34,1.56-16.41,1.39-39.18.97-53.2,10.71-4.89,3.39-8.31,7.93-5.04,13.91,2.97-4.82,7.85-7.64,13-9.67,30.19-11.88,63.82-9.01,95.65-10.64,9.74-.86,19.8,0,29.54.56l.33,1.12c-.35.81-.89.95-1.69,1.06-6.39.85-15.91-.16-22.71-.03-11.68.22-23.39,1.36-35.14,1.98-19.43,1.02-57.58,1-72.92,13.85-3.75,3.14-1.82,3.23-1.56,7.05.12,1.81-.05,4.27-.11,6.14-.01.4-.53.54.31,1.07,8.35-6.56,18.89-9.41,29.03-12,20.95-5.35,39.81-6.68,61.25-7.64,36.64-1.64,74.4-.98,109.66,10.46,4.51,1.46,9.21,2.25,13.28,4.89.07-.96-.11-1.97.01-2.93.49-4.04,1.97-4.16-1.77-7.23-7.36-6.03-24.93-9.79-34.44-11.29-6.2-.97-12.62-1.17-18.74-2.37-1.6-2.62,1.52-2.85,3.55-2.76,11.94.52,28.42,3.7,39.76,7.53,6.23,2.11,12.56,5.04,16.14,10.82,4.97-9.1-5.69-14.88-12.71-17.77-9.85-4.05-22.04-5.34-32.64-6.45-4.05-.42-9.01-.22-12.87-.81-1.75-.27-2.36-1.33-1.13-2.73,1.93.11,3.89-.11,5.81,0,6.4.36,14.27,1.18,20.66,2.02,8.68,1.14,17.27,3,25.26,6.6.02-4.25,1.28-8.7,2.85-12.6.16-.4.17-1.4.86-1.07s.59,1.07.56,1.69c-.07,1.94-1.14,7.7-1.63,9.73-.33,1.39-1.06,2.16-1.46,3.42l3.51,1.57,3.94-16.93c-5.16-3.83-9.13-9.54-8.23-16.29.52-.06.69.89.84,1.3,1.31,3.45,1.84,6.37,4.24,9.44,4.16,5.33,4.29,2.03,6.83-2.13,1.55,2.01-.02,5.07-1.75,6.44,2.23,1.74,4.39-2.39,4.65-4.33.57-4.36-2.76-2.36-5.4-4.7-11-9.73.13-35.98,6.68-46.01,2.51-3.85,2.59-1.8,6.12-2.88,2.26-.69,3.5-1.79,4.18-4.03,1.85-6.08-1.12-9.44-7.4-8.57-5.06.7-7.6,8.11-5.31,12.3-3.19,6.49-7.28,12.92-11.74,18.72-5.65,7.35-17.3,21.07-26.81,22.05-11.23,1.16-16.44-2.92-21.53-12.37-5.36-9.94-8.4-21.61-8.33-32.91-1.05,1.07-5.14-1.13-5.47-.78-.01.54.07,1.14-.09,1.66-6.09,19.6-25.5,47.62-49.16,43.48-17.16-3-33.4-27.99-38.21-43.48-.16-.52-.08-1.12-.09-1.66-.32-.34-4.44,1.85-5.47.78.06,12.14-3.45,24.99-9.77,35.38-4.85,7.98-9.9,10.7-19.37,9.97-7.55-.58-15.01-7.71-19.96-13.06ZM263.73,373.43c-2.95.2-4.25,4.98-1.76,6.63,1.18-.86-.14-1.48-.04-2.74.15-1.75,1.3-2.42,1.79-3.9ZM142.53,384.4c-2.31.81-3.85.27-6.17.02l-5.13,9.72c4.03-1.31,6.6,1.23,7.84,4.87,2.14,6.31,6.14,13.23,10.37,18.56.33.42,3.75,4.39,4.07,3.94.95-13.03-5.32-25.76-10.98-37.1ZM388.03,385.94c-.89-.23-.64.17-.89.49-3.52,4.49-9.2,21.3-9.99,27.12-.36,2.66-.09,5.3-.06,7.96.06.09,1.54-.97,1.75-1.17,2.27-2.16,11.02-15.24,12.01-18.09.68-1.97.56-4.27,2.07-6.12l-4.9-10.19ZM264.91,388.28c-2.4-.88-1.8,5.84-.97,6.25.77.21.87-.93.93-1.4.21-1.55-.07-3.27.04-4.85ZM176.96,389.06l2.54,4.68c1.99-1.14-1.48-5.63-2.54-4.68ZM353.64,389.06c-1.06-.95-4.53,3.54-2.54,4.68l2.54-4.68ZM136.7,401.96c.82-1.47-1.36-6.55-2.92-6.25-.69.13-.49.48-.2.97,1.02,1.69,2.24,3.04,1.95,5.29h1.17ZM181.07,397.27c-.93.17-.25.92-.13,1.29,1.76,5.25,4.31,13.09,6.77,17.86.93,1.81,1.99,1.38,1.57-.39-.75-3.14-5.22-13.9-6.78-17.07-.25-.5-.66-1.83-1.43-1.69ZM349.15,397.27c-.55.44-.75,1.09-1.05,1.69-1.53,3.08-6.06,14-6.78,17.07-.42,1.77.64,2.2,1.57.39,2.93-5.67,4.18-12.61,7.07-18.35l-.81-.8ZM263.74,416.23v-16.81c-.67-.93-1.36-.72-1.56.39.27,5.21-.83,10.44-.41,15.65.06.69-.1,1.28.61,1.74.41.1,1.31-.78,1.36-.98ZM395.07,401.96c.07-1.11.02-2.58-1.17-3.13v3.13s1.17,0,1.17,0ZM150.72,443.05c-.3-.19-2.05-.07-3.35-.76-3.05-1.63-4.37-7.76-3.14-10.73.53-1.29,1.85-1.03,1.29-3.04-.82-2.94-4.29-9.16-5.88-12.12-1.14-2.13-2.85-5.76-4.18-7.55-2.1-2.82-6.64-4.55-6.98-8.85-.55,0-.77,1.11-.96,1.58-6.45,16.1-11.22,35.08-11.41,52.51-.02,2.03,1.08,5.04,1.04,5.88-.01.23-.57.24-.6.33-1.3,3.21.78,17.84,1.44,21.92,7.65,47.53,38.82,89.12,82.34,109.19,96.99,44.72,207.19-28.13,206.72-133.43-.07-15.22-3.11-36.1-9.06-50.16-.22-.51.05-.93-.71-.73-1.98.52-5.22,7.27-6.32,9.32-1.59,2.96-5.06,9.17-5.88,12.12-.55,2,.65,1.69,1.18,2.76,1.4,2.83.09,8.86-2.55,10.7-1.4.98-2.35.89-3.93,1.23l-4.48,16.58c1.98,1.37,4.41,3.46,5.13,5.84.85,2.78.44,8.42-2.07,10.2-2.42,1.72-3.36-.48-3.62,4.06-.32,5.72,1.32,7.52,1.85,12.25.7,6.29-2.1,5.82-2.59,9.31-.62,4.38-.33,9.22-.43,13.65,1.98,2.28,4.87,3.82,4.29,7.38-.3,1.85-3.43,6.78-4.87,8.06-7.77,6.96-30.63,11.19-41.12,12.83-15.9,2.5-32.11,2.53-48.04,3.18-35.26,1.45-73.68,3.5-108.55-2.04-8.27-1.31-15.16-1.79-21.16-8.16-.72-.77-1.61-2.1-1.98-3.1-.67-1.81-.42-6.7.03-8.64.46-2,2.34-3.86,2.52-5.2.4-3.02.21-9.41-.03-12.53-.4-5.21-2.94-8.99-.58-14.66.47-1.13,1.52-1.59,1.74-2.95.23-1.47.2-11.63-.55-12.29-.67-.59-2.17-.54-3.05-1.16-2.5-1.78-2.92-7.41-2.07-10.2.77-2.54,3.3-4.44,5.29-6.07-1.9-1.93-3.66-15.86-4.73-16.53ZM139.05,407.43c2.41.37-.59-4.17-1.18-3.51l1.18,3.51ZM392.73,403.92c-.62-.7-1.77,1.89-1.88,2.22-.15.42-.8.97.13,1.29.62.21,1.14-1.37,1.31-1.81.21-.56.6-1.01.44-1.7ZM141.58,409.79c-.92-.08-.23,1-.13,1.29.72,2.07,6.12,11.16,7.59,12.74,1.12,1.21,1.94,1,1.52-.74-1.54-1.34-8.18-13.23-8.98-13.29ZM389.02,409.79c-.8.07-7.44,11.95-8.98,13.29-.42,1.74.4,1.95,1.52.74,1.47-1.59,6.87-10.67,7.59-12.74.1-.29.8-1.36-.13-1.29ZM161.72,506.91c.31,1.83-.22,4.33,0,6.25l.58.58,1.76-.77v-9.77c.99-.45,1.95,1.07,1.95,1.76v6.45l2.37-1.05-.41-7.55c2.08-1.41,2.48,5.87,2.34,7.03l12.07-3.57c-.06-1.52-.54-3.34.64-4.64,1.67.42,1.31,2.44,1.36,3.72.04,1.11,1.39.95,1.39-.6,0-2.6-.58-5.24.18-7.81l1.19.17,1.18,8,3.05-.4c.54-.64-1.34-7.19.24-8.56l1.01.23c.84,1.35.31,7.63,1.7,7.85,7.76-1.5,15.63-1.92,23.48-2.63,23.62-2.13,47.06-3.44,70.74-1.93,10.29.66,20.61,1.9,30.83,2.97l1.38-.28.62-6.22c.34-.73,1.77.46,1.77.6v6.06h1.17v-6.06c0-.45.59-3.23.98-3.32.48-.21,1.36,1.15,1.36,1.37v8.4c6.81,2.1,2.05-4.32,5.27-7.33l1,.55.36,7.77,10.26,1.43c4.71,1.66,10.17,1.36,14.76,3.44.23-1.7.27-3.47.51-5.17.25-1.81.25-2.66,2.23-1.19l.2,6.75,2.73,1.17c.51-.05.33-7.35,1.56-7.41l1.78,1.03-.21,7.56,4.11,1.95v-12.12c-3.36-.06-6.08-3.04-8.87-4.61-18.35-10.32-58.19-12.15-79.66-12.98-21.9-.84-45.76-.95-67.7,1.33-1.32.14-6.56,1.4-6.91,1.33-.37-.08-.77-.55-.94-.89-.16-1.75,4.84-2.86,6.15-3.14,5.59-1.22,13.53-1.71,19.36-2.13,22.56-1.64,47.07-.93,69.58.77,21.55,1.63,43.92,2.46,63.39,12.83,1.37.73,4.45,3.63,6.12,3.16,2.55-.72.02-8.77-1.54-10.08-1.79-1.5-11.39-5.59-13.68-5.87-.44-.05-.88-.08-1.32-.03-.05,2.09-.73,3.83-3.13,3.51l.21-4.7-2.94-.77c.16,1.62-.4,3.69-2.34,3.52,0-1.39-.13-4.75-1.77-5.07-1.03-.2-.52,2.44-1.35,2.93l-1.17.58c-1.16-2.93.3-3.74-3.04-4.59-25.95-6.58-59.53-6.04-86.29-5.18-18.67.6-37.44,1.51-55.7,5.64-11.4,2.58-26.38,6.61-36.08,13.17-3.94,2.66-5.04,5.8-5.33,10.49l16.53-9.45c5.87-1.67,11.62-4.32,17.47-5.98,2.12-.6,9.71-2.1,11.25-.88,1.73,3.88-3,2.87-5.55,3.47-5.2,1.21-12.29,3.79-17.43,5.63-7.33,2.63-14.11,6.51-20.73,10.54-.96,1.07-.13,3.49-.14,4.76-.01,2.29-.55,5.13-.24,7.37.18,1.29,1.84-.21,1.94-.5.66-1.79.3-10.09.8-10.64.8-.24,1.47,1.21,1.56,1.76ZM159.23,535.38c3.08,2.53,4.53,3.17,8.64,4.06,21.34,4.6,45.07,4.39,66.78,4.36,22.68-.03,45.78-.72,68.41-1.86,18.05-.91,49.25-3.07,64.77-12.24,4.3-2.54,8.61-6.6,3.37-10.65-8.84-6.83-35.1-9.78-46.64-11.21-44.99-5.58-97.58-6.47-142.14,3.37-8.03,1.77-31.04,8.31-26.87,20.2.8,2.29,1.97,2.57,3.67,3.97Z"/>
          <path class="cls-1" d="M467,170.97c-.15.71-.77.73-1.35.79-8.12.91-16.18-.77-24.42,1.75-14.87,4.54-12.33,19.25-13.69,31.27-.07.59-.08,1.21-.79,1.35-.36-4.07.02-8.24-.4-12.31-.69-6.67-2.76-14.95-8.98-18.38-5.97-3.29-10.19-2.85-16.62-3.32-3.71-.27-7.45-.61-11.15-.97,2.75-.46,5.63-.77,8.41-.97,6.97-.5,13.86.12,20.08-3.76,5.46-3.4,7.62-11.93,8.25-17.94.43-4.1-.01-8.27.4-12.31.71.15.73.77.79,1.35.38,3.4.01,7.5.38,10.95.96,9.01,3.7,17.22,13.07,20.15,6.23,1.95,12.73,1.2,19.17,1.55,2.14.12,4.7.46,6.84.78Z"/>
          <path class="cls-1" d="M81.58,191.88c-.37-4.41-2.61-11.79-6.52-14.19-.72-.44-4.85-2.38-5.2-2.03l-.39,2.73-.06-2.68c-.87-1.36-13.38-.79-15.58-1.62l5.67-.77c3.2-.06,6.48.04,9.53-.82.06-9.84-8.58-9.31-15.99-9.93,3.22-.57,6.75-.19,9.93-1.02,6.55-1.71,6.56-9.24,6.5-14.81l1.49,10.04c1.63,3.88,5.4,5.63,9.48,5.03l.3-.48c1.17-4.32.43-8.95.88-13.19.04-.38.17-1.47.74-1.4.12,3.31,0,7.08.4,10.35.5,4.06.15,6.03,5.07,5.29l-3.9.97c2.4,4.59,3.77,7.02,8.9,8.68,3.31,1.07,6.33,1.06,9.66,1.28,3.53.23,7.2.1,10.74.4-.15.71-.77.73-1.35.79-4.6.52-9.96-.25-14.77.48-14.78,2.24-14.44,13.76-14.76,26.09-.39.17-.78-.91-.78-.98,0-2.62.21-5.66,0-8.21ZM80.02,163.15c-5.68-.14-9.71,3.2-9.77,8.99,5.16-.7,8.12-4.34,9.77-8.99Z"/>
          <path class="cls-1" d="M81.58,735.56c.02-.16.38-1.12.78-.98.25,7.07-.25,14.49,3.84,20.59,1.68,2.51,3.45,3.63,6.35,4.6,3.44,1.15,6.48,1.15,9.96,1.38s7.2.1,10.74.4c-.15.71-.77.73-1.35.79-4.6.52-9.96-.25-14.77.48-14.78,2.24-14.44,13.76-14.76,26.09-.39.17-.78-.91-.78-.98v-8.21c0-3.4-2.44-10.17-4.68-12.79-1.72-2-7.41-3.87-10-4.18-1.26-.15-13.09-.21-13.07-1.01,3.72-.36,7.47-.54,11.19-.93s6.45-.47,9.89-2.62c3.8-2.38,6.68-9.68,6.68-14.04,0-2.54-.33-6.24,0-8.6Z"/>
          <path class="cls-1" d="M172.53,195.46c-2.77,2.82-6.84,2.88-10.45,1.84-5.67-1.64-7.26-7.93-5.34-13.13,2.58-6.99,13.85-6.91,17.17-.19,1.56,3.15,1.12,8.93-1.38,11.48Z"/>
          <path class="cls-1" d="M259.34,720.02c-.61.66-2.73,1.49-3.02-.1-.36-1.94.38-5.25.41-7.41.11-9.45.16-18.81.39-28.14.21-8.51.19-17.17,1-25.6,3.52-3.06,4.02-1.29,4.08,2.55.1,7.32-.97,15.22-1.19,22.61-.28,9.37.24,19.28-.37,28.58-.07,1.07-.8,6.98-1.29,7.51Z"/>
          <path class="cls-1" d="M259.35,199.98c.45.46,1.21,6.5,1.28,7.52.59,9.31.1,19.21.37,28.58.22,7.4,1.29,15.29,1.19,22.61-.05,3.83-.55,5.61-4.08,2.55-.83-8.43-.79-17.09-1-25.6-.23-9.33-.25-18.7-.39-28.14-.02-1.51-1.12-8.05.21-8.36.58.23,2.07.49,2.42.85Z"/>
          <path class="cls-1" d="M390.38,106.67c.14,1.41.92,4.59,1.49,5.93,3.55,8.34,12.98,5.94,20.21,6.76.59.07,1.21.08,1.35.8h-8.79c-1.31,0-5.01.64-6.37,1.05-3.44,1.04-5.53,3.19-6.74,6.55-.26.73-1.15,4.52-1.15,5.1v7.23c-.25.03-.78-.52-.78-.59v-7.04c0-.81-.76-3.86-1.09-4.77-1.22-3.33-3.4-5.46-6.8-6.49-1.36-.41-5.06-1.05-6.37-1.05h-6.06c-.05-.92-.13-.69.58-.78,4.9-.63,13.3.51,16.72-4,1.33-1.76,3.02-6.16,3.02-8.31v-7.04c0-.07.53-.62.78-.59.16,2.34-.22,4.93,0,7.23Z"/>
          <path class="cls-1" d="M390.38,782.85c.28,3.17,1.9,8.37,4.56,10.29,4.95,3.58,12.77,1.62,18.51,3-8.03,1.4-18.53-1.64-21.97,8.13-.31.87-1.09,4.4-1.09,5.16v6.84c-.25.03-.78-.52-.78-.59v-7.04c0-.76-.93-4.1-1.27-4.98-3.27-8.32-12.61-6.52-19.84-7.53,7.28-1.15,16.51.96,19.84-7.53.35-.88,1.27-4.22,1.27-4.98v-7.04c0-.07.53-.62.78-.59.14,2.22-.2,4.65,0,6.84Z"/>
          <path class="cls-1" d="M464.92,203.92c2.43,2.19,2.47,5.66,1.06,8.44-3.87,7.62-14.67,1.92-9.85-7.13,1.69-3.17,6.31-3.55,8.79-1.32Z"/>
          <path class="cls-1" d="M263.25,615.85c.72.72.55,5.11.5,6.37-.2,4.63-.65,13.14-1.68,17.47-.46,1.95-1.07,2.49-3.16,2.27-.99-.24-.7-9.26-.67-10.78.06-2.83.5-5.7.67-8.53.08-1.36-.57-5.3.52-6.3.11-.1.56.16.7.06.21-.15.22-.83.72-1.01.56-.2,1.98.02,2.4.44Z"/>
          <path class="cls-1" d="M263.25,304.15c-1.12,1.12-3.85.21-4.19-1.29l-.8-23.05.65-1.78c2.03-.05,2.69.36,3.16,2.28,1.03,4.16,1.49,12.98,1.68,17.47.05,1.26.22,5.65-.5,6.37Z"/>
          <path class="cls-1" d="M460.64,768.87c-2.06,2.06-6.34,1.22-8.27-.7-4.57-4.55.7-12.76,7.04-9.77,3.48,1.64,3.76,7.94,1.23,10.47Z"/>
          <path class="cls-1" d="M170.57,84.73c.3.29,2.29,2.97,2.32,3.17.65,4.34-4.84,7.96-8.58,6.03s-4.12-7.07-1.6-10.1c1.94-2.32,6.01-.91,7.86.91Z"/>
          <path class="cls-1" d="M172.95,817.51c4.25-.86,7.08,3.95,5.87,7.85s-9.01,2.73-8.91-2.23c.03-1.57,1.34-5.28,3.04-5.62Z"/>
          <path class="cls-1" d="M82.64,353.21c1.3,1.56.45,3.33-1.64,3.34s-13.73-6.57-14.47-8.14c-.45-.95-.33-1.77.79-1.96,1.7-.3,10.5,3.71,12.4,4.8.41.24,2.79,1.8,2.92,1.96Z"/>
          <path class="cls-1" d="M82.64,564.06c-.16.19-2.47,1.7-2.92,1.96-1.95,1.15-10.58,5.12-12.4,4.8-4.05-.7,4.1-5.56,5.14-6.19,1.58-.95,7.02-3.99,8.54-3.93,1.74.06,2.83,1.93,1.62,3.36Z"/>
          <path class="cls-1" d="M457.15,349.91c-.14.24-3.87,2.71-4.49,3.12-1.66,1.09-11.12,7.16-12.2,3.72-.18-.78.11-1.46.55-2.07,1.07-1.5,13.55-7.36,15.16-6.98.79.19,1.39,1.5.98,2.21Z"/>
          <path class="cls-1" d="M457.15,570.1c.41.71-.18,2.03-.98,2.21-1.77.42-14.77-5.68-15.56-7.37-.77-1.65.28-2.74,1.95-2.75,3.85-.01,11.13,5.99,14.59,7.9Z"/>
          <path class="cls-1" d="M358.21,172.02c-1.68,1.52-4.95,1.18-6.32-.67-2.68-3.62,1.37-10.89,6.26-7.04,2.34,1.84,2.11,5.86.06,7.71Z"/>
          <path class="cls-1" d="M399.67,200.79c.95,1.01,1.7.88,1.66,2.82-.04,1.79-4.56,10.91-6.22,11.36-3.88,1.06-3.1-2.95-2.06-5.18.58-1.23,5.11-8.82,5.8-9.07l.82.07Z"/>
          <path class="cls-1" d="M396.5,706.18c.83.87,4.6,8.4,4.75,9.54.09.66,0,2.05-.31,2.56-.21.35-.69.22-1.01.42-.3.18-.17,1.12-1.35.44-.75-.44-6.46-10.33-6.56-11.45-.06-.72.66-2.54,1.36-2.78,1.07-.37,2.41.5,3.12,1.26Z"/>
          <path class="cls-1" d="M125.24,717.65l-1.21.53c-.26-.95-1.02-.65-1.32-.86-.09-.06-.5-1.96-.5-2.07-.02-1.96,4.27-10.25,5.91-11.35,1.97-1.32,3.78,1,3.26,2.95-.89,3.35-4.63,7.56-6.15,10.79Z"/>
          <path class="cls-1" d="M122.72,199.96c.18-.15,1.45-.54,1.87-.68.69.29,3.01,4.06,3.59,5.03.85,1.4,2.84,4.7,3.22,6.11.5,1.86-1.19,4.11-3.03,3.12s-6.23-9.56-6.16-11.5c0-.11.43-2,.51-2.07Z"/>
          <path class="cls-1" d="M108.89,659.99c.08.1.37,2.18.34,2.44-.09.77-8.31,11.22-9.45,12.37-1.42,1.43-2.95,2.29-2.88-.5,2.29-3.78,4.64-7.61,7.2-11.21.43-.6,2.2-3.21,2.51-3.38.44-.23,2.12.09,2.28.28Z"/>
          <path class="cls-1" d="M59.55,457.62c.82.42,1.59,2.17.45,2.7-1.6.74-6.35.21-8.32.23-2.32.02-7.43,1.34-8.8-1.31-1.07-2.07.38-2.23,2.11-2.41,2.77-.28,10.13-.05,12.95.23.82.08.96.22,1.61.55Z"/>
          <path class="cls-1" d="M99.03,241.87l9.87,12.22c.85,2.14-.26,4.89-2.71,3.07l-9.16-13.51-.17-1.89c.74-.34,1.53-.55,2.16.11Z"/>
          <path class="cls-1" d="M422.27,251.32c-2.42,2.31-3.53,8.28-7.63,7.56-.13-1.18-.57-2.1.02-3.22.79-1.51,3.09-4.31,4.26-5.83,1.9-2.47,4.09-4.88,6.24-7.15.96-.58,1.67,1.12,1.5,1.87-.21.98-3.57,5.52-4.39,6.78Z"/>
          <path class="cls-1" d="M421.8,668.38c1.02,1.47,4.53,5.53,4.86,7.08.16.77-.35,1.55-.92,2.05-.64.15-4.6-4.47-5.27-5.27-.63-.76-1.34-2.22-1.95-3.03-1.17-1.56-5.79-5.72-3.73-7.72,2.34-2.28,5.87,5.24,7.01,6.89Z"/>
          <path class="cls-1" d="M325.37,802.87c-.12.39-1.63,1.32-2.17.83-.67-.43-3.41-14.56-3.17-15.7.03-.12,1.57-1.45,1.8-1.8,1.3-.4,1.77,2.26,2.06,3.32.7,2.56,2.18,11.12,1.48,13.34Z"/>
          <path class="cls-1" d="M324.63,116.35c.06.02.83.9.85.97.5,2.49-1.23,13.5-2.42,15.84-.74,1.45-2.41.02-2.84-.91-.21-.45-.12-1.83-.06-2.4.21-2.18,1.82-10.45,2.58-12.26.19-.45.38-.87.8-1.16.42-.26.65-.23,1.1-.08Z"/>
          <path class="cls-1" d="M201.04,785.03c2.12-.74,2.51,2.52,2.35,3.99-.18,1.7-2.33,12.16-2.96,13-.8,1.07-2.01.05-2.28-.88-.25-.86-.15-2.83-.07-3.82.12-1.61,1.92-11.92,2.96-12.29Z"/>
          <path class="cls-1" d="M200.41,132.27c-.55-4.14-2.11-8.52-2.36-12.69-.12-2.05-.45-4.05,1.78-4.88.86.75,1.03,1.92,1.33,2.94.54,1.84,2.65,11.51,2.25,12.78-.47,1.48-1.41,2.14-3,1.85Z"/>
          <path class="cls-1" d="M180.78,215.62c.72,3.06,4.46,11.2,3.31,13.88-1.81,4.23-4.21-1.95-4.68-3.72-.58-2.2-2.83-11.81,1.36-10.16Z"/>
          <path class="cls-1" d="M340.94,687.81c2.28,0,3.75,7.36,4.01,9.15.17,1.18.68,4.65.13,5.4-.92,1.26-1.89,1.19-2.57-.22-.87-1.79-3.13-8.93-3.29-10.8-.13-1.56-.02-3.06,1.73-3.53Z"/>
          <path class="cls-1" d="M180.78,701.65c-1.61,1.04-2.67-.87-2.62-2.38.07-2.27,1.72-11.01,3.31-12.37,1.05-.9,2.14-.26,2.63.88,1.15,2.68-2.6,10.82-3.31,13.88Z"/>
          <path class="cls-1" d="M343.32,216.72c2.93.4,1.99,3.71,1.68,5.99-.25,1.83-1.74,9.48-4.06,9.48-1.74-.46-1.87-1.98-1.72-3.53.17-1.8,2.37-8.73,3.18-10.51.2-.44.41-1.31.93-1.43Z"/>
          <path class="cls-1" d="M430.3,591.97c.15-.23,1.67-.49,2.09-.47,1.37.08,6.54,4.51,7.19,5.74s.58,3.67-1.1,3.09c-.59-.21-5.83-3.92-6.47-4.51-.81-.74-2.39-2.77-1.71-3.86Z"/>
          <path class="cls-1" d="M430.3,328.04c-.66-1.05.89-3.15,1.7-3.87.63-.56,5.95-4.31,6.48-4.5,1.67-.58,1.75,1.84,1.1,3.09s-5.82,5.67-7.19,5.74c-.42.02-1.95-.24-2.09-.47Z"/>
          <path class="cls-1" d="M83.97,598.91c-.34-.91-.67-1.75-.23-2.69.38-.83,5.97-5.74,6.92-6.01,3.05-.88,3.27,1.83,1.45,3.82-.4.43-5.81,4.39-6.32,4.62-.57.26-1.19.43-1.81.26Z"/>
          <path class="cls-1" d="M88.4,325.58c-.68-.52-4.44-4.05-4.66-4.53-.45-.98-.06-1.76.21-2.71.41-.1.79.02,1.17.16.89.32,6.82,4.45,7.35,5.16.37.5.91,1.67.86,2.28-1.23,2.59-3.4.81-4.94-.35Z"/>
          <path class="cls-1" d="M365.64,83.53c3.32,2.42-.07,8.72-3.94,6.48-3.79-2.18-.24-9.52,3.94-6.48Z"/>
          <path class="cls-1" d="M259.74,189.24c-.95,1.18-2.44-.59-2.62-1.69-.4-2.41.14-7.87.37-10.54s2.41-2.06,2.73-.38c.27,1.41.13,11.85-.47,12.6Z"/>
          <path class="cls-1" d="M259.74,730.76c.6.75.74,11.19.47,12.6-.32,1.68-2.49,2.41-2.73-.38s-.76-8.13-.37-10.54c.18-1.1,1.68-2.87,2.62-1.69Z"/>
          <path class="cls-1" d="M61.26,514.53c.02-.63-.15-1.38.19-1.96.51-.86,9.98-4.02,11.34-3.94,1.46.09,1.85,1.06,1,2.21-.86,1.17-11.92,4.31-12.54,3.68Z"/>
          <path class="cls-1" d="M61.26,402.74c.5-.52,11.76,2.63,12.54,3.68.85,1.15.46,2.12-1,2.21-1.38.08-9.19-2.46-10.46-3.25-1.2-.75-1.18-1.22-1.07-2.64Z"/>
          <path class="cls-1" d="M462.31,404.31c0,.62-.02,1.84-.49,2.25-.28.24-6.1,2.37-6.95,2.62s-3.38,1-4.12.96c-1.33-.08-1.69-1.73-.84-2.6,1.01-1.03,11.8-3.82,12.4-3.23Z"/>
          <path class="cls-1" d="M449.9,512.47c-.69-.7-.62-2,.3-2.46,1.09-.55,11.07,2.97,11.74,3.9.37.5.47.96.35,1.57-.39.71-.57.4-1.08.36-1.77-.14-10.29-2.32-11.32-3.37Z"/>
          <path class="cls-1" d="M174.81,156.68c3.88.34,4.34,7.02,1.17,7.63-6.03,1.16-4.16-7.9-1.17-7.63Z"/>
          <path class="cls-1" d="M128.38,743.68c2.97,3.64-4.68,8.76-6.05,3.13-.61-2.5.15-1.96,1.05-3.08.27-.34.3-1.15.49-1.27.9-.59,3.84.39,4.52,1.22Z"/>
          <path class="cls-1" d="M93.8,146.05c2.66-2.83,7.26,1.2,5.15,4.95-2.32,4.12-7.8-2.12-5.15-4.95Z"/>
          <path class="cls-1" d="M403.17,776.84c3.13-.89,3.75,4.18,1.82,5.76-3.72,1.29-4.1-5.11-1.82-5.76Z"/>
          <path class="cls-1" d="M170.95,102.72c.25.17.78.97,1.23,1.19-.3.96-.41,1.97-1.67,1.81l-1.77-1.43c.5-1.53.47-2.72,2.21-1.57Z"/>
          <path class="cls-1" d="M116.02,815.13l2.14.33c1.04,3.82-3.25,2.47-2.14-.33Z"/>
          <path class="cls-1" d="M124.26,780.23c-1.01-.59-.78-3.03.84-2.61,1.88.49,1.02,3.71-.84,2.61Z"/>
          <path class="cls-1" d="M373.76,93.21l1.33,1.01c.6,1.78-1.54,2.5-2.12.56l.79-1.57Z"/>
          <path class="cls-1" d="M441.88,750.32c1.56,1.58-1.98,3.47-1.47-.49.17-.18,1.24.27,1.47.49Z"/>
          <path class="cls-1" d="M371.62,154.94c-.32-.22-.61-2.21.58-1.95,1.66.37.64,2.81-.58,1.95Z"/>
          <polygon class="cls-1" points="378.66 79.51 379.24 79.51 380.22 80.49 379.63 81.46 378.7 80.83 378.66 79.51"/>
          <path class="cls-1" d="M362.08,420.17c-5.51,7.28-22.77,15.73-30.68,8.53-1.24-1.13-2.9-4.03-.22-4.1,8.04,6.86,18.16,2.2,25.33-3.55,2.34-1.88,3.72-4.7,6.38-6.14l.87.6c.24,1.73-.68,3.33-1.68,4.66Z"/>
          <path class="cls-1" d="M171.26,418.21c7.26,7.17,18.75,14.21,28.16,6.38l1.21.4c.76,3.76-4.72,6.02-7.83,6.29-7.82.69-16.03-3.31-21.69-8.45-1.88-1.71-5.63-5.47-3.72-7.98,1.83.35,2.71,2.21,3.87,3.36Z"/>
          <path class="cls-1" d="M223.37,436.06c2.23,2.26-4.82,1.28-6.05.78-1.5-.61-4.11-4.15-4.37-5.79-.32-2.04.83-6.86,1.77-8.73,1.89-3.75,7.98-5.65,11.64-3.51,1.6.94,1.2,3.25.25,2.89-1.16-1.38-4.1-.66-5.56-.08-4.25,1.69-6.79,9.7-2.64,12.57,1.32.91,4.1,1.01,4.96,1.87Z"/>
          <path class="cls-1" d="M313.77,423.06c-2.32-.91-4.23-1.84-6.84-1.73-7.2.29-9.18,13.1-1.38,14.46.94.16,5.69-.1,3.92,1.54-1,.92-4.87.74-6.18.33-2.24-.7-5.4-5.16-5.83-7.45-.66-3.49,2.26-11.7,6.34-12.03,3.28-.26,9.04,1.23,9.98,4.88Z"/>
          <path class="cls-1" d="M239.66,416.27c4.05,4.05,9.4,7.3,14.63,9.59,1.13,4.72-5.74.15-7.48-.92-6.13-3.76-12.58-10.8-16.22-17-.5-.84-2.06-3.64-2.22-4.38-.09-.42.09-1.49.78-1.21.55.23,4.93,7.31,5.9,8.56,1.26,1.63,3.18,3.91,4.62,5.35Z"/>
          <path class="cls-1" d="M302.04,402.35c.83.65-1.51,4.7-2.03,5.59-3.64,6.2-10.1,13.25-16.22,17-1.76,1.08-8.61,5.64-7.48.92,7.68-3.15,14.23-8.41,19.25-14.94,1.75-2.27,3.45-5.83,5.14-7.75.39-.44.6-.97,1.33-.81Z"/>
          <path class="cls-1" d="M170.03,470.85c.53-.5,7.83-3.26,9.06-3.64,1.64-.5,3.91-1.08,5.59-1.45,2.07-.45,8.74-1.8,10.46-1.7s2.93,1.96,1.11,3.1c-6.08.45-12.34,1.69-18.2,3.3-1.83.5-6.77,3.25-8.17,1.66-.37-.42-.18-.97.15-1.28Z"/>
          <path class="cls-1" d="M360.57,470.85c.33.31.52.86.15,1.28-1.4,1.59-6.34-1.16-8.17-1.66-5.86-1.6-12.12-2.85-18.2-3.3l-.97-1.64c.47-.84,1.09-1.41,2.08-1.46,1.72-.1,8.39,1.24,10.46,1.7,1.68.37,3.95.94,5.59,1.45,1.23.38,8.54,3.13,9.06,3.64Z"/>
          <path class="cls-1" d="M315.28,402.02c.75,1.68,1.27,3.5,2.06,5.17,2.04,4.29,4.84,9.2,7.94,12.78.29.34,3.47,2.46,1.18,3.11-.92.26-2.7-1.87-3.3-2.55-4.06-4.61-8.61-12.38-9-18.56l1.12.06Z"/>
          <path class="cls-1" d="M216.44,401.96c-.39,6.17-4.94,13.95-9,18.56-.76.86-4.31,4.54-3.92,1.19.11-.94,1.23-1.09,1.8-1.75,3.1-3.56,5.9-8.5,7.94-12.78.56-1.18,1.39-4.25,1.98-4.98.36-.45.74-.21,1.2-.24Z"/>
          <path class="cls-1" d="M312.99,455.9l-.17,1.59c-.63.92-14.07.21-16.08-.38-1.5-1.75.35-2.25,1.97-2.4,4.67-.42,9.64.91,14.29,1.19Z"/>
          <path class="cls-1" d="M362.49,431.44c.61.3,1.32,1.48.88,2.14-3.51,1.02-5.73,3.62-5.04,7.47-2.07.51-2.73-2.07-2.77-3.71-.09-3.62,3.29-7.71,6.92-5.9Z"/>
          <path class="cls-1" d="M273.12,427.37c-.57,2.27-3.73,2.74-5.72,3.07-2.47.41-11.43,1.33-7.68-3.08,4.47.49,8.93.53,13.4,0Z"/>
          <path class="cls-1" d="M376.31,398.05c-2.11,5.84-4.82,11.63-5.82,17.82-.28,1.72.02,3.52-.44,5.43-.14.59.27.69-.77.58-.48-1.56-.52-3.25-.39-4.88.25-3.15,4.1-16.07,6.04-18.19.39-.43.72-.9,1.38-.77Z"/>
          <path class="cls-1" d="M161.32,421.89c-1.04.11-.63,0-.77-.58-.46-1.91-.16-3.71-.44-5.43-1-6.2-3.72-11.98-5.82-17.82.66-.13.99.34,1.38.77,1.94,2.12,5.79,15.05,6.04,18.19.13,1.63.09,3.32-.39,4.88Z"/>
          <path class="cls-1" d="M181.16,445.44c.21.19.45.8.31,1.09-.45.57-1.03.82-1.68,1.06-1.53.55-8.18,1.97-9.72,2.02-.63.02-1.12-.29-1.71-.36-.15-.2,1.44-1.68,1.81-1.89,1.75-1.02,9.52-3.25,10.99-1.92Z"/>
          <path class="cls-1" d="M362.24,449.25c-.59.08-1.08.38-1.71.36-1.28-.04-9.61-1.82-10.55-2.37-.31-.18-.88-.58-.93-.92.11-.35.22-.81.55-1.02,1.82-1.15,11.54,1.17,12.64,3.94Z"/>
          <path class="cls-1" d="M219.95,385.54c.79.67-1,11.14-1.73,12.53-.86,1.65-1.65,1.7-1.52-.33.24-3.96,1.56-8.25,2.09-12.2h1.16Z"/>
          <path class="cls-1" d="M311.81,385.54c.54,3.96,1.84,8.23,2.09,12.2.17,2.75-1.38,1.2-1.9-.47-.47-1.51-2.08-11.12-1.36-11.73h1.16Z"/>
          <path class="cls-1" d="M315.22,425.53c2.28,1.93,2.17,8.8-1.64,9.26-1.32-.92.25-1.55.5-2.62.58-2.54-.71-4.68-.7-7.15.65-.04,1.33.08,1.84.51Z"/>
          <path class="cls-1" d="M220.74,431.67c-4.9.31-.51-10.93,3.08-6.84-1.29,2.02-2.91,4.43-3.08,6.84Z"/>
          <path class="cls-1" d="M307.83,424.32c.06.04.7,1.16.71,1.29.05,1.11-1.17,1.65-1.54,2.24-.58.93-1.04,3.45-2.41,3.03-1.8-.55.07-8.44,3.24-6.56Z"/>
          <path class="cls-1" d="M309.08,390.24c.5.48-2.58,7.05-3.18,7.95-.46.69-1.35,1.82-2.29,1.81-.65-.76,2.07-5.91,2.67-6.91.37-.62,1.87-3.75,2.8-2.86Z"/>
          <path class="cls-1" d="M226.99,400c-.99,1.16-4.27-5.74-4.49-6.26-.44-1.08-.91-2.34-.98-3.51.93-.89,2.43,2.25,2.8,2.86.6.99,3.32,6.14,2.67,6.91Z"/>
          <path class="cls-1" d="M230.01,434.67c-.4.37-1.36.65-1.46-.08-.05-.38.83-1.39,1.01-2.11.71-2.93-.24-5.13-1-7.84,4.01.4,3.66,8,1.45,10.04Z"/>
          <path class="cls-1" d="M143.61,371.2c.57.63,1.91,4.08.32,3.8-.91-.16-1.12-.99-1.79-1.35-1.18-.64-3.44-.78-3.12-2.72.15-.93,3.62-.82,4.6.27Z"/>
          <path class="cls-1" d="M391.54,370.71c.24,2.34-1.59,2.14-3.08,2.95-.79.43-1.12,1.66-2.37,1.33-.63-3.44,2.09-5.76,5.46-4.28Z"/>
          <path class="cls-1" d="M364.84,473.54c1.44-.46,4.49,1.59,5.43,2.67.81.93.41,1.88-.63,1.81s-7.62-3.58-4.8-4.47Z"/>
          <path class="cls-1" d="M164.35,473.57c.67-.13,1.35-.26,1.88.3,1.1,1.55-5.14,4.52-5.89,3.96-1.63-1.23,2.82-4.01,4.01-4.25Z"/>
          <path class="cls-1" d="M183.5,433.72c1.67,1.53-1.24,1.55-2.56,1.2-.95-.26-4.55-2.51-4.37-3.44.14-.7.6-.43,1.04-.27.91.33,5.49,2.14,5.89,2.51Z"/>
          <path class="cls-1" d="M347.1,433.72c.4-.37,4.98-2.18,5.89-2.51.44-.16.9-.43,1.04.27.18.92-3.42,3.18-4.37,3.44-1.32.36-4.23.34-2.56-1.2Z"/>
          <path class="cls-1" d="M175.78,439.48c-.5.57-4.71-3.8-3.9-5.08,1.9-1,4.52,4.38,3.9,5.08Z"/>
          <path class="cls-1" d="M146.09,379.29c-.3-1.24-1.82-3.37.18-3.91.95.22,1.79,4.13-.18,3.91Z"/>
          <path class="cls-1" d="M384.51,379.29c-1.97.23-1.14-3.68-.18-3.91,2,.54.49,2.66.18,3.91Z"/>
          <path class="cls-1" d="M312.99,476.62c.32,1.69-1.71,1.93-2.93,1.98-4.64.21-10.22-1.27-14.86-1.59-3.46-.24-7.06.25-10.49-.07-1.08-.1-4.64-.27-4.43-1.7l2.01-1.38c4.14.48,8.42.08,12.55.4,6.07.46,12.09,1.89,18.16,2.37Z"/>
          <path class="cls-1" d="M252.31,473.59c2.31-.35,9.44-.37,11.64.25,3.5.98-.93,2.23-2.77,2.39-2.26.2-8.44.31-10.5,0-2.75-.43-.48-2.31,1.63-2.63Z"/>
          <path class="cls-1" d="M333.27,479.78l-.02,1.47c-.5.29-1.01.36-1.59.35-1.63-.04-8.68-1.12-10.09-1.65-1.85-.7-1.75-2.55.54-2.51,3.45.07,7.68,1.86,11.15,2.35Z"/>
          <path class="cls-1" d="M341.72,493.03c2.57-.79,1.74,6.03.77,6.25-1.53.34-1.92-5.9-.77-6.25Z"/>
          <path class="cls-1" d="M363.02,490.68c-.06-2.47,4.7.16,5.49.97.93.95,1.19,2.4-.43,2s-3.33-2.59-5.06-2.96Z"/>
          <path class="cls-1" d="M271.16,475.83c-.04-2.83,4.02-1.95,5.86-1.95l-.39,1.95h-5.47Z"/>
          <path class="cls-1" d="M322.75,494.2h-1.16s-.4-5.08-.4-5.08c2.9-.06,1.89,3.15,1.56,5.08Z"/>
          <path class="cls-1" d="M183.21,499.67c-1.53,1.15-1.57-5.48-.58-5.46,1.65,1.23,1,3.71.58,5.46Z"/>
          <path class="cls-1" d="M364.42,520.57c2.31,2.09,2.24,4.61.42,7.12-4.96,2.32-9.84,4.33-15.18,5.73-22.03,5.8-48.1,6.92-70.89,7.67-24.83.82-51.5,1.24-76.2-1.16-10.2-.99-32.94-3.78-40.94-9.4-3.36-2.36-2.53-6.9.53-9.12,5.74-4.18,22.94-7.26,30.29-8.4,34.34-5.32,72.76-5.56,107.45-3.57,11.65.67,23.16,1.18,34.73,2.79,7.86,1.1,24.05,3.15,29.79,8.33ZM259.71,512.65l-1.07,1.31c-.05.54.14,1.05.57,1.38.37.29,4.25.69,5.12.74,5.23.33,10.77-.2,16.04-.01,5.56.19,11.24,1.08,16.77,1.21,3.43.08,4.71-1.87,1.56-2.34-3.74-.56-8.63-.87-12.49-1.19-8.8-.73-17.67-.85-26.5-1.1ZM253.53,514.17c-.49-.73-7.79-.77-8.48.93-.21,2.55,6.68.84,8.15.81l.33-1.75ZM313.77,517.26c.23-.86.65-1.65-.4-2.14s-7.09-1.1-7.81-.4c-1.46,1.41,1.41,2.55,2.54,2.55h5.67ZM235.4,514.53c-1.34-.4-7.78,0-9.77,0-.92,0-2.88.5-3.14,1.53-.62,2.53,4.34,1.22,5.46,1.19,1.92-.05,5.79.37,7.36-.46,1.04-.54.85-2.03.08-2.26ZM318.56,516.18c-1.74,1.6,2.31,2.11,3.28,2.2,1.8.18,3.65-.1,5.42.05,6.35.56,13.37,2.02,19.61,2.32,1.56.08,1.8-1.49.65-1.86s-3.69-.58-5.06-.8c-6.38-1.01-15.1-2.34-21.44-2.44-.69,0-1.94.06-2.45.52ZM359.1,522.36c-2.18-.71-4.23-2.14-6.63-1.97-1.31,1.11,6.09,2.57,6.06,3.51l.57-1.54Z"/>
          <path class="cls-1" d="M315.73,369.13c.38-1.16-1.51-5.76-.78-6.25,1.89-1.28,3.97,6.92.78,6.25Z"/>
          <path class="cls-1" d="M215.65,362.88c.73.49-1.1,4.9-.78,6.02-3.13,1.34-1.21-7.36.78-6.02Z"/>
        </g>
      </g>
    </g>
  </g>
</svg>