<?xml version="1.0" encoding="UTF-8"?>
<svg id="Layer_2" data-name="Layer 2" xmlns="http://www.w3.org/2000/svg" viewBox="0 0 1222.47 21.5">
  <defs>
    <style>
      .cls-1 {
        fill: #c19a63;
      }
    </style>
  </defs>
  <g id="Elements">
    <g id="line_2">
      <rect class="cls-1" width="1222.47" height="5.69"/>
      <polygon class="cls-1" points="619.79 21.5 147.62 21.5 130.98 4.86 135 .83 149.97 15.81 617.44 15.81 632.41 .83 636.43 4.86 619.79 21.5"/>
      <polygon class="cls-1" points="1110.47 21.5 809.51 21.5 792.87 4.86 796.89 .83 811.87 15.81 1108.11 15.81 1123.09 .83 1127.11 4.86 1110.47 21.5"/>
      <rect class="cls-1" x="622.68" y="12.16" width="182.94" height="2.85"/>
      <rect class="cls-1" x="470.15" y="-1.41" width="2.85" height="23.51" transform="translate(130.81 336.48) rotate(-45)"/>
      <rect class="cls-1" x="459" y="-1.41" width="2.85" height="23.51" transform="translate(127.54 328.6) rotate(-45)"/>
      <rect class="cls-1" x="863.84" y="-1.41" width="2.85" height="23.51" transform="translate(246.12 614.86) rotate(-45)"/>
      <rect class="cls-1" x="852.7" y="-1.41" width="2.85" height="23.51" transform="translate(242.86 606.98) rotate(-45)"/>
    </g>
  </g>
</svg>