<?xml version="1.0" encoding="UTF-8"?>
<svg id="Layer_2" data-name="Layer 2" xmlns="http://www.w3.org/2000/svg" viewBox="0 0 1206.33 72.11">
  <defs>
    <style>
      .cls-1 {
        fill: #c19a63;
      }
    </style>
  </defs>
  <g id="Elements">
    <g id="line_6">
      <path class="cls-1" d="M217,54.78l-18.73-18.73,18.73-18.73,18.73,18.73-18.73,18.73ZM202.35,36.06l14.65,14.65,14.65-14.65-14.65-14.65-14.65,14.65Z"/>
      <path class="cls-1" d="M632.61,54.78l-18.73-18.73,18.73-18.73,18.73,18.73-18.73,18.73ZM617.96,36.06l14.65,14.65,14.65-14.65-14.65-14.65-14.65,14.65Z"/>
      <path class="cls-1" d="M249.86,72.11l-36.06-36.06L249.86,0l36.06,36.06-36.06,36.06ZM221.96,36.06l27.9,27.9,27.9-27.9-27.9-27.9-27.9,27.9Z"/>
      <path class="cls-1" d="M757.13,72.11l-36.06-36.06L757.13,0l36.06,36.06-36.06,36.06ZM729.23,36.06l27.9,27.9,27.9-27.9-27.9-27.9-27.9,27.9Z"/>
      <rect class="cls-1" y="34.62" width="200.31" height="2.88"/>
      <rect class="cls-1" x="649.3" y="34.62" width="557.03" height="2.88"/>
      <rect class="cls-1" x="281.84" y="34.62" width="334.09" height="2.88"/>
      <polygon class="cls-1" points="529.67 37.37 515.66 23.37 267.7 23.37 267.7 20.48 516.86 20.48 531.71 35.33 529.67 37.37"/>
      <polygon class="cls-1" points="516.86 51.63 267.7 51.63 267.7 48.75 515.66 48.75 529.67 34.74 531.71 36.78 516.86 51.63"/>
      <polygon class="cls-1" points="1149.43 36.88 1138.91 26.36 765.96 26.36 755.53 36.78 753.49 34.74 764.77 23.47 1140.1 23.47 1151.47 34.84 1149.43 36.88"/>
      <polygon class="cls-1" points="1140.1 48.64 764.77 48.64 753.49 37.37 755.53 35.33 765.96 45.76 1138.91 45.76 1149.43 35.24 1151.47 37.27 1140.1 48.64"/>
      <rect class="cls-1" x="1118.69" y="22.57" width="2.88" height="16" transform="translate(306.46 801) rotate(-45)"/>
      <rect class="cls-1" x="1107.56" y="22.39" width="2.88" height="16" transform="translate(303.34 793.09) rotate(-45)"/>
      <rect class="cls-1" x="808.8" y="40.38" width="16" height="2.88" transform="translate(209.65 589.8) rotate(-45)"/>
      <rect class="cls-1" x="819.93" y="40.19" width="16" height="2.88" transform="translate(213.07 597.65) rotate(-45)"/>
    </g>
  </g>
</svg>