<?xml version="1.0" encoding="UTF-8"?>
<svg id="Layer_2" data-name="Layer 2" xmlns="http://www.w3.org/2000/svg" viewBox="0 0 521.87 865.91">
  <defs>
    <style>
      .cls-1 {
        fill: #f9ecd8;
      }

      .cls-2 {
        fill: #aa7b1b;
      }
    </style>
  </defs>
  <g id="Layer_1-2" data-name="Layer 1">
    <g>
      <path class="cls-1" d="M521.83,794.17c0-.13,0-.26,0-.39-.65-.41-.39-1.48-.4-2.14-1.26-101.84.02-203.86.02-306.12.01-137.52-1.46-274.69-.02-411.33,0-.66-.25-1.74.4-2.14v-.39c-.11-10.91.35-23.84-.39-34.6-1.09-15.82-13.11-33.29-29.43-35.52-19.37-2.64-39.84-1.11-59.47-1.03-53.34.22-106.95-1.12-159.85-.09-12,.23-24.01.04-36.04,0-48.83-.16-98.18.29-147.35.09-19.63-.08-40.1-1.62-59.47,1.03C13.51,3.77,1.47,21.25.39,37.06c-.9,13.16.03,27.1.03,40.26-.02,91.68.45,183.44.37,275.62-.04,41.43-.66,83.11-.39,124.77.67,103.53.01,207.26.03,310.41,0,13.2-.89,27.08-.06,40.29,1.01,15.97,12.94,33.63,29.45,35.89,16.49,2.25,34.8,1.53,51.69,1.46,117.57-.51,233.44-.92,351.02-.43,19.63.08,40.1,1.62,59.47-1.03,16.32-2.23,28.34-19.7,29.43-35.51.74-10.75.28-23.69.39-34.6Z"/>
      <g id="X2Mfa4.tif">
        <g>
          <path class="cls-2" d="M503.43,6.27c21.29,14.32,17.69,31.86,17.82,54.29.51,88.82.06,178.77.05,267.8-.01,155.59-.05,311.76.02,467.58,0,14.14,2.34,33.4-3.15,46.58-4.19,10.05-15.12,20.36-26,21.88-19.04,2.67-40.05,1.02-59.41.96-81.66-.28-162.62.02-243.54,0-43.19-.01-86.29.78-129.43.42-18.99-.16-36.06,2.41-49.81-13.1-12.23-13.81-9.26-30.52-9.36-47.32-.51-88.82-.06-178.77-.05-267.8.01-155.59.05-311.76-.02-467.58,0-14.14-2.34-33.4,3.15-46.58C7.89,13.35,18.82,3.04,29.7,1.52c19.04-2.67,40.05-1.02,59.41-.96,53.38.18,107-1.2,159.91-.04,25.52.56,51.37.02,77.02.04,45.27.04,90.73-.8,136.04-.42,13.58.11,29.93-1.55,41.35,6.13ZM260.93,3.28c-.48-.64-.71,0-.78.58-.18,1.39.13,3.07,0,4.5.48.64.71,0,.78-.58.18-1.39-.13-3.07,0-4.5ZM256.9,6.13c-.24-.29-1.36-1.03-1.84-.74-3.59,4.2,4.8,4.35,1.84.74ZM264.18,6.13c-2.96,3.62,5.43,3.47,1.84-.74-.48-.29-1.6.44-1.84.74ZM249.79,7.72c-1.6,0-2.35,2.77-.58,3.57,3.33,1.51,2.89-3.58.58-3.57ZM271.29,7.72c-2.31,0-2.75,5.08.58,3.57,1.77-.8,1.02-3.57-.58-3.57ZM57.54,16.84c2.05-1.88.5-6.92-2.91-5.44-5.05,2.19-.58,8.64,2.91,5.44ZM272.11,16.33c-14.87-16.03-38.06,6.21-23.12,21.76,14.02,14.58,37.4-6.36,23.12-21.76ZM465.89,16.84c3.49,3.2,7.95-3.25,2.91-5.44-3.41-1.48-4.96,3.56-2.91,5.44ZM244.01,12.33c-1.4.39-1.68,3.12.1,3.69,3.52,1.14,2.74-4.48-.1-3.69ZM276.07,12.33c-1.91.52-2.1,3.98.27,3.85,2.85-.16,2.21-4.53-.27-3.85ZM40.92,35.24l-24.31-18.27,17.2,23.26,1.56.99c.15.98-.6,1.01-1.3,1.24-3.62,1.18-8.94,1.09-12.78,1.89l14.07,6.45-13.68,19.73c2.88-.9,18.51-13.42,19.73-13.32.49.04.78.21.9.7.48,2.2,1.37,4.3,2.24,6.36.94,2.2,1.9,4.79,3.31,6.66l2.04-13.4.89-.67,22.48,17.2-.03-1.68c-5.15-6.87-10.18-13.81-15.46-20.57-.32-.41-1.67-.62-.65-1.59l13.42-1.96c.16-.89-.05-.62-.5-.87-3.47-1.9-8.77-3.77-12.6-4.99-.5-.16-.63.31-.6-.6l13.69-20.12-20.12,13.7c-.91.03-.44-.1-.6-.6-1.1-3.45-3.15-9.66-4.98-12.6-.25-.41.02-.68-.88-.5l-1.96,13.68c-.36-.02-.75.1-1.09-.1ZM507.21,16.97l-24.44,18.38-.97-.27-1.95-13.42c-.9-.19-.63.09-.88.5-1.83,2.94-3.88,9.15-4.98,12.6-.16.5.31.63-.6.6l-20.12-13.7,13.69,20.12c.03.91-.1.44-.6.6-3.83,1.22-9.13,3.09-12.6,4.99-.45.25-.66-.02-.5.87l13.42,1.96c1.01.97-.33,1.18-.65,1.59-5.28,6.76-10.31,13.7-15.46,20.57l-.03,1.68,22.48-17.2.89.67,2.04,13.4c1.41-1.86,2.37-4.46,3.31-6.66.87-2.06,1.76-4.16,2.24-6.36.12-.49.42-.66.9-.7,1.22-.1,16.85,12.42,19.73,13.32l-13.68-19.73,14.07-6.45c-3.83-.8-9.16-.71-12.78-1.89-.7-.23-1.45-.26-1.3-1.24l1.56-.99,17.2-23.26ZM239.92,18.62c-2.18,6.12,6.95,3.65,1.12-.3l-1.12.3ZM281.16,18.62c-1-1.08-3.28.77-3.04,2.43.43,3.01,5.23.35,3.04-2.43ZM34.45,18.63c-3.25.34-1.81,5.54,1.43,4.93,2.4-1.22,1.21-5.21-1.43-4.93ZM488.71,18.63c-2.54.07-3.43,3.73-1.16,4.93,3.5.63,4.57-5.02,1.16-4.93ZM113.07,22.74c.24-.23.31-.66.42-.97l-.11-.88-2-1.16-17.38-.41c-.11,1.38.39,2.02,1.05,3.13,3.13.47,15.99,2.24,18.01.29ZM429.42,19.31l-17.38.41c-3.9,1.4-2.15,3.47,1.19,3.85,1.88.21,14.46-.47,15.32-1.23.24-.21,1.17-2.74.87-3.03ZM123.72,20.09c-.62,2.87,4.32,2.62,6.43,2.73,5.47.3,10.99.2,16.43.8,12.42-.82,24.84.78,37.15.8,2.98,0,4.69-1.4,1.87-3.47-3.49-.56-7.01-.2-10.47-.3-9.71-.28-19.21-.54-28.9-.56-1.13,0-2.69.47-3.91.39l-18.6-.39ZM399.71,20.09l-36.16.31-25.72.55c-2.82,2.08-1.11,3.48,1.87,3.47,3.29,0,7.29-.63,10.67-.72,14.29-.34,28.61-.1,42.91-.88,2.11-.12,7.05.14,6.43-2.73ZM94.4,23.61c-.53-.1-.95.14-1.1.65-.5,1.66-.2,4.77-.5,6.54-.26,1.57-2.13,6.98-1.48,8.01.3.02.79.36.95.34,2.13-.25,3.34-13.45,2.14-15.54ZM432.11,38.81c.65-1.03-1.22-6.44-1.48-8.01-.29-1.77,0-4.88-.5-6.54-.15-.51-.58-.76-1.1-.65-1.2,2.12,0,15.3,2.14,15.54.16.02.64-.33.95-.34ZM230.44,26.74h12.31c.35,0,.86-.87-.04-1.13-1.15-.34-2.27.35-3.08.35h-7.04c-.22,0-.73-.6-1.5-.36l-.65,1.14ZM290.64,26.74l-.65-1.14c-.77-.24-1.28.36-1.5.36h-7.04c-1.04,0-2.79-1.13-3.71.2l.58.59h12.31ZM236.31,37.3l-45.55-8.6c-26.34-.16-52.75.29-79.01-.74-3.31-.13-6.76.4-9.92-.83-.12,13.49-6.18,26.34-13.91,37.11-11.67,16.24-30.39,30.11-49.72,35.89-4.49,1.34-9.32,1.68-13.79,3.09l.39,451.07c3.89,1,8.03,1.34,11.83,2.73,5.19,1.89,11.19,5.73,15.36,9.27,5.26,4.47,9.75,9.61,12.39,16.15.69,1.72.64,3.47,1.65,4.99.53.41,6.53.68,8.04.92,15.91,2.52,26.63,17.87,29.59,32.93l-1.28,8.75c6.49,2.71,13,6.64,18.05,11.89,6.67,6.93,8.75,13.98,10.81,23,.18.77,1.24,5.05,1.45,5.21,3.21-.52,6.32-.81,9.59-.62,8.74.52,17.99,2.63,25.35,7.49,1.66,1.1,7.8,7.19,8.7,7.37,1.01.04,1.51-1.1,2.57-1.71,6.88-3.93,17.49-6.11,25.13-4.14,6.06,1.56,11.72,5.3,16.4,9.34,3.8-5.39,7.86-10.59,12.95-14.83.95-.79,5.41-3.48,5.66-4.12.21-.55-2.85-2.21-3.26-2.97-10.81-11.32-11.37-24.98-2.77-37.86,2.12-3.17,5.62-6.89,9-8.6-2.83-9.73-.89-22.42,5.9-30.08,8.89-10.02,28.35-14,40.58-8.24,9.78-7.57,25.95-7.65,35.37.6,2.76,2.42,8.63,10.61,10.19,14.04.88,1.94,1.64,4,2.14,6.06,1.4-1.95,6.92-3.04,8.04-4.1.18-.17.33-2.01.77-2.73,2.49-4.03,7.18-5.2,11.53-6.04.17-18.03,20.69-31.79,37.32-23.89.09-.84.03-1.51-.22-2.32-1.18-3.82-7.23-13.3-9.96-16.54-7.53-8.93-16.23-16.71-27.08-21.48-23.83-10.5-51.31-18.41-77.35-13.11-1.76.36-4.24,2.28-4.99-.3,2.92-4.83,7.41-9.59,11.92-13.1,9.19-7.13,28.14-14.53,39.58-17.11,12.07-2.72,28.59-1.87,40.89-.06,33.52,4.93,63.8,26.33,83.37,53.27,1.41,1.94,2.39,4.24,3.85,6.16l.61.19c7.35-4.4,17.42.88,17.61,9.51,5.21.07,10.83,3.32,13.59,7.72,1.11,1.77,1.54,3.83,2.61,5.6,2.11-4.56,6.02-6.38,10.71-7.46.01-1.84.28-3.75.28-5.57.15-109.66.08-219.95.17-329.68l-.39-1.17-13.9-14.64-1.38-2.53,2.73-.8,12.92,12.71v-106.34s-14.08,13.48-14.08,13.48c-.97.48-2.16.27-2.6-.77.29-1.25.84-2.32,1.62-3.34,2.66-3.5,9.42-8.16,12.89-11.74.4-.42,2.15-2.19,1.78-2.71-28.36-4.21-54.14-22.1-68.33-46.81-5.01-8.72-8.64-18.88-8.68-29.04-3.15,1.23-6.61.7-9.92.83-18.16.71-36.56.75-54.78.9-8.44.07-17.87-.81-26.2-.19-10.45.79-26.42,4.53-37.03,6.75-1.19.25-8.41,1.86-8.71,2.24,1.24,3.67,2.49,7.34,3.94,10.94,1.28,3.17,7.6,15.84,7.24,18.19-.15,1-1.47,1.39-2.35,1.18l-22.3-16.23c-1.87,11.14-3.73,22.31-5.42,33.48-1.22,8.02-1.74,19.25-3.75,26.74-.68,2.52-2.27,3.65-3.71.94l-9.02-60.77c-.44-.06-.76,0-1.16.21-3.38,1.71-6.76,5.54-9.82,7.77-3.78,2.76-7.93,5.08-11.71,7.85l-1.63-.19-.53-.76,11.18-29.73ZM239.53,29.57c-1.7,1.5.57,4.63,2.48,3.07s-1.05-4.34-2.48-3.07ZM281.55,29.57c-1.43-1.26-4.46,1.46-2.48,3.07s4.18-1.57,2.48-3.07ZM244.85,38.42c.49-1.58-.67-3.17-2.3-2.91-.7.81-1.05,1.97-.61,2.99.53.75,2.17.26,2.91-.08ZM276.23,38.42c.74.34,2.37.83,2.91.08.44-1.02.1-2.18-.61-2.99-1.63-.26-2.79,1.33-2.3,2.91ZM247.95,40.5c-.05-.09-1.67-1.02-1.83-1.06-1.5-.39-2.17,2.21-.16,3.29,1.58.85,2.68-1.05,1.99-2.23ZM276.1,39.72c-.64-.93-4.45.7-2.66,2.87,1.11,1.35,3.95-.98,2.66-2.87ZM250.48,45.8c3.31.99,3.33-2.92-.06-2.61-.38.89-.57,1.78.06,2.61ZM270.67,43.19c-3.47-.27-3.29,3.62-.06,2.61.63-.83.45-1.72.06-2.61ZM256.05,44.33l-1.24,2.55,1.61.99,1.38-1.38c.01-.65-1.03-2.32-1.74-2.16ZM264.66,44.34l-1.37,2.15c.03,1.5,2.4,1.95,2.99.39-.17-.61-.69-2.74-1.62-2.54ZM261.32,44.72h-1.56v12.12h1.56v-12.12ZM90.1,47.07l-1.5.07c-.79,1.71-1.58,3.49-2.48,5.14-.66,1.21-4.19,6.86-4.23,7.53-.16,2.42,1.44.91,2.28-.1,1.13-1.35,6.93-11.7,5.93-12.64ZM434.83,47.14l-1.5-.07c-1.02.96,5.15,12.04,6.44,13.3.98.95,1.87,1.1,1.77-.56-.04-.67-3.57-6.31-4.23-7.53-.9-1.65-1.69-3.43-2.48-5.14ZM31.2,83.31c.27.3,2.18,1.39,2.6,1.5,5.87,1.58,9.09-4.06,6.47-9.2-2.8-5.49-10.36-1.15-10.36,3.72,0,.87.72,3.35,1.29,3.98ZM491.73,75.45c-8.24-8.67-13.67,7.91-5.35,9.45,5.99,1.11,9.42-5.16,5.35-9.45ZM16.31,231.9c.62.79,1.98.07,2.36-.78,1.32-2.93-.12-8.73-.13-12.22-.1-38.36.57-77.12.42-115.31,0-1.27-.81-2.83-.34-4.28l.58-.59c6.64-.37,12.89-1.72,19.12-3.95,2.09-.75,9.69-3.44,10.17-5.47l-.45-.78c-1.32-.33-8.4,3.5-10.25,4.17-6.55,2.38-12.85,2.99-19.74,3.71l-1.82,2.48c-.07,35.19.07,70.38-.04,105.56-.02,7.52-.33,15.03-.63,22.48-.03.75.41,4.54.75,4.97ZM507.12,231.9c.34-.43.78-4.22.75-4.97-.25-6.03-.61-12.02-.64-18.22-.17-36.49.08-73.23-.04-109.83l-1.82-2.48c-6.9-.73-13.19-1.34-19.74-3.71-1.85-.67-8.93-4.5-10.25-4.17-1.06.51-.07,1.6.57,2.12,1.99,1.61,6.62,3.23,9.16,4.13,6.23,2.22,12.48,3.57,19.12,3.95,1.45.46.25,3.78.25,4.86-.15,38.19.52,76.95.42,115.31,0,2.6-.81,5.38-.86,7.42-.03,1.29,1.04,8.17,3.08,5.58ZM18.18,250.96v-11.34l-.58-.57-1.76.96v10.95c0,.06.41.96.63,1,.54.13,1.6-.57,1.72-1ZM507.6,250.96c.51-3.21-.38-7.6,0-10.95l-1.76-.96-.58.57v11.34c0,.28,1.22,1.2,1.72,1,.22-.06.61-.9.63-1ZM19.23,265.11c2.32-2.18.53-9.57-4.15-6.3-3.81,2.67.41,9.82,4.15,6.3ZM504.2,265.11c3.75,3.52,7.97-3.63,4.15-6.3-4.68-3.27-6.47,4.12-4.15,6.3ZM16.07,272.9c-.28.27-.88.4-.96.76.29,5.74,6.35,2.48,3.82-1.17-1.09-1.56-2.03-.4-2.85.41ZM507.36,272.9c-.83-.81-1.77-1.97-2.85-.41-2.54,3.65,3.53,6.91,3.82,1.17-.08-.36-.69-.49-.96-.76ZM12.05,361.52c-.81,2.22,1.34,5.87,3.61,4.21s1.24-6.25-1.98-5.92c-.27-.11-1.59,1.59-1.63,1.7ZM510.9,361.25c-.8-1.33-.69-2.02-2.81-1.11s-2.04,4.81-.1,5.77c2.28,1.13,3.79-1.95,3.55-3.93-.08-.65-.53-.54-.65-.73ZM10.88,373.27c-3.85,3.27-.99,9.71,3.97,9.26s3.76-9.49,1-10.4c-1.46-.48-3.8.15-4.97,1.14ZM512.55,373.27c-1.16-.99-3.51-1.62-4.97-1.14-2.76.91-3.86,9.96,1,10.4s7.82-5.99,3.97-9.26ZM18.86,390.05c-1.56-2.75-7.45.85-4.62,4.03,2.53,2.83,6.32-1.04,4.62-4.03ZM508.65,389.68c-3.25-2.29-6.02,2.13-3.5,4.58,2.86,2.79,6.7-2.33,3.5-4.58ZM426.91,514.84c-23.28-22.84-59.36-35.3-91.85-31.01-16.62,2.19-32.93,8.08-46.37,18.13,3.29-.06,6.23-.2,9.52.25,15.42,2.1,33.66,6.96,48.25,12.34,20.67,7.63,39.03,20.72,49.16,40.76,5.3,10.48,6.14,26.18,3.5,37.55-2,8.61-6.89,17.29-11.92,24.44.01.41,3.3,1.81,3.13,2.93l4.09-5.46c.67-1.04,4.58-2.96,4.88-3.44,1.08-1.68,5.05-11.8,5.75-14.08,4.28-14,3.18-35.17-4.08-48.07-1.62-2.87-5.67-7.31-6.85-9.98-.27-.61-.37-1.19-.3-1.85,1.54-.3,2.37.94,3.33,1.95,13.67,14.33,16.96,41.36,11.26,59.75-1.12,3.62-3.04,6.97-4.03,10.63,3.58.15,7.14-.75,10.55.79,4.83-16.25,23.86-24.43,38.84-15.71l7.08-6.17c-2.02-28.07-13.97-54.14-33.95-73.74ZM468.84,550.97c.2-.32.12-1.95.04-2.46-.82-4.66-9.13-7.15-12.9-4.67-.27,1.29,2.25,5.09,2.85,6.52,4.63,11.09,7.16,22.89,9.31,34.68,10.71-3.76,22.13-2.21,30.87,5.09l-.02-24.61c-3.28-.03-4.37,4.1-5.83,6.45l-.99.18c-1.99-3.73,2.94-9.21,6.77-9.44l.06-2.28c-2.04,0-4,.79-5.59,2.02-.68.52-3.83,4.15-4.19,4.8-.58,1.01-.77,5.64-1.2,7.4-.16.67-.7,2.93-1.1,3.2-3.86.79-1.39-4.19-1.2-6.28.32-3.53.01-6.92-1.63-10.09-2.51-4.86-8.6-8.62-14.1-6.81-1.93.64-3.07,2.99-4.95,2.2-.4-2.21.73-3.85,2.33-5.22.41-.35,1.38-.5,1.48-.66ZM43.42,569.57c-5.16-3.98-12.1-7.12-18.59-7.99-.33,5.18.03,10.27.03,15.45,0,1.45,0,2.84,0,4.3,0,15.55-1.42,34.92,0,49.98,1.15,12.13,10.43,31.35,16.83,41.82,11.56,18.88,25.03,34.88,43.75,46.95,3.36,2.17,7.27,4.03,10.74,6.09,3.68-.79,7.35-1.87,11.03-2.63,6.87-1.41,13.5-3.26,20.32-4.7,9.2-1.94,19.88-3.39,29.27-4.74,8.22-1.19,16.49-2.1,24.75-2.81.73-5.79-2.15-12.67-5.28-17.53-4.99-7.75-12.99-15.46-22.14-17.74-6.55-1.63-14.89-2.07-21.46-.82-.4,1.66-1.48,9-4.48,6.82-1.64-1.19-.73-6.65-.99-8.78-.39-3.19-1.84-7.61-2.66-10.32-1.89-6.28-5.29-12.77-9.66-17.25-5.91-6.07-14.26-10.77-22.68-12.12-1.86-.3-3.8.39-5.53-.92-.28-.95-.54-2.54.32-3.23.59-.46,1.15.34,1.11-1.19,3.02-.55,6.08.02,9.03.6-.06-.76.13-1.49.21-2.23.93-8.46-7.13-21.19-13.42-26.68-3.37-2.94-7.02-4.85-11.49-5.61-1.89-.32-4.28.16-6.17-.67.96,3.99-1.28,7.5-2.47,11.02-.53,1.58-.06,4.17-2.03,4.26-4.74.23-1.75-8.42-1.54-10.87.34-3.99-1.86-10.71-3.38-14.29-1.64-3.88-9.55-11.21-13.43-14.2ZM19.65,567.76c.5-.87-.06-3.53-1.09-4.03-2.87-1.39-5.84,2.86-3.1,4.67,1.1.73,3.66.28,4.19-.64ZM503.78,567.76c.53.92,3.09,1.37,4.19.64,2.74-1.81-.23-6.06-3.1-4.67-1.02.49-1.59,3.15-1.09,4.03ZM392.14,568.77c-5.6-2.57-14.09-1.96-19.55.68-5.97,2.89-13.01,12.09-11.92,19.06.4.63,6.94.25,7.97,3.96s-4.7,1.03-6.7.84c-4.65-.45-8.49.82-12.65,2.69.01,1.73,2.54,1.13,3.81,1.42,1.11.25,4.65,1.06,5.04,1.89l-.33,1.67c-3.81,1.25-7.86-.2-11.75.58-6.09,1.22-7.08,4.62-11.26,7.11-3.71,2.22-4.64.08-2.65-3.06.29-.46,1.07-.56,1.14-.9.13-.58-.91-3.82-1.24-4.57-1.88-4.32-9.62-13.99-13.68-16.42-8.15-4.87-18.03-5.07-26.13-.05,2.33,2.7,4.12,5.45,4.3,9.17,5.05-.21,10.29,1.36,14.5,4.07,2.13,1.37,6.67,5.1,4.01,7.65-4.19-2.1-8.95-5.24-13.68-5.8-6.36-.75-12.58,1.19-17.72,4.87-1.36.97-3.54,3.81-4.97,3.96s-2.09-.65-2.11-2.04c-.09-5.78,10.39-10.04,14.94-11.65.61-.21,1.24-.29,1.88-.27-1.52-4.77-4.28-7.28-9-8.79-16.46-5.25-37.4,2.9-39.08,21.89-.35,3.97.71,6.93,1.17,10.75,2.16-.21,4.27-.54,6.47-.41,1.54.09,6.02.5,5.23,2.9-.39,1.18-6.91.9-8.28,1.12-10.63,1.64-19.15,17.31-18.1,27.29.64,6.09,3.87,10.48,7.83,14.85,1.19,1.31,3.3,1.89,3.35,3.88.52.49,5.8-1.98,6.92-2.23,2.18-.49,6.64-.86,8.9-.81,1.55.03,3.48,1.46,2.88,3.2-.27.61-.93.7-1.5.85-3.52.94-7.35,1.15-10.96,2.33-9.92,3.23-15.8,8.26-21.66,16.65-4.73,6.77-7.58,13.92-8.05,22.25.41.41,5.81-.32,6.84-.31,8.73.06,16-.65,24.63-1.25,2.22-.15,4.98.3,7.05.01,1.17-.16,2.03-1.07,3.28-1.41,2.02-.55,4.8-.31,6.48-2.12,3.82-4.1,5.29-9.33,9.77-13.29,4.47-3.95,15.2-8.85,21.11-9.39,5.63-.51,12.51.25,16.99,3.9l.37-1.92c-3.43-2.07-7.28-3.41-10.65-5.58-14.21-9.17-32.77-34.17-31.95-51.74.08-1.64.83-7.94,3.53-6.25.61.38,3.91,5.03,4.88,6.08,12.43,13.36,23.52,19.64,41.95,22.56,1.88.3,11.82,1.17,13,.32,2.76-7.88,8.89-13.5,16.79-16.04,2.66-.86,5.88-1.98,8.62-1.55.84-.98.74-2.32,1.25-3.43,1.92-4.2,7.87-10.62,12.39-11.85,1.16-.31,4.77-.41,5.3-.95,1.16-2.38,3.06-4.29,4.42-6.53,4.34-7.15,8.54-23.03,9.26-31.43.1-1.2.26-7.37-.21-7.8-1.7.91-1.96-.39-2.48-.63ZM18.48,613.89c.25-1.06.43-2.12.49-3.22.54-9.96-.66-20.13,0-30.14l-.99-2.91c-.88.56-1.84.9-1.78,2.12.63,10.59-.77,22,0,32.49.05.74.2,1.43.43,2.12l1.85-.47ZM506.8,614.36c.23-.7.37-1.38.43-2.12.77-10.49-.63-21.9,0-32.49.06-1.22-.91-1.57-1.78-2.12l-.99,2.91c.72,9.95-.64,20.7,0,30.53.06.96.3,1.9.49,2.83l1.85.47ZM496.9,592.23c-1.88-1.43-5.44-2.98-7.69-3.85-13.56-5.25-25.7,1.29-33.98,12.12-.77,1-3.44,3.9-2.12,4.81,2.07,1.43,4.41,2.59,6.37,4.2,1.39,1.14,3.51,2.51,3.16,4.46-4.16-.26-7.04-3.8-10.86-4.97-5.44-1.66-12.03-.5-17.16,1.77-.76.34-6.53,3.33-5.6,4.37,1.89.06,4.97,1.88,3.27,3.94-3.73-1.07-6.75-1.49-10.64-.86-1.46-3.87,2.61-3.01,3.85-4.06.54-.46,1.03-2.42,2.56-3.7,5.42-4.53,13.32-5.95,20.15-6.44l3.5-7.06c-4.96-2.59-11.41-3.29-16.83-1.97-5.76,1.39-13.32,7.43-15.69,12.85-.78,1.79-1.56,6.76-3.34,7.24-1.33.36-1.5-.68-2.35-1.03-2.69-1.11-8.46-1.04-11.14.02-2.02.79-8.17,5.84-9.01,7.83-.64,1.52.56,3.47-2.44,4.18-.8,0-2.29-2.1-3.18-2.68-7.79-4.97-20.74,4.33-19.85,13.29.24,2.42,2.54,4.93-1.01,6.38-2.96,1.21-5.69-4.29-5.08-6.8-1.06-1.19-8.47,2.7-9.88,3.57-4.44,2.76-7.98,6.21-10.05,11.06-2.32,5.4-3.52,12.32-.39,17.61,4.37.44,8.45,2.18,11.91,4.86,5.43-2.02,10.57-3.57,16.39-2.03.91-.17,3.01-3.89,3.77-4.8,11.57-13.86,30.64-23.21,49-20.08,2.43.41,10.31,2.47,10.04,5.6-1.44.21.56,2.42-2.01,2.37-1.15-.02-2.12-.86-3.09-1.2-20.39-7.11-38.71,2.76-52.43,17.89-.2.22-.44.31-.73.31l.24.77c2.93,1.2,8.3,1.95,10.3,4.5.66.84.46,3.31-.26,3.73-1.82,1.07-5.86-1.98-7.87-2.64-12.36-4.09-20.31-1.14-30.54,5.59-1.25.83-7.54,5.89-8.43,5.63-1.38-1.1-.14-2.29.59-3.31,2.7-3.83,6.87-6.57,10.28-9.66.38-.35.83-.36.65-1.1-11.87-4.31-26.37.83-30.49,13.28,3.11-.02,6.38,1.82,9.13,3.19.85.42,3.11,2.11,3.64,2.2.89.14,6.19-2.16,8.19-2.21,2.41-.07,9.82,1.97,11.14,4.05.34.53-.07,1.36.26,1.98l-1.08.19-.02,1.94c-2.93,1.1-4.57-1.66-6.63-2.52-4.34-1.83-9.75.35-13.7,2.32-1.97.99-3.72,3.36-6.23,2.95-.25-2.75,2.49-4.59,3.91-6.64-3.11-1.47-7.94-4.62-11.47-4.27-1.55.15-9.47,1.78-10.03,2.9,3.07,1.76,6.7,3.89,8.6,7.04,1.09,1.8.53,2.93-1.67,2.47-1.03-.22-4.91-3.91-6.57-4.79-2.51-1.32-5.51-2.18-8.37-2.2s-5.48,1.2-8.35.75c-1.46-3.21,3.36-4.09,5.61-4.25,2.95-.21,5.94.09,8.79.79.38-4.33,5.05-3.96,7.81-5.67-8.7-4.36-20.33-1.16-28.26,3.79-4.6,2.88-8.74,8.73-10.99,13.66-.51,1.11-.56,2.28-.61,3.47,3.56.12,7.17-.05,10.74.11,22.48.96,45.2,2.34,67.64,4.27,13.09,1.12,25.11,2.59,37.95,4.97,13.13,2.43,26.35,4.66,39.24,8.07,3.22-2.82,7.56-4.52,11.16-6.85,25.48-16.49,48.64-48.21,57.67-77.21,4.8-15.41,1.95-31.78,2.74-47.73.02-.99-1.34-2.18-2.12-2.76ZM19.98,630.26c1.05-1.99.64-6.18-2.2-5.96-5.96.46-3.76,8.88,1.09,7,.07-.03,1.07-.97,1.11-1.04ZM508.27,630.68c4.25-4.25-4.68-10.23-5.33-3.16-.31,3.38,2.95,5.53,5.33,3.16ZM335.6,652.29c-5.2.6-10.58.49-15.73-.5-9.85-1.88-21.61-6.13-29.59-12.24-3.3-2.53-6.14-5.6-8.83-8.76-.58.3.08.94.28,1.29.83,1.47,4.05,5.51,4.16,6.79.05.51-.21.62-.55.9-2.19.55-4.94-5.4-5.96-6.91-.34-.51-.44-1.07-1.25-.9,1.8,8.02,5.25,15.25,9.84,22.02,4.88,7.21,19.5,23.17,28.3,24.48,3.53.52,2.72-.66,4.66-2.33,2.34-2.02,5.52-3.98,8.41-5.08.11-.51-.4-.47-.78-.58-1.84-.55-10.97-2.47-10.96-4.69l1.07-1.32,14.87,4.57c2.73.52.99-2.43.89-4.04-.28-4.31.48-8.48,1.17-12.7ZM39.05,685.38c-6.65-10.08-13.37-22.71-16.67-34.35-.43-1.52-1.55-8.31-2.24-8.73-1.63-.99-2.44,1.28-2.28,2.66,1.13,9.7,8.62,25.96,13.54,34.57,9.25,16.19,31.25,43.48,49.32,49.19,2.41.76,4.79-.39,2.71-2.32-.99-.92-6.29-3.01-8.07-4.05-13.56-7.92-27.7-23.89-36.32-36.97ZM505.15,642.62c-.26-.3-1.2-.56-1.6-.45-1.07.29-1.89,6.71-2.32,8.26-6.99,24.86-30.48,58.57-52.93,71.79-2.67,1.58-5.54,2.81-8.31,4.19l-.74,1.49c.56,2.78,6.27-.37,7.76-1.11,20.84-10.27,41.97-38.45,51.2-59.44,2.5-5.67,6.66-16.44,7.36-22.39.07-.57-.09-1.95-.42-2.34ZM11.14,659.72c-2.35-.37-2.19,3.54-2.32,5.29-.2,2.77-.18,6.59-.04,9.39.05,1.04.46,5.46.79,5.85.7.83,1.79.26,2.15-.6.64-1.56-.36-7.47-.43-9.63-.02-.73.31-1.49.28-2.28-.11-2.66-.54-5.34-.43-8.02ZM512.29,659.72c.11,2.68-.32,5.36-.43,8.02-.03.79.31,1.55.28,2.28-.07,2.16-1.07,8.07-.43,9.63.57,1.39,2.26,1.31,2.54-.18.17-4.79.71-9.67.37-14.45-.13-1.76.03-5.66-2.32-5.29ZM185.49,702.92c.27,2.12,0,5.17,0,7.43,0,1.13,2.77.22,3.33.2,8.32-.28,16.66-.57,24.96-1.16.35-.16,1.45-6.05,1.21-6.68-.09-.25-2.96-3.81-3.28-4.11-4.06-3.7-10.04-5.66-15.47-6.03-1.74-.12-4.92.58-6.07.22-4.01-1.28,2.4-4.51,4.21-4.82,3.45-.59,8.7.67,12,1.89,3.85,1.42,6.69,3.58,9.42,6.61.75.15,1.61-2.15,1.61-2.54,0-.46-2.61-3.27-3.16-3.73-2.62-2.22-7.29-4.13-10.62-5.02-6.5-1.75-11.11-1.63-17.45.46-2.34.77-4.59,2.28-6.95,3.03,1.56,2.53,3.31,5.13,4.37,7.93.5,1.33,1.72,5.08,1.88,6.33ZM11.53,690.61c-2.84.31-2.64,2.12-2.74,4.47-1.57,34.51-.78,70.2-1.15,104.83-.02,2.12-.86,9.01-.21,10.34.7,1.44,3.18.55,3.35-.57l.75-119.06ZM514.15,691.49c-.19-.23-2.08-1-2.25-.88-1,10.54-.1,21.27-.36,31.86l1.11,87.2c.18,1.13,2.65,2.02,3.35.57.68-1.38-.18-8.2-.21-10.34-.35-31.56-.36-63.07-1.18-94.62-.06-2.2.39-12.76-.47-13.79ZM441.78,821.05c2-3.45,1.88-10.01,2.6-14.02,2.1-11.76,9.12-25.3,13.37-36.67,2.55-6.81,5.91-15.44,1.45-22.16-2.1-3.18-12.07-8.29-15.84-9.96-13.19-5.84-28.51-9.2-42.73-11.61-28.65-4.86-57.68-8.69-86.74-10.21-36.07-1.89-71.83-2.02-107.91-.38-5.67.26-12.29.13-17.96.77-1.92.22-3.69,1.57-5.9,1.92-5.59.87-12.87.37-18.72.82-26.6,2.08-70.69,9.34-93.51,22.99-12.45,7.45-11.05,14.91-6.26,27.52,4.17,10.98,11.11,24.16,13.38,35.49,1.4,6.96.15,14.94,6.82,19.56l2.73-6.07c9.26-7.33,21.27-10.21,32.45-13.48l-1.17,24.43c-.04.89-.98,4.32-1.78,4.5-11.01-6.77-28.5,1.86-37.51-8.98-4.91-5.91-4.08-17.81-6.56-25.5-.85-2.63-2.36-5.04-3.32-7.63-1.94-5.2-3.82-10.45-5.59-15.71-7.02.57-14.67.9-21.56,2.41-5.43,1.2-10.6,3.51-15.94,4.98.91,3.07,3.2,5.66,4.19,8.91,5.71,18.69-7.97,34.61-3.01,52.86,1.22.07,2.17-1.07,3.11-1.37,22.61-7.4,35.79-5.48,58.85-3.72,9.17.7,31.52,2.84,32.65-10.33.49-5.73-.94-18.61,2.16-23.25.78-1.16,3.4-3.13,4.75-3.46,19.78-2.25,39.44-5.46,59.31-6.75,28.28-1.83,57.21-1.17,85.61.02,34.54,1.45,68.02,1.32,102.43,5.47,5.84.7,10.93,1.59,16.6,2.95,1.66.4,3.14.19,4.87,1,3.19,1.49,3.14,4.41,3.36,7.58.46,6.56.28,13.73,2.15,20.14.94,3.24,2.65,4.12,5.68,5.26,7.78,2.92,16.32,2,24.42,1.37,22.83-1.77,36.88-3.83,59.16,3.79,1.12.38,1.93,1.46,3.19,1.3,4.18-15.09-5.47-29.32-4.71-44.39.31-6.23,2.3-11.77,5.87-16.8-11.6-5.58-24.55-7.15-37.27-8.04-3.85,10.21-8.66,20.17-11.08,30.84-.98,8.64-1.01,17.81-9.93,22.13-6.75,3.27-19.49,1.36-27.5,2.6-1.06.16-2.21,1.02-3.15,1.53-3.56-8.11-3.96-17.77-4.49-26.58,9.97,2.03,20.57,5.31,29.19,10.88,2.96,1.91,5.22,4.52,4.04,8.28.36.46,5.41-4.7,5.71-5.23ZM244.91,802.82c-8.88-1.11-17.86-.65-26.79-.75-13.72-.15-27.69-.69-41.44,1.11-2.51,1.66-2.17,3.56,1.18,3.57,5.25.02,11.12-1.04,16.41-1.22,14.84-.49,29.82.51,44.6-.36,1.11-.07,5.1-.45,5.65-.99.48-.47.45-.73.39-1.36ZM167.37,807.02c.23-.67-.28-2.16-1.02-2.43-.3-.11-5.53.16-6.42.22-6.62.48-16.4,1.93-22.94,3.25-1.86.38-4,.97-3.69,3.4.16,1.24,2.22,1.18,3.14,1.15,5.75-.2,13.17-2.05,19.15-2.76,2.54-.3,8.6-.08,10.5-1.23.09-.05,1.25-1.5,1.29-1.6ZM325.92,805.26c-.55.56-.35,1.66.3,2.04,1.61.95,10.39,1.32,12.11.39,1.12-.61,1.59-2.59-.2-2.92-1.69-.31-5.97-.47-7.78-.41-1.28.04-3.44-.11-4.42.9ZM393.68,812.44c.27-.53.86-1.54.18-2-.35-.24-3.94-1.06-4.68-1.19-7.12-1.3-16.01-2.31-23.33-3.25-5.95-.77-11.98-.83-17.93-1.52-1.39,1.37-2.31,2-.71,3.83l16.73,1.16c8.53,1.56,17.16,2.07,25.76,3.17,1.47.19,3.13,1.5,3.98-.2ZM115.43,813.05c-3.04.32-17.39,4-19.44,5.62-1.09.86-1.09,1.83.38,1.57,2.87-.52,6.95-2.39,10.06-3.24,2.67-.72,7.93-1.28,9.95-2.17,1.82-.8.71-1.95-.96-1.78ZM426.22,818.91c-.48-.77-11.65-4-13.37-4.42-1.81-.43-5.49-1.43-7.14-1.49-1.41-.05-1.93,1.17-.64,1.85,1.22.64,6.76,1.25,8.79,1.76,4.02,1.02,7.99,2.27,11.84,3.8.86.31.72-1.17.52-1.5ZM8.88,821.28c-.72.7-.6,8.02-.47,9.48.33,3.87,2.75,10.62,4.9,13.87,1.01,1.53,3.46,4.33,5.41,4.23,3.36-.65-2.51-6.78-3.05-7.76-1.34-2.39-3.5-8.82-3.73-11.51-.11-1.29.31-9.06-.98-9.16-.51.47-1.66.46-2.07.85ZM514.55,821.28c-.4-.39-1.56-.38-2.07-.85-1.29.11-.86,7.87-.98,9.16-.24,2.69-2.4,9.12-3.73,11.51-.54.97-6.42,7.1-3.05,7.76,1.95.1,4.4-2.7,5.41-4.23,2.14-3.25,4.56-10,4.9-13.87.13-1.47.24-8.78-.47-9.48ZM93.23,820.8c-2.88-1.2-4.67,5.35-1.56,4.43l1.56-4.43ZM428.64,820.8c-.36.36,1.24,4.88,2.14,4.69,2.11-.46.23-5.53-2.14-4.69ZM477.3,859.12c.97.28,4.51,0,5.86,0,1.46,0,6.92-1.19,8.29-1.87,1.12-.56,3.77-2.95,1.48-3.23-1.05-.13-4.33,1.26-5.91,1.53-3.6.62-8.21-.36-10.69,2.6,0,.07.9.96.97.98ZM73.24,858.67l-.31-1.73c-10.3-.95-20.76-.58-31.12-.55-1.16,0-3.16-.86-3.32.59-.22,1.97,1.67,2.73,3.35,2.92,6.25.71,16.86.23,23.34-.11,1.47-.08,7.54-.24,8.07-1.11ZM99.76,859.41c.16-.42.24-.78.08-1.22-.39-1.04-6.94-1.66-8.38-1.76-1.66-.12-5.85-.65-7.04.31-2.32,1.87,1.71,3.04,3.14,3.17,1.98.18,4.25-.09,6.28-.03,1.37.04,5.29,1.25,5.92-.47ZM466.47,858.42c-11.04-1.52-22.21-.49-33.31-.47-97.48.22-194.24-.45-291.63,0-10.84.05-21.7.21-32.46-.8.02,1.35-1.82,1.64-1.79,3.3l.81.45c-.86.8.44,1.59,1.28,1.62.89.03,2.4-.65,3.59-.69,15.62-.61,31.35.38,46.9.38,91.16,0,182.23-1.08,273.29-.78,7.41.02,14.83.56,22.29.42,2.72-.05,12.81.75,11.03-3.44Z"/>
          <path class="cls-2" d="M90.11,502.16l21.1-11.34c.71.78-4.47,6.37-5.25,7.45-1.92,2.67-4.33,6.03-6.09,8.76-.63.97-1.98,2.53-1.19,3.56.43.56,3.78,1.79,4.63,2.02,4.74,1.26,12.1,2.19,17.1,2.84,4.48.57,12.11.06,16.04,1.94,4.15,1.99-3.25,3.13-4.82,3.42-9.78,1.83-21.06,1.44-30.67,3.73-1.36.32-2.47.7-2.18,2.34.33,1.93,5.7,8.8,7.2,10.82.79,1.06,6.27,6.82,5.24,7.85-1.28.18-2.31-.56-3.39-1.11-5.4-2.73-10.89-7.37-16.28-9.91-.35-.17-.53-.46-1.05-.32.29,7.41-1.83,14.58-3.02,21.8-.4,2.43-2.21,18.12-3.28,18.8-.41.26-2.14.15-2.5-.33-.66-.86-2.2-11.59-2.47-13.55-1.19-8.61-1.61-17.29-2.4-25.94l-16.53,12.22-.95.03c-.92-.34-.91-1.56-.52-2.29,2.45-5.01,6.14-10.04,8.45-15.03.38-.82,1.71-3.62,1.3-4.27-11.14-5.11-24.08-2.16-35.53-6.1-1.81-3.42,2.25-3.55,4.62-4,8.44-1.6,18.23-1.61,26.37-3.34,7.18-1.52,4.9-4.16,2.4-9.25-1.54-3.14-5.03-7.69-6.11-10.7-.27-.76-.39-1.43-.3-2.24l16.41,12.12,5.09-43.01c.98-1,2.43,2.33,2.63,3.04,1.11,3.85,1.73,9.55,2.38,13.65,1.38,8.74,2.26,17.58,3.59,26.33ZM82.29,473.62v5.47c.51.1.63-.72.68-1.07.18-1.15.57-3.75-.68-4.4ZM82.25,483.42l-1.14-.03c-.33,3.57-.2,7.17-.4,10.75-.12,2.2-.68,4.82-.79,7.03-.04.7-.19,2.69.61,2.94l1.36-.98c-.25-2.59,1.56-18.98.36-19.72ZM100.66,501.37c.79.77,2.81-2.02,3.12-2.55.28-.48.51-.82-.2-.97-1.3-.28-3.34,3.11-2.92,3.52ZM73.68,508.81c-2.76-.45-1.52,4.92.35,2.48l-.35-2.48ZM93.64,514.65c5.25.92,10.59,2.4,15.94,2.66,2.27.11,2.15-1.18.1-1.69-2.16-.53-4.87-.62-7.14-1.07-2.09-.41-6.14-1.85-7.97-1.82-.47,0-.73.17-.89.61l-.03,1.3ZM69.78,513.5l-5.09.39v1.17s5.08-.4,5.08-.4v-1.16ZM57.58,515.18c-4.42.2-10.18,1.06-14.57,1.84-1.43.25-1.34,1.51.26,1.47,3.07-.09,7.07-1.12,10.29-1.47,1.28-.14,6.88-.03,7.43-.78.36-.49.21-.64-.19-.99-1.06-.45-2.15-.12-3.22-.07ZM119.42,518.18c.85.11,5.48,1.5,5.08-.19-.64-1.37-6.15-1.31-5.08.19ZM72.81,521.41c-.49-.43-1.76-.63-2.38-.44-2.08,1.36.88,2.24,2.24,1.88.73-.2.58-1.07.14-1.44ZM71.73,529.53c-.71-.79-3.13,3.24-1.76,3.12.35-.03,2.19-2.63,1.76-3.12ZM81.11,531.87l-1.19.17c-1.03.76,0,4.63.04,5.87.05,1.77-.38,5.64-.03,6.99.19.75,1.41.76,1.8-.5.15-.48.15-.89.19-1.37.12-1.29-.33-10.86-.81-11.16ZM81.5,549.86c-3.2-.04-.69,6.03-.77,8.21h1.16s-.39-8.21-.39-8.21Z"/>
          <path class="cls-2" d="M449.36,145.2l20.52-11.72c.73.55.65.69.29,1.45-.65,1.36-3.24,3.93-4.32,5.46-2.01,2.83-4.25,5.71-6.18,8.47-2.84,4.08-3.08,4.92,2.12,6.39,9.06,2.56,18.77,2.48,28.03,3.64,1.49.19,10.93,1.77,5.77,3.8-6.04,2.38-19.06,2.34-26.04,3.28-1.47.2-10.68,1.59-11.1,2-1.23,1.19.44,3.53,1.16,4.72.83,1.38,2.13,3.37,3.07,4.67,1.23,1.71,8.19,9.09,7.8,10.64-.67,1.14-1.82.09-2.74-.36-5.29-2.62-11.69-8.11-16.82-10.15-.4-.16-.69-.31-1.15-.21.24,7.4-1.81,14.58-3.02,21.81-.7,4.18-.96,8.53-1.79,12.67-.3,1.49-1.52,9.01-3.97,5.37-.94-1.39-2.16-11.13-2.49-13.53-1.19-8.61-1.63-17.3-2.41-25.93l-16.03,12.32c-1.3.72-2.46-.41-2.17-1.76,2.39-5.19,6.49-10.38,8.72-15.54.32-.75,1.48-3.42,1.1-4-1.76-2.76-19.96-3.88-23.87-4.29-2.94-.31-8.89-.19-11.35-1.94-1.87-1.33-.45-2.88,1.31-3.42,8.61-2.63,21-2.03,29.94-4.07,6.44-1.47,4.55-3.63,2.27-8.43-1.66-3.49-5.3-8.19-6.5-11.49-.24-.67-.29-1.23-.22-1.93l16.41,12.12c1.01-8.13,1.8-16.3,2.74-24.44.64-5.53.73-11.58,2.14-17.02.18-.69.15-1.46.8-1.94,1.56-.36,2.57,6.23,2.8,7.35,2.41,11.88,3.37,24.06,5.21,36.04ZM460.69,142.47l-10.54,6.46c-3.6,1.25-4.63-2.3-5.05-5.13-1.24-8.14-1.13-17.7-2.78-25.73-.1-.51-.07-1.76-.78-1.79l-2.9,31.7c-.34.36-.7.71-1.22.76-2.16.22-11.42-8.76-11.9-8.22,1.69,5.74,10.91,12.71,1.55,16.22-1.54.58-3.74.94-5.39,1.25-6.98,1.3-14.17,1.4-21.18,2.47.15.72.77.72,1.35.79,6.99.83,14.11.83,21.07,2,3.89.65,6.85.78,8.21,5.11,1.08,3.42-4.65,9.97-6,13.2l10.57-7.99,2.93.17,2.93,31.68c.86-.55.97-2.72,1.12-3.76,1.07-7.59,1.24-15.85,2.43-23.37.51-3.21,1.36-6.96,5.43-5.12l10.56,6.44c-2.02-3.3-9.58-9.87-5.29-13.69,1.02-.91,5.24-1.91,6.77-2.22,6.26-1.27,13.27-1.87,19.62-2.47.02-.59-1.36-.67-1.8-.73-5.62-.83-11.47-1.07-17.04-2.11-3.48-.65-9.99-1.71-8.73-6.55l6.08-9.37Z"/>
          <path class="cls-2" d="M79.93,91.25c.99.71,2.7,11.24,3.02,13.21,1.2,7.39,2.01,14.95,2.85,22.37l17.59-9.38-.57,1.57-9.77,13.3c-1.03,1.84,1.84,2.6,3.23,3,8.09,2.29,17.15,1.83,25.19,3.35,9.27,1.75-.59,3.63-3.91,4.09-7.4,1.02-15.11,1.03-22.47,2.55-2.96.61-2.13,1.98-.99,3.93,2.11,3.63,7.71,8.97,9.09,12.02.24.53.27.98.21,1.55l-16.8-9.38c-.36,6.71-1.93,13.21-3.08,19.8-.64,3.65-.78,10.15-2.29,13.34-.2.43,0,.55-.69.52-2.08-.03-2.1-3.02-2.43-4.64-1.85-9.26-2.37-19.2-2.85-28.62-2.73,1.84-5.52,3.74-8.17,5.7-1.59,1.18-3.88,3.69-5.39,4.42-1.73.85-2.01-.42-1.5-1.93,1.11-3.28,5.24-8.65,6.93-12.23.35-.74,1.34-2.76.93-3.4-7.75-4.09-17.31-2.31-25.64-4.08-1.56-.33-5.29-.98-3.72-3.35.52-.78,16.14-2.73,18.44-3.06,2.47-.35,9.35-.44,10.99-2.11.97-.98-.81-4.41-1.39-5.64-.76-1.59-6.31-10.17-5.54-11.07l13.68,9.77c.56-6.33,1.25-12.65,1.95-18.96.43-3.86.56-7.81,1.22-11.68.13-.74.83-5.69,1.9-4.93ZM95.18,124.87c-.48-.47-9.78,8.16-11.68,4.45-1.37-2.51-.87-5.2-1.22-7.78-.71-5.33-1.13-11.17-2-16.37-.08-.46-.12-1.82-.73-1.81l-2.15,25.81c-.18.31-.87.64-1.24.67-1.88.19-7.99-5.73-9.91-6.93,1.48,5.16,9.37,11.05.7,13.8-6.68,2.12-14.55,1.5-21.42,3.02l5.79,1.03c3.63.36,15.69.55,18.03,2.7,4.56,4.18-1.9,9.31-3.1,13.47l8.21-6.44c.82-.39,2.19-.39,2.77.34l2.31,26.04c.59-.08.64-1.68.72-2.2,1.05-6.67,1.09-14.27,2.29-20.78.5-2.72,1.06-4.85,4.43-3.81,1.38.43,8.21,5.63,8.58,5.29-4.71-6.3-9.83-10.98,1.47-13.19,5.26-1.03,10.81-1.28,16.12-2.06l-18.67-3.02c-4.93-1.57-5.26-2.91-2.75-7.26.39-.68,3.69-4.71,3.44-4.96Z"/>
          <path class="cls-2" d="M449.98,485.97c-1.05,1.59-4.05,3.49-5.91,3.67-4.69.45-9.04-1.72-11.46-5.73-2.84-4.71-.79-13.69,3.86-16.72,2.46-1.61,6.32-.56,8.97.37,2.26.8,5.99,5.05,6.26,7.43.36,3.21.06,8.28-1.72,10.99ZM441.54,473.22c.53-2.97-4.14-.52-3.91.58,1.06,1.4,2.48-.87,3.91-.58ZM446.62,474.79l-2.29.05c-.59,2.47,1.5,4.63.31,7.51,2.68,1.69,2.94-2.29,2.66-4.14-.2-1.34-1.25-2.28-.68-3.42Z"/>
          <path class="cls-2" d="M48.54,195.51c-4.05,3.36-10.87-1.23-11.58-5.96-.21-1.44.29-5.54.98-6.79,2.22-4.1,10.27-1.4,12.24,2.18,1.68,3.05,1.09,8.31-1.63,10.57Z"/>
          <path class="cls-2" d="M481.27,271.62c1.73,2,1.89,6.54.04,8.37-.29.29-.91.25-1.17.47-1.43,1.2-1.47,1.72-3.77,2.12-3.22.57-7.86-2.06-8.04-5.42-.12-2.32.83-6.54,2.78-7.96,3.22-2.34,7.81-.31,10.16,2.41Z"/>
          <path class="cls-2" d="M476.99,235.42c-.69,1.81-4.48,1.05-5.04-.81l-11.87-26.86c-.96-2.41,2.47-2.42,3.55-1.6,2.2,1.68,3.94,8.01,5.12,10.55,2.39,5.14,6.18,11.42,8.06,16.57.27.75.49,1.34.18,2.15Z"/>
          <path class="cls-2" d="M402.23,208.75c.95,1.01,1.37,1.99.38,3.29-5.65,5.67-10.27,13.38-15.8,18.99-1.31,1.33-3.08,2.83-4.08.23-.62-1.62,1.81-4.68,2.9-6.1,1.17-1.53,2.69-2.81,3.89-4.32,2.65-3.31,7.52-10.28,10.69-12.55,1.35-.97,1.2-.4,2.01.46Z"/>
          <path class="cls-2" d="M201.42,651.2c5.79-.82,7.61,5.47,6.08,10-.89,2.63-2.16,3.44-4.96,3.16-7.65-.75-9.02-12.05-1.12-13.17Z"/>
          <path class="cls-2" d="M388.99,98.06c2.51,2.37,5.14,5.67,7.58,8.25s5.25,4.6,7.06,7.42c1.12,1.76-2.29,2.09-3.89,1.15-3.87-2.26-9.63-9.59-13.11-13.07-1.05-1.05-5.74-3.82-3.44-5.18l-.26-.67c2.88-1.28,4.13.26,6.07,2.09Z"/>
          <path class="cls-2" d="M397.31,137.43c.52.89-.9,2.34-1.91,1.76-3.7-2.08-28.47-10.81-29.62-12.83-.18-.31-.17-2.13-.05-2.24,3.23-1.47,6.09,1.43,9.09,2.78,7.54,3.41,15.35,6.37,22.5,10.53Z"/>
          <path class="cls-2" d="M113.03,582.17c-.07.11-1.72,1.8-1.84,1.87-3.74,2.08-8.1-1.47-7.8-5.44.14-1.8,1.35-5.04,3.31-5.3,5.31-.71,9.27,4.01,6.33,8.88Z"/>
          <path class="cls-2" d="M417.18,70.29c2.47-.78,7,2.54,7.47,4.83.11.54-.25,1.93-.44,2.52-1.6,4.96-8.71,4.91-10.17-.14-.61-2.1.86-6.48,3.14-7.2Z"/>
          <path class="cls-2" d="M402.05,178.04c.12,1.39.53,3.08-.78,4.11l-16.91,8.49-2.57.25c-.63-1.21-.57-2.73.21-3.88l20.06-8.97Z"/>
          <path class="cls-2" d="M36.65,498.93c-.21-.2-.3-.6-.4-.89.79-1.18,1.68-1.45,3.04-1.2,2.83.52,13.45,4.75,16.04,6.27,3.37,1.98.82,3.78-1.96,3.17l-16.71-7.35Z"/>
          <path class="cls-2" d="M476.35,241.79c1.33-.57,2.39.57,3.3-.29,1.21.03,4.82,8.54,5.1,10.02.54,2.84-.57,4.73-3.46,3.07-1.66-.95-6.13-11.64-4.94-12.8Z"/>
          <path class="cls-2" d="M132.94,561.75c1.1.92,5.42,4.42,5.82,5.32.8,1.77-.66,2.88-2.18,2.54-1.13-.25-9.3-7.41-10.72-8.79-.48-.47-2.62-2.41-2.52-2.91,2.46-3.39,7.32,1.94,9.59,3.84Z"/>
          <path class="cls-2" d="M432.43,188.72c.3.25.82,1.26.88,1.66.48,3.16-3.96,9.59-4.36,12.99-8.29,1.88.2-11.24,1.23-14.6.57-.81,1.57-.62,2.25-.06Z"/>
          <path class="cls-2" d="M95.35,80.53c.2.26.66.23.84.9,2.32,8.74-12.09,7.55-7.46-1.53,1.48-2.9,4.99-1.51,6.62.63Z"/>
          <path class="cls-2" d="M465.28,458.87c.19.22.14.81.5,1.23.34.4,1.33.56,1.41,1.18.17,1.37-.49,5.13-2.07,5.62-2.81.86-5.4-.96-6.81-3.24.5-2.7.31-5.5,3.76-5.5.16,0,3.1.59,3.21.72Z"/>
          <path class="cls-2" d="M99.01,474.9c.11.05,1.3,1.55,1.39,1.91.2.76-.13,1.55-.35,2.26-.63,2.02-2.91,7.06-4.02,8.89-.59.96-2.67,3.95-3.53,1.43-.42-1.23,2.22-8.95,2.89-10.67.27-.7,1.11-3.12,1.45-3.45.22-.21,2-.43,2.17-.36Z"/>
          <path class="cls-2" d="M38.37,463.98c.85.79,5.1,6.46,5.41,7.31,1.11,3.1-2.31,2.4-4.1.96-1.48-1.19-6.98-7.53-6.67-9.34,1.57-1.65,4-.21,5.37,1.06Z"/>
          <path class="cls-2" d="M66.44,555.47c2.25-.25,2.31,2.34,2.06,3.88-.3,1.89-3.38,14.14-6.59,9.09-.72-1.14,2.92-9.18,2.96-11.16.21-.52,1.05-1.75,1.56-1.81Z"/>
          <path class="cls-2" d="M353.45,116.94c-.03.07-.88,1.22-.94,1.27-.28.22-1.63.74-2.06.64-1.82-1.27-7.95-2.67-8.71-4.65-.66-1.73,1.57-3.32,3.25-2.87,1.71,1.23,8.17,2.78,8.61,4.76.08.37-.02.54-.15.85Z"/>
          <path class="cls-2" d="M84.15,436.57c1.26,1.3.08,12.57-1.04,14.14-.46.65-1.81.14-2.18-.56-.74-1.42-.4-8.8-.15-10.69.08-.64.38-2.98.7-3.21l2.67.32Z"/>
          <path class="cls-2" d="M107.49,527.72c1.26-.05,11.95,5.3,12.26,6.37.67,2.29-2.46,2.04-3.93,1.57-1.16-.38-10.33-5.37-10.48-5.96.08-.78,1.45-1.95,2.14-1.98Z"/>
          <path class="cls-2" d="M419.54,147.86c-.07.2-2.19,1.48-2.51,1.51-1.51.18-8.54-2.97-9.87-4.01-.43-.34-.74-.8-.64-1.37.22-.99,1.26-1.26,2.15-1.35,2.06-.21,9.61,2.41,10.78,4.11.28.42.24.65.08,1.11Z"/>
          <path class="cls-2" d="M371.96,159.67c.21,1.47-.36,2.1-1.79,2.32-2.53.38-11.42,1.11-13.68.83-2.53-.32-1.38-2.66.83-3.12,1.78-.37,14.01-.64,14.64-.03Z"/>
          <path class="cls-2" d="M105.99,457.37c.12.04.14.44.22.48.24.11.94-.48,1.3.1,1.03,1.56-2.72,7.98-3.73,9.6-.82,1.32-1.67,2.07-2.54.18-.66-1.44,1.66-9.32,2.91-10.4.8-.69,1.01-.27,1.83.03Z"/>
          <path class="cls-2" d="M118.91,503.07c1.25.91.81,2.36-.38,3.13-.97.63-8.86,3.37-9.71,3.2-.33-.07-.71-.31-.92-.58-.18-1.24.12-2.37,1.21-3.08.4-.26,7.09-2.94,7.56-3.02.69-.12,1.67-.05,2.23.36Z"/>
          <path class="cls-2" d="M109.55,594.88c5.69-1.02,5.99,7.89.35,7.35-4.73-.45-3.82-6.73-.35-7.35Z"/>
          <path class="cls-2" d="M142.77,495.41c-.53.55-13.07,5.21-14.35,5.41-.48.08-.87.07-1.3-.19l-.61-1.07c-.19-.69.37-.61.72-.76,3.32-1.38,11.72-5.29,14.77-5.56,1.54-.14,1.55,1.35.76,2.17Z"/>
          <path class="cls-2" d="M416.9,172.21c-.23,1.16.08,2.63-1,3.45-.29.22-6.33,2.64-6.71,2.7-2.83.47-3.08-2.21-1.01-3.79,1.11-.85,7.92-3.43,8.73-2.37Z"/>
          <path class="cls-2" d="M485.08,285.4c.28.28.81.37.95.8.61,1.84-.61,4.45-2.48,4.82-4.87.96-5.2-3.94-2.53-6.84,1.79-.34,2.9.06,4.06,1.22Z"/>
          <path class="cls-2" d="M414.54,192.53c.08.05.67,1.64.67,1.74,0,1.26-4.31,5.47-5.34,6.64-.36.41-.41,1.14-.77,1.57-1.08,1.27-3.22,2.03-3.13-.35.06-1.69,5.73-8.29,7.21-9.25.37-.24.99-.61,1.36-.35Z"/>
          <path class="cls-2" d="M153.24,517.41c1.16.36.98,2.52-.08,3.15-1.26.75-10.97.46-11.05-.6.47-.72.66-2.55,1.75-2.55,1.87,0,8.17-.38,9.38,0Z"/>
          <path class="cls-2" d="M443.1,254.87c-.34,1.19-2.01,1.29-2.33-.4v-15.82c2.83.8,1.44,2.84,2.33,4.89-.53,2.94.72,8.8,0,11.34Z"/>
          <path class="cls-2" d="M452.87,186.65l2.54.39,4.13,9.18c-.96,2.32-2.68.85-3.62-.69-.63-1.04-3.62-8.32-3.05-8.88Z"/>
          <path class="cls-2" d="M471.68,190.99c3.39-2.44,6.63,3.11,8.08,5.56-.58,2.08-2.15,1.68-3.63.65-.98-.68-4.95-5.35-4.45-6.21Z"/>
          <path class="cls-2" d="M439.19,88.71c.06-.31.7-1.22,1.04-1.33,4-1.3,2.83,7.98,1.94,8.58-.99.67-2.98.25-2.98-.6,0-1.76-.31-5.17,0-6.65Z"/>
          <path class="cls-2" d="M50.87,479.23c.36.35,3.64,4.38,3.75,4.65.31.75.36,1.45.29,2.25-1.2,1.18-7.57-4.9-8.02-5.87-.63-1.37,1.33-2.65,2.53-2.14.18.08,1.22.9,1.45,1.12Z"/>
          <path class="cls-2" d="M423.07,60.45c1.85,3.16-2.9,6.96-5.17,3.81-1.55-2.15-.05-5.38,2.69-5.08.41.05,2.35,1.05,2.48,1.27Z"/>
          <path class="cls-2" d="M97.25,553.65c-.99-.84-4.11-7.83-3.46-8.87l.97-.6c.64-.13,1.22.36,1.55.85.43.63,2.98,6.03,3.08,6.69.12.78.32,1.63-.28,2.28-.52.37-1.42.03-1.86-.35Z"/>
          <path class="cls-2" d="M69.28,483.5c.11.13,1.13,2.07,1.29,2.42.5,1.07,2.39,5.57.91,6.05-2.38.51-5.12-5.54-4.84-7.18.18-1.11,1.87-2.2,2.64-1.28Z"/>
          <path class="cls-2" d="M414.95,127.6c-.72-.05-1.43.44-2.13.38-1.18-.09-6.86-5.61-6.07-7.41.4-.06.79-.27,1.21-.21,1.23.19,7.82,6.31,6.99,7.23Z"/>
          <path class="cls-2" d="M42.09,168.34c.99-.6,3.55.42,4.03,1.5,1.84,4.07-3.19,6.88-4.85,2.48-.34-.9.28-3.65.82-3.98Z"/>
          <path class="cls-2" d="M82.56,579.31c.07.03.71.87,1.29.91.61,1.62,0,6.62-2.15,6.63l-1.31-.9c.09-2.22-.77-4.52.3-6.61.64-.3,1.2-.26,1.87-.04Z"/>
          <path class="cls-2" d="M478.54,128.26c-.66.76-3.75,3.45-4.67,3.21-3.37-.87,3.49-7.68,5.19-6.81,1.54.79.27,2.7-.52,3.6Z"/>
          <path class="cls-2" d="M374.69,192.12c-.21,1.43,0,2.61-1.15,3.74-1.23,1.22-5.48,3.18-5.03.07.33-2.27,4-4.23,6.18-3.81Z"/>
          <path class="cls-2" d="M114.48,550.5c-.31-.35-1.05-1.27-.86-1.75,1.53-2.86,7.93,3.97,7.75,4.82-.52,2.46-6.24-2.33-6.9-3.06Z"/>
          <path class="cls-2" d="M385.44,159.67c.15.02,1.4.48,1.37.58-.3.51-1.19,1.76-1.76,1.76h-6.65c-.07,0-.91-.82-.94-1.03-.12-.4.84-1.31.94-1.31,2.1,0,5.09-.27,7.04,0Z"/>
          <path class="cls-2" d="M103.26,69.1c3.01,2.62-1.57,5.83-3.65,3.27-2.04-2.5,1.41-5.22,3.65-3.27Z"/>
          <path class="cls-2" d="M440.75,224.57l1.97.65v8.11c-.87,1.17-1.97-1.12-1.97-1.92v-6.84Z"/>
          <path class="cls-2" d="M71.2,543.68c.82-.32,2.5.72,2.5,1.67,0,.19-1.42,3.39-1.54,3.55-.61.78-1.4.73-2.02,0-.56-.71.15-4.87,1.07-5.22Z"/>
          <path class="cls-2" d="M156.13,723.88c1.8,5.33-2.72,3.86-5.97,4.3-20.08,2.77-38.93,9.7-58.48,14.23-1.78.41-4.5,1.03-2.15-1.37,3.9-3.98,21.43-7.85,27.58-9.56,3.92-1.09,7.8-2.52,11.77-3.48,3.36-.81,25.88-5.3,27.26-4.12Z"/>
          <path class="cls-2" d="M220.19,789.6c1.28,2.35-1.32,3.16-3.28,3.39-8.2.98-16.84.56-24.97,1.22-7.77.63-15.68,2.77-23.66,1.95l.69-1.95c7.82-1.53,15.82-2.74,23.75-3.52,2.26-.22,4.69.02,6.96-.17,6.81-.56,13.74-2.07,20.51-.93Z"/>
          <path class="cls-2" d="M53.24,831.14c13.49-.88,25.52,2.05,38.67,4.07,1.48.23,3.07-.49,4.05,1.03.04.81-6.83.64-7.61.58-13.97-1.03-24.8-4.36-39.45-2.3-1.79.25-9.45,2.43-10.42,1.74-1.18-.83-.03-2.11.98-2.58,3.67-1.73,9.71-2.27,13.78-2.54Z"/>
          <path class="cls-2" d="M434.86,815.68c-1.22.82-3.94-2.67-4.92-3.42-7.11-5.42-21.32-6.55-30.14-9.34-1.09-.34-2.78-.47-2.43-2.06,1.75.09,3.54-.13,5.29-.02,6.07.37,22.36,4.91,27.66,7.91,2.7,1.53,6.37,3.34,4.54,6.93Z"/>
          <path class="cls-2" d="M122.46,802.72c-.95.93-12.83,3.56-15.16,4.19-3.37.92-8.25,3.18-11.58,3.31-3.3.13.07-2.8,1.61-3.51,4.31-1.99,18.39-5.84,23.17-6.55,2.31-.34,3.47,1.08,1.96,2.55Z"/>
          <path class="cls-2" d="M492.28,837.3c.24.38.14,2.02.46,2.66-1.03.87-7.78-2.14-9.36-2.56-2.62-.69-5.54-.89-8.14-1.63-.85-.24-3.23-.81-3.23-1.86,1.13-2.82,4.5-1.13,6.67-.75.55.1,1.23-.2,1.69-.1,1.32.3,11.57,3.71,11.92,4.24Z"/>
          <path class="cls-2" d="M44.67,780.25c1.22-.15,5.63-.7,5.47,1.27l-.71.76c-5.92,1.69-11.96,3.15-17.45,6.01-1.08.1-1.47-1.49-1.04-2.29,1.25-2.32,10.98-5.41,13.73-5.75Z"/>
          <path class="cls-2" d="M490.76,787.92c-.54.9-4.94-1.56-6.02-1.93-4.3-1.49-8.74-2.6-13.1-3.91l.34-1.71c4.55-.86,9.94.87,14.1,2.72,1.39.61,6.03,2.59,4.67,4.84Z"/>
          <path class="cls-2" d="M77.88,744.66c1.32,1.1-1.37,3.29-2.24,4.01-1.8,1.48-4.23,2.28-5.85,3.53-1.42,1.11-2.48,3.7-4.71,3.69-1.39-1.45,3.22-6.3,4.29-7.24.96-.84,5.86-4.19,6.91-4.37.33-.06,1.35.17,1.59.37Z"/>
          <path class="cls-2" d="M466.55,833.32c-1.24,2.68-3.91,1.2-6.04,1.15-4.49-.11-9.01.11-13.5.01v-1.17c6.41-.98,13.21-1.7,19.55,0Z"/>
          <path class="cls-2" d="M87.9,814.68c-.5.45-5.17,5.86-5.97,3.14-.81-2.76,6.19-6.86,8.47-7.11,3.92-.44-2.09,3.61-2.5,3.98Z"/>
          <path class="cls-2" d="M164.1,724.73c.71-.88,6.02-1.7,6.74-.5,2.31,3.83-6.1,4.32-7.06,2.35-.15-.48.05-1.51.33-1.85Z"/>
          <path class="cls-2" d="M388.37,798.12c-.05,1.11.43,2.52-.99,2.75-.94.16-9.02-1.13-9.17-1.78-.24-1.03,2.96-1.31,3.72-1.36,2.28-.15,4.22.41,6.45.38Z"/>
          <path class="cls-2" d="M111.22,835.66l-.24,1.21c-1.96.88-3.91.82-6.02.75-.24-2.01,6.01-2.21,6.25-1.95Z"/>
          <path class="cls-2" d="M401.5,682.95c3.03,2.48,5.46,5.74,7.82,8.85,1.18-.27,2.14-1.04,3.28-1.4,6.33-2.03,13.91-3.19,20.44-1.65,4.09.96,13.06,5.47,13.8,10.05.07.44-.39.68-.45,1.06-.19,1.14.63,1.73-1.57,2.07-2.99.46-3.39-1.87-5.38-3.35-9.06-6.71-22.12-6.06-32.17-.62-3.52,1.91-6.41,5.47-9.61,7.62-.75.51-1.85,1.32-2.78,1.02-.45-.16-.64-.49-.67-.95-.15-2.07,8.24-9.55,10.22-10.96.04-.53-4.27-5.98-4.89-6.66-.9-.97-4.06-3.7-5.17-4.39-1.75-1.09-5.23-1.56-4.65-4,.43-1.81,4.3-.91,5.63-.49,2.2.69,4.41,2.36,6.17,3.8Z"/>
          <path class="cls-2" d="M465.86,615.23c2.24-1.64,8.54,1.67,10.72,2.98,3.64,2.17,9.48,7.4,10.79,11.49,1.04,3.24-1.59,4.45-3.79,1.46-3-4.07-3.1-5.72-7.91-8.9-1.53-1.02-10.05-4.87-10.23-5.79-.05-.27.21-1.09.41-1.23Z"/>
          <path class="cls-2" d="M457.48,665.89c-2.04,2.82-8.06-6.07-9.45-7.18-1-.8-2.79-1.8-4.05-2.02-1.35-.24-4.26.48-4.37-1.44-.15-2.59,4.36-3.17,6.38-2.92,3.52.43,11.88,7.53,11.96,11.09,0,.32-.37,2.31-.48,2.47Z"/>
          <path class="cls-2" d="M400.1,621.79c-.71-.68,2.38-3.45,2.99-3.84,4.34-2.76,10.86-1.71,15.37.14,1.21.5,6.36,2.96,3.94,4.71-.83.6-6.56-2.16-8.13-2.48-2.77-.57-6.44-.67-9.18.01-1.65.41-3.15,1.78-4.99,1.46Z"/>
          <path class="cls-2" d="M485.48,634.14c1.48,1.83,5.38,9.29,1.14,9.84-1.89.25-2.11-3.33-2.71-4.56-.77-1.58-5.58-6.8-5.61-7.25-.13-1.81,1.84-1.59,3.21-1.29,1.78.39,2.9,1.96,3.96,3.27Z"/>
          <path class="cls-2" d="M377.81,630.79c1.17,2.75-1.73,4.06-2.8,6.38-2.14,4.65.84,6.66.2,9.18-1.02,3.96-3.98-1.47-4.34-3.34-.86-4.53,1.77-11.71,6.94-12.22Z"/>
          <path class="cls-2" d="M364.02,706.51c-.03.09-1.14,1.5-1.22,1.55-2.17,1.23-3.19-1.8-3.87-2.48-1.18-1.19-6.19-3.03-4.99-4.91,2.17-3.39,11.48,1.94,10.08,5.85Z"/>
          <path class="cls-2" d="M450.48,611.68c.86,5.4-4.66,3.02-7.98,3.06-1.43.01-2.78.6-4.23.43-1.79-2.34,2.59-3.43,4.36-3.81,2.74-.6,5.23-.92,7.85.32Z"/>
          <path class="cls-2" d="M488.41,592.45c-.51.39-5.49-1.12-6.77-1.1-1.52.02-6.91,2.64-6.9.54,1.72-3.65,6.5-3.87,9.96-2.91,1,.28,5.31,2.23,3.71,3.47Z"/>
          <path class="cls-2" d="M463.29,616.86c1.23.74,6.38,5.48,3.13,6.46-3.35-2.75-6.16-5.22-10.57-6.17-.56-.44-.33-1.72.4-1.94,1.64-.54,5.56.75,7.04,1.65Z"/>
          <path class="cls-2" d="M378.86,644.13c.49-.04.67.2.85.59.49,1.65,6.13,6.82,2.41,7.8-3.32.87-6.92-8.09-3.26-8.39Z"/>
          <path class="cls-2" d="M432.52,630.77c-2.14.12-2.95-2.06-4.28-3.31-.85-.81-4.43-2.47-2.64-4.01,2.11-1.81,8.84,4.7,6.92,7.32Z"/>
          <path class="cls-2" d="M89.49,687.71c2.82,2.78,5.24,6.39,6.09,10.33,5.6-2.49,9.39-3.02,15.05-.4,2.57,1.19,9.66,6.53,7.03,9.77-3.15,3.88-5.35-3.54-7.24-4.87-2.84-1.99-7.61-3.05-10.81-1.47-4.2,2.08-2.14,4-2.63,7.64-.11.79-.79,3.97-1.12,4.44-1.01,1.44-4.84.8-5.22-1.05-.21-1.02.76-5.39.67-7.24-.66-13.38-14.14-23-27.1-20.04-2.21.5-4.87,2.78-6.97,1.22-.58-2.72,5.36-5.01,7.37-5.51,8.85-2.23,18.46.84,24.88,7.16Z"/>
          <path class="cls-2" d="M112.64,666.49c2.23,3.01,4.86,7.83,3.86,11.6h-1.38s0,1.57,0,1.57c-1.91.29-3.83-.32-4.75-2.14-1.95-3.86-2.97-7.6-6.6-10.94-1.25-.74-6.7-3.74-6.96-4.79-.95-3.81,6.53-1.84,8.26-1.2,3.07,1.14,5.66,3.32,7.58,5.9Z"/>
          <path class="cls-2" d="M45.29,577.86c2.44,2.2,5.83,5.79,3.78,9.35-.47.81-1.56,1.51-2.53,1.37-.19-.03-3.12-1.93-3.25-2.08-.44-.5-.09-1.17-.23-1.36-1.3-1.74-4.79-4.65-6.78-5.88-1.03-.64-2.75-1.06-3.48-1.63-.56-.44.09-1.17-.96-1.39,1.85-4.66,6.21-2.95,9.75-1.11,1.68.87,2.39,1.54,3.71,2.74Z"/>
          <path class="cls-2" d="M134.56,705.77c-.16.16-.75.03-.93.19-1.42,1.34-.63,1.72-3.41.71-1.35-4.7,2.18-7.65.74-12.94-.73-2.68-3.64-5.17-.76-7.42,4.55-.2,6.01,6.4,6.04,9.95.02,1.61-.84,8.66-1.69,9.51Z"/>
          <path class="cls-2" d="M53.51,642.68c-.56.33-1.06,1.09-2.27.92l-1.75-1.65c.25-3.55,8.05-8.77,11.22-9.87,2.98-1.03,8.96-2.23,5.36,2.63-4.59,1.79-8.52,5.62-12.56,7.97Z"/>
          <path class="cls-2" d="M82.54,631.09c-.03.1-1.2,1.54-1.29,1.59-.39.21-7.8,1.39-8.68,1.42-2.4.1-1.65-3.14.46-4.17.96-.47,8.3-1.57,8.87-1.3.69.33.84,1.88.65,2.47Z"/>
          <path class="cls-2" d="M237.61,686.83c-1.76,1.75-3.08,4.3-5.08,5.86-.86,1.6-3.07,8.54-5.6,6.33-2.65-2.31,3.17-10.33,4.88-12.32,1.39-1.62,7.73-7.9,9.78-5.47,1.99,2.37-2.75,4.4-3.97,5.61Z"/>
          <path class="cls-2" d="M267.93,674.15c-.36.53-6.21.46-7.68.73-1.34.25-3.91.96-5.18,1.46-1.5.59-6.77,4.47-7.81,2.24-.71-1.51.38-2.55,1.58-3.39,3.71-2.61,11.65-4.95,16.11-4.04,1.07.22,3.89,1.65,2.98,3Z"/>
          <path class="cls-2" d="M257.18,598.12c-1.33,1.18-1.95,4.63-4.07,3.55-1.56-.79-.51-3.45.07-4.63,1.71-3.47,6.36-5.76,10.01-6.4,1.32-.23,3.42-.86,4.21.67,1.08,2.09-5.22,3.5-6.44,4.14-.74.38-3.14,2.1-3.78,2.68Z"/>
          <path class="cls-2" d="M242.44,630.47c3.59,1.72-1.47,5.25-2.68,7.48-.35.63-1.23,2.62-1.41,3.28-.36,1.32.56,3.64-1.76,3.59-5.67-2.95,2.17-14.27,5.86-14.35Z"/>
          <path class="cls-2" d="M279.19,663.74c.27.32.86,1.93.71,2.26-.91,1.95-4.73.13-6.27-.01-1.71-.16-5.98.44-7.08-.36-2.26-5.69,10.35-4.58,12.64-1.88Z"/>
          <path class="cls-2" d="M270.75,591.26c-1.4-2.03,3.93-3.03,5.25-3.11,4.4-.25,10.1,4.65,1.53,4.33-1.02-.04-6.44-.72-6.78-1.23Z"/>
          <path class="cls-2" d="M247.48,625.55c.29-.3.34-.69.82-.92,1.88-.92,7.53-2.44,8.25.5-.07.81-8.69,5.09-9.91,3.34-.65-1.81-.12-1.94.84-2.92Z"/>
          <path class="cls-2" d="M381.63,596.69l-.64.26.35.99c-.88,1.43-7.15-1.84-7.85-2.9-.56-.84-.38-1.43,0-2.33,2.89-1.46,8.3.29,8.15,3.98Z"/>
          <path class="cls-2" d="M409.71,505.06c4.11,2.84,9.89,7.53,13.05,11.37,1.3,1.59,1.75,4.08-.87,3.65-1.85-.3-6.84-5.49-8.71-6.96-6.36-5-13.15-9.5-20.3-13.3-.36-1,.36-1.93,1.35-2.2,2.81-.77,12.85,5.61,15.48,7.43Z"/>
          <path class="cls-2" d="M366.42,490.37l-17.32-1.91-13.91.23c-1.74-2.69,3.1-2.82,4.91-2.95,5.86-.41,16.05.36,21.78,1.67.86.2,4.87,1.21,4.97,1.69l-.43,1.27Z"/>
          <path class="cls-2" d="M304.77,500.93v-1.46c.57-.92,9.01-.18,10.65,0,4.7.51,11.62,1.63,16.05,3.1,1.32.44,4.57,1.39,2.4,3.14-1.17.94-2.49-.32-3.74-.63-2.3-.57-4.65-1.16-6.97-1.63-6.07-1.23-12.32-1.66-18.4-2.51Z"/>
          <path class="cls-2" d="M380.02,497.52c3.99-1.06,12.53,4.45,15.61,7,.32.58-.33,1.75-.86,1.91-1.3.38-6.66-3.92-8.07-4.73-1.61-.93-5.95-2.44-6.92-3.25-.54-.45-.25-.79.25-.93Z"/>
          <path class="cls-2" d="M353.19,513.1c-.69.09-1.29-.02-1.96-.19-1.6-.4-9.36-3.4-10.65-4.2-1.99-1.23-1.76-3.17.59-2.96,1.09.1,7.75,2.88,8.98,3.56,1.44.79,3.36,1.89,3.04,3.8Z"/>
          <path class="cls-2" d="M432,525.78c.7.48,3.09,3.31,3.22,4.03.23,1.34-1.23,2.81-2.65,2.24-1.13-.46-5.55-5.36-5.05-6.95.65-1.9,3.5,0,4.49.68Z"/>
          <path class="cls-2" d="M330.13,488.08l-.06,1.9-12.2,2.43c-1.03-1-.27-2.11.91-2.58s10.95-2.17,11.35-1.75Z"/>
          <path class="cls-2" d="M372.24,488.93c1.22-.35,7.82,1.46,7.53,3.64-.41,1.39-6.35-.37-7.32-.87-1.26-.64-1.78-2.31-.21-2.77Z"/>
          <path class="cls-2" d="M300.25,652.46c1.61,1.26,7.86,5.03,8.48,6.18.23.44.37.95.28,1.45-.57.12-1.11.43-1.71.39-2.22-.14-10.83-6.86-12.75-8.76-.98-.97-7.95-8.88-7.42-9.59.72-.09,1.16-.56,1.94-.22,1.07.47,6.3,6.48,7.83,7.84,1,.89,2.29,1.87,3.36,2.7Z"/>
          <path class="cls-2" d="M311.62,660.2c.89-.08,4.38,2.02,4.04,3.23-.46,1.63-5.75-1.12-5.47-2.33.33-.39.93-.86,1.43-.9Z"/>
          <path class="cls-2" d="M477.06,562.32c-2.02.24-3.44-1.34-5.62-1.16-2.37.2-3.12,3.4-5.62,2.72-1-2.39,2.04-5.91,4.43-6.23,2.61-.34,8.15,1.24,6.81,4.66Z"/>
          <path class="cls-2" d="M442.71,147.94c-.29,0-1.17-.9-1.17-.98v-6.26l.59-.58.59.58v7.23Z"/>
        </g>
      </g>
    </g>
  </g>
</svg>