<?xml version="1.0" encoding="UTF-8"?>
<svg id="Layer_2" data-name="Layer 2" xmlns="http://www.w3.org/2000/svg" viewBox="0 0 521.87 865.91">
  <defs>
    <style>
      .cls-1 {
        fill: #f9ecd8;
      }

      .cls-2 {
        fill: #aa7b1b;
      }
    </style>
  </defs>
  <g id="Layer_1-2" data-name="Layer 1">
    <g>
      <path class="cls-1" d="M521.83,794.17c0-.13,0-.26,0-.39-.65-.41-.39-1.48-.4-2.14-1.26-101.84.02-203.86.02-306.12.01-137.52-1.46-274.69-.02-411.33,0-.66-.25-1.74.4-2.14v-.39c-.11-10.91.35-23.84-.39-34.6-1.09-15.82-13.11-33.29-29.43-35.52-19.37-2.64-39.84-1.11-59.47-1.03-53.34.22-106.95-1.12-159.85-.09-12,.23-24.01.04-36.04,0-48.83-.16-98.18.29-147.35.09-19.63-.08-40.1-1.62-59.47,1.03C13.51,3.77,1.47,21.25.39,37.06c-.9,13.16.03,27.1.03,40.26-.02,91.68.45,183.44.37,275.62-.04,41.43-.66,83.11-.39,124.77.67,103.53.01,207.26.03,310.41,0,13.2-.89,27.08-.06,40.29,1.01,15.97,12.94,33.63,29.45,35.89,16.49,2.25,34.8,1.53,51.69,1.46,117.57-.51,233.44-.92,351.02-.43,19.63.08,40.1,1.62,59.47-1.03,16.32-2.23,28.34-19.7,29.43-35.51.74-10.75.28-23.69.39-34.6Z"/>
      <g id="EVpgjZ.tif">
        <g>
          <path class="cls-2" d="M503.43,6.27c21.29,14.32,17.69,31.86,17.82,54.29.51,88.82.06,178.77.05,267.8-.01,155.59-.05,311.76.02,467.58,0,14.14,2.34,33.4-3.15,46.58-4.19,10.05-15.12,20.36-26,21.88-19.04,2.67-40.05,1.02-59.41.96-81.66-.28-162.62.02-243.54,0-43.19-.01-86.29.78-129.43.42-18.99-.16-36.06,2.41-49.81-13.1-12.23-13.81-9.26-30.52-9.36-47.32-.51-88.82-.06-178.77-.05-267.8.01-155.59.05-311.76-.02-467.58,0-14.14-2.34-33.4,3.15-46.58C7.89,13.35,18.82,3.04,29.7,1.52c19.04-2.67,40.05-1.02,59.41-.96,53.38.18,107-1.2,159.91-.04,25.52.56,51.37.02,77.02.04,45.27.04,90.73-.8,136.04-.42,13.58.11,29.93-1.55,41.35,6.13ZM260.93,3.28c-.48-.64-.71,0-.78.58-.18,1.39.13,3.07,0,4.5.48.64.71,0,.78-.58.18-1.39-.13-3.07,0-4.5ZM256.9,6.13c-.24-.29-1.36-1.03-1.84-.74-3.59,4.2,4.8,4.35,1.84.74ZM264.18,6.13c-2.96,3.62,5.43,3.47,1.84-.74-.48-.29-1.6.44-1.84.74ZM249.79,7.72c-1.6,0-2.35,2.77-.58,3.57,3.33,1.51,2.89-3.58.58-3.57ZM271.29,7.72c-2.31,0-2.75,5.08.58,3.57,1.77-.8,1.02-3.57-.58-3.57ZM57.54,16.84c2.05-1.88.5-6.92-2.91-5.44-5.05,2.19-.58,8.64,2.91,5.44ZM272.11,16.33c-14.87-16.03-38.06,6.21-23.12,21.76,14.02,14.58,37.4-6.36,23.12-21.76ZM465.89,16.84c3.49,3.2,7.95-3.25,2.91-5.44-3.41-1.48-4.96,3.56-2.91,5.44ZM244.01,12.33c-1.4.39-1.68,3.12.1,3.69,3.52,1.14,2.74-4.48-.1-3.69ZM276.07,12.33c-1.91.52-2.1,3.98.27,3.85,2.85-.16,2.21-4.53-.27-3.85ZM40.92,35.24l-24.31-18.27,17.2,23.26,1.56.99c.15.98-.6,1.01-1.3,1.24-3.62,1.18-8.94,1.09-12.78,1.89l14.07,6.45-13.68,19.73c2.88-.9,18.51-13.42,19.73-13.32.49.04.78.21.9.7.48,2.2,1.37,4.3,2.24,6.36.94,2.2,1.9,4.79,3.31,6.66l2.04-13.4.89-.67,22.48,17.2-.03-1.68c-5.15-6.87-10.18-13.81-15.46-20.57-.32-.41-1.67-.62-.65-1.59l13.42-1.96c.16-.89-.05-.62-.5-.87-3.47-1.9-8.77-3.77-12.6-4.99-.5-.16-.63.31-.6-.6l13.69-20.12-20.12,13.7c-.91.03-.44-.1-.6-.6-1.1-3.45-3.15-9.66-4.98-12.6-.25-.41.02-.68-.88-.5l-1.96,13.68c-.36-.02-.75.1-1.09-.1ZM507.21,16.97l-24.44,18.38-.97-.27-1.95-13.42c-.9-.19-.63.09-.88.5-1.83,2.94-3.88,9.15-4.98,12.6-.16.5.31.63-.6.6l-20.12-13.7,13.69,20.12c.03.91-.1.44-.6.6-3.83,1.22-9.13,3.09-12.6,4.99-.45.25-.66-.02-.5.87l13.42,1.96c1.01.97-.33,1.18-.65,1.59-5.28,6.76-10.31,13.7-15.46,20.57l-.03,1.68,22.48-17.2.89.67,2.04,13.4c1.41-1.86,2.37-4.46,3.31-6.66.87-2.06,1.76-4.16,2.24-6.36.12-.49.42-.66.9-.7,1.22-.1,16.85,12.42,19.73,13.32l-13.68-19.73,14.07-6.45c-3.83-.8-9.16-.71-12.78-1.89-.7-.23-1.45-.26-1.3-1.24l1.56-.99,17.2-23.26ZM239.92,18.62c-2.18,6.12,6.95,3.65,1.12-.3l-1.12.3ZM281.16,18.62c-1-1.08-3.28.77-3.04,2.43.43,3.01,5.23.35,3.04-2.43ZM34.45,18.63c-3.25.34-1.81,5.54,1.43,4.93,2.4-1.22,1.21-5.21-1.43-4.93ZM488.71,18.63c-2.54.07-3.43,3.73-1.16,4.93,3.5.63,4.57-5.02,1.16-4.93ZM113.07,22.74c.24-.23.31-.66.42-.97l-.11-.88-2-1.16-17.38-.41c-.11,1.38.39,2.02,1.05,3.13,3.13.47,15.99,2.24,18.01.29ZM429.42,19.31l-17.38.41c-3.9,1.4-2.15,3.47,1.19,3.85,1.88.21,14.46-.47,15.32-1.23.24-.21,1.17-2.74.87-3.03ZM123.72,20.09c-.62,2.87,4.32,2.62,6.43,2.73,5.47.3,10.99.2,16.43.8,12.42-.82,24.84.78,37.15.8,2.98,0,4.69-1.4,1.87-3.47-3.49-.56-7.01-.2-10.47-.3-9.71-.28-19.21-.54-28.9-.56-1.13,0-2.69.47-3.91.39l-18.6-.39ZM399.71,20.09l-36.16.31-25.72.55c-2.82,2.08-1.11,3.48,1.87,3.47,3.29,0,7.29-.63,10.67-.72,14.29-.34,28.61-.1,42.91-.88,2.11-.12,7.05.14,6.43-2.73ZM94.4,23.61c-.53-.1-.95.14-1.1.65-.5,1.66-.2,4.77-.5,6.54-.26,1.57-2.13,6.98-1.48,8.01.3.02.79.36.95.34,2.13-.25,3.34-13.45,2.14-15.54ZM432.11,38.81c.65-1.03-1.22-6.44-1.48-8.01-.29-1.77,0-4.88-.5-6.54-.15-.51-.58-.76-1.1-.65-1.2,2.12,0,15.3,2.14,15.54.16.02.64-.33.95-.34ZM230.44,26.74h12.31c.35,0,.86-.87-.04-1.13-1.15-.34-2.27.35-3.08.35h-7.04c-.22,0-.73-.6-1.5-.36l-.65,1.14ZM290.64,26.74l-.65-1.14c-.77-.24-1.28.36-1.5.36h-7.04c-1.04,0-2.79-1.13-3.71.2l.58.59h12.31ZM444.27,560.61c.3,1.91-.22,4.45,0,6.45,1,.33,1.05-1.17,1.13-1.8,1.34-10.33.72-19.47,1.21-29.68.07-1.56-.06-3.13,0-4.69.02-.47-.3-1.45.39-1.36.19,5.08.5,10.22.97,15.26.82,8.76,2.56,17.67.43,26.6-1.23,5.15-5.66,12.1-6.01,17.48-.08,1.17,1.13,2.92,1.13,4.59,0,1.83-.74,4.33-.82,6.25l1.73-1.79c10.74-12.64,7.12-31.15,12.24-46.01,2.76-8.01,8.76-14.43,12.83-21.96,4.7-8.68,6.82-14.88,9.43-24.19,1.1-3.93,4.04-8.53,5.4-12.58,1.65-4.92,2.38-10.26,3.92-15.23,3.52-11.3,8.21-22.34,11.1-33.86V103.01c-28.5-4.07-54.45-22.05-68.68-46.84-5.01-8.72-8.64-18.88-8.68-29.04-3.15,1.23-6.61.7-9.92.83-18.16.71-36.56.75-54.78.9-8.52.07-18.19-.86-26.58-.17-10.47.87-26.04,4.52-36.66,6.73-1.35.28-7.9,1.65-8.5,2.06-.65.45-.2.45-.07.83.63,1.96,1.41,4.17,2.13,6.1,1.29,3.46,9.55,20.7,8.85,22.72-.21.62-1.67,1.1-2.29.84l-22.3-16.23c-1.87,11.14-3.73,22.31-5.42,33.48-1.24,8.16-1.77,18.65-3.69,26.41-.49,1.98-.74,3.45-3.24,2.31l-9.54-61.81c-.44-.06-.76,0-1.16.21-3.38,1.71-6.76,5.54-9.82,7.77-3.78,2.76-7.93,5.08-11.71,7.85l-1.63-.19-.53-.76,11.18-29.73-45.55-8.6c-26.34-.16-52.75.29-79.01-.74-3.31-.13-6.76.4-9.92-.83-.05,10.16-3.68,20.32-8.68,29.04-9.77,17.02-26.01,31.69-43.95,39.71-7.89,3.53-16.19,5.75-24.73,7.13l.31,165.16c.02,9.3-1.15,19.22-.34,28.52.58,6.61,5.43,15.62,7.25,22.08.7,2.51.8,5.43,1.45,7.93,1.35,5.15,4.29,12.11,4.77,17.11.33,3.38-2.03,10.91-3.2,14.38-.48,1.43-3.56,7.93-3.59,8.47-.14,2.49,2.74,7.17,3.45,9.82.81,3,.82,6.2,1.7,9.25,2.03,7.06,6.99,13.79,6.81,21.76l-3.36,14.72c4.34,8.01,5.38,16.27,5.99,25.23l4.12,9.75c-.12-3.44,1.4-6.6,3.15-9.47,1.03-1.69,4.2-4.91,4.77-6.66.73-2.24.71-7.72,1.18-10.55,1.37-8.27,3.53-15.11,5.96-22.97.75-2.42,1.16-4.97,1.76-7.43,1.67.06,1.94,1.05,1.98,2.54.13,4.88-1.22,11.06-1.59,16.04-.04.61-.18,1.66.19,2.14.91-1.07,1.73-2.15,2.73-3.14.8-.8,3.02-2.39,3.52-3.13,1.46-2.17,1.94-8.9,3.72-11.51,1.57-1.82,5.16-12.57,6.93-13.02.57-.14,1.39.4,2.06-.08l.02,1.14,1.55.03c-.08,3.19-1.57,6.18-2.84,9.08-.47,1.08-1.43,1.98-1.93,3.15-1.64,3.81-3.14,11.89-4.84,14.71-.8,1.33-9.15,9.28-10.86,10.83-.53.48-1.46.4-1.74,1.2-1.01,3.38-.13,8.23-1.23,11.29-1.96,5.45-9.43,17.97-8.97,23s2.04,11.12,2.69,16.47c.1.84-.05,1.7,0,2.54.34.34,5.04-1.02,5.75-1.45,2.41-1.45,2.49-5.53,3.44-7.93,3.07-7.74,12.26-14.59,12.32-23.29.13-17.61,3.32-28.87,18.56-39.27,2.72-1.86,2.59-.59,4.63-.77.43-.04,3.52-4.31,7.1-4.7,3.19-.35,1.97-.56,4.6-1.66,5.1-2.13,10.78-3.54,16.23-1.97,1.08.31,2.01,1.07,3.04,1.26,2.53.46,5.82-.41,8.11.1,1.2.27,1.9,1.68,2.47,1.78.45.08,1.17-.35,1.86-.29,2.19.17,3.38,2.33,3.6,2.35.33.02.97-.42,1.55-.41,4.79.14,2.37,1.76,3.07,2.75.24.34,2.08.82,2.81,1.31,1.02.69,8.59,9.79,9.66,11.29,3.52,4.92,8.01,19.1,8.09,25.13.04,2.95-.87,6.75-.82,9.77.06,3.22,1.24,6.96,1.58,10.16.7,6.67.66,14.88-.89,21.38-1.01,4.27-3.27,8.46-4.19,12.82,11.92,1.4,19.52,16.15,18.78,27.19-.56,8.38-5.22,20.86-9.33,28.2-1.07,1.92-3.29,4.45-4.06,6.1-1.43,3.08-1.59,7.77-3.15,11.32-2.23,5.08-8.58,16.4-12.6,19.85-.56.48-1.67.72-1.95,1.18-.38.6-.41,2.5-.8,3.5-1.76,4.59-5.01,10.79-7.88,14.77-.54.75-2.37,2.21-2.67,2.85-.5,1.06,1.07,4.57,1.59,5.84.19.46.41,1.57.96,1.57,2.73-4.71,4.22-9.93,5.51-15.22,4.9-.6,1.3,6.52.76,9.21-.15.77.26,1.55.11,2.41-.44,2.58-4.78,6.77-4.83,8.46-.03.99,1.09,4.08,1.51,5.18,1.71,4.47,4.59,8.92,6.34,13.41.48-.02.81-1.33.95-1.76.67-2.09,2.15-6.02,2.47-7.91.85-5.01.04-14.89,2.66-19.23.93-1.53,2.81-.96,3.23.23.48,1.37.61,5.91.9,7.7.95,5.73,2.26,8.6.82,14.63-1.92,8.08-5.53,16.01-3.67,24.56.09.42-.19,1.05.44.94.64-2.47,2.02-4.85,3.23-7.13.74-1.39,2.17-2.78,2.76-4.28,2.33-5.97,1.95-15.41,4-21.8,5.23-5.07,8.84-11.46,12.76-17.53,1.18-.32,2.84-.33,2.56,1.22-.19,1.05-4.12,5.6-4.59,7.11-.17.54.04.7.57.57,2.97-1.75,6.37-2.55,9.31-4.37,3.09-1.92,5.97-4.93,8.88-7.15,2.96-.49,4.04.65,1.77,2.95-6.31,6.38-11.26,9.52-19.76,12.3-1.08.35-3.14.34-3.89.8-.32.19-2.24,3.27-2.44,3.81-1.87,4.96-2.09,13.32-2.84,18.67-1.04,7.47-5.58,10.6-8.63,17.17-2.4,5.19-3.11,7.03-1.33,12.7.6,1.9,1.76,2.92,1.93,5.11.23,2.86-.65,6.05-.8,8.6-.02.34.08,3.67.14,3.85.54,1.95,9.18,8.28,11.22,10.7.33.39.19,1.23.63,1.31,20.55-2,41.13-1.97,61.74-2.36,11.99-.23,23.96-.05,35.96.37,9.48.33,21.96,2.63,30.55-1.87,8.59-4.5,16.5-10.13,24.87-15.01,1.28-.75,4.82-1.96,5.64-2.77.51-.5.96-2.49,1.5-3.39,1.07-1.8,3-3.69,4.32-5.45,2.94-3.92,6.02-7.87,8.28-12.44.05-3.94-1.9-9.75.21-13.48.7-1.23,2.39-1.92,3.42-2.85,6.02-5.43,13.53-10.98,18.94-17.01,3.73-4.16,6.01-9.86,9.77-14.08.65.38-.18.87-.36,1.21-1.37,2.64-3.17,5.18-4.6,7.91-2.07,3.93-3.97,8.13-5.88,12.1-.29.61-.86.88-1.08,1.45l5.48-2.92c4.04-3.72,7.89-9.43,11.85-12.97.17-.15.97-.58,1.04-.52.51,1.21-.16,1.94-.71,3-2.55,4.91-7.43,8.88-9.84,14-8.82,3.87-16.7,6.46-22.66,14.47-1.84,2.47-.31,3.57-.11,6.27.19,2.64-.48,5.96-1.77,8.28-.61,1.11-2.36,2.12-1.84,3.24,2.23-1.65,4.36-4.03,6.89-5.23s4.73-.96,7.38-1.61c1.52-.37,3.07-1.11,4.51-1.75l5.28-10.27c4.06-3.54,8.17-7.67,12.52-11.02,3.26-2.51,6.74-3.97,9.88-6.15,8.59-5.96,17.14-15.93,24.67-23.41,2.87-2.85,7.53-5.82,9.27-9.5,1.18-2.5,2.24-10.89,2.13-13.69-.09-2.15-1.49-4.15-1.39-5.88.19-3.36,3.83-8.8,3.84-11.39,0-1.29-1.37-2.94-1.5-4.35-.22-2.53-.43-3.8-.77-6.26-.28-1.99.38-5.13-.11-7.29-.77-3.43-4.61-8.76-5.97-12.4-.47-1.25-1.03-2.53-.98-3.9l2.52,1.19c1.99,4.85,8.42,12,9.2,16.99ZM239.53,29.57c-1.7,1.5.57,4.63,2.48,3.07,1.98-1.61-1.05-4.34-2.48-3.07ZM281.55,29.57c-1.43-1.26-4.46,1.46-2.48,3.07,1.91,1.56,4.18-1.57,2.48-3.07ZM244.85,38.42c.49-1.58-.67-3.17-2.3-2.91-.7.81-1.05,1.97-.61,2.99.53.75,2.17.26,2.91-.08ZM276.23,38.42c.74.34,2.37.83,2.91.08.44-1.02.1-2.18-.61-2.99-1.63-.26-2.79,1.33-2.3,2.91ZM247.95,40.5c-.05-.09-1.67-1.02-1.83-1.06-1.5-.39-2.17,2.21-.16,3.29,1.58.85,2.68-1.05,1.99-2.23ZM276.1,39.72c-.64-.93-4.45.7-2.66,2.87,1.11,1.35,3.95-.98,2.66-2.87ZM250.48,45.8c3.31.99,3.33-2.92-.06-2.61-.38.89-.57,1.78.06,2.61ZM270.67,43.19c-3.47-.27-3.29,3.62-.06,2.61.63-.83.45-1.72.06-2.61ZM256.05,44.33l-1.24,2.55,1.61.99,1.38-1.38c.01-.65-1.03-2.32-1.74-2.16ZM264.66,44.34l-1.37,2.15c.03,1.5,2.4,1.95,2.99.39-.17-.61-.69-2.74-1.62-2.54ZM261.32,44.72h-1.56v12.12h1.56v-12.12ZM90.1,47.07l-1.5.07c-.79,1.71-1.58,3.49-2.48,5.14-.66,1.21-4.19,6.86-4.23,7.53-.16,2.42,1.44.91,2.28-.1,1.13-1.35,6.93-11.7,5.93-12.64ZM434.83,47.14l-1.5-.07c-1.02.96,5.15,12.04,6.44,13.3.98.95,1.87,1.1,1.77-.56-.04-.67-3.57-6.31-4.23-7.53-.9-1.65-1.69-3.43-2.48-5.14ZM31.2,83.31c.27.3,2.18,1.39,2.6,1.5,5.87,1.58,9.09-4.06,6.47-9.2-2.8-5.49-10.36-1.15-10.36,3.72,0,.87.72,3.35,1.29,3.98ZM491.73,75.45c-8.24-8.67-13.67,7.91-5.35,9.45,5.99,1.11,9.42-5.16,5.35-9.45ZM16.31,231.9c.62.79,1.98.07,2.36-.78,1.32-2.93-.12-8.73-.13-12.22-.1-38.36.57-77.12.42-115.31,0-1.27-.81-2.83-.34-4.28l.58-.59c6.64-.37,12.89-1.72,19.12-3.95,2.09-.75,9.69-3.44,10.17-5.47l-.45-.78c-1.32-.33-8.4,3.5-10.25,4.17-6.55,2.38-12.85,2.99-19.74,3.71l-1.82,2.48c-.07,35.19.07,70.38-.04,105.56-.02,7.52-.33,15.03-.63,22.48-.03.75.41,4.54.75,4.97ZM507.12,231.9c.34-.43.78-4.22.75-4.97-.25-6.03-.61-12.02-.64-18.22-.17-36.49.08-73.23-.04-109.83l-1.82-2.48c-6.9-.73-13.19-1.34-19.74-3.71-1.85-.67-8.93-4.5-10.25-4.17-1.06.51-.07,1.6.57,2.12,1.99,1.61,6.62,3.23,9.16,4.13,6.23,2.22,12.48,3.57,19.12,3.95,1.45.46.25,3.78.25,4.86-.15,38.19.52,76.95.42,115.31,0,2.6-.81,5.38-.86,7.42-.03,1.29,1.04,8.17,3.08,5.58ZM18.18,250.96v-11.34l-.58-.57-1.76.96v10.95c0,.06.41.96.63,1,.54.13,1.6-.57,1.72-1ZM507.6,250.96c.51-3.21-.38-7.6,0-10.95l-1.76-.96-.58.57v11.34c0,.28,1.22,1.2,1.72,1,.22-.06.61-.9.63-1ZM19.23,265.11c2.32-2.18.53-9.57-4.15-6.3-3.81,2.67.41,9.82,4.15,6.3ZM504.2,265.11c3.75,3.52,7.97-3.63,4.15-6.3-4.68-3.27-6.47,4.12-4.15,6.3ZM16.07,272.9c-.28.27-.88.4-.96.76.29,5.74,6.35,2.48,3.82-1.17-1.09-1.56-2.03-.4-2.85.41ZM507.36,272.9c-.83-.81-1.77-1.97-2.85-.41-2.54,3.65,3.53,6.91,3.82,1.17-.08-.36-.69-.49-.96-.76ZM28.33,358.67c1.48-6.45,4.22-13.74,3.02-20.42-.95-5.3-4.02-10.84-4.3-16.42l-2.62-6.56v34.2c.2,2.33,1.74,6.72,3.03,8.69.24.37-.05.7.87.5ZM12.05,361.52c-.81,2.22,1.34,5.87,3.61,4.21s1.24-6.25-1.98-5.92c-.27-.11-1.59,1.59-1.63,1.7ZM510.9,361.25c-.8-1.33-.69-2.02-2.81-1.11s-2.04,4.81-.1,5.77c2.28,1.13,3.79-1.95,3.55-3.93-.08-.65-.53-.54-.65-.73ZM31.07,382.91c-.52-2.67-1.22-5.29-2.09-7.88-.95-2.84-2.4-7.03-3.58-9.71-.21-.47-.38-1.07-.97-1.18v13.02c1.92,1.43,3.42,3.45,5.27,4.97.44.36.63.95,1.37.78ZM10.88,373.27c-3.85,3.27-.99,9.71,3.97,9.26s3.76-9.49,1-10.4c-1.46-.48-3.8.15-4.97,1.14ZM512.55,373.27c-1.16-.99-3.51-1.62-4.97-1.14-2.76.91-3.86,9.96,1,10.4s7.82-5.99,3.97-9.26ZM26.52,385.52c-.58-.51-.9-1.99-2.08-1.82-.15,2.28.77,4.43,1.45,6.56,2.15,6.66,5.64,14.75,8.51,21.2.47,1.06,1.27,2.77,2.15,3.52-.15-3.04,1.55-6.39,1.57-9.19.02-3.05-3.03-14.23-5.07-16.33-1.05-1.08-4.8-2.43-6.53-3.94ZM18.43,394.11c2.08-2.43-.62-6.57-3.65-4.43-3.36,2.37.99,7.55,3.65,4.43ZM508.65,389.68c-3.25-2.29-6.02,2.13-3.5,4.58,2.86,2.79,6.7-2.33,3.5-4.58ZM24.82,616.91v9.19l9.18-6.27c2.27-2.24,4.78-4.22,7.1-6.38,1.05-.98,1.62-3.03,3.65-2.6.07.55-.03,1.05-.18,1.57-.95,3.19-8.8,10.61-11.54,13.09-2.33,2.11-5.23,4.19-7.74,6.14-.4.69.23,4.55.89,4.6,11.9-9.94,23.89-20.75,33.42-33.04,2.58-3.32,7.32-9.57,8.41-13.49.29-1.04.13-2.56.46-3.85.46-1.85,1.32-3.65,1.71-5.53l1.19.17c1.19.87-.75,10.25-.02,12.34l2.92-5.08,1.17-1.06c1.33.18,1.5,1.57,1.3,2.71-.5,2.85-2.64,6.32-3.34,9.59-1.03,4.87-2.24,14.07-.46,18.62.21.54.96,1.91,1.52,2.19.99-2.15,1.81-8.62,5-5.78,1.05,1.82-1.57,6.2-1.84,7.96-.3,1.96-.26,9.49,2.12,9.94,3,.58,6.64-2.03,7.03-1.96,2.45.49-1.49,4.57-3.6,5-6.17,1.25-7.56-2.32-8.86-7.43-.24-.95.65-1.7-.62-1.47-.48,2.58-5.24,12.59-7.69,12.82-4.3.41,1.27-6.73,1.88-7.86,1.47-2.72,2.86-5.54,4.16-8.36-2.21-2.69-3.92-5.78-4.18-9.36-.36-4.96,1.87-11.24,1.72-15.75-.01-.33-.69-2.63-1.37-1.99-.19.9-.64,1.83-1.11,2.61-8.14,13.23-20.92,26.49-32.28,37.1-2.4,2.24-5.08,4.28-7.66,6.28,1.16,2.38,1.75,5,2.68,7.46,1.51,3.99,3.53,8.77,5.39,12.59.9,1.86,2.29,4.74,3.37,6.4.26.4.23.7.88.7.35,0,3.36-3.05,3.85-3.59,2.84-3.13,6.19-7.04,8.85-10.32,3.23-4,6.36-10.07,9.58-13.48.25-.27.5-.53.79-.76,2.8,1.61,0,5.67-1.16,7.81-3.48,6.4-8.83,13.47-13.49,18.95-1.79,2.1-3.7,4.23-5.88,5.88l8.45,13.08c.41.09,5.6-4.16,6.28-4.82,4.49-4.37,10.32-11.75,14.19-16.89,1.89-2.51,3.35-5.37,5.49-7.61-2.89,9.92-10.4,17.28-15.86,25.79l-7.13,7.64c.73,1.1,6.28,8.13,7.1,7.99,10.2-11.45,18.96-24.63,25.61-38.53,1.58-3.31,4.51-9.23,5.43-12.55.08-.29.29-.84-.11-.89-3.85,4.43-10.16,5.59-12.05-1.27-.32-1.17-.12-5.85,1.42-5.72,3.16.26-.47,8.6,3.67,7.08,3.45-1.27,10.15-9.88,12.32-13.1,7.62-11.3,10.97-24.49,13.2-37.82l-5.37,5.46c-3.82,2.1-12,9.06-16.43,7.97-5.42-1.33-1.97-10.49-1.35-14.11.77-4.56,3.31-18.1,5.95-21.43,1.63-2.05.62-.82,1.37-3.31.45-1.5,4.37-12.26,5.12-12.49,1.25-.39,1.75,1.13,1.77,2.13.04,3.67-2.68,10.24-3.11,14.52-.19,1.86.03,3.76-.05,5.62.53.55,5.62-3.3,6.44-3.92.78-.59,1.39-1.51,2.14-2.13.71-.09,2,.28,1.99,1.16,0,1.06-7.85,7.6-9.11,8.89-3.25,1.34-5.01-2.33-5.37-2.05-2.47,7.44-4.36,15.22-4.69,23.07.56.07,1.02,0,1.54-.21,12.3-4.98,21.16-18.07,26-29.9,6.79-16.61,14.77-48.54-1.56-61.75-5.96-4.82-12.18-1.78-18.77-8.2-1.78-1.73-2.69-4.66-5.45-4.74-3.89-.12-5.85,2.85-9.36,3.18-1.22.11-9.53-.48-8.03-2.75,2.05-.73,4.47-.35,6.47-1.16,4.22-1.72,5.75-4.7,11.37-4,4.28.53,5.84,4.24,8.56,6.72,3.96,3.62,11.2,2.4,16.19,5.7,13.81,9.12,14.91,27.17,12.83,42.1l-3.03,13.98c3.29-3.63,3.9-8.59,5.67-12.9.47-1.14,1.16-1.72,1.64-2.66.55-1.07,0-2.92,2.06-1.85,1.85.96.31,5.67-.79,7.05-.3.38-1.08.46-1.17.85-.31,1.3-.19,3.27-.57,4.82-1.48,6.07-4.25,10.42-8.45,14.92-.85.91-1.94,1.23-2.5,1.89-2.64,3.11-4.36,11.41-8.01,14.34.11,16.48-6.12,32.05-14.24,46.1-.14.24-.75.33-.87.91-.29,1.38,3.33,3.39,4.15,4.63.98,1.48,1.33,3.44,1.57,5.18.45.08.76-.05,1.16-.21.7-.28,5.36-3.62,6.24-4.31,10.16-7.98,21.43-20,26.02-32.23.61-1.62.91-3.77,1.37-5.47l2.15.78c1.04,5.06-1.49,9.59-3.32,14.08,8.91-7.93,15.71-18.82,17.24-30.84,1.31-.75,2.59.42,3.05,1.66l.81.25c5.25-8.36,10.96-17.07,12.21-27.12.53-4.3-.97-11.69.09-15.12.13-.43.43-.86.8-1.13,3.09,1.52,2.4,5.69,3.33,8.58,8.41-11.85,13.01-29.57,5.23-42.96-1.62-2.78-7.76-8.56-11.23-7.41-1.51.5-2.45,8.57-3.2,10.5-1.07,2.76-3.24,4.22-4.26,6.3-1.23,2.52-2.04,4.99-2.94,7.61-.14.4-1.11,2.34-1.28,2.43-.67.39-2.63-.2-3,.13-.1.09-.48,1.72-.9,2.42-1.61,2.7-6.37,9.57-8.95,10.99-.96.53-2.87.55-3.03.69-.2.17-1.75,3.9-2.53,4.5-.95.73-3.12,1.41-3.23-.46-.13-2.09,1.62-2.83,2.46-4.41,1.52-2.87,2.76-5.97,3.63-9.08,3.56.4,1.34,4.37,1.35,6.64,2.31-2.19,4.18-4.79,5.74-7.56,3.32-5.87,6.24-12.16,5.98-19.04.98-1.49,3.58,1.76,3.73,1.58l-.78-8.6c2.22-.26,2.2,1.71,3.51,2.73,1.44-6.58,1.03-13.26,1.36-19.95l1-.19c1.8,1.3,1.54,3.32,1.95,5.28l1.67-3.21c2.1-7.34,3.53-15.12,2.62-22.59-.12-.16-1.14,1.5-2.18,1.57-.71.05-1.08-.39-1.61-.74l-.52.12-2.33,4.74-1.57-.61-.81,4.28h-1.13c-.54-2.66-1.92-5.94.18-8.19l1.75,1.17c.7-2.63,2.53-4.92,3.98-7.18,3.71-5.79,3.5-8.35,4.97-14.95.84-3.78.14-13.62-1.56-17.12-1.38-2.84-2.36-4.58-3.68-7.66-1.61-3.76-5.44-7.11-8.01-10.37-.79-.99-.97-2.17-1.94-3.14-.35-.35-4.3-3.27-4.58-3.32-1.57-.28-4.83,1.35-4.03-2.33-2.21-.26-6.47,1.17-5.47-2.35-.61-.48-6.15.59-7.58.38-1.74-.26-3.67-1.93-5.61-2.24-3.5-.56-8.73.49-11.98,1.9-1.52.66-6.84,5.6-7.66,5.04-.16-.45-.2-1.89-.97-1.55-2.36,1.03-3.97,5.78-6.86,6.47-.94.22-1.34-.34-2.47.21-2.94,1.41-10.09,9.42-11.93,12.34-4.47,7.1-4.52,13.33-4.38,21.46.03,1.56.67,3.14.65,4.61s-.79,3.04-.63,4.56l.97-1.55c2.3.85,1.1,3.48,1.37,5.46l1.21-2.7c3.33.53,1.79,2.64,1.88,4.47.08,1.7.91,3.51.25,5.3-2.81,1.36-3.72-2.95-3.34-5.1-3.18,1.15-2.21-3.12-2.35-5.08l-1.36.79-.79-1.18c-2.97,6-7.96,11.41-9.93,17.83-.76,2.46-1.83,11.51-3.33,12.7-.47.37-.96.49-1.54.31-1.89-1.33-1.77-3.34-1.03-5.43-.34-.26-6.79,2.13-7.7,2.65-4.21,2.4-7.7,9.34-11.25,12.99-4.4,4.54-10.72,6.48-15.34,10.65-.47.42-.55,1.38-1.18,1.86-1.01.76-3.12,1.03-4.38,1.18v89.12c.55.77,7.53-5.36,8.01-5.47,2.53-.58-.93,4.37-1.38,4.88-1.05,1.16-6.25,4.54-6.46,4.88-.39.63-.14,1.63-.19,2.35l5.67-3.51,9.57-8.41c-.96-.91-1.73-.01-3.09-.81-5.62-3.32-1.21-11.86-.04-16.58-2.61,1.04-4.7-.49-5.3-3.1-1.18-5.08,3.29-16.44,6.32-20.71.77-1.09,3.8-4.79,4.72-5.46.26-.19.61-.45.92-.26.55.45.75.65.63,1.4-.31,1.86-3.46,6.03-4.43,8.12s-5.61,15.1-4.41,16.5l3.82-.87,5.56-9.11c2.83-.45,1.77,2.17,1.07,3.82-3.15,7.4-8.94,14.12-8.05,22.92,4.89,2.89,12.25-8.24,15.37-7.79.47.07.73.24.99.62l-1.56,3.31c.59.56,3.51-3.43,4.29-3.73l1.52.84c-.78,3.53-3.44,6.52-6.56,8.17-.32.27-1.86-.94-1.9-1.05-.11-.3.91-1.83-.28-1.49-.24.07-3.81,2.68-4.08,2.95-.87.89-1.43,2.78-2.28,3.97-4.67,6.49-11.84,12.33-18.46,16.72ZM24.43,405.2v20.72l1.52.04c1.52,5.78,4.24,11.9,4.95,17.82.34,2.83-.39,8.04.34,10.32.51,1.6,3.46,4.57,4.38,6.18,1.79,3.12,1.89,9.12,2.68,12.79l1.18,3.69,4.1,21.12,6.17-8.34c-1.36-4.36-2.13-8.88-2.62-13.43-.18-1.63.24-3.87-.12-5.71-1.31-6.62-6.35-15.29-8.32-22.18-1.48-5.19-1.04-10.72-2.26-15.72-1.43-5.9-5.14-11.58-6.77-17.47l-5.23-9.82ZM24.43,436.87v8.41l2.35,3.12c-.19-3.18-.41-6.56-1.29-9.65-.19-.67-.24-1.65-1.06-1.88ZM24.43,454.07v23.26c0,4.82,4.37,9.75,5.98,14.27l3.82,11.72,3.88-1.56c-1.44-3.69-.61-8.19-1.24-12.24-.56-3.65-1.88-7.13-2.57-10.73-.87-4.51-.97-9.33-2.25-13.78-1.19-4.16-4.46-8.05-7.63-10.94ZM493.41,489.92l5.91-9.54.07-20.05-2.45,5.95c-2.43,8.7-6.01,17.05-6.92,26.11l3.4-2.46ZM499.39,489.65c-.91-.19-.63.11-.88.5-3.4,5.38-4.36,4.59-8.51,8.29-3.76,3.35-3.65,4.95-5.29,9.18-4.31,11.07-10.02,21.43-15.81,31.58-2.28,4-5.79,8.75-7.51,12.73-1.99,4.61-2.92,10.21-3.83,15.13,5.82-4.6,11.51-9.38,17.94-13.15,3.69-3.99,7.17-2.7,10.09-7.88,4.85-8.61,8.78-17.8,13.31-26.57l.48-29.81ZM24.82,509.19c1.31-.59,4.32-1.79,4.33-3.31,0-.96-3.08-7.9-3.62-9.72-.2-.68-.06-1.51-.33-2.22-.79.22-.67,1.55-.71,2.18-.15,2.49-.28,8.16-.04,10.51.09.86.4,1.68.37,2.55ZM497.64,527.19l-6.01,13.42c.76,1.58,1.78.75,2.62-.39.97-1.33,4.06-8.33,4.48-9.98.32-1.25.83-3.2-1.09-3.05ZM499,574.49l-.19-35.19-18.96,41.25c2.79-.14,6.61-1.1,9.3-2.04,3.4-1.18,6.29-3.89,9.86-4.02ZM479.84,556.12c-.3-.28-2.14,1.26-2.53,1.57-4.03,3.14-6.13,4.53-10.34,7.25-1.59,1.02-6.94,5.27-7.79,6.68-3.93,6.58-1.62,16.13-4.36,23.2.43.42,5.66-3.7,6.2-4.55.7-1.13,1.18-2.97,1.94-4.31,5.66-9.93,11.56-19.72,16.88-29.84ZM19.65,567.76c.5-.87-.06-3.53-1.09-4.03-2.87-1.39-5.84,2.86-3.1,4.67,1.1.73,3.66.28,4.19-.64ZM503.78,567.76c.53.92,3.09,1.37,4.19.64,2.74-1.81-.23-6.06-3.1-4.67-1.02.49-1.59,3.15-1.09,4.03ZM18.48,613.89c.25-1.06.43-2.12.49-3.22.54-9.96-.66-20.13,0-30.14l-.99-2.91c-.88.56-1.84.9-1.78,2.12.63,10.59-.77,22,0,32.49.05.74.2,1.43.43,2.12l1.85-.47ZM506.8,614.36c.23-.7.37-1.38.43-2.12.77-10.49-.63-21.9,0-32.49.06-1.22-.91-1.57-1.78-2.12l-.99,2.91c.72,9.95-.64,20.7,0,30.53.06.96.3,1.9.49,2.83l1.85.47ZM499.39,578.4c-.76-.76-6.11,3.18-7.06,3.69-.73.39-1.82-.22-1.53.99l8,3.53.43-.8.16-7.41ZM471.05,579.57c-.41.1-3.77,6.75-3.94,7.41-.18.7-.18.72.42,1.19,1.25.26,3.88-6.47,4.49-7.64l-.97-.95ZM486.61,584.52c-.23-.15-.29-.87-.67-.93-.17-.02-2.84.38-3.36.48-.89.17-3.9.94-4.51,1.35-.96.63-1.88,3.15-2.75,4.28-6.27,8.13-16.01,15.94-24.25,21.47-7.84,5.25-14.84,12.19-20.86,19.42-4.95,5.94-9.32,13.24-15.96,17.37-.61.38-1.67.71-2.41.82l.38.75c-6.59,3.51-12.74,3.99-18.57,9.38-6.53,6.03-11.22,13.24-14.73,21.24-.74,1.69-1.21,3.63-1.87,5.35.74.17.93-.41,1.37-.78,5.11-4.22,13.13-14.9,18.87-16.31,4.02-.99,15.4-1.16,18.29-2.82.92-.53,2.94-3.06,4-3.93,5.36-4.37,11.42-7.97,16.26-12.93,4.81-7.48,10.19-19.07,16.58-24.97,10.27-9.48,21.32-17.87,33.37-24.69l2.16-1.26c2.9-2.83,7.27-4.39,10.69-6.7l.38-.99c-3.8-2.29-8.75-3.29-12.39-5.61ZM458.62,595.66c-.81.23-3.63,3.58-5.35,4.08-.95.28-1.56-.18-2.37-.07-1.3.18-4.84,2.19-3.71,3.76.96,1.33,2.77-.82,3.72-1.02.71-.14,1.33.28,2.06.16,1.41-.24,6.76-4.13,7.17-5.39.4-1.24-.25-1.88-1.52-1.52ZM499,598.73c-.98.48-2.41.75-3.28,1.22-2.92,1.58-6.62,4.52-9.59,6.44-9.45,6.1-18.88,12.26-27.49,19.73-8.11,7.04-12.88,16.69-18.28,25.98l-12.52,8.2c.29.54,1.03.02,1.4-.17,12.89-6.69,25.59-14.02,38.45-20.58,8.11-4.14,16.43-8.68,24.63-12.51,2.23-1.04,4.17-2.1,6.67-2.13v-26.2ZM440.36,608.9c-1.19-1.2-4.88,4.08-5.19,5.17-.13.45-.34.94.32,1.08,1.4.3,5.93-5.19,4.88-6.25ZM159.68,689.04l2.23-6.37c-1.56-5.43-1.53-12.8-3.11-17.97-.8-2.62-2.34-4.96-2.92-8.03-.37-1.94-.22-4.31-.58-6.06-.94-4.6-5.79-12.6-7.75-17.28-1.56-3.73-2.55-7.79-4.11-11.53l-.95-.39c-.43.99-2.57,2.97-3.44,3.49-1.25.76-2.34.63-3.51,1.1-2.25.91-7.67,8.17-9.86,10.46-1.6,1.66-3.27,3.25-5.09,4.68,2.19,2.27,7.12,5.53,8.67,8.13,1.41,2.37,3.75,8.68,4.87,11.55,1.51,3.89,1.54,9.8,6.28,10.92.99.24,2.01.04,3.17.35,3.33.9,8.52,5.57,9.43,8.95.37,1.38.26,3.7.78,4.59.23.39,5.57,3.73,5.88,3.4ZM411.44,641.34c.85.08,1.41.06,2.17-.37,1.29-.74,7.89-7.79,9.37-9.4,1.23-1.34,6.74-7.42,7.07-8.58.39-1.37-1.09-1.57-1.81-.63l-16.42,16.81-.37,2.17ZM19.98,630.26c1.05-1.99.64-6.18-2.2-5.96-5.96.46-3.76,8.88,1.09,7,.07-.03,1.07-.97,1.11-1.04ZM508.27,630.68c4.25-4.25-4.68-10.23-5.33-3.16-.31,3.38,2.95,5.53,5.33,3.16ZM477.11,643.3c2.74-1.21,6.27.8,8.78.98,2.8.19,6.94-1.17,10-.75l3.1-11.77c-.11-1.33-2.75.84-3.23,1.06-5.72,2.64-11.42,5.75-16.96,8.85-.34.19-2.27,1.07-1.68,1.63ZM101.6,648.23c-1.1-2.96-.85-5.63-3.88-7.67l-2.15,7.62c.09.92,3.18,3.35,3.82,4.79.89,1.99,1.14,5.19,2.03,7.35,1.06,2.58,10.4,13.98,12.64,15.12,1.99,1,6.03,1.53,7.72,3.22,1.99,1.99,2.48,6.3,4.48,8.42.51-.69-.53-1.33-.58-2.16s.46-1.6.37-2.67c-.13-1.58-1.67-3.1-1.16-4.94,3.12.01,4.79,2.76,8.07,3.47,1.36.29,6.58-.29,7.12-1.18.23-.37-.1-1.47.25-2.29.16-.37,1.99-1.74,1.75-1.95-1.87-.14-4.58-.6-5.97-1.94-.98-.94-1.8-3.73-3.4-4.16-1.26-.33-5.17,1.83-6.95,2.08-4.87.68-10.9-1.14-14.74-4.21-4.33-3.46-7.54-13.81-9.43-18.91ZM39.05,685.38c-6.65-10.08-13.37-22.71-16.67-34.35-.43-1.52-1.55-8.31-2.24-8.73-1.63-.99-2.44,1.28-2.28,2.66,1.13,9.7,8.62,25.96,13.54,34.57,9.25,16.19,31.25,43.48,49.32,49.19,2.41.76,4.79-.39,2.71-2.32-.99-.92-6.29-3.01-8.07-4.05-13.56-7.92-27.7-23.89-36.32-36.97ZM505.15,642.62c-.26-.3-1.2-.56-1.6-.45-1.07.29-1.89,6.71-2.32,8.26-6.99,24.86-30.48,58.57-52.93,71.79-2.67,1.58-5.54,2.81-8.31,4.19l-.74,1.49c.56,2.78,6.27-.37,7.76-1.11,20.84-10.27,41.97-38.45,51.2-59.44,2.5-5.67,6.66-16.44,7.36-22.39.07-.57-.09-1.95-.42-2.34ZM121.52,647.84c-1.34-1.33-2.54-2.79-3.86-4.14-3.32,3.03-6.89,6.59-11.14,7.81,2.53,8.94,6.5,16.18,16.9,16.32.88.01,7.42-1.02,7.73-1.27.54-.44.35-.46.22-.99-1.05-4.18-4.27-9-5.32-13.36-1.41-1.54-3.05-2.91-4.52-4.38ZM472.75,649.65c-.27-.11-.8.35-1.3.29-1.89-.21-4.51-.82-6.26-.82-5.06,0-19.27,10.75-25.09,12.48-4.8,2.92-9.67,6.04-14.34,8.92-3.61,2.23-6.98,1.86-10.91,2.58-1.7.31-3.8,1.15-5.6,1.44-4.16.68-8.99.45-13.02,1.83-10.57,9.78-22.08,18.42-32.74,28.05-3.79,3.42-3.39,3.48-8.09,6.18-.8.46-2.3,1.6-3,2.28,1.18-.49,2.58.8,3.3.81.23,0,.23-.59.51-.79,3.46-2.48,13.76-2.94,18.25-2.9,6.05.06,6.37,1.54,12.22-1.73,4.72-2.64,9.13-6.06,13.68-9,6.17-3.98,15.75-11.25,22.36-12.75,3.91-.89,8.93-1.15,12.97-2.03,7.05-1.52,14.03-4.36,20.92-5.62,4.45-.81,9.31-1.05,13.92-2.07,3.89-.86,7.62-2.09,11.38-3.38,4.67-7.4,8.4-15.34,11.6-23.48-4.26-.15-8.46,1.31-12.72,1.19-2.48-.07-6.37-.82-8.06-1.48ZM110.27,676.69c-3.31-2.98-9.46-10.48-11.08-14.52-1.5-3.73-1.44-8.42-5.17-10.66l-5.48,13.12c2.37,2.99,5.44,4.36,5.88,8.58.05.45-.13,5.33-.21,5.72-.76,3.64-6.19,3.56-8.68,5.14-.82,2.95-2.57,5.61-2.45,8.88l2.76-4.49c1.39-.98,4.01-.17,5.56-1.05,2.65-1.52,1.85-5.97,7.09-4.99,3.42.65,2.56,4.65,4.13,6.03s7.3,2.61,9.74,4.33c1.63,1.15,6.13,4.92,7.28,6.4.36.46.61,1.64.75,1.59l.41-1.58c-1.43-1.26-3.21-2.37-4.06-4.15-1.01-2.12-.48-4.9-2.59-6.4-.78-.55-1.77-.54-2.52-1-2.02-1.24-6.76-5.4-6.69-7.77,3.09-.78,5.21,3.54,7.37,4.74,2.29,1.27,4.75.85,6.47,3.69.94,1.54,1.34,4.81,2.17,6.04,1.91,2.87,6.37,3.33,8.98,8.22.21.39-.21.75.81.56.88-1.84.7-7.73-.36-9.22-.88-1.24-5.76-2.39-7.47-4.65-1.51-2.01-3.01-7.49-4.43-8.67-1.83-1.53-5.21-1.16-8.24-3.88ZM11.14,659.72c-2.35-.37-2.19,3.54-2.32,5.29-.2,2.77-.18,6.59-.04,9.39.05,1.04.46,5.46.79,5.85.7.83,1.79.26,2.15-.6.64-1.56-.36-7.47-.43-9.63-.02-.73.31-1.49.28-2.28-.11-2.66-.54-5.34-.43-8.02ZM512.29,659.72c.11,2.68-.32,5.36-.43,8.02-.03.79.31,1.55.28,2.28-.07,2.16-1.07,8.07-.43,9.63.57,1.39,2.26,1.31,2.54-.18.17-4.79.71-9.67.37-14.45-.13-1.76.03-5.66-2.32-5.29ZM87.91,677.55c-.77-.86-2.61-2.78-3.47-3.37-.33-.23-.39-.54-.98-.38l-3.85,6.84,2.48,2.53c1.34-3.23,3.94-3.01,6.84-3.91.31-1.25-.54-1.18-1.02-1.71ZM363.64,693.63c2.04-6.69,6.47-13.07,9.09-19.25.1-.23.07-.66-.19-.58-1.2,1.36-4.59,1.25-5.65,1.77-.66.32-6.49,5.55-7.7,6.58-5.02,4.26-9.83,9.18-14.79,13.55-3.05,2.69-13.75,8.11-17.97,10.56-1.17.68-3.03.76-3.73,2.32,6.44.09,12.91-.26,19.26.73,7.07-5.44,14.08-11,21.68-15.69ZM150.69,683.96c.11-3.42-5.34-10.06-6.64-3.91,1.1.03,2.09.58,3.01,1.1,1.49.85,2.18,2.21,3.64,2.81ZM142.1,684.74c-.96.97,5.39,4.68,6.16,4.98.7.28,1.11.74,1.65-.1l-7.81-4.89ZM473.2,686.31l-22.28,5.66c1.51,1.11,11.53,6.68,12.62,6.4,3.77-3.56,6.79-7.76,9.66-12.06ZM82.01,697.53c-.23-.33-1.13-3.74-1.26-4.41-.22-1.18.28-2.54-.24-3.67-.42-.94-3.89-3.22-4.81-2.69l-5.93,8.93c3.66.6,6.49,3.81,9.5,5.55,5.18,2.99,10.78,4.05,16.67,4.42,1.53,1.48,2.68,3.3,4.31,4.7,4.24,3.65,6.71,3.15,11.64,4.77,2.15.71,4.99,2.51,6.96,2.81,1.57.24,9.01.87,10.51.82,3.3-.11,7.66-1.94,11.16-1.97l-7.55-7.53c-.81-.59-1.28.33-2.06.48-2.98.61-2.88-3.01-3.68-3.7-.14-.12-2.69-.99-2.91-.99-1.06,1.97-1.27,3.21-3.7,2.12s-2.93-4.53-4.03-5.15c-.41-.23-2.05-.15-3.14-.58-2.05-.82-3.88-3.22-6.34-4.22-5.33-2.18-12-2.51-17.9-4.7-.33-.12-.38-1.51-1.7-.4-2.02,1.71.56,7.74-3,7.01-.34-.07-2.36-1.4-2.51-1.62ZM143.92,696.6c-4.94-3.88-8.33-6.75-14.54-8.73-.25-.08-.66-.08-.58.19.58,1.75,2.3,2,3.32,2.93,2.24,2.06,4.31,4.35,6.75,6.24,4.22,3.28,10.66,6.2,13.71,10.44.75,1.05,3.25,5.75,3.98,6.18,1.3.78,3.61-.37,5.08-.19.18-.68-.28-.78-.58-1.17-1.03-1.34-3.5-3.04-4.9-4.48-4.25-4.4-7.38-7.59-12.23-11.41ZM421.13,690.29c-3,.3-5.96,3.32-2.95,2.98.74-.08,4.98-1.52,4.98-2.08-.65-.85-.99-1.01-2.03-.9ZM11.53,690.61c-2.84.31-2.64,2.12-2.74,4.47-1.57,34.51-.78,70.2-1.15,104.83-.02,2.12-.86,9.01-.21,10.34.7,1.44,3.18.55,3.35-.57l.75-119.06ZM514.15,691.49c-.19-.23-2.08-1-2.25-.88-1,10.54-.1,21.27-.36,31.86l1.11,87.2c.18,1.13,2.65,2.02,3.35.57.68-1.38-.18-8.2-.21-10.34-.35-31.56-.36-63.07-1.18-94.62-.06-2.2.39-12.76-.47-13.79ZM459.91,701.56c-6.16-1.66-11.61-5.56-17.44-8.21-5.57,1.57-11.76,1.97-17.3,3.37-4.24,1.08-5.02,2.56-8.3,4.6-9.14,5.71-19.01,10.61-27.33,17.43,12.46,3.14,25.41,4.2,37.67,8.16,3.37-2.85,7.7-4.58,11.4-6.97,3.02-1.95,7.26-4.85,10.05-7.04,1.77-1.39,9.96-8.53,10.87-9.95.31-.48.48-.77.37-1.38ZM173.76,712.11c.11-.61-.06-.91-.37-1.39-.97-1.5-3.96-4.08-5.3-5.65-2.61-3.05-6.24-8.36-9.83-10.1-.52-.25-1.11-.75-1.7-.27-.65.54-.45.65,0,1.19.74.91,2.84,1.94,3.74,2.91,1.38,1.49,2.65,3.95,4.1,5.67,1.07,1.27,6.27,7.44,7.23,7.63.66.13,1.45-.04,2.14,0ZM413.75,696.11c-.66-.16-1.28-.06-1.9.18-.45.17-7.53,5.09-7.83,5.46-1.09,1.33-.46,2.85,1.44,2.26,1.02-.32,7.82-5.4,8.31-6.23.38-.66.24-1.01,0-1.66ZM95.18,710.16c-4.64-2.02-10.05-2.48-14.61-4.75-4.34-2.16-7.7-6.45-12.64-7.71l-.5.11c-.53,1.76-4.34,3.31-3.15,5.12,1.43,2.18,2.64,1.09,4.07,1.37,6.02,1.2,11.56,4.5,17.54,6.34,1.91.59,2.78,1.7,5.15,1.44.69-.08,4.81-.99,4.14-1.93ZM153.04,714.84c-3.52-7.5-10.95-11.65-17.59-16.03l-.22,5.46,9,10.97c1.62,1.44,6.63-.28,8.8-.4ZM441.78,821.05c2-3.45,1.88-10.01,2.6-14.02,2.1-11.76,9.12-25.3,13.37-36.67,2.55-6.81,5.91-15.44,1.45-22.16-2.1-3.18-12.07-8.29-15.84-9.96-13.19-5.84-28.51-9.2-42.73-11.61-28.65-4.86-57.68-8.69-86.74-10.21-36.07-1.89-71.83-2.02-107.91-.38-5.67.26-12.29.13-17.96.77-1.92.22-3.69,1.57-5.9,1.92-5.59.87-12.87.37-18.72.82-26.6,2.08-70.69,9.34-93.51,22.99-12.45,7.45-11.05,14.91-6.26,27.52,4.17,10.98,11.11,24.16,13.38,35.49,1.4,6.96.15,14.94,6.82,19.56l2.73-6.07c9.26-7.33,21.27-10.21,32.45-13.48l-1.17,24.43c-.04.89-.98,4.32-1.78,4.5-11.01-6.77-28.5,1.86-37.51-8.98-4.91-5.91-4.08-17.81-6.56-25.5-.85-2.63-2.36-5.04-3.32-7.63-1.94-5.2-3.82-10.45-5.59-15.71-7.02.57-14.67.9-21.56,2.41-5.43,1.2-10.6,3.51-15.94,4.98.91,3.07,3.2,5.66,4.19,8.91,5.71,18.69-7.97,34.61-3.01,52.86,1.22.07,2.17-1.07,3.11-1.37,22.61-7.4,35.79-5.48,58.85-3.72,9.17.7,31.52,2.84,32.65-10.33.49-5.73-.94-18.61,2.16-23.25.78-1.16,3.4-3.13,4.75-3.46,19.78-2.25,39.44-5.46,59.31-6.75,28.28-1.83,57.21-1.17,85.61.02,34.54,1.45,68.02,1.32,102.43,5.47,5.84.7,10.93,1.59,16.6,2.95,1.66.4,3.14.19,4.87,1,3.19,1.49,3.14,4.41,3.36,7.58.46,6.56.28,13.73,2.15,20.14.94,3.24,2.65,4.12,5.68,5.26,7.78,2.92,16.32,2,24.42,1.37,22.83-1.77,36.88-3.83,59.16,3.79,1.12.38,1.93,1.46,3.19,1.3,4.18-15.09-5.47-29.32-4.71-44.39.31-6.23,2.3-11.77,5.87-16.8-11.6-5.58-24.55-7.15-37.27-8.04-3.85,10.21-8.66,20.17-11.08,30.84-.98,8.64-1.01,17.81-9.93,22.13-6.75,3.27-19.49,1.36-27.5,2.6-1.06.16-2.21,1.02-3.15,1.53-3.56-8.11-3.96-17.77-4.49-26.58,9.97,2.03,20.57,5.31,29.19,10.88,2.96,1.91,5.22,4.52,4.04,8.28.36.46,5.41-4.7,5.71-5.23ZM110.82,722.28l-9.96-3.75c-4.7.77-9.51,2.1-14.28,1.79l9.6,5.86,14.1-3.08.54-.82ZM244.91,802.82c-8.88-1.11-17.86-.65-26.79-.75-13.72-.15-27.69-.69-41.44,1.11-2.51,1.66-2.17,3.56,1.18,3.57,5.25.02,11.12-1.04,16.41-1.22,14.84-.49,29.82.51,44.6-.36,1.11-.07,5.1-.45,5.65-.99.48-.47.45-.73.39-1.36ZM167.37,807.02c.23-.67-.28-2.16-1.02-2.43-.3-.11-5.53.16-6.42.22-6.62.48-16.4,1.93-22.94,3.25-1.86.38-4,.97-3.69,3.4.16,1.24,2.22,1.18,3.14,1.15,5.75-.2,13.17-2.05,19.15-2.76,2.54-.3,8.6-.08,10.5-1.23.09-.05,1.25-1.5,1.29-1.6ZM325.92,805.26c-.55.56-.35,1.66.3,2.04,1.61.95,10.39,1.32,12.11.39,1.12-.61,1.59-2.59-.2-2.92-1.69-.31-5.97-.47-7.78-.41-1.28.04-3.44-.11-4.42.9ZM393.68,812.44c.27-.53.86-1.54.18-2-.35-.24-3.94-1.06-4.68-1.19-7.12-1.3-16.01-2.31-23.33-3.25-5.95-.77-11.98-.83-17.93-1.52-1.39,1.37-2.31,2-.71,3.83l16.73,1.16c8.53,1.56,17.16,2.07,25.76,3.17,1.47.19,3.13,1.5,3.98-.2ZM115.43,813.05c-3.04.32-17.39,4-19.44,5.62-1.09.86-1.09,1.83.38,1.57,2.87-.52,6.95-2.39,10.06-3.24,2.67-.72,7.93-1.28,9.95-2.17,1.82-.8.71-1.95-.96-1.78ZM426.22,818.91c-.48-.77-11.65-4-13.37-4.42-1.81-.43-5.49-1.43-7.14-1.49-1.41-.05-1.93,1.17-.64,1.85,1.22.64,6.76,1.25,8.79,1.76,4.02,1.02,7.99,2.27,11.84,3.8.86.31.72-1.17.52-1.5ZM8.88,821.28c-.72.7-.6,8.02-.47,9.48.33,3.87,2.75,10.62,4.9,13.87,1.01,1.53,3.46,4.33,5.41,4.23,3.36-.65-2.51-6.78-3.05-7.76-1.34-2.39-3.5-8.82-3.73-11.51-.11-1.29.31-9.06-.98-9.16-.51.47-1.66.46-2.07.85ZM514.55,821.28c-.4-.39-1.56-.38-2.07-.85-1.29.11-.86,7.87-.98,9.16-.24,2.69-2.4,9.12-3.73,11.51-.54.97-6.42,7.1-3.05,7.76,1.95.1,4.4-2.7,5.41-4.23,2.14-3.25,4.56-10,4.9-13.87.13-1.47.24-8.78-.47-9.48ZM93.23,820.8c-2.88-1.2-4.67,5.35-1.56,4.43l1.56-4.43ZM428.64,820.8c-.36.36,1.24,4.88,2.14,4.69,2.11-.46.23-5.53-2.14-4.69ZM477.3,859.12c.97.28,4.51,0,5.86,0,1.46,0,6.92-1.19,8.29-1.87,1.12-.56,3.77-2.95,1.48-3.23-1.05-.13-4.33,1.26-5.91,1.53-3.6.62-8.21-.36-10.69,2.6,0,.07.9.96.97.98ZM73.24,858.67l-.31-1.73c-10.3-.95-20.76-.58-31.12-.55-1.16,0-3.16-.86-3.32.59-.22,1.97,1.67,2.73,3.35,2.92,6.25.71,16.86.23,23.34-.11,1.47-.08,7.54-.24,8.07-1.11ZM99.76,859.41c.16-.42.24-.78.08-1.22-.39-1.04-6.94-1.66-8.38-1.76-1.66-.12-5.85-.65-7.04.31-2.32,1.87,1.71,3.04,3.14,3.17,1.98.18,4.25-.09,6.28-.03,1.37.04,5.29,1.25,5.92-.47ZM466.47,858.42c-11.04-1.52-22.21-.49-33.31-.47-97.48.22-194.24-.45-291.63,0-10.84.05-21.7.21-32.46-.8.02,1.35-1.82,1.64-1.79,3.3l.81.45c-.86.8.44,1.59,1.28,1.62.89.03,2.4-.65,3.59-.69,15.62-.61,31.35.38,46.9.38,91.16,0,182.23-1.08,273.29-.78,7.41.02,14.83.56,22.29.42,2.72-.05,12.81.75,11.03-3.44Z"/>
          <path class="cls-2" d="M91.66,290.65c.99.71,2.7,11.24,3.02,13.21,1.2,7.39,2.01,14.95,2.85,22.37l17.59-9.38-.57,1.57-9.77,13.3c-1.03,1.84,1.84,2.6,3.23,3,8.09,2.29,17.15,1.83,25.19,3.35,9.27,1.75-.59,3.63-3.91,4.09-7.4,1.02-15.11,1.03-22.47,2.55-2.96.61-2.13,1.98-.99,3.93,2.11,3.63,7.71,8.97,9.09,12.02.24.53.27.98.21,1.55l-16.8-9.38c-.36,6.71-1.93,13.21-3.08,19.8-.64,3.65-.78,10.15-2.29,13.34-.2.43,0,.55-.69.52-2.08-.03-2.1-3.02-2.43-4.64-1.85-9.26-2.37-19.2-2.85-28.62-2.73,1.84-5.52,3.74-8.17,5.7-1.59,1.18-3.88,3.69-5.39,4.42-1.73.85-2.01-.42-1.5-1.93,1.11-3.28,5.24-8.65,6.93-12.23.35-.74,1.34-2.76.93-3.4-7.75-4.09-17.31-2.31-25.64-4.08-1.56-.33-5.29-.98-3.72-3.35.52-.78,16.14-2.73,18.44-3.06,2.47-.35,9.35-.44,10.99-2.11.97-.98-.81-4.41-1.39-5.64-.76-1.59-6.31-10.17-5.54-11.07l13.68,9.77c.56-6.33,1.25-12.65,1.95-18.96.43-3.86.56-7.81,1.22-11.68.13-.74.83-5.69,1.9-4.93ZM91.28,301.59h-1.17c.15,1.26-.5,2.95.58,3.9.86,0,.56-3.23.58-3.9ZM90.47,309.42h-1.15c-.07,1.21.1,2.47,0,3.7-.32,3.75-1.02,7.59-1.18,11.36-.03.74-.08,1.27.6,1.74.52,0,.91-2.39.97-2.93.43-3.72,1.01-8.94,1.04-12.59,0-.45-.17-.85-.27-1.28ZM79.94,325.44l-.18-1.18-1.38-.38.98,1.56h.58ZM82.28,328.57c-.35-.25-.93.25-1.16.58.71,1.26,1.38,2.61,2.72,3.33.17-.62-1.39-3.79-1.57-3.91ZM108.87,337.95c-1.02-.22-7.65-.15-6.25,1.95.5.76,4.56-.24,5.61-.05l.64-1.9ZM83.07,340.3l-8.2-1.18c-1.12.95,3.37,1.44,3.77,1.51,1.04.16,2.88.45,3.85.46.78,0,.63-.05.59-.79ZM88.14,342.65c-1.04-1.48-5.16,3.35-5.4,4.17-1.38,4.71,6.52-2.57,5.4-4.17ZM91.48,352.03c-1.14.35-.29,4.13.77,3.9,1.62-.35.95-4.44-.77-3.9ZM92.44,358.67l-1.19.17c-.98,1.43-.06,3.23.03,4.71.07,1.17-1.15,2.27.58,3.32,2.37-2.12,1.07-5.52.58-8.2Z"/>
          <path class="cls-2" d="M445.83,415.75l4.31,26.58,12.89-7.04-7.36,10.42c-1.36,1.78.71,2.36,2.19,2.76,6.01,1.61,14.04.98,19.32,2.57.8.24,1.71.17,1.88,1.25.13.85-.29.52-.86.69-6.2,1.88-13.92,1.36-20.41,2.67-.9.18-2.86.58-2.4,1.89,1.04,2.97,5.62,6.91,7.19,9.65.31.55.54,1.05.44,1.71l-12.5-7.04c-.72,6.54-1.68,13.13-2.86,19.62-.19,1.02-.78,5.2-1.64,5.4-1.34-.17-1.39-1.65-1.63-2.66-1.69-6.97-1.49-14.87-2.47-21.97l-10.05,7.37-1.29-.53c.61-1.84,7.08-11.54,6.24-12.68-6.01-2.64-12.98-1.49-19.22-2.87-1.2-.26-4.06-.66-2.28-2.44,1.97-1.97,18.47-1.49,21.73-4.09.32-.41.11-.77,0-1.18-.66-2.64-3.86-6.59-4.94-9.16-.26-.61-.52-1.05-.37-1.78l5.34,4.23,4.82,2.8,2.83-25.52,1.08-.68ZM444.67,426.7c1.16-.47,1.06-2.4.19-3.13l-.19,3.13ZM443.88,441.95l.78-12.51c-.71.15-.73.77-.79,1.35-.3,2.7-.59,5.92-.76,8.62-.05.77-.46,2.92.78,2.54ZM436.84,441.56c.12-.74-.46-1.3-1.17-1.17l.4,1.17h.78ZM438.79,443.9c-2.09-.24.52,3.4,1.18,2.73l-1.18-2.73ZM458.35,450.94c-6.46-.76-5.99,2.69,0,1.16v-1.16ZM439.19,452.51l-5.86-.79c-.19,1.18.29.63.95.79,1.29.32,3.03.58,4.36.74.77.09.56-.08.55-.75ZM442.13,454.07c-.46.39-4.8,4.29-2.74,4.69.63.12,3.88-3.3,3.71-4.1l-.97-.59ZM446.61,461.5h-1.56c-.1,1.03.16,2.05.98,2.73l.58-2.73ZM446.22,466.19c-1.6-1.21-1.16,5.29-1.17,5.86,2.46,1,1.56-5.57,1.17-5.86Z"/>
          <path class="cls-2" d="M400.6,589.85c4.83-3.8,13.5,1.56,11.25,7.92-.19.55-1.81,3.22-2.2,3.66-2.81,3.26-9.29,1.88-11.19-2.04-1.14-2.34.07-7.91,2.14-9.54Z"/>
          <path class="cls-2" d="M398.8,38.22c.71.33,2.97,2.98,3.17,3.66.39,1.34-.19,4.76-.92,5.95-2.79,4.6-10.79.33-10.24-4.37.4-3.48,1.52-4.97,4.83-6.18.88.5,2.45.6,3.16.93Z"/>
          <path class="cls-2" d="M463.7,487.81c3.19,2.52,3.15,8.72-.83,10.47-2.79,1.22-5.96-1.38-7.22-3.81-.72-1.4.21-5.46,1.11-6.59,1.51-1.87,5.28-1.37,6.94-.06Z"/>
          <path class="cls-2" d="M477,371.27c3.4-.76,6.23,2.71,6.29,5.86.14,6.74-8.08,6.79-9.45.61-.39-1.77,1.21-6.04,3.15-6.47Z"/>
          <path class="cls-2" d="M37.47,154.83c.36.33,1.03.51,1.23.91.46.94.23,3.57-.06,4.66-.03.1-.97,1.77-1.05,1.84-4.07,3.76-11.25-2.88-6.92-7.76,1.47-1.65,3.87-1.71,5.78-.79.6.29.66.8,1.01,1.13Z"/>
          <path class="cls-2" d="M35.28,282.11c3.79-.75,6.95,2.45,5.38,6.19-1.67,4-6.86,2.43-7.82-.8-.37-1.27.84-5.07,2.44-5.39Z"/>
          <path class="cls-2" d="M74.74,293.66c-.32.46-2.16,1.28-2.82,1.31-3.39.16-5.33-3.34-3.92-6.27,2.43-5.06,9.61.89,6.74,4.96Z"/>
          <path class="cls-2" d="M478.59,108.52c3.58-.13,5.11,4.82,2.21,7.33-4.52,3.91-8.59-7.1-2.21-7.33Z"/>
          <path class="cls-2" d="M343.19,644.7c1.17,1.17,1.62,2.14,1.04,3.88-.91,2.72-2.73,3.02-4.91,1.36-4.59-3.48-.2-9.3,3.88-5.24Z"/>
          <path class="cls-2" d="M36.05,112.47c1.03.68,1.84,2.6,1.59,3.9-1.1,5.66-9.37.36-5.96-3.61.87-1.01,3.4-.93,4.37-.3Z"/>
          <path class="cls-2" d="M105.23,367.01c.1.07,1.61,1.57,1.64,1.69.13.42-.5,2.91-.79,3.42-.77,1.37-3.18,1.36-4.37.65-2.57-1.53-.77-8.65,3.51-5.75Z"/>
          <path class="cls-2" d="M473.84,478.84c1.24,1.28,1.04,2.67.53,4.26l-.75.52c-4.94.94-3.17-8.29.23-4.78Z"/>
          <path class="cls-2" d="M124.49,368.46l.08.66.71-.29v1.19s.78-.4.78-.4l-.09,2.25c-4.21,2.27-2.83-4.47-1.48-3.4Z"/>
          <path class="cls-2" d="M45.39,103.54c1.68.84,1.24,3.71-1.15,2.91-1.3-.44-1.51-4.23,1.15-2.91Z"/>
          <path class="cls-2" d="M125.89,386.13c-.04-.1-.57-.07-.56-.27l.57-1.42,2.89,1.03c-.76,2.15-1.91,3.26-2.9.66Z"/>
          <path class="cls-2" d="M47.11,113.53l2.15.78c1.72,2.88-3.65,3.59-2.15-.78Z"/>
          <path class="cls-2" d="M67.04,264.84c-.03.57.1,1.21,0,1.75-.54,2.87-4.19-2.07,0-1.75Z"/>
          <path class="cls-2" d="M156.13,723.88c1.8,5.33-2.72,3.86-5.97,4.3-20.08,2.77-38.93,9.7-58.48,14.23-1.78.41-4.5,1.03-2.15-1.37,3.9-3.98,21.43-7.85,27.58-9.56,3.92-1.09,7.8-2.52,11.77-3.48,3.36-.81,25.88-5.3,27.26-4.12Z"/>
          <path class="cls-2" d="M220.19,789.6c1.28,2.35-1.32,3.16-3.28,3.39-8.2.98-16.84.56-24.97,1.22-7.77.63-15.68,2.77-23.66,1.95l.69-1.95c7.82-1.53,15.82-2.74,23.75-3.52,2.26-.22,4.69.02,6.96-.17,6.81-.56,13.74-2.07,20.51-.93Z"/>
          <path class="cls-2" d="M53.24,831.14c13.49-.88,25.52,2.05,38.67,4.07,1.48.23,3.07-.49,4.05,1.03.04.81-6.83.64-7.61.58-13.97-1.03-24.8-4.36-39.45-2.3-1.79.25-9.45,2.43-10.42,1.74-1.18-.83-.03-2.11.98-2.58,3.67-1.73,9.71-2.27,13.78-2.54Z"/>
          <path class="cls-2" d="M434.86,815.68c-1.22.82-3.94-2.67-4.92-3.42-7.11-5.42-21.32-6.55-30.14-9.34-1.09-.34-2.78-.47-2.43-2.06,1.75.09,3.54-.13,5.29-.02,6.07.37,22.36,4.91,27.66,7.91,2.7,1.53,6.37,3.34,4.54,6.93Z"/>
          <path class="cls-2" d="M122.46,802.72c-.95.93-12.83,3.56-15.16,4.19-3.37.92-8.25,3.18-11.58,3.31-3.3.13.07-2.8,1.61-3.51,4.31-1.99,18.39-5.84,23.17-6.55,2.31-.34,3.47,1.08,1.96,2.55Z"/>
          <path class="cls-2" d="M492.28,837.3c.24.38.14,2.02.46,2.66-1.03.87-7.78-2.14-9.36-2.56-2.62-.69-5.54-.89-8.14-1.63-.85-.24-3.23-.81-3.23-1.86,1.13-2.82,4.5-1.13,6.67-.75.55.1,1.23-.2,1.69-.1,1.32.3,11.57,3.71,11.92,4.24Z"/>
          <path class="cls-2" d="M44.67,780.25c1.22-.15,5.63-.7,5.47,1.27l-.71.76c-5.92,1.69-11.96,3.15-17.45,6.01-1.08.1-1.47-1.49-1.04-2.29,1.25-2.32,10.98-5.41,13.73-5.75Z"/>
          <path class="cls-2" d="M490.76,787.92c-.54.9-4.94-1.56-6.02-1.93-4.3-1.49-8.74-2.6-13.1-3.91l.34-1.71c4.55-.86,9.94.87,14.1,2.72,1.39.61,6.03,2.59,4.67,4.84Z"/>
          <path class="cls-2" d="M77.88,744.66c1.32,1.1-1.37,3.29-2.24,4.01-1.8,1.48-4.23,2.28-5.85,3.53-1.42,1.11-2.48,3.7-4.71,3.69-1.39-1.45,3.22-6.3,4.29-7.24.96-.84,5.86-4.19,6.91-4.37.33-.06,1.35.17,1.59.37Z"/>
          <path class="cls-2" d="M466.55,833.32c-1.24,2.68-3.91,1.2-6.04,1.15-4.49-.11-9.01.11-13.5.01v-1.17c6.41-.98,13.21-1.7,19.55,0Z"/>
          <path class="cls-2" d="M87.9,814.68c-.5.45-5.17,5.86-5.97,3.14s6.19-6.86,8.47-7.11c3.92-.44-2.09,3.61-2.5,3.98Z"/>
          <path class="cls-2" d="M164.1,724.73c.71-.88,6.02-1.7,6.74-.5,2.31,3.83-6.1,4.32-7.06,2.35-.15-.48.05-1.51.33-1.85Z"/>
          <path class="cls-2" d="M388.37,798.12c-.05,1.11.43,2.52-.99,2.75-.94.16-9.02-1.13-9.17-1.78-.24-1.03,2.96-1.31,3.72-1.36,2.28-.15,4.22.41,6.45.38Z"/>
          <path class="cls-2" d="M111.22,835.66l-.24,1.21c-1.96.88-3.91.82-6.02.75-.24-2.01,6.01-2.21,6.25-1.95Z"/>
          <path class="cls-2" d="M83.3,566.11c-2.17,2.68-8.84,9.01-12.05,9.69-.87.19-1.57-.24-2.23.04-1.2.51-2.8,2.48-4.39,3.07s-4.62.88-6.29.56c-2.43-.46-7.36-3.54-4.71-6.19,2.41.15,3.65,2.16,6.18,2.38,6.01.5,10.62-4.66,13.29-9.39,1.16-.28,1.05,2.06.98,2.74,2.93-1.75,5.29-4.2,7.41-6.85.82-1.03,4.82-7.15,5.37-7.23,1.33-.2,2.72.55,2.4,2.07-.16.73-3.4,5.98-4.07,6.91-.5.7-1.3,1.47-1.9,2.21Z"/>
          <path class="cls-2" d="M53.97,512.94c-1.8,2.59-3.99,5.14-5.63,7.86-1.78,2.94-3.15,6.71-5.06,9.4-.83,1.17-2.09,2.02-2.77,3.09s-2.81,6.85-3.25,7.11c-1.38.8-2.27-.78-2.32-2.07-.18-4.78,3.13-7.8,5.27-11.19,1.36-2.15,2.13-5.14,3.51-7.44,1.26-2.1,6.18-8.45,8.23-9.36,2.52-1.11,3.64.27,2.02,2.6Z"/>
          <path class="cls-2" d="M135.06,452.51c-1.99-8.95,6.88-12.93,14.31-10.97.17,6.89-2.09,15.24-10.88,12.04-1.48-.54-1.7-1.77-3.42-1.07ZM143.27,443.51c-.82-.05-1.46-.15-1.94.58.48.73,1.13.63,1.94.58v-1.17ZM146.39,444.69c-1.09-.96-1.38,3.07-1.17,3.51,1.48.37,1.53-3.2,1.17-3.51ZM138.84,445.14c-1.18.31-2.76,2.87-1.24,3.84,1.19-.55,4-4.57,1.24-3.84Z"/>
          <path class="cls-2" d="M110.82,457.59c-1.6.01-2.17,1.94-4.04,1.84-.46-.02-2.76-.75-3.26-.99-3.06-1.4-3.54-3.97-4.06-6.9-.2-1.12-1.13-1.22.03-2.77,1.85-2.47,5.57-2.34,8.23-1.57,6.16,1.77,5.56,8.82,4.48,13.9-2.69,1.31-.98-3.11-1.38-3.52ZM105.42,450.1c.96-.05,4.21,3.06,4.62,1.43s-3.34-3.18-4.69-2.92l.06,1.5ZM103,452.12l-.19-2.75-1.37-.38c-.34,1.02-.56,1.87-.04,2.9l1.6.23Z"/>
          <path class="cls-2" d="M109.1,489.42c.17.12.21.47.66.73,2.37,1.34,5.9,1.97,8.3,3.41.42-.97-1.15-2.65-.39-3.54,1.38-1.62,4.55,2.94,5.71,3.69,1.81,1.18,3.03.85,4.9,1.35,4.41,1.17,1.37,4.01-2.31,3.5-2.31-.32-3.66-1.99-5.29-2.55-2.29-.78-5.8-.41-8.23-1.15-3.36-1.02-9.76-5.88-11.2-9.13-.93-2.09-1.09-3.65-.58-5.86,2.54-.39,2.42,3.03,3.73,5.05.99,1.53,3.19,3.42,4.7,4.49Z"/>
          <path class="cls-2" d="M69.25,681.08l-2.74.88c-.94-.31-.73-1.54-.34-2.19l18.65-27.47c1.98,1.15-.35,5.65-1.21,7.38-3.68,7.41-10.05,14.29-14.37,21.4Z"/>
          <path class="cls-2" d="M128.8,472.84l.4,1.56,1.95-.78c-.38,1.21.71,1.18.97,1.57.78,1.17-1.48,6.6-1.95,8.2-.44,1.49-.24,5.24-2.35,5.07-1.05-.08-3.49-3.91-4.03-4.93s-2.44-5.63-2.44-6.56c0-.59.32-1.18.44-1.75l4.41.32c1.02-.35.62-3.26,2.59-2.69ZM129.97,478.7l.39-2.34-1.16,2.16.77.19ZM128.61,479.88c-.45.01-1.92,3.98-.78,3.89.45-.03,2.23-3.32.78-3.89Z"/>
          <path class="cls-2" d="M136.84,595.39c.16.12.92.81.93.88.79,3.81-5.85,16.99-9.47,18.58-1.39.61-2.75,0-2.92-1.51-.22-1.96,4.6-7.38,5.82-9.66.83-1.55,3.34-9.14,4.42-9.17.45.22.81.58,1.2.88Z"/>
          <path class="cls-2" d="M149.45,487.77c.24,3.6-3.57,7.99-6.75,9.32-1.41.59-5.14,1.3-6.57,1.06-2.21-.37-5.5-2.85-4.98-5.38,1.74-.25,2.79,1.1,4.48,1.21.98.06,5.17-.54,6.17-.88,2.12-.73,4.82-4,5.39-6.18l2.26.84Z"/>
          <path class="cls-2" d="M162.36,569.08c.02.81.24,1.68.23,2.48-.03,2.11-2.41,9.25-3.6,11.04-.65.98-3.62,3.09-4.73,2.4-1.52-2.76.86-4.39,1.81-6.49,1.03-2.28,2.45-7.56,3.65-9.25.73-1.04,1.65-.6,2.64-.17Z"/>
          <path class="cls-2" d="M96.75,478.7l.19-2.75c2.83-1.34,1.87,2.52,2.47,4.13l-.51.57-1.35-.39.21,1.96c-1.5,2.09-5.71-3.79-6.41-4.96-1.87-3.12-2.84-6.94-2-10.67,3.4-.31,3.22,4.49,4.14,6.97.68,1.83,1.78,3.84,3.27,5.13Z"/>
          <path class="cls-2" d="M177.69,520.55c.8-.65,1.77.39,2.13,1.15.82,1.74.98,10.05.49,12.22-.37,1.65-2.07,4.85-3.84,2.85-1.28-1.45.2-4.55.37-6.32.13-1.36.31-9.46.85-9.9Z"/>
          <path class="cls-2" d="M44.08,533.94c.63-.5,1.72-.44,2.45-.83.39.21.56.46.59.9.1,1.23-4.09,12.02-5.1,12.53-3.66.75-2.88-3.78-2.17-6.08.44-1.42,3.12-5.66,4.22-6.52Z"/>
          <path class="cls-2" d="M157.21,478.74c1.29-.34,1.69,1.57,1.71,2.51.09,3.48-2.92,8.35-5.69,10.35-1.18.85-4.14,2.63-4.13.2s3.06-3.88,4.42-5.78c.81-1.12,1.49-2.54,2.06-3.81.45-1,.53-3.18,1.63-3.47Z"/>
          <path class="cls-2" d="M98.64,532.72c.63,1.01-2.37,8.23-3.12,9.46-.5.82-3.06,3.27-4.03,2.98-1.16-.9-.47-2.8-.11-3.99.4-1.31,3.41-7.67,4.17-8.62.9-1.13,2.05-.26,3.08.17Z"/>
          <path class="cls-2" d="M68.88,501.51c.08.02,1.25.85,1.29.91.53.9.31,3.38-.49,3.94-2.41,1.71-9.01-.88-9.31-4.01-.37-3.78,3.81-1.57,6.11-1.01.77.18,1.54-.12,2.4.16Z"/>
          <path class="cls-2" d="M101.83,615.15c.09.06.36,1.33.32,1.66-.37,3.41-5.94,15.83-8.51,18.09-1.36,1.2-2.67.71-1.94-1.12.82-2.08,3.55-4.85,4.74-7.42s2.59-8.78,3.88-10.58c.35-.5,1.04-.96,1.52-.63Z"/>
          <path class="cls-2" d="M87.76,454.07c-5.44.77-3.48-13.62-1.31-14.02,3.52.49,1.51,5.74,1.32,8.36-.14,1.87.09,3.79,0,5.67Z"/>
          <path class="cls-2" d="M33.68,520.4c-1.35,1.14-3.82,1.61-3.31-.74.04-.17,1.36-2.84,1.55-3.16.94-1.56,6.45-8.14,7.62-4.18.08.66,0,1.1-.3,1.7-.5.98-4.64,5.6-5.57,6.38Z"/>
          <path class="cls-2" d="M144,418.15c1.28,2.22-4.74,2.14-5.91,2.4-2.61.58-5.07,1.75-7.18,3.39-2.08-.72-.61-3.18.64-4.06,1.75-1.23,7.53-2.89,9.65-2.81.55.02,2.67.84,2.8,1.08Z"/>
          <path class="cls-2" d="M111.13,557.41c.08.03,1.16,1.22,1.19,1.3.63,1.87-3.29,8.46-4.91,8.67-2.94.39-2.11-2.72-1.35-4.5.36-.85,2.93-5.33,3.45-5.48.08-.02,1.55-.03,1.62,0Z"/>
          <path class="cls-2" d="M82.28,492.78c-3.12.1-5.58-5.35-5.86-8.02-.21-2.02.35-7.25,2.5-3.72.28.46,1.19,5.07,1.61,6.26.64,1.81,2.3,3.17,1.75,5.48Z"/>
          <path class="cls-2" d="M124.76,507.78c1.58,1.21,2.76,3.71,2.48,5.72-.43.02-.86.02-1.28-.08s-5.32-3.66-5.95-4.21c-1.85-1.6-3.69-4.65.31-3.83.53.11,3.93,2,4.45,2.4Z"/>
          <path class="cls-2" d="M64.21,562.07c2.91,2.92-7.43,7.57-8.4,3.13-.78-3.58,1.19-1.92,2.79-2.05,1.5-.13,3.77-2.45,5.61-1.08Z"/>
          <path class="cls-2" d="M72.39,481.89c.43-.12.94-.17,1.32.1.62.45,1.41,9.12,1.09,10.12-.16.48-.44.64-.93.69-3.25.29-3.01-7.98-2.46-9.92.12-.44.54-.87.97-.99Z"/>
          <path class="cls-2" d="M149.02,418.67c3.19-.35,6.99,1.06,9.11,3.53.9,1.05,1.12,3.02-.39,2.36s-3-2.28-4.6-2.84c-1.72-.59-5.33-.1-6.5-.92-2.34-1.62,1.14-1.99,2.39-2.13Z"/>
          <path class="cls-2" d="M56.09,598.73c.76.74-4.75,9.01-5.76,9.78-2.37,1.81-3.55-.22-1.82-2.71.71-1.03,5.37-6.41,6.13-6.77.48-.23.91-.38,1.46-.3Z"/>
          <path class="cls-2" d="M133.79,428.76c.95,1.06,2.53,6.76,2.78,8.37.13.88.69,3.74-.93,3.53-1.98-.25-3.33-10.5-3.31-12.39.16-.18,1.26.27,1.46.49Z"/>
          <path class="cls-2" d="M91.18,431.88c1.47,1.31-1.36,9.17-3.93,7.38-2.02-1.41,1.49-9.54,3.93-7.38Z"/>
          <path class="cls-2" d="M136.43,562.76c1.55-.33,1.42,4.13,1.19,5.11-.41,1.72-3.86,5.65-4.73,3.48-.33-.83,2.86-8.44,3.54-8.59Z"/>
          <path class="cls-2" d="M134.36,470.01c-1.67-.95-.05-6.59.27-8.29,3.49-1.44,2.58,5.15,2.07,7.05-.3,1.15-1.09,1.95-2.34,1.24Z"/>
          <path class="cls-2" d="M115.07,457.25c.59,1.43-.44,4.21-.35,5.2.03.32.84.26,1.11.88s.92,4.84-.12,4.81c-1.01-.8-1.48-1.82-1.37-3.12l-1.56.39.39-8.6,1.9.44Z"/>
          <path class="cls-2" d="M165.98,458.33c-.83-.56.49-8.17.96-9.36,3.81.08,2.04,11.38-.96,9.36Z"/>
          <path class="cls-2" d="M90.38,619.89c2.5-.67,1.31,2.78.44,3.99-2.22,3.11-6.89,3.08-4.78-.49.33-.57,3.9-3.39,4.34-3.51Z"/>
          <path class="cls-2" d="M77.83,469.34c.45-.09,1.5.92,1.56,1.33.2,1.38-1.38,6.96-3.57,6.76-2.36-1.03.84-7.85,2.01-8.1Z"/>
          <path class="cls-2" d="M142.77,466.3c1.42,1.39,1.82,7.94,2.46,10.05-.37-.1-.8.31-.99.3-1.63-.15-3.07-9.27-2.92-10.85.17-.19,1.2.25,1.45.5Z"/>
          <path class="cls-2" d="M119.03,433.74c.09-3.97.26-8.75,3.71-11.33.73.51.64.88.5,1.66-.19,1.09-2.34,7.45-2.85,8.5-.29.61-.51,1.32-1.37,1.17Z"/>
          <path class="cls-2" d="M125.22,427.01l-1.72-.29c-.78-1.07,1.88-4.82,2.75-5.51s3.85-1.97,3.27.14c-.35,1.28-3.79,4.04-4.31,5.66Z"/>
          <path class="cls-2" d="M92.45,428.66c-2.09-3.71,7.28-5.41,7.81-3.71.22.71-.11.96-.66,1.29-1.6.95-5.28,1.49-7.15,2.42Z"/>
          <path class="cls-2" d="M27.65,559.92c-1.33-1.4,1.76-7.09,3.63-7.7,2.39.95-2.19,8.01-2.73,8.09-.14.02-.76-.26-.89-.39Z"/>
          <path class="cls-2" d="M133.8,442.83c.59.73-.24,5.43-.63,6.4-.6,1.52-1.86.59-2.24-.61-.61-1.91,1.35-7.67,2.87-5.79Z"/>
          <path class="cls-2" d="M146.21,561.2l1.15.39c1.09,1.48.32,6.1-1.9,6.61-2.09-.35.17-6.82.74-7.01Z"/>
          <path class="cls-2" d="M104.76,604.6c.87.64.98,1.05.95,2.08-.02.9-1.49,6.34-2.51,6.12-1.57-.33-.18-7.43,1.56-8.2Z"/>
          <path class="cls-2" d="M111.86,422.54c.64.65,1.43,1.91.33,2.59-1.24-.97-6.87-2.96-6.45-4.87.2-.94,1.51-.16,1.94,0,.98.38,3.51,1.59,4.18,2.27Z"/>
          <path class="cls-2" d="M149.13,474.79c-1.57,1.41-4.51-6.47-3.91-7.81,1.08-.18,1.16.16,1.65.89.44.66,2.53,6.68,2.26,6.92Z"/>
          <path class="cls-2" d="M149.4,437.52c-.35.3-.78.45-1.24.52-1.53-.32,1.04-3.74,1.55-4.3,1.2-1.31,3.66-2.62,2.87.12-.07.23-2.89,3.42-3.18,3.67Z"/>
          <path class="cls-2" d="M102.62,421.62c1.27-.31,5.5,2.36,5.46,3.32-.05,1.2-3.91-.67-4.43-1.04-.92-.67-1.2-1.04-1.03-2.28Z"/>
          <path class="cls-2" d="M131.15,523.66c-1.22.23-1.12-1.74-1.49-2.62-.7-1.65-1.66-3.19-2.42-4.81,3.07.4,4.11,4.77,3.91,7.42Z"/>
          <path class="cls-2" d="M118.25,463.06l-1.21-.23c-.64-1.8-.27-3.76-.35-5.63,3.41.3,1.3,3.79,1.56,5.87Z"/>
          <path class="cls-2" d="M168.28,443.12c-.62.72-4.23-3.81-2.73-5.08,2.38-.12,2.82,3.23,2.73,5.08Z"/>
          <path class="cls-2" d="M153.69,435c.85-.08,2.21.74,1.33,1.69-.42.45-3.38,1.52-3.94,1.16-1.61-1.03,1.81-2.78,2.61-2.85Z"/>
          <path class="cls-2" d="M96.5,456.56c-.22.15-.57,1.21-1.32.85-.6-.28-1.05-1.51-.7-2.11.79-.31,2.69-1.76,3.46-1.44,2.01.85-.84,2.29-1.43,2.69Z"/>
          <path class="cls-2" d="M139.36,433.35c-2.33-.41-1.39-3.73-1.56-5.47,2.33.41,1.39,3.73,1.56,5.47Z"/>
          <path class="cls-2" d="M120.17,471.3l.81,4.27c-2.35.2-1.97-2.65-1.95-4.3l1.14.03Z"/>
          <path class="cls-2" d="M141.25,455.31l.07,3.25c-2.28.85-1.61-2.35-1.17-3.71l1.1.46Z"/>
          <path class="cls-2" d="M99.1,445.46l-2.53.79c-2.27-2.43,2.26-3.44,2.53-.79Z"/>
          <path class="cls-2" d="M145.12,455.35c.33.31,1.13,2.38.89,2.63-3.02.3-3.17-4.84-.89-2.63Z"/>
          <path class="cls-2" d="M97.53,459.93l.35-2.51c3.71-1.35.67,3.54-.35,2.51Z"/>
          <path class="cls-2" d="M108.09,444.68c-1.51-.07-3.1-1.05-2.73-2.73,1.3.5,2.23,1.43,2.73,2.73Z"/>
          <path class="cls-2" d="M102.22,461.89h-.58c-1.68-.65.66-3.77.58,0Z"/>
          <path class="cls-2" d="M128.81,674.58c1.98.21,4.2-.09,5.07,2.15-1.77,1.42-5.54.54-5.07-2.15Z"/>
        </g>
      </g>
    </g>
  </g>
</svg>