<?xml version="1.0" encoding="UTF-8"?>
<svg id="Layer_2" data-name="Layer 2" xmlns="http://www.w3.org/2000/svg" viewBox="0 0 521.87 865.9">
  <defs>
    <style>
      .cls-1 {
        fill: #f9ecd8;
      }

      .cls-2 {
        fill: #aa7b1b;
      }
    </style>
  </defs>
  <g id="Layer_1-2" data-name="Layer 1">
    <g>
      <path class="cls-1" d="M521.83,794.17c0-.13,0-.26,0-.39-.65-.41-.39-1.48-.4-2.14-1.26-101.84.02-203.86.02-306.12.01-137.52-1.46-274.69-.02-411.33,0-.66-.25-1.74.4-2.14v-.39c-.11-10.91.35-23.84-.39-34.6-1.09-15.82-13.11-33.29-29.43-35.52-19.37-2.64-39.84-1.11-59.47-1.03-53.34.22-106.95-1.12-159.85-.09-12,.23-24.01.04-36.04,0-48.83-.16-98.18.29-147.35.09-19.63-.08-40.1-1.62-59.47,1.03C13.51,3.77,1.47,21.24.39,37.06c-.9,13.16.03,27.1.03,40.26-.02,91.68.45,183.44.37,275.62-.04,41.43-.66,83.11-.39,124.77.67,103.53.01,207.26.03,310.41,0,13.2-.89,27.08-.06,40.29,1.01,15.97,12.94,33.63,29.45,35.89,16.49,2.25,34.8,1.53,51.69,1.46,117.57-.51,233.44-.92,351.02-.43,19.63.08,40.1,1.62,59.47-1.03,16.32-2.23,28.34-19.7,29.43-35.51.74-10.75.28-23.69.39-34.6Z"/>
      <g id="Pm3okP.tif">
        <g>
          <path class="cls-2" d="M521.83,71.65v.39c-.65.41-.39,1.48-.4,2.14-1.43,136.64.04,273.81.03,411.33,0,102.26-1.29,204.27-.03,306.12,0,.66-.25,1.74.4,2.14,0,.13,0,.26,0,.39-.11,10.91.35,23.84-.39,34.6-1.09,15.82-13.11,33.29-29.43,35.51-19.37,2.64-39.84,1.11-59.47,1.03-117.57-.49-233.44-.08-351.01.43-16.89.07-35.2.79-51.69-1.46-16.51-2.25-28.44-19.92-29.45-35.89-.84-13.21.06-27.09.06-40.29-.02-103.15.64-206.88-.03-310.41-.27-41.66.36-83.33.39-124.77.08-92.18-.39-183.94-.37-275.62,0-13.16-.93-27.1-.03-40.26C1.47,21.24,13.51,3.77,29.82,1.54,49.2-1.1,69.66.44,89.3.52c49.17.2,98.52-.25,147.35-.09,12.03.04,24.04.23,36.04,0,52.9-1.02,106.51.32,159.85.09,19.63-.08,40.1-1.62,59.47,1.03,16.32,2.23,28.34,19.7,29.43,35.51.74,10.75.28,23.69.39,34.6ZM261.11,8.32c-.11-.84.4-5.47-.58-5.47-1.21,1.39-.34,3.76-.58,5.47h1.17ZM255.12,5.23c-1.19.3-1.48,2.96,0,3.41,3.43,1.03,2.06-3.93,0-3.41ZM265.29,5.23c-1.43.55-2.32,3.18-.46,3.49,2.96.49,2.47-3.99.46-3.49ZM251.23,8.42c-2.48-2.57-4.77,2.84-1.23,3.03,1.72.09,2.25-1.97,1.23-3.03ZM269.81,8.42c-1.03,1.06-.49,3.12,1.23,3.03,3.54-.19,1.25-5.6-1.23-3.03ZM57.73,11.95c-2.3-3.19-7.85,2.43-4.4,4.98,2.97,2.2,6.84-1.59,4.4-4.98ZM251.18,13.63c-17.04,12.09.72,37.87,18.11,26.53,17.97-11.72-1.53-38.3-18.11-26.53ZM465.66,11.95c-2.44,3.39,1.43,7.18,4.4,4.98,3.45-2.56-2.1-8.18-4.4-4.98ZM246.16,13.09c-.15-.26-1.83-1.16-2.24-.69-.85.65-1.58,1.46-1,2.56.71.83,1.87,1.5,2.97,1.01.48-.35.55-2.39.28-2.88ZM274.88,13.09c-.28.49-.21,2.53.28,2.88,1.1.49,2.26-.17,2.97-1.01.58-1.1-.15-1.9-1-2.56-.41-.48-2.1.43-2.24.69ZM42.21,35.3l-25.01-17.98,17.99,24.43c.11.88-.13.47-.59.58-4.25,1.05-9.14,1.24-13.49,1.97l3.64,2.02c2.45.85,4.79,1.99,7.19,2.97.87.35,3.2.46,3.26,1.47l-13.71,20.13,20.12-13.7c.88-.06.73,1.64,1.07,2.47,1.45,3.53,2.85,7.27,4.57,10.67.21.41-.2.74.82.56.52-4.24.73-9.45,1.94-13.51.13-.44-.26-.69.59-.57l22.28,17.19.51-1.28c-5.01-6.57-9.52-13.64-14.79-20.01-.6-.72-1.15-1.13-1.95-1.58l.28-.97,13.8-1.97c-3.9-2.82-9.08-4.43-13.6-5.93l-.35-.92,13.95-19.73c-2.93.91-18.91,13.81-20.12,13.71-.97-.08-1.51-3.17-1.98-4.32-1.04-2.56-2.09-5.2-3.24-7.7-.27-.59-.65-1.87-1.24-2.08l-1.96,14.07ZM506.58,17.31l-24.42,17.99c-.88.11-.47-.14-.58-.59-1.07-4.22-1.11-9.18-1.97-13.49-.59.21-.96,1.49-1.24,2.08-1.15,2.51-2.2,5.15-3.24,7.7-.47,1.15-1.01,4.24-1.98,4.32-1.21.1-17.19-12.8-20.12-13.71l13.95,19.73c-.15,1.37-.94.83-1.82,1.18-4.04,1.66-8.63,3.11-12.14,5.66l13.8,1.97.28.97c-.8.45-1.35.85-1.95,1.58-5.15,6.23-9.51,13.15-14.5,19.51l.03,1.6,22.48-17.01c.85-.13.46.13.59.57,1.22,4.06,1.42,9.27,1.94,13.51,1.02.18.61-.14.82-.56,1.72-3.4,3.12-7.14,4.57-10.67.34-.84.19-2.53,1.07-2.47l20.12,13.7-13.71-20.13c.07-1.01,2.39-1.11,3.26-1.47,2.4-.97,4.74-2.12,7.19-2.97l3.64-2.02c-4.35-.73-9.24-.91-13.49-1.97-.46-.11-.7.29-.59-.58l17.99-24.43ZM239.68,21.54c.84,1.35,5.02.82,2.83-2.25-2.05-2.87-3.81.67-2.83,2.25ZM281.36,21.54c.98-1.58-.78-5.12-2.83-2.25-2.19,3.07,1.99,3.59,2.83,2.25ZM36.65,23.08c1.69-1.7-.87-5.74-3.16-4.23-2.83,1.87,1,6.41,3.16,4.23ZM490.06,18.98c-2.05-1.9-5.17,2.24-3.32,4.1s5.88-1.73,3.32-4.1ZM113.3,22.73c1.05-1.63-.56-2.81-2.14-3.04-3.37-.49-11.36-.81-14.82-.74-.52,0-2.47.4-2.51.89.46.65.49,1.89,1.15,2.34,1.42.97,12.34,1.57,14.66,1.39.61-.05,3.47-.57,3.65-.85ZM410.09,22.73c.97,1.51,16.64.59,18.31-.55.67-.45.69-1.69,1.15-2.34-.04-.49-1.99-.88-2.51-.89-3.46-.07-11.45.25-14.82.74-.51.07-1.76.34-2.01.73l-.13,2.31ZM124.01,21.9c1.34,1.12,10.13.74,12.22.87,15.65.94,31.64,1.31,47.28,1.61,3.86.08,4.84-3.02,1.95-3.54-7.27-1.32-16.37.42-23.84-.81-3.99-.16-8.08.3-12.06.27-7.46-.04-17.53-1.1-24.7-.28-1.27.15-1.89,1.01-.85,1.87ZM399.37,21.9c1.04-.87.42-1.73-.85-1.87-7.16-.82-17.24.23-24.7.28-3.97.02-8.07-.44-12.06-.27-7.47,1.22-16.58-.52-23.84.81-2.89.53-1.91,3.62,1.95,3.54,15.64-.31,31.63-.67,47.28-1.61,2.09-.13,10.88.25,12.22-.87ZM93.42,23.57c-.34,2.52-.37,5.09-.77,7.6-.23,1.41-1.73,6.2-1.52,6.97.13.46.61.74.92,1.06,2.13-2.18,2.77-6.17,2.91-9.16.03-.54-.03-8.28-1.54-6.47ZM429.97,23.57c-1.51-1.81-1.57,5.93-1.54,6.47.14,2.99.78,6.98,2.91,9.16.31-.32.79-.6.92-1.06.21-.77-1.29-5.56-1.52-6.97-.4-2.5-.43-5.08-.77-7.6ZM230.62,26.69h12.51v-1.17c-1.76-.04-3.49.38-5.25.4-1.11.02-6.38-.41-6.67-.26-.51.26-.69.42-.58,1.03ZM290.42,26.69c.1-.6-.07-.77-.58-1.03-.3-.15-5.56.27-6.67.26-1.77-.02-3.49-.44-5.26-.4v1.17h12.51ZM453.81,388.15c.23-1.62,0-4.11,0-5.86,0-1.13,1.62-.67,2.3-.35,3.34,1.59,4.31,7.15,3.96,10.52-.4,3.79-2.48,3.97-.73,8.55,2.05,5.36,6.08,7.14,6.12,14.52.03,4.68-2.46,10.65-7.15,12.35-1.19.43-1.99-.21-.89-1.33,2.2-2.24,5.22-3.83,5.73-7.54,1.27-9.21-4.15-11.39-6.1-18.46-1.25-4.52,1-4.82,1.66-8.27.53-2.76-.15-7.61-2.94-9.01.76,2.46,1.81,5.32,1.12,7.96s-1.08-2.47-1.51-2.1c-2.25,10.58-13.83,24.11-7.65,35.21.74,1.34,1.59,1.8,2.76,2.71.91-1.14.53-2.55,1.06-4.02.9-2.5,2.18-4.16,5-3.8.14,2.23-.53,4.18-.38,6.45.17,2.6,1.61,4.75,1.56,7.24,8.09-.07,13.97-8.08,22.09-8.24,2.16-.04,3.85,1.1,4.97,2.87,2.54,4.01,1.85,9.74,2.83,14.38,1.63,7.72,6.5,13.46,1.15,21.45-2.38,3.56-2.96,2.89-3.3,8.03-.35,5.25.07,11.12.03,16.45-.03,3.59-.78,7.69-.42,11.3.2,2.04,1.22,4.13,1.22,6.28,0,1.64-.73,3.17-.81,4.7-1.18,22.01.92,44.25-.4,66.06-.4,6.68-2.49,15.49-.57,22.08,1.95,6.68,8.01,16.2,5.03,23.42-1.87,4.53-4.06,3.7-4.84,10.02-.86,7-.82,16.62-.96,23.85-.09,4.6.36,9.26.17,13.88,1.02-.98,1.86-2.64,2.55-3.9,3.6-6.6,7.43-15.6,9.68-22.77,3.74-11.93,2.43-20.85,2.6-32.96,1.96-135.16.19-270.49.4-405.84.05-32.82-.39-65.86-.02-98.89,0-.76.33-1.42.43-2.15-4.68-.9-9.58-1.5-14.16-2.85-26.24-7.69-52.85-31.82-61.17-58.45-1.43-4.58-2.57-9.79-2.07-14.55-3.82.92-7.96,1.07-11.9,1.19-26.41.82-52.93,0-79.36.38l-45.55,8.6,11.18,29.73-.53.76-1.63.19c-3.78-2.77-7.93-5.09-11.71-7.85-3.06-2.24-6.44-6.06-9.82-7.77-.4-.2-.72-.26-1.16-.21l-9.54,61.81c-2.51,1.15-2.75-.33-3.24-2.31-1.92-7.76-2.46-18.25-3.69-26.41-1.69-11.18-3.56-22.34-5.42-33.48l-22.29,16.23c-.62.25-2.08-.22-2.29-.84-.69-2.02,7.57-19.26,8.85-22.72.72-1.93,1.5-4.14,2.13-6.1.12-.39.57-.38-.07-.83-.59-.41-7.15-1.78-8.49-2.06-12.12-2.53-24.52-4.17-36.66-6.73-25.77-.37-51.65.42-77.4-.38-3.95-.12-8.08-.27-11.9-1.19.5,4.76-.63,9.97-2.07,14.55-8.33,26.63-34.93,50.76-61.17,58.45-4.59,1.34-9.48,1.95-14.16,2.85.93,4.91.05,10.07-.02,15.03-.41,28.95.38,57.35.42,86.01.13,77.83-.18,155.71,0,233.45v4.68s.07,150.03.07,150.03c3.36,11.61,7.16,23.33,15.54,32.35.13-2.79.18-5.6,0-8.4-.31-4.71-1.45-10.6-1.58-15.25-.07-2.23.95-4.28,1.06-6.32.51-9.86-1.44-20.13-1.07-30,.01-3.77-3.91-5.52-5.07-8.61-2.53-6.79,1.73-13.33,2.72-19.63.87-5.54-.38-9.94,3.57-14.52.24-.27.2-.91.48-1.18,1.41-1.41,6-.48,7.81.02,6,1.66,10.74,7.02,17.27,6.95,1.99-4.61,2.09-8.8,1.41-13.71,1.59-.29,2.21.75,2.9,1.98,2.09,3.7-.17,8.23-.95,12.09,4.7.16,9.22,1.8,13.89.02,1.01-.38,1.95-1.23,3.04-1.65,5.98-2.3,10.76-3.4,13.24,3.71,1.28,3.67,1.08,3.4,3.06,6.71,2.32,3.88,2.48,8.45,3.62,12.8,2.82,10.79,5.72,13.53-.91,24.25-.29.47-2.13,2.16-2.3,2.56-2.47,5.82-1.14,28.53-1.17,36.25-.02,4.97-.77,9.68,0,14.81.47,3.1,2.06,6.42,2.3,9.43.21,2.72-.52,5.18-.55,7.81-.04,3.42.38,6.93.17,10.36,4.75-1.89,7.28-7.41,12.86-3.29,3.49,2.57,2.78,5.32,3.73,8.78,1.28,4.67,2.47,11.78,7.64,13.27.23-3.82,1.21-7.68,1.19-11.51-.01-3.86-.54-10.35-1.69-13.98-.98-3.1-7.99-11.92-1.22-12.8,5.76-.75,4.37,4.76,4.9,8.34.78,5.23,2.07,10.41,2.67,15.7.54,4.69,1.11,9.57.4,14.26.54.04.75.11,1.19-.27,2.16-1.86,3.54-5.9,7.09-6.9,5.23-1.47,7.47,4.86,11.25,5.81,4.4,1.11,5.94-1.56,8.02,4.1,1.55,4.22,3.51,11.4,2.91,15.79-.57,4.1-3.85,5.58-6.93,7.54-.46,1.79-.68,13.74-.02,14.15,10.71-1.2,21.4-2.74,32.2-3.47,15.49-1.05,31.06-1.13,46.49-1.58,8.29-.24,16.84.52,24.75-2.41.78-1.47.92-3.64,1.86-4.99,1.24-1.78,4.57-2.98,6.04-4.51,5.62-5.83-1.29-9.84-.6-14.87.11-.8,2-2.51,2.1-3.18.06-.43-.77-1.35-.94-2.05-.38-1.56.29-6.25.7-7.96.27-1.13,1.66-2.7,1.75-3.66.15-1.52-.71-4.11-.68-5.79.07-4.09,2.22-9.63,3.53-13.51-4.37.86-8.53-5.06-8.94-8.84-.93-8.53,7.58-13.88,9.61-21.19,1.37-4.93-1.25-8.32.23-13.84.74-2.75,2.5-3.38,3.42-5.97,2.34-6.58,1.93-19.4,9.78-22.28,1.07-.39,2.43-.44,3.39-.91,2.18-1.07,3.87-7.71,5.12-10.13,10.9-21.16,43.25-40.95,67.13-40.02,22.19.86,37.62,9.76,52.96,24.83.86.84,1.35,2.74,2.96,1.42,1.73-1.42,1.48-15.68,1.73-18.6.27-3.15,1.23-6.62,1.55-9.79.98-9.65-.73-26.11-2.45-35.85-.91-5.18-2.98-4.53-4.48-8.03-2.85-6.66,1.05-13.78,2.14-20.34.25-1.49,0-2.98.21-4.48.48-3.41,3.36-6.97,4.03-10.05.82-3.81.8-9.99,4.89-12.31,4.96-2.81,7.45,1.09,11.69,2.32,1.93.56,6.54,1.57,8.47,1.69,1.45.09,2.96-.46,4.44-.33-.56-.94-.45-2.54-1.15-3.34-.57-.66-2.77-1.19-3.8-2.26-7.99-8.32-1.56-21.49,2.26-30.12,1.22-2.75,3.81-6.33,4.25-9.43ZM242.29,32.5c.92-2.77-2.45-4.83-3.26-1.69-.45,1.75,1.87,2.72,3.26,1.69ZM281.32,29.54c-1.5-1.3-3.32,1.3-2.56,2.96,2.2,1.54,4.57-1.21,2.56-2.96ZM242.93,35.4c-1.08.08-2.22,2.77-.31,3.35,3.27.99,2.19-3.49.31-3.35ZM278.12,35.4c-1.89-.15-2.96,4.33.31,3.35,1.91-.58.78-3.26-.31-3.35ZM245.66,39.33c-.82.09-1.21,1.61-.9,2.33,3.63,3.98,4.45-2.72.9-2.33ZM275.38,39.33c-3.55-.38-2.72,6.31.9,2.33.31-.73-.08-2.24-.9-2.33ZM251.14,42.81c-1.18.09-1.59,3.29.4,3.29,2.47-.27,1.09-3.4-.4-3.29ZM269.91,42.81c-1.49-.11-2.86,3.02-.4,3.29,1.98,0,1.58-3.2.4-3.29ZM257.5,45.15l-1.28-.77c-2.01,1.07-1.64,4.06,1.01,3.26l.27-2.49ZM259.54,45.26c-.53,3.39.39,8,0,11.53h1.95v-11.53c0-1.06-1.74-1.36-1.95,0ZM263.54,45.15l.27,2.49c2.65.8,3.02-2.19,1.01-3.26l-1.28.77ZM90.29,47.03l-1.76.39c-.44,2.07-6.84,11.7-6.7,12.72.05.38.6.66.84.96,1.97-.95,8.41-13.32,7.62-14.07ZM433.1,47.03c-.79.75,5.65,13.12,7.62,14.07.25-.3.79-.59.84-.96.13-1.02-6.26-10.65-6.7-12.72l-1.76-.39ZM32.17,74.51c-3.05,2.48-2.99,8.37.96,9.94,6.24,2.48,10.13-4.04,6.92-9.26-1.84-3-5.39-2.7-7.88-.67ZM491.22,74.51c-8.86-7.23-13.31,11.39-2.81,10.44,5.44-.5,6.56-7.38,2.81-10.44ZM48.46,88.47c-.76-.73-9.02,3.53-10.56,4.1-6.6,2.43-12.73,2.94-19.62,3.84-3.03,1.33-1.85,3.16-1.84,5.55.05,37.01-.05,74.88-.44,112.19-.05,4.47-.14,8.23-.41,12.53-.02.33.42,4.41.49,4.63.17.52.83.78,1.32.94,3.23-1.92,1.41-6.19,1.35-9.07-.24-10.82.31-21.63-.22-32.42l.29-91.47.59-.59c3.37-.45,7.09-.67,10.39-1.33s16.7-5.13,18.31-7.49c.32-.47.46-.8.36-1.39ZM506.45,97.22c-1.89-1.75-7.3-1.38-9.79-1.77-8.45-1.31-12.65-4.68-19.78-6.81-2.02-.6-2.8-.05-1.2,1.59,1.89,1.94,11.21,5.32,14.16,6.17,4.57,1.3,9.42,1.73,14.14,2.28l.59.59.29,91.47c-.53,10.79.02,21.61-.22,32.42-.06,2.88-1.89,7.15,1.35,9.07.49-.16,1.15-.41,1.32-.94.07-.22.51-4.31.49-4.63-.27-4.3-.37-8.06-.41-12.53-.39-37.3-.48-75.18-.44-112.19,0-1.13.5-2.19.46-3.14,0-.09-.89-1.53-.96-1.59ZM17.97,238.99c-.28-.25-1.46.47-1.74.8-1.06,1.27-.48,8.7-.23,10.75.15,1.22,1.08,2.14,1.67.86.67-1.46.93-11.84.29-12.41ZM505.81,251.89l1.19-.17c.38-2.28,1.48-9.89.33-11.71-.32-.51-1.09-.97-1.71-1.02-1,.02-.47,12.48.2,12.91ZM19.06,258.24c-6.55-1.94-7.36,8.29-1.33,7.62,3.25-.36,2.65-5.66,1.33-7.62ZM504.33,258.24c-1.32,1.96-1.93,7.26,1.33,7.62,6.03.67,5.22-9.56-1.33-7.62ZM19.06,272.32c-1.83-2.53-5.85,2.39-2.66,4.36,2.28,1.4,3.95-2.57,2.66-4.36ZM507.22,272.36c-2.53-2.68-4.71,2.67-2.31,4.19,2.21,1.4,4.54-1.83,2.31-4.19ZM15.93,360.28c-.44-.45-1.74-.59-2.37-.42-1.13.31-.66,1.22-.79,1.42s-.87.25-1.02.71c-.87,2.71,4.36,6.39,5.28,1.71.1-.52-.83-3.16-1.1-3.43ZM510.62,361.28c-.13-.2.34-1.11-.79-1.42-.63-.17-1.92-.03-2.37.42-.15.15-1.19,2.91-1.17,3.17.31,3.98,5.59,2.74,5.38-1.14-.05-.86-.88-.76-1.05-1.03ZM16.71,372.41c-1.8-1.68-6.36.44-7.23,2.55-1.07,2.61.44,6.67,3.32,7.42,3.78.98,6.07-2.16,5.56-5.53-.09-.57-1.36-4.17-1.65-4.44ZM511.54,372.44c-1.06-.52-3.68-.8-4.69-.16-.51.32-1.74,4.12-1.82,4.92-.13,1.28.83,4.39,2.04,4.99,4.15,2.07,8.56-3.06,6.85-7.24-.15-.36-2.15-2.4-2.37-2.51ZM16.32,389.19c-5.25.69-1.85,8.18,1.86,5.02,1.09-.93,1.46-3.03.62-4.12-.57-.74-1.59-1.02-2.48-.9ZM506.09,389.19c-3.2.58-2.15,6.39,1.38,5.74,3.67-.67,2.69-6.48-1.38-5.74ZM425.28,473.96s.37-.03.41-.58c.17-2.32-1.04-8.35,2.72-7.41-.22,11.36-.26,22.64-.4,33.99-.12,9.43-.16,17.13.39,26.6.39,6.66-2.01,11.89-1.95,17.21.01,1.07.72,1.99.79,3.12.32,5.1.21,10.49.33,15.59.79,31.67.63,63.73-.09,95.38-.11,4.92-.77,9.82-.23,14.72,1.54-.15,3.01.54,4.19,1.48,3,2.38,9.72,14.58,10.15,18.39.4,3.53-.33,5.16-2.83,7.52-.33.31-.98.26-1.38.66-.45.45-1.02,2.01-1.12,2.69-.48,3.36-.18,9.69-.04,13.28.05,1.48.14,3.05.6,4.47,8.23-5.69,16.63-11.44,23.16-19.06l.86-24.15.02-20.52c3.19-.14,3.23,5.46,3.51,8.02.81,7.26.92,15.7,1.19,23.05.1,2.54-.11,5.1-.01,7.64,3.48-3.36,6.2-7.59,8.92-11.61l.14-20.98.9-6.91c.33-.73,2.22.23,2.45.5,1.59,1.95-.51,18.34.11,21.79l2.23-3.38c.1-9.28-.05-18.75.09-28.1.1-6.24-.26-13.37.59-19.46.79-5.72,4.71-5.66,5.59-9.16,1.23-4.87-3.9-14.94-5.92-19.51-2.66-5.99-.43-15.42-.23-22.21.57-18.33-1.69-39.66-.03-57.51.17-1.85,1.03-3.2,1.21-5.05.26-2.75.09-8.05,0-10.95-.04-1.31-1.05-2.92-1.05-4.38,0-1.09.62-2.19.66-3.44.32-10.9-1.32-22.68-.7-33.24.18-3.06.96-6.85,2.28-1.41,2.01.38,3.57-1.49,3.85-3.32,1.02-6.63-2.67-10.22-3.38-16.11-.47-3.88.87-9.25-2.24-12.22-4.33-4.13-11.18,2.37-15.46,4.12-2.21.9-5.03,1.54-7.41,1.39l-.4,3.11c3.41-.99,7.42.23,10.73-.41,1.03-.2,2.05-.85,3.2-1.13,1.52-.36,3.86-.07,4.79-1.43.67-.97.43-2.81,2.39-2.5.38,3.06-1,5.14-3.9,6.06-1.83.58-6.32,1.8-8.13,2.03-2.56.33-7.47-.18-9.57,1.28-2.9,2.01-6.14,3.04-9.88,3.14-4.34.11-7.54-2.77-11.01-5.01-1.16-.75-1.16-1.56.17-1.96,2.83-.85,5.11,2.62,7.65,3.53,3.41,1.21,5.98.28,9.21-.92l-.39-4.58c-3.3-.07-6.14,1.01-9.51.72-3.52-.31-11.23-4.79-13.99-3.13-1.31.79-1.51,5.85-1.92,7.51-.8,3.23-2.77,6.2-3.64,9.3-1.49,5.26-4.36,17.01-3.67,22.06.35,2.61,2.52,5.32,5.05,6.09.08-1.55-.1-3.14,0-4.69l-1.04.7c-1.38-.24-2.61-.99-2.85-2.49-.24-1.52.32-13.44,1.73-13.46,2.04,3.39.14,7.28.63,11.09.22,1.71,1.07,2.62,1.52,4.15ZM65.66,529.48c-1.99.63-5.21-.43-7.24-1.16-4.98-1.78-12.7-9-16.78-2.73-1.82,2.79-.69,7.73-1.04,11.08-.62,5.93-8.01,17.08.83,19.79l.4-3.13c1.98-.18,1.72,2.2,1.84,3.83.45,5.77-.26,11.74-.3,17.47-.06,9.23.74,18.43.44,27.38-.08,2.45-.69,4.83-.44,7.44.2,2.13,1.36,3.16,1.58,5.07,1.27,11.06-.61,24.66.37,35.99,1.07,7.58.04,15.46.39,23.07.16,3.55.2,5.89,2.04,8.9,6.78,11.08,20.18,25.48,30.91,32.81.4.28,2.38,1.76,2.63,1.47l-1.2-16.23c1.01-12.17-1.16-24.45.43-36.55l1.09.48c2.29,18.03,1.38,36.35,3.21,54.45.99,2.58,8.48,4.73,10.56,7.04,2.47.51,3.68-.18,3.91-2.71.45-4.95-.29-12.81-.4-18.01-.45-20.67-.85-41.39-.56-62.16.02-1.63.72-3.34.75-4.69.1-5.15-2.31-11.42-2.14-17.99.36-13.58.11-27.05-.38-40.69-.2-5.61-1.39-13.44-.81-18.76.06-.59.04-.98.6-1.34l1.76,1.06,1.36,12.22c8.34-5.1,3.49-15.79,1.56-23.06-.58-2.17-.61-4.35-1.26-6.56-.85-2.91-3.01-5.7-3.75-8.37-.96-3.45.73-7.84-4.65-7.27-4.21.44-8.14,3.72-12.61,3.85-3.18.09-6.86-1.34-9.97-1.98l.18,5.1c3.94,1.96,8.05,3.05,12.06.69,1.94-1.14,3.1-3.51,5.91-3.06.64.1,1.74.83,1.21,1.58-6.08,4.2-9.17,6.95-17.1,4.95-2.43-.61-4.37-2.53-6.46-2.92-2.85-.53-6.56.05-9.27-.51-1.74-.36-4.15-1.15-6.18-1.63-2.77-.65-5.24-3.17-4.19-6.16,1.95-.07,1.51,1.35,2.17,2.33,1.11,1.65,2.91.96,4.5,1.37s2.98,1.24,4.47,1.39c3.05.31,6.73-.9,9.97,0l-.39-3.12ZM405.97,542.54c-13.91-10.75-33.63-17.18-51.18-14.2-20.79,3.53-45.11,20.22-54.73,39.12-1.46,2.87-2.63,7.57-5.2,9.26-1.89,1.24-4.12,1.38-6,2.99-3.64,3.11-2.79,7.43-3.68,11.56s-4.54,9.06-4.83,12.8c-.18,2.43.73,6.2-.14,8.83-.18.54-1.04.5-1.14.9-.19.78.4,1.78.38,2.63-.04,1.73-2.03,6.35-2.88,8.07-2.41,4.88-9.49,11.01-4.4,16.12,1.46.59,3.68-2.11,5.52-2.05,1.72.06,3.58,1.77,4.92,2.72.49-1.97,1.88-4.01,1.97-6.08.08-1.88-1.01-3.39-1.07-4.73s3.87-11.06,5.36-9.51c-.42,2.71-2.32,6.13-2.36,8.82-.03,2.41,1.57,4.19,1.01,7.23-1.33,7.22-6.22,8.71-9.37,14.08-2.06,3.51-3.03,10.86-2.4,14.78.07.41-.18.82-.17,1.22l3.55-1.78c1.8.83,2.51,3.25,4.55,3.67,1.64.34,3.3-.97,4.96-.72.94.15,1.8,1.24,2.7,1.63,2.49,1.08,4.64,1.71,7.4,1.6,3.31,1.86,11.26,9.41,14.56,9.68,1.92.16,3.37-.57,5.43.04,1.31.38,2.28,1.67,3.75,1.52.3-.27,1.98-6.44,2.78-7.58,1.09-1.55,1.9-.38,1.88,1.08-.04,2.59-1.52,5.17-1.92,7.67l3.46.34c2.13-3.32,2.27-7.23,4.16-10.49.82.54.52.9.48,1.64-.17,3.14-.6,6.01-1.85,8.91,1.64-.72,3.54-.45,5.24-.07,3.17-4.03,1.35-9.96,2.95-14.62,1.75-5.08,9.34-9.54,13.3-4.09,1.19-3.84,2.49-8.48,7.53-7.73,5.85.87,7.32,7,7.33,12.04,4.18-.39,7.75-.75,11.46-2.81,2.27-1.26,3.16-1.73,5.65-2.56,3.82-1.27,8.09-1.46,11.81.29l.21-12.14c-4.03-2.12-6.57-6.11-8.8-9.95l-5.87-.97c-.43,1.01.79.71.8.98.03,1.6-7.61,8.03-8.56,4.6-.8-2.89,4.38-4.71,6.38-5.21.56-.14.71.33.6-.76l-3.23-1.13c-8.19,6.54-11.71-1.33-1.46-2.79l-.41-1.55c-.75-.55-11.6,5.09-14.45,3.7-.56-.28-.85-.94-.81-1.55.09-.91,1.46-1.44,2.2-1.74,3.72-1.5,8.64-2.53,12.63-2.81,1-2.56,2.4-6.94,4-9.09,1.28-1.72,2.42.15,2.31,1.89-.32,5.29-6.82,10.87,3.5,11.54-.14-2.4-.83-4.78-1.03-7.17-1.06-12.91,10.08-24.65,11.19-37.99.22-2.67-.67-13.18.59-14.66.68-.8,1.62-.36,2.38-.03,3.17,1.38,2.74,7.63,3.98,10.48,2.14,4.91,8.11,9.71,10.06,15.36,4.54,13.16,7.48,35.46-2.28,46.78-.38.44-4.21,3.69-4.57,3.83-.91.36-1.79.21-2.72.21-.3.3.41,5.54.43,6.45s-.45,1.76-.43,2.74c.06,3.18.61,5.03,3.56,6.61,4.37,2.33,7.17,1.53,10.48-1.96,7.88-8.3,4.86-16.25,4.42-26.16-1.01-22.92,1.8-46.27,1.65-69.2-.03-4.18.03-10.39-.58-14.44-.32-2.13-3.91-3.72-5.45-5.1-4-3.58-7.26-7.72-11.49-10.99ZM14.96,568.08c2.09,2.58,6.73-.89,4.19-4-2.55-2.16-6.17,1.55-4.19,4ZM507.27,563.61c-3.67-1.56-5.38,4.46-1.48,5.22,2.08.4,3.69-1.46,3.08-3.49-.03-.11-1.5-1.68-1.61-1.73ZM18.76,613.34v-34.8c0-.55-1.94-1.09-2.29.06-.41,1.34-.43,5.03-.47,6.61-.2,9.25.93,18.79.42,28.13.08,1.61,2.08.91,2.34,0ZM504.63,578.55v34.8c0,.44,1.98,1.93,2.34,0-.52-9.34.62-18.88.42-28.13-.03-1.58-.06-5.26-.47-6.61-.31-1-2.06-.81-2.29-.06ZM398.31,582.65v10.75c0,2.62-3.01,11.76-4.02,14.74-3.69,10.92-9.2,18.43-3.62,30.43,1.45,3.12,4.01,7.4,6.46,9.76.56-5.34-2.23-10.91-1.53-16.19.4-3.02,1.8-5.71,4.87-2.99,1.33,1.18,1.39,2.52,1.68,4.18.89,5.09.51,11.02.97,16.21.02.24-.42,1.12.44.73.23-.1,3.4-2.94,3.72-3.32,11.65-13.91,4.03-43.17-6.21-56.35l-2.78-7.97ZM31.84,620.01c-2.62-4.23-4.54-8.79-6.33-13.42-.19-.49-.23-1.15-.89-1.26.17,1.49.4,2.97.41,4.49.05,12-1.08,21.22,2.6,32.96,2.1,6.69,6.25,17.07,9.82,23.02.25.42.87,1.96,1.43,1.69,1.58-.76,1.94-12.59,1.94-14.66-.02-7.98-.4-18.24-3.54-25.57-.74-1.73-4.22-5.28-5.44-7.25ZM19.83,624.98c-3.12-1.69-6.55.21-5.34,3.95,1.84,5.68,8.21,1.15,5.34-3.95ZM508.01,630.61c2.44-2.48,1.08-6.55-2.81-6.32-2.44.14-2.73,4.26-1.77,5.9.96,1.64,3.32,1.7,4.58.42ZM20.3,642.1c-1.51-.22-2.59.96-2.65,2.42,5.17,21.79,16.16,42.21,30.84,59.02,7.03,8.05,22.47,22.46,32.74,25.23,2.32.62,4.15-.91,2.41-2.42-.79-.69-5.42-2.41-6.9-3.27-23.81-13.81-48.19-47.8-55.05-74.35-.58-2.23-.46-4.51-1.39-6.63ZM504.9,642.59c-.49-.41-1.18-.59-1.81-.49-.93,2.12-.81,4.39-1.39,6.63-6.86,26.55-31.24,60.54-55.05,74.35-1.48.86-6.11,2.58-6.9,3.27-.95.83-.77,2.02.28,2.54.8.39,1.35.1,2.12-.11,10.9-2.93,27-18.42,34.32-27.08,13.93-16.48,24.26-36.11,29.26-57.17.08-.57-.45-1.61-.84-1.93ZM114.82,655.87c-2.21-2.04-4.48,1.15-6.15,1.99-1.48.75-4.18,1.38-5.87,1.43l2.34,64.51h1.56s.78-30.7.78-30.7c0-1.55,1.25-2.06,1.99-.42.51,1.11.43,3.38.53,4.72.42,5.61.21,11.44.09,16.98-.06,2.84-.49,5.75-.26,8.63l1.97-.65v-11.86s1.88.64,1.88.64l.84,11.09c4.51-.7,8.75-2.46,13.21-3.4,5.99-1.26,12.59-2.16,18.69-3.2.77-.13,3.41.34,3.11-.83-1.18-1.9-.4-4.47-.61-6.64,3.56-.36,2.25,4.76,1.96,7.04l2.32-.41v-15.99c-2.86.16-4.27-2.12-5.82-4.12-4.29.05-3.96,3.91-5.2,6.94-1.67,4.11-4.85,8.05-9.41,8.76-4.57.72-12.9.22-11.99-6.13,1.9,0,3.23,2.04,4.9,2.32,6.45,1.08,10.33-2.15,13.14-7.53,1.6-3.06,1.51-6.7,5.64-7.68,5.94-1.41,5.9,4.55,11.2,3.42,8.01-1.7,3.07-12.98,1.41-17.85-2.04.27-4.4-.03-6.31-.92-1.46-.68-5.09-4.53-6.27-4.51-2.43.04-4.63,4.22-6.34,5.76-1.66,1.5-2.11,1.33-4.02,1.72-.08.02-.05.52-.26.55-7.34.86-13.18-4.99-15.46-11.43-.71-1.99-2.73-11.43-3.6-12.23ZM10.94,659.68c-1.24.14-1.82.48-1.97,1.74-.5,4.17-.29,13.23.04,17.58.1,1.29,1.27,2.27,2.22,1.31,1.53-1.54.17-5.18.11-7.14s.31-12.99-.4-13.48ZM513.91,680.31l.49-19.27c-.12-.91-1.11-1.32-1.95-1.37-.71.5-.33,11.59-.4,13.48-.05,1.58-1.77,7.42.98,7.46l.88-.31ZM365.01,671.33c-.03-2.54-.71-7.99-3.05-9.11-4.64-2.22-6.15,3.72-6.92,7.15-1.49,6.58-1.45,13.21-4.65,19.59-2.45,4.9-8.78,8.98-14.4,8.23-1.95-.26-5.38-2.2-7.25-1.34-.46.21-.86,1.02-1.42,1.31-1.79.94-4.12.29-6.01-.15s-5.88-1.95-7.7-2.86c-1.49-.75-5.05-3.76-6.48-3.53-.59.09-1.12.67-2.05.74-2.61.22-3.82-2.06-5.78-3.23-4.1-2.44-6.82-2.14-10.93-3.14-1.29-.31-2.84-1.56-4.2-2.05-.97-.35-7.4-2.71-7.75-2.51-.27.16-1.38,2.75-3.19,2.31,1.11,3.07,3.14,6.46,2.91,9.83-.07.98-2.37,7.67-2.89,8.25-.91,1.03-3.35,1.44-4.27,2.88-.36.57-1.83,4.98-1.61,5.22l1.95.4c.06-5.82,3.94-6.26,2.74,0,2.63.31,5.33-.09,8.03,0,23.39.79,46.96,3.02,70.3,4.35,3.04.17,6.27.98,9.37.69l.47-.31c.68-2.26-.21-4.66-.24-6.85-.05-3.31,1.22-12.03-.19-14.27-.72-1.15-2.84-2.37-3.21-3.83-.93-3.67.68-8.98,2.24-12.32l6.19-5.45ZM338.11,694.08c11.13-2.23,12.32-14.76,13.67-24.1-.75-3.04-3.94-3.8-6.52-2.18-3.52,2.21-3.16,9.71-4.13,13.46-.63,2.44-2.61,5.73-2.94,7.64-.26,1.46.54,3.56-.07,5.17ZM419.02,723.99c.48-1.62,0-9.7,0-12.12,0-.22.76-1.73.97-1.75.35.32.86.4,1.15.8,1.39,1.88.3,11.51.61,14.44l3.51.79,1.18-26.2c2.26-.63,2.23,2.36,2.36,4.09.5,6.93-.5,14.34-.01,21.32l4.17-2.52c-.43-3.75.25-7.55.14-11.38-.1-3.53-1.53-9.82.21-13.05.89-1.65,3.98-3.22,3.96-5.23,0-1.28-2.56-6.93-3.29-8.38s-2.81-5.02-3.77-6.41c-1.54-2.22-4.17-2.59-6.84-2.85-5.27-.49-11.11,1.75-16.35-1.33l-4.03-2.41c.04,1.12-.39,2.84-1.68,2.75-.53.02-.34.48-.09.77.6.71,7.32,3.53,8.59,3.92,1.66.5,3.34.97,5.11.78,1.36-.15,8.08-4.41,6.66.01-.62,1.94-4.3,3.87-6.28,3.92-5.98.14-14.36-4.12-19.33-7.29-.74-.47-1.21-1.42-2.08-1.83-4.23-1.96-14.78,2.3-19.24,3.61l-.59-.97c5.47-4.22,14.32-8.44,21.31-6.47.91-.63.1-1.75.58-2.7-7.05-2.95-12.3,1.77-18.47,3.6-2.76.82-7.08,1.01-9.42,2.3-2.08,1.15-7.79,7.47-7.59,9.84.11,1.33,2.49,6.3,3.55,7.19.82.7,2.19.05,2.99-.5,1.69-1.15,4.38-4.53,6.17-6.06.29-.25.89-.28,1.28-.37.04-.63.18-.88-.58-.78-1.36.18-5.95,3.62-6.77.9-.56-1.83,1.41-2.63,2.8-3.3,2.89-1.41,5.64-1.81,5.34,2.41,2.66-1.75,5.23-2.06,8.28-1.05,3.99,1.31,6.24,4.12,8.45,7.57.93,1.45,2.64,5.76,3.7,6.66,2.02,1.71,8.69-.05,9.11,3.25.31,2.44-5.48,2.51-7.04,2.3-2.6-.35-5.7-3.22-7.26-5.24-2.15-2.78-4.35-9.44-8.05-9.93-5.39-.73-7.46,4.99-11.15,7.54-1.87,1.29-4.82,2.47-6.99,1.41l-.41,8.03.78,10.94,2.36.18-.39-16.42,2.34.68.93,15.56.48.5,47.67,9.06c.34.05.87-.33.95-.58ZM283.78,675.12v5.67c5.02,1.12,10.98,2.65,15.59,4.93,1.13.56,3.91,2.67,4.63,2.82,1.64.34,2.01-.74,3.17-.91,1.86-.27,8.04,3.68,10.34,4.57,1.46.56,7.42,2.5,8.56,1.88.95-.52.59-2.05,2.84-1.98,2.58.08,4.13,2.72,6.86,2.37.45-2.51-.84-5.15,0-7.42-.5-.37-6.13.85-7.54.7-3.3-.37-8.01-3.07-10.67-3.42-1.35-.18-2.81.42-4.26.28-2.68-.26-3.72-1.26-5.7-2.81-1.72-1.35-7.02-6.26-8.67-6.95-1.15-.48-2.28-.16-3.44-.47-1.62-.43-6.21-2.5-7.24-2.56-.89-.06-1.67.7-2.7.8-3.06.3-4.74-1.64-6.28-3.96-1.21.7-4.42,1.59-5.05,2.77-.94,1.77-.63,5.46-.2,7.42.48-.56,2.3-1.57,2.54-1.96.66-1.09-.44-3.64,1.17-4.68,1.95.83.48,6.1,1.22,6.68.22.17,1.97.86,2.1.74.37-1.73.28-3.88,1.77-5.08l.97.58ZM10.4,810.06c.88-1.97.14-3.57.18-5.52.44-22.23.89-44.59,1.16-66.85.07-5.98-.1-12.01-.03-18.03.1-8.11,1.37-19.13.36-26.91-.07-.54-.4-2.07-.96-2.19-.72.11-1.84.72-2.05,1.43-.27.91-.41,5.16-.46,6.55-1.43,36.15-.07,72.55-1.16,108.73-.05,1.71-1.36,3.34,1.41,3.7.55.07,1.35-.47,1.55-.92ZM513.72,810.87c.66.23,1.16.11,1.76-.18,1.6-.77.49-2.07.47-3.41-.51-36.1.27-72.62-1.16-108.73-.05-1.38-.19-5.64-.46-6.55-.21-.71-1.33-1.32-2.05-1.43-.56.12-.89,1.65-.96,2.19-.61,4.73-.09,12.09-.05,17.12.26,31.38.92,63.19,1.55,94.66.03,1.45-.86,5.69.9,6.32ZM435.83,826.23c.74.75,5.86-5.11,6.28-6.03,1.85-4.11,1.6-10.22,2.5-14.7,2.81-13.99,11.8-28.45,15.57-42.29,2.9-10.63.8-15.14-8.2-20.58-13.75-8.31-33.12-12.87-48.91-15.59-16.54-2.86-33.19-5.72-49.92-7.54-48.07-5.21-98.74-5.74-146.99-3.51-5.72.26-12.27.16-17.96.77-2.02.22-3.89,1.62-5.89,1.92-5.6.84-12.87.36-18.73.82-26.55,2.06-57.2,7.54-82,17.29-4.13,1.62-16.11,7.45-18.66,10.66-5.16,6.51-1.58,15.99.99,22.86,4.25,11.37,11.27,24.91,13.37,36.67.72,4.04.59,10.31,2.49,13.85.33.61,3.59,4.29,4.25,3.83,1.9-8.94,10.71-10.25,17.62-13.86l17.19-5.29c.37,4.4-.53,8.74-.77,13.1-.2,3.63.28,11.96-1.15,14.88-.17.35-.21.77-.64.94-.6.13-3.84-2.12-5.08-2.31-11.54-1.79-29.74,3.01-35.04-10.7-1.76-4.57-1.57-9.33-2.38-14.04-.97-5.59-3-9.56-4.88-14.67-1.98-5.38-3.93-10.76-5.99-16.1-12.79.69-25.82,2.42-37.47,7.97,3.57,5.03,5.56,10.57,5.87,16.8.54,10.78-4.24,20.87-5.47,31.31-.54,4.54-.23,8.61.77,13.08,9.58-3.25,19.56-6.79,29.9-7.06s21.91,1.15,32.45,1.97c8.07.62,27.49,2.21,31.53-6.77,3.44-7.64-2.85-26.53,7.14-30,49.9-8.49,99.65-9.12,150.12-7.01,34.64,1.45,68.43,1.64,103.01,6.05,4.61.59,9.76,1.57,14.17,2.64,2.32.56,3.74,1.52,5.07,3.53.77,8.1.41,17.24,2.66,25.1.9,3.16,2.85,3.97,5.85,5.1,7.85,2.94,16.28,1.98,24.41,1.36,23.07-1.76,36.23-3.68,58.84,3.72.94.31,1.89,1.44,3.11,1.37,4.97-18.25-8.72-34.17-3.01-52.86.99-3.25,3.28-5.84,4.19-8.91-5.34-1.47-10.51-3.78-15.94-4.98-6.95-1.53-14.29-1.74-21.35-2.48-2.07,5.2-3.84,10.53-5.79,15.78-1,2.69-2.54,5.18-3.41,7.93-1.59,5.06-1.63,9.73-2.47,14.74-3.75,22.43-21.1,14.11-36.86,17.31-1.22.25-2.22.78-3.29,1.36-2.92-8.54-3.51-17.64-4.3-26.58,7.19,1.03,14.35,3.6,20.98,6.57,4.85,2.18,14.68,5.82,12.24,12.58ZM244.59,804.24c.2-.18.2-.68.48-.89-.36-.49-.96-.67-1.53-.8-1.71-.4-6.34-.5-8.41-.58-13.02-.5-27.82-.63-40.77-.28-6.05.17-12.14.85-18.16,1.48-2.21,2.61-.73,3.63,2.26,3.52,5.31-.19,10.68-.88,15.99-1.21,15.36-1.02,33.44,1.57,48.49-.77.54-.08,1.24-.08,1.66-.47ZM166.41,808.53c.67-.59,1.43-3.38.1-4.02-.29-.14-5.55.16-6.44.22-7.52.54-15.34,2.81-22.97,3.22-3.93.32-5.99,4.87-.48,4.6s12.5-2.06,18.36-2.75c2.16-.25,10.17-.16,11.43-1.28ZM339.26,805.16c-.33-.51-10.32-.99-11.49-.8s-2.5,1.1-2.2,2.48c.22,1.02,8.6,1.5,9.99,1.4,2.3-.17,3.99-.48,3.7-3.08ZM393.93,810.27c-1.79-.08-3.57-.93-5.25-1.2-10.95-1.77-23.69-3.31-34.74-3.96-1.9-.11-7.55-1.89-7.62,1.41-.04,1.91,2.17,1.86,3.76,2.07,11.92,1.57,24.56,2.14,36.64,3.62,1.09.13,5.72,1.22,6.12.94.23-.16.27-.67.45-.92l.71.33-.07-2.28ZM95.37,820.36c4.15-1.24,8.21-2.73,12.42-3.8,2.03-.52,7.57-1.13,8.79-1.76,1.29-.67.77-1.9-.64-1.85-3.8.15-12.69,2.87-16.58,4.18-1.66.56-4.47.98-4,3.23ZM405.24,813c-1.25.34-1.22,1.25.02,1.79,2.02.89,7.28,1.45,9.95,2.17,3.11.85,7.19,2.72,10.06,3.24,1.8.33,1.29-1.06-.1-1.86-2.99-1.73-11.11-3.68-14.72-4.43-.91-.19-4.69-1.04-5.2-.9ZM11.72,828.77c-.25-2.48.18-5.3,0-7.82l-.91-.53c-2.2.61-2.46,1.94-2.6,4.06-.47,6.93,1.84,15.4,5.92,21.04,1.17,1.62,2.32,3.17,4.44,3.24,3.26-.48-2.64-7.22-3.23-8.37-1.37-2.68-3.33-8.68-3.63-11.62ZM511.66,820.95v7.82c0,2.16-2.54,9.49-3.63,11.62-.59,1.15-6.48,7.89-3.23,8.37,2.13-.07,3.27-1.63,4.44-3.24,4.08-5.64,6.39-14.1,5.92-21.04-.14-2.11-.4-3.45-2.6-4.06l-.91.53ZM93.03,820.76c-2.37-.85-4.25,4.23-2.14,4.69.9.2,2.5-4.33,2.14-4.69ZM429.97,825.45c3.28.01,1.09-5.36-1.57-4.69-.27,1.82,1.67,2.85,1.57,4.69ZM493.68,853.99c-2.08-.32-3.66.97-5.65,1.36-2.58.5-9.72.28-11.29,2.13-1.66,1.95,4.19,1.68,5.38,1.6,3.21-.2,11.56-1,11.56-5.09ZM39.2,858.95c.67.56,2.29.84,3.19.92,7.5.63,20.55.39,28.16-.41,2.4-.25,4.34-2.41,1.58-2.75-10.82-1.33-22,.4-32.87-.61l-.96,1.2c0,.31.64,1.44.9,1.65ZM99.22,860.19c1.24-2.63-.17-2.71-2.36-3.18-2.03-.44-8.28-1.06-10.29-1-1.62.05-4.16,1.25-2.11,2.87,2.14,1.7,11.62.81,14.77,1.31ZM466.71,858.29c-3.61-.95-7.2-.38-10.71-.46-17.37-.39-34.9.22-52.42.24-88.07.06-175.72-.57-263.82-.16-10.33.05-20.66.19-30.9-.8l.2,1.17c-2.6.17-1.88,2.6-.61,3.96.55.58,3.68-.41,4.7-.45,15.62-.65,31.42.31,47.01.31,91.17,0,182.12-1.02,273.16-.7,10.62.04,21.32.89,31.94,0,.97-.82,1.5-1.76,1.46-3.11Z"/>
          <path class="cls-2" d="M76.08,522.3c-1.32,1.32-5.27,3.14-5.35.37-.01-.33,3.77-1.53,5.05-3.99,5.72-11.01-5.8-24.66-8.56-34.94l-.39,2.73c-2.36-2.28-.87-6.1.39-8.6-3.27.91-3.59,6.77-3.04,9.49.65,3.19,2.82,3.13,1.77,7.81-1.67,7.39-6.9,8.55-5.76,18.47.46,4,3.48,5.17,5.77,7.5.99,1,.28,1.92-.69,1.49-8.1-3.6-9.03-13.76-5.28-20.93,1.62-3.11,5.1-6.14,4.34-10.18-.22-1.15-1.13-2.16-1.38-3.33-.84-4.09.13-10.93,4.87-12.19,1.63.92.78,3.1,1.02,4.74,1.53,10.3,10.42,18.52,10.91,29.75.16,3.65-1,9.13-3.67,11.8Z"/>
          <path class="cls-2" d="M454.98,370.35c-1.69-.03-1.86-2.41-1.96-3.7-.44-5.23-.18-15.84.41-21.12.06-.59.41-2.41.98-2.54,1.43-.33,1.7,3.87,1.77,4.87.19,2.65-.02,21.64-1.19,22.5Z"/>
          <path class="cls-2" d="M469.7,363.79c2.76-.27,1.68,3.31.86,4.75-1.14,1.99-5.51,7.37-7.17,9.25-.87.98-3.77,4.39-4.45,1.67-.41-1.63,8.64-15.46,10.76-15.67Z"/>
          <path class="cls-2" d="M466.8,405.06c-.39-.39-.7-2.18-.43-2.6,3.25-1.37,10.44-2.06,13.26.13,1,.78,1.81,1.95.56,2.95-2.58-2.1-11.37,1.55-13.38-.49Z"/>
          <path class="cls-2" d="M465.24,392.34c1.66-1.13,11.31-3.29,11.55-.3.17,2.16-10.2,5.13-11.61,2.69l.06-2.39Z"/>
          <path class="cls-2" d="M442.09,393.03c-2.64.85-10.18-1.75-11.12-4.28-.39-1.04.32-2.62,1.84-2.3.93.2,6.83,2.93,7.83,3.53.93.55,1.61,1.98,1.45,3.05Z"/>
          <path class="cls-2" d="M448.73,371.14c-2.13.56-3.39-2.03-4.36-3.65-.86-1.42-3.58-6.19-1.91-7.53,2-1.61,4.31,4.76,4.72,5.89.23.64,1.75,5.1,1.55,5.29Z"/>
          <path class="cls-2" d="M471.3,379.05c1.28,1.23-1.47,3.81-2.45,4.59s-4.12,2.88-5.07,1.97c-2.07-1.8,3.71-6.82,5.11-7.04.65-.1,1.94.03,2.41.48Z"/>
          <path class="cls-2" d="M76.61,490.39c2.92-.59,5.46-2.25,8.44-2.7,2.82-.42,7.38-.34,2.91,2.52-3.21-.07-7.03,2.09-10.08,2.03-.96-.02-1.42-1.02-1.28-1.85Z"/>
          <path class="cls-2" d="M44.45,477.16c2.22-.67,7.59,4.78,10.08,5.41,1.41.8,1.45,3.25-.6,2.57-1.53-.51-7.51-4.38-8.94-5.54-.57-.47-1.09-.99-1.59-1.53.32-.32.59-.77,1.06-.91Z"/>
          <path class="cls-2" d="M67.07,457.96l1.53.35c1.39,1.39.27,12.12-1.18,12.12-2.9-2.93-.37-7.79-.98-11.52l.63-.95Z"/>
          <path class="cls-2" d="M63.32,506.02c-1.02-3.85,2.27-5.65,3.15-8.78.44-1.58.27-2.44.37-3.94.12-1.8.98-.96,1.46.11,1.9,4.25-2.23,8.48-3.62,12.2l-1.35.4Z"/>
          <path class="cls-2" d="M456.16,397.73c-1.4,5.75,4.61,8.33,3.52,13.68-.69.15-.77-.2-1.11-.65-1.34-1.77-3.91-6.57-4.2-8.72-.19-1.43-.15-4.13,1.79-4.31Z"/>
          <path class="cls-2" d="M442.62,370.21c.84.73,4.83,4.22,3.32,5.18-2.01,1.29-8.92-4.3-6.01-6.97,1.48.3,1.83,1.03,2.69,1.79Z"/>
          <path class="cls-2" d="M41.33,509.23c.85-.28,8.83,1.76,9.64,2.3.55.37.74.63.62,1.33-.54.78-1.3.63-2.1.56-1.19-.11-9.09-2.27-9.23-2.91-.12-.51.62-1.13,1.07-1.28Z"/>
          <path class="cls-2" d="M440.06,408.61c-1.5,0-3.25.68-4.72.38s-4.25-2.62-2.17-3.57c1.93-.88,8.51.13,6.88,3.19Z"/>
          <path class="cls-2" d="M93.42,512.67c-.47.39-8.1-.18-9.16-.41-1.85-.42-2.57-2.09-.44-2.34,1.95-.23,7.41.48,8.95,1.65.44.34.8.41.65,1.11Z"/>
          <path class="cls-2" d="M76.9,471.69c.56-.1,1.07-.21,1.49.3,1.4,1.98-4.8,5.72-5.9,4.76-2.27-1.83,3-4.81,4.41-5.06Z"/>
          <path class="cls-2" d="M72.56,465.41c3.56-1.2.75,6.68-1.63,6.91-2.47-.92.38-6.49,1.63-6.91Z"/>
          <path class="cls-2" d="M439.74,398.9c-2.03-.66-4.46.03-6.35-.87s-1.53-3.08.11-2.89c2.14.26,6.73.91,6.25,3.76Z"/>
          <path class="cls-2" d="M53.15,506.81c.15.22.05,1.17-.38,1.37-2.37.63-5.11,0-6.65-1.96,0-2.03,6.81.28,7.03.6Z"/>
          <path class="cls-2" d="M54.22,498.31c.23.19.63,1.27.5,1.46-1.7,1.48-8.15-.82-5.69-2.77.65-.52,4.59.8,5.19,1.31Z"/>
          <path class="cls-2" d="M79.35,478.65c-2.11.35-4.37,3.15-6.25.97-.36-1.58,6-4.16,6.25-.97Z"/>
          <path class="cls-2" d="M84.82,494.3c1.06,1.56-5.11,4.16-5.83,2.1-1.18-2.47,5.6-2.44,5.83-2.1Z"/>
          <path class="cls-2" d="M56.27,479.82c-.46.59-3.31-.93-3.89-1.36-1.2-.87-1.53-2.3.22-2.55s4.6,2.71,3.68,3.91Z"/>
          <path class="cls-2" d="M64.1,513.45c-1.93.14-2.39-1.72-2.38-3.32.01-1.12.33-2.92,1.62-1.97l.76,5.3Z"/>
          <path class="cls-2" d="M83.65,514.24c.36-.38,5.33,1.26,5.08,2.53-.56.87-.85.38-1.48.34-1.87-.14-3.93-.52-3.59-2.87Z"/>
          <path class="cls-2" d="M80.97,500.5c-1.64-2.66,4.32-2.05,4.63-.53.29,1.39-4.12,1.37-4.63.53Z"/>
          <path class="cls-2" d="M461.24,413.36c.65,2.2.68,4.79-1.95,5.47l.45-4.83,1.5-.65Z"/>
          <path class="cls-2" d="M88.73,742.95c-.88-.98,3.29-3.9,4.02-4.38,12.2-3.56,24.25-7.76,36.61-10.69,8.54-2.02,17.89-4,26.6-3.9.76.44.7,2.31.36,3.09-1.07,1.52-4.07.82-5.65,1.03-21.03,2.75-41.37,10.14-61.96,14.85Z"/>
          <path class="cls-2" d="M219.97,792.12c-.85.71-11.06,1.53-13,1.65-4.95.32-10.34.04-15.24.4-7.21.53-13.97,2.16-21.51,2.18-.35,0-1.72-.14-1.77-.43-.33-1.81,1.6-2.11,3.04-2.43,10.93-2.46,24.21-2.81,35.47-3.62,3.01-.22,10.17-1.68,12.82-.31.98.51.79,2.05.18,2.56Z"/>
          <path class="cls-2" d="M95.74,835.64l.02,1.14c-8.41.75-16.56-1.96-24.82-2.73-6.21-.58-16.13-.46-22.24.43-1.51.22-9.8,2.52-10.4,1.92l.47-2.66c18.69-6.07,38.17-.86,56.96,1.91Z"/>
          <path class="cls-2" d="M397.14,801.98c-1.24-1.57,5.48-1.21,6.05-1.16,5.29.4,20.34,4.53,25.23,6.82,1.06.5,5.29,3.03,6.06,3.71,1.02.9,1.54,3.86-.1,4.27-1.76.28-2.16-1.55-3.05-2.29-9.03-7.5-23.53-7.01-34.2-11.34Z"/>
          <path class="cls-2" d="M94.2,809.8c.07-1.56,1.89-2.68,3.2-3.24,4.4-1.88,18.62-5.87,23.28-6.43,2.24-.27,3.52.68,1.63,2.42-1.41,1.3-13.01,3.78-15.79,4.54-1.9.52-11.26,4.21-12.33,2.71Z"/>
          <path class="cls-2" d="M492.51,839.91c-3.01.3-5.61-1.56-8.42-2.32s-9.41-1.42-11.26-2.81c-1.11-.84-1.31-1.61.06-2.2,2.5-1.08,17.41,2.89,19.25,4.8.53.55-.05,1.78.37,2.53Z"/>
          <path class="cls-2" d="M472.44,780.16c2.59-.87,9.19,1.08,11.85,2.1,2.13.81,9.38,3.58,5.35,5.99-5.49-2.87-11.53-4.32-17.45-6.01l-.71-.76c.19-.49.42-1.13.96-1.31Z"/>
          <path class="cls-2" d="M49.58,780.15l.44,1.89c-4.35,1.31-8.8,2.42-13.1,3.91-1.07.37-5.47,2.83-6.02,1.93-1.36-2.25,3.28-4.23,4.67-4.84,4.27-1.89,9.32-3.38,14-2.89Z"/>
          <path class="cls-2" d="M75.71,748.7c-1.6,1.28-4.04,2.2-5.71,3.48-1.47,1.12-2.45,2.88-4.2,3.63l-.92-.55c.94-3.66,4.21-6.77,7.3-8.71,1.84-1.16,5.49-3.97,6.21-.45-1.23.44-2.03,2.09-2.68,2.61Z"/>
          <path class="cls-2" d="M446.78,834.44c-.15-1,.62-1.01,1.3-1.24,2.31-.77,6.56-.94,9.07-1,1.42-.03,8.97.29,9.17,1.27-.93,2.4-3.87.99-5.65.96-4.62-.09-9.27.1-13.89.01Z"/>
          <path class="cls-2" d="M90.95,812.43c-.41.46-1.58.86-2.23,1.48-2.11,2.01-3.17,4.34-6.64,4.5-.75-3.12,3.18-5.62,5.59-6.72.87-.4,3.77-1.79,3.73-.18-.11.33-.22.66-.46.92Z"/>
          <path class="cls-2" d="M170.72,723.89c.35.29.53,2.28.29,2.63-1.15,1.64-9.12,1.85-7.04-1.56.67-1.1,5.79-1.89,6.75-1.07Z"/>
          <path class="cls-2" d="M378.42,799.6l-.05-1.52c2.94-.1,6.64-.83,9.52.06.93.29.81,1.5.29,2.12l-1.04.56-8.72-1.23Z"/>
          <path class="cls-2" d="M111.01,835.61c.86,2.31-5.97,2.18-6.25,1.95-.22-1.81,5.96-2.22,6.25-1.95Z"/>
          <path class="cls-2" d="M448.34,469.66l-1.67-8.3c-.43-2.13-1.34-7.73-4-8.14-.71-.11-1.03,1.12-1.17,1.57-3.84,12.91.17,31.83-1.03,45.5-.29,3.27-1.28,8.25-5.84,6.72-1.51-.51-3.24-4.78-3.47-6.3-.19-1.27,1.03-8.74,1.6-9.69.5-.82.98-.69,1.89-.65,1.01,4.7-3.37,10.28,1.37,13.68.3.08.85-2.91.93-3.37,2.18-13.98.14-30.27,1.21-44.54.18-2.44.78-6.34,3.75-6.81,3.8-.6,4.9,2.11,5.7,5.21,1.31,5.12-.19,9.88.73,15.1Z"/>
          <path class="cls-2" d="M445.02,569.75c.6-.13.88.46.97.98.28,1.55.32,5.17.39,7.01.21,5.59,0,11.26.02,16.86.03,9.39.38,20.34-.84,29.66-.36,2.73-2.78,3.78-3.11.45-.53-5.28.43-11.24.56-16.51.2-8.18.28-16.42.63-24.57.08-1.75.03-13.59,1.38-13.87Z"/>
          <path class="cls-2" d="M478.83,457.93c-2.73-2.36-2.99-7.72-7.05-8.42-1.13,1.72-2.3,4.14-4.08,5.3-2.93,1.91-4.93.37-7.31,4.42-2.87,4.89-1.98,8.23-2.76,13.27-.58,3.75-5.05,9.19-8.5,5.16-.25-1.11,2.65-1.31,3.4-1.66,3-1.44,2.72-9.13,3.42-12.22.66-2.9,2.95-7.71,5.54-9.31,1.51-.93,4.02-.96,4.83-1.43,1.52-.89,2.26-5.38,4.31-6.25,6.13-2.6,8.99,6.61,8.2,11.14Z"/>
          <path class="cls-2" d="M433.09,544.34c.6,9.02.45,18.13.4,27.19,0,1.34-.41,2.61-.42,3.88-.02,3.55.93,8.1.43,11.76-.38,2.74-3.5,2.58-3.16-.39.46-11.51-.17-23.35.39-34.83.11-2.23.39-5.11,1.01-7.2l1.35-.4Z"/>
          <path class="cls-2" d="M475.11,600.65c.7.46,1.28.62,1.66,1.46.51,1.11.8,5.41.9,6.92.35,5.56.07,11.27.21,16.82.05,1.84.99,6.76-.05,8-1.46,1.75-3.27-.13-3.61-1.83-.88-4.51-.11-9.51-.05-13.99.07-5.27-.24-10.72.33-16.05.06-.59.04-.98.6-1.34Z"/>
          <path class="cls-2" d="M429.19,456.76c-.23-2.03.33-3.88,2.55-4.14.78.13,1.27.65,1.7,1.27,2.09,3.07,1.99,14.19,1.9,18.2-.72,4.03.07,9.05-.68,13-.13.66-.49.97-.97,1.37-.72-.47-.54-1.04-.6-1.73-.63-7.39.64-14.84-.03-22.26-.08-.92-.96-5.61-1.33-6.1-.75-.99-1.5.71-2.53.38Z"/>
          <path class="cls-2" d="M478.05,493.51c-.04,2.75.67,5.68.8,8.39.19,4.04.51,11.92,0,15.67-.2,1.45-1.28,2.46-2.39,1.17-1-1.17-.81-10.29-.76-12.17.1-4.08.49-8.32.86-12.41l1.49-.66Z"/>
          <path class="cls-2" d="M474.79,637.82c.81-.26,1.69.25,2.11.92.76,1.22,1.41,10.45,1.13,12.12-.59,3.57-3.87,2.51-4.28-1.15-.18-1.62-.21-9.98.29-11.05.16-.34.37-.72.75-.84Z"/>
          <path class="cls-2" d="M432.46,655.61c-1.19-.67-1.15-2.69-1.16-3.99-.04-3.93-.09-9.43.22-13.27.04-.46.3-2.53.61-2.53.66.09,1.4.43,1.67,1.07,1.12,2.64.23,7.53.88,10.46-.44,1.87,1.36,10.29-2.21,8.26Z"/>
          <path class="cls-2" d="M430.75,526.94c.07-.42.98-2.07,1.37-2.15l.91.65c0,2.17,1.53,11.11-.32,12.07-.64.33-1.96.18-1.96-.4,0-2.78-.43-7.72,0-10.17Z"/>
          <path class="cls-2" d="M478.05,545.51c-.34,3.57.89,7.66.41,11.17-.13.97-.5,1.54-1.39,2.01l-.89-.37c-1.39-1.52-.03-10.5.7-12.81h1.16Z"/>
          <path class="cls-2" d="M475.7,477.68c.21-1,1.61-2.14,2.71-1.74.68,1.33,0,2.56.06,3.65.07,1.54.54,3.02.38,4.78-.21,2.25-3.15,2.23-3.15,1.13,0-2.02-.36-6.13,0-7.82Z"/>
          <path class="cls-2" d="M483.13,459.5c.33-2.28.44-4.07-.11-6.34-.43-1.82-2.5-4.38-.87-6.16,2.24,2.49,5.26,8.92,2.89,11.87-.58.72-.97.71-1.91.63Z"/>
          <path class="cls-2" d="M476.35,461.11c.58-.21,1.06,0,1.24.6.41,1.34.76,8.51.1,9.35-2.38,3.04-2.61-3.03-2.63-4.27s.02-5.36,1.28-5.68Z"/>
          <path class="cls-2" d="M456.55,454.8c-.53-1.77,1.76-4.53,3.23-5.17,1-.43,1.91-.22,3.01-.9,1.87-1.16,2.01-3.76,3.92-4.48.3,2.7-1.53,5.64-3.94,6.8-1.01.49-1.99.46-3.14,1.16-1.41.85-1.57,2.28-3.07,2.59Z"/>
          <path class="cls-2" d="M433.07,595.19c.3,1.69,1.07,7.92-.36,8.78l-1.34.16c-1.28-.42-.74-6.68-.52-7.9.27-1.47.82-1.12,2.22-1.04Z"/>
          <path class="cls-2" d="M445.9,541.11c-3.13,3.24-2.83-8.09-.87-8.5,1.71-.35,2.38,6.93.87,8.5Z"/>
          <path class="cls-2" d="M444.04,552.35c.15-1.19.63-2.26,1.95-2.15-.18.5.39,1.15.39,1.37v8.21c0,.76-2.35,1.15-2.35,0,0-2.26-.27-5.31,0-7.43Z"/>
          <path class="cls-2" d="M456.16,455.59c-.15,1.3-1.75,8.13-3.31,7.82-.89-.56-.37-.87-.33-1.48.13-2.28.94-6.01,3.65-6.34Z"/>
          <path class="cls-2" d="M477.15,523.68c.45-.13.9-.15,1.32.1,1.11.81-.11,4.98-1.4,5.69-.75,0-1.94-5.22.08-5.8Z"/>
          <path class="cls-2" d="M476.1,535.74c-.52-1.6-1.02-4.99,1.3-5.04,1.94.5,1.2,5.51-1.3,5.04Z"/>
          <polygon class="cls-2" points="481.17 455.2 481.13 456.52 480.2 457.15 479.61 456.18 480.59 455.2 481.17 455.2"/>
          <path class="cls-2" d="M356.71,596.11c7.23,6.65,13.86,16.68,11.88,27-.1.51-2.23,3.46-2.71,3.93-3.09,3.02-8.5,3.51-12.57,2.68-1.78-.36-3.15-1.4-4.74-1.84-1.39-.38-3.47-.01-5.08-.37-8.41-1.84-15.34-5.32-17.32-14.35-.71-3.23-.72-5.34,1.38-8.05,1.57-2.02,3.97-3.69,5.41-6.31,2.19-3.99,1.92-8.39,5.92-11.67,5.52-4.53,9.12,1.76,12.72,4.89,1.57,1.37,3.48,2.59,5.1,4.08ZM342.41,592.42c-.8-3.35-4.08-.35-3.52,1.96l3.52-1.96ZM338.47,598.33l-.95-.34c-.69.08-2.5,5.82-3.38,7.07-1.1,1.57-2.95,2.08-3.54,3.89s-.48,4.34.15,6.09l1.94-.17c.73-1.67.01-3.61.52-5.27.29-.95,2.43-2.76,3.23-4.2.64-1.16,2.68-6.05,2.03-7.08ZM340.73,619.13c-.78-.93-5.02-2.79-6.27-2.48-2.73,3.56,9.89,6.78,6.27,2.48Z"/>
          <path class="cls-2" d="M311.4,597.64c3.13,2.68.79,7.3.53,10.63-.56,6.97,1.17,20.81-3.19,26.52-1.81,2.37-5.35,1.44-7.18-.52-.83-.89-1.87-3.44-3.1-3.5-1.69-.08-6.47,3.2-7.78,2.3-1.79-1.23-1.3-3.31-.83-5.05.81-2.99,3.9-11.81,5.5-14.05.54-.76,1.39-1.28,1.9-2.01,2.83-4.15,2.52-10.31,6.06-13.48,1.89-1.7,6.09-2.55,8.1-.83ZM308.3,601.52c-1.78-1.74-5.36,2.04-4.54,4.15,2.12,1.19,3.17-1.69,4.86-2.7.23-.44,0-1.14-.31-1.45ZM296.33,625.23c2.31,1.57,2.76-4.84,3.4-6.1.76-1.47,2.24-2.49,3.01-4.42.57-1.44,1.6-4.14,0-5.07-1.44,1.09-1.43,2.92-2.22,4.42-.92,1.75-2.43,2.61-3.25,4.57-.45,1.08-1.94,5.93-.94,6.6Z"/>
          <path class="cls-2" d="M320.43,577.27c1.44,1.54-1.13,5.76-2.15,7.24-4.26,6.21-14.14,7.35-18.47,13.2-1.07,1.45-3.14,5.44-3.8,7.14-1.82,4.7-.24,7.03-7.31,5.93-1.5-.23-3.84-2.14-4.32-3.52-.67-1.92,2.62-7.11,3.2-9.67.97-4.22-.66-6.78,1.61-11.3,1.56-3.11,5.87-6.51,9.36-7.08,4.18-.69,6.61,5.35,9.65,7.38,1.22.81,5.22-1.33,6.26-2.38,1.81-1.8,2.87-5.57,4.21-6.94.4-.41,1.37-.42,1.76,0ZM296.65,584.25c-1.39-1.96-8.08,4.52-5.06,6.05.55.4.83-.07,1.2-.39.29-.26,3.38-3.69,3.52-3.91.27-.45.64-1.34.34-1.75ZM292.29,594.09c-2.1-2.69-1.83,4.57-1.91,5.14-.21,1.65-1.28,3.28-.73,4.92.63.07,1.26.13,1.76-.37,1.26-1.28,1.93-8.33.88-9.68Z"/>
          <path class="cls-2" d="M364.53,589.87c.66.7,3.05,3.81,3.29,3.95.45.27,1.12-.22,1.66-.12,2.64.49,5.62,2.05,7.99,3.35.81.45,6.77,3.62,5.6,4.76-4.19.38-7.26-2.6-10.94-3.91l2.84,3.8c1.54.11,5.52,1.16,6.08,2.73.88,2.46-2.19.96-2.67,1.3.51.79.52,2,.99,2.72.39.59,1.67,1.05,1.7,1.38.01.14-.66.94-.72,1.59-.08.84.04,5.69-.43,6.02-2.42,1.68-2.72-5-3.17-5.39-.19-.16-1.22-.1-1.78-.36-1.79-.84-1.97-3.36.29-3.23,0-.19.02-.38-.02-.56-.08-.39-3.33-4.8-3.89-5.49-3.99-4.96-9.26-10.66-13.87-15.06-2.72-2.6-5.68-5.06-8.62-7.41-1.53-2.44,3.58-.35,4.46.23,3.73,2.44,8.14,6.45,11.22,9.71Z"/>
          <path class="cls-2" d="M335.15,542.17c-1.3.68-7.94,5.3-8.58,5.31-2.15.03-.19-3.14.43-3.89,4.52-5.46,20.02-10.74,26.99-11.34.59-.05,1.16-.14,1.71.16,4.26,4.66-5.85,4.74-8.91,5.57-3.22.87-8.74,2.68-11.64,4.19Z"/>
          <path class="cls-2" d="M326.28,649.19c1.1-.23,2.51.28,2.79,1.38.4,1.58-5.93,9.04-7.23,11.01-.69,1.05-2.2,5.21-3.83,4.73-.58-.17-.86-1.42-.8-2,.25-2.71,4.9-11.32,6.84-13.43.6-.65,1.32-1.51,2.23-1.7Z"/>
          <path class="cls-2" d="M323.06,605.34c2.03,1.65.59,4.71.57,6.85-.03,2.91,1.49,7.32,3.37,9.54.57.67,1.76,1.31,2.52,2.17.53.59,3.13,3.58,3.13,3.92.01,1.59-1.65.65-2.49.13-2.59-1.61-4.34-2.7-6.05-5.28-3.79-5.69-4.48-11.17-1.05-17.32Z"/>
          <path class="cls-2" d="M410.27,551.14c1.21.97,4.92,3.83,4.44,5.48-.18.62-.62.59-1.17.45-2.71-.68-6.13-4.09-8.46-5.63-1.8-1.18-3.62-2.43-5.48-3.51-.74-.43-8.23-3.44-3.46-4.01,3.75-.45,11.13,4.83,14.13,7.22Z"/>
          <path class="cls-2" d="M394.67,546.4c.27.24.63,1,.77,1.38.78,2.16,1.07,12.77.93,15.54-.07,1.39-.53,2.69-.41,4.09-.67.05-1.24.13-1.49-.66-.74-2.33-1.46-8.66-1.63-11.27-.19-2.95.15-5.97-.02-8.93.14-.6,1.38-.57,1.86-.15Z"/>
          <path class="cls-2" d="M319.2,555.54c-.33.47-6.16,6.03-6.69,6.39-.48.33-1,.56-1.58.65l-.78-.66c-.47-1.08,1.2-4.13,1.85-5.19,1.12-1.82,4.53-6.17,6.77-6.17,2.88,0,1.41,3.58.43,4.98Z"/>
          <path class="cls-2" d="M295.08,644.08c1.88,1.27-2.3,7.36-2.98,8.87-.6,1.34-2.35,7.23-3.1,7.47-1.19.38-2.42-.9-2.38-2.04.05-1.62,3.14-8.24,4.13-9.92.31-.54,2.43-3.87,2.61-4.03.42-.38,1.31-.63,1.73-.35Z"/>
          <path class="cls-2" d="M314.71,635.39c-.79-.49,1.04-5.72,1.14-7.17.26-3.74-1.12-6.97-.8-10.57.04-.47.19-2.06.97-1.75l.9,1.06c.08,3.61,1.95,7.18,1.95,10.77,0,1.71-1.28,9.47-4.16,7.67Z"/>
          <path class="cls-2" d="M404.19,577.95c-.97-2.11,1.19-4.65,2.52-6.25,1.88-2.25,4.42-3.96,6.46-6.06,1.54-.58,2.33.04,1.65,1.65-.86,2.02-8.64,12.06-10.62,10.66Z"/>
          <path class="cls-2" d="M314.5,595.18c2.02-.57,4.27,5.32,4.43,6.87.12,1.15-1,8.54-1.74,8.75-1.35.39-2-2.42-2.11-3.35-.22-1.87.45-3.29.37-5.03-.1-1.96-1.32-4.35-1.51-5.98-.07-.64-.05-.92.56-1.25Z"/>
          <path class="cls-2" d="M348.2,643.75c4.86-.35,6.11,4.02.65,4.58-2.23.23-6.13.79-5.88-2.16.15-1.8,3.76-2.31,5.23-2.42Z"/>
          <path class="cls-2" d="M340.74,577.68c1.63,2-.71,2.1-1.59,2.69-1.07.71-6.55,5.16-7.29,4.63-1.38-3.32,6.22-10.59,8.88-7.32Z"/>
          <path class="cls-2" d="M410.67,577.81c.34-.3.5-.75,1.01-1.12,1.42-1.03,7.11-4.64,5.98-.68l-9.05,7.39c-3.12-1.46.59-4.31,2.06-5.59Z"/>
          <path class="cls-2" d="M381.69,536.34c1.62-.02,9.41,2.57,8.79,4.66-.55,1.85-7.7-.89-8.94-1.6-1.12-.64-1.59-.97-1.98-2.31.04-.52,1.61-.75,2.12-.76Z"/>
          <path class="cls-2" d="M385.8,649.52c.1.58,0,.93-.36,1.39-.28.36-3.87,3.2-4.53,3.68-1.19.87-2.58,2.12-4.09,1.96-1.45-1.44,6.21-9.51,8.99-7.03Z"/>
          <path class="cls-2" d="M329.13,656.92c-.91-1.28,4-7.9,6.21-6.03,2.68,2.26-.3,2.77-1.66,3.76s-2.77,3.02-4.55,2.27Z"/>
          <path class="cls-2" d="M420.95,589.33c1,1.43-5.06,4.58-6.51,4.58-1.19,0-1.49-1.43-1.21-2.37.46-1.56,6.2-3.58,7.72-2.21Z"/>
          <path class="cls-2" d="M390.49,571.31c-1.35,1.38-5.5-6.22-5.7-7.43-.11-.7.1-1.28.23-1.95,2.54-.5,6.09,8.74,5.47,9.38Z"/>
          <path class="cls-2" d="M419.41,583.83c1.14,1.6-6.89,6.14-8.01,3.53-.62-1.44,2.23-2.56,3.32-2.95,1.49-.53,3.15-1.11,4.68-.59Z"/>
          <path class="cls-2" d="M388.02,573.78c.63.72.9,1.72.5,2.61-3.28-.28-7.26-1.91-5.85-5.86.68-.72,4.73,2.55,5.34,3.25Z"/>
          <path class="cls-2" d="M290,614.68c-2.32,1.02-8.03,1.69-6.52-2.23,1.15-.83,7.52-.58,6.52,2.23Z"/>
          <path class="cls-2" d="M328.74,597.89c-.54-.36.85-7.13,1.52-7.96.27-.34.72-.36,1.01-.23,1.6.72.61,9.21-2.53,8.2Z"/>
          <path class="cls-2" d="M385.27,643.35c1.46-.15,4.99,1.96,4.26,3.83-.63.87-4.32.21-5.12-.39-1.48-1.1-.8-3.27.86-3.44Z"/>
          <path class="cls-2" d="M409.45,654.59c1.51-.38,5.05,6.07,5.19,7.33.42,3.89-3.79-2.61-4.29-3.55-.36-.68-2.18-3.46-.9-3.78Z"/>
          <path class="cls-2" d="M294.72,660.45c-5.1,1.22-1.53-8.02.58-7.42,1.69.48-1.84,6-.58,7.42Z"/>
          <path class="cls-2" d="M296.68,634.27c3.2-.21,1.17,3.96.43,5.72-.18.44-.17,1.5-1.02,1.32-1.61-.34.16-5.96.59-7.03Z"/>
          <path class="cls-2" d="M412.39,652.65c1.95-.79,3.45.94,4.22,2.59,2.26,4.82-5.63-.99-4.22-2.59Z"/>
          <path class="cls-2" d="M88.73,598.29c5.01-3.19.13-9.01,1.17-13.69l1.92.62c1.05,4.79,2.91,8.06.89,12.95-1,2.4-2.84,3.95-5.53,3.03s-2.89-6.89-2.99-9.4c-.43-10.88.81-21.88-.16-32.8-.14-1.53-1.42-11.44-2.53-11.52-5.02,3.2-3.72,10.52-5,15.71-.1.39-.11,1.18-.66,1.09.94-5.11-.67-10.24.48-15.34.57-2.5,1.57-5.16,4.44-5.36,3.93-.28,4.88,4.22,5.18,7.27,1.33,13.42.18,27.76,1.62,41.39.21,2.03.65,4.09,1.17,6.07Z"/>
          <path class="cls-2" d="M70.86,570.03c.85.86,3.95,1.01,4.16,1.31.26,3.15-3.08,2.61-5.02,1.31-5.26-3.53-2.25-13.86-6.9-19.68-2.25-2.81-4.35-1.81-6.79-3.38-1.79-1.15-3.09-3.48-4.14-5.25-3.84.91-4.14,5.42-6.1,7.95-.35.45-.41.93-.92.26-.95-4.47,2.54-13.81,8.38-10.73,2.11,1.11,2.27,4.64,3.72,5.66.86.61,3.46.73,4.8,1.46,2.92,1.6,5.39,6.34,6.16,9.48.67,2.74.83,9.74,2.67,11.6Z"/>
          <path class="cls-2" d="M92.64,638.56c.39-.35,1.15.06,1.47.68.45.86.8,5.58.89,6.93.74,11.43.45,23.01,1.19,34.43.04,1.12-.42,2.25-1.39,2.84-3-1.01-1.72-5.57-1.75-7.92-.08-7.96-.71-15.94-.82-23.85-.02-1.53-.08-12.68.41-13.12Z"/>
          <path class="cls-2" d="M93.7,547.18c.57.37,2.05,3.95.31,3.8l-1.37-1.17c-3.35,9.3-.43,19.57-1.16,29.14-.05.7.11,1.27-.6,1.73-.48-.41-.84-.71-.97-1.37-1.14-5.95-1.66-23.36-.23-29.14.44-1.77,1.84-4.41,4.02-3Z"/>
          <path class="cls-2" d="M46.91,588.52c.99-.14,1.41,1,1.54,1.78.43,2.79.71,8.35.82,11.3.08,1.99.28,11.04-.44,12.1-1.19,1.76-2.54-.42-2.71-1.91-.49-4.2-.15-11.25,0-15.67.04-1.1.48-7.38.79-7.6Z"/>
          <path class="cls-2" d="M99.28,568.58c-.31-1.46.94-2.45,1.15-3.74.47-2.95-.44-6.12-.39-8.98.1-5.55,1.69-2.17,2.26.9.65,3.51,2.7,12.55-3.02,11.81Z"/>
          <path class="cls-2" d="M92.71,631.84c-1.1-.62-.87-4.37-.87-5.62,0-1.95.15-4.72.4-6.63.07-.55-.21-.67.59-.58,1.04.13,1.5,1.33,1.66,2.25.26,1.47.62,6.65.5,8.14-.06.78-.09,1.5-.59,2.14-.4.43-1.21.58-1.7.31Z"/>
          <path class="cls-2" d="M45.73,570.92c1.19-.06,2.14-.15,2.64,1.08s.77,7.92.29,8.7c-.89,1.47-2.94,0-2.94-.59v-9.19Z"/>
          <path class="cls-2" d="M48.85,640.52c.81,3.47,1.83,8.4,1.17,11.91-.31,1.63-1.72,1.41-2.33.29-.37-.68-.47-11.81,0-12.21h1.16Z"/>
          <path class="cls-2" d="M46.51,556.07c1.14-.12,2.11.13,2.33,1.38.19,1.05.54,6.33.39,7.37-.21,1.45-1.18,2.47-2.54,1.42-1.49-1.5.09-7.96-.18-10.17Z"/>
          <path class="cls-2" d="M42.21,542.38c.41,2.83-1.39,5.27-1.55,8.02-.07,1.16.86,4.79-.59,4.49-3.31-2.4-1.44-7.78.12-10.81.47-.92.82-2.01,2.02-1.7Z"/>
          <path class="cls-2" d="M57.07,539.26c1.43-.04,1.61,1.71,2.34,2.54,2.78,3.17,7.78,2,8.02,7.23-.77,1.26-1.53-.82-1.94-1.19-1.99-1.82-3.76-1.34-5.69-2.91-1.53-1.25-3.07-3.66-2.73-5.68Z"/>
          <path class="cls-2" d="M94.02,689c2.85-.56,2.64,8.9,1.15,9.37-2.17.69-2.21-5.15-2.08-6.39.06-.55.38-2.87.94-2.98Z"/>
          <path class="cls-2" d="M81.69,654.98c-.12.11-1.25.03-1.57-.18-1.28-.83-.8-8.29-.37-9.98.64-.04.9-.13,1.35.4.8.95,1.33,9.07.59,9.76Z"/>
          <path class="cls-2" d="M81.64,635.77c-.72.52-2.54-.37-2.66-1.01-.24-1.19-.11-10.13,2.12-7.13.58,2.61,1.58,5.52.54,8.14Z"/>
          <path class="cls-2" d="M67.62,550.21c2.75.19,3.87,3.98,4.04,6.33.05.63.53.93-.34,1.48-1.47.29-3.31-6.53-3.71-7.82Z"/>
          <path class="cls-2" d="M46.51,618.62c3.76-.41,3.14,3.58,1.76,5.86-1.7-1.45-1.9-3.73-1.76-5.86Z"/>
          <path class="cls-2" d="M47.92,625.69l1.14.36c2.74,7.85-4.48,4.35-1.14-.36Z"/>
          <polygon class="cls-2" points="44.13 550.64 43.59 552.55 42.6 550.8 44.13 550.64"/>
          <path class="cls-2" d="M418.51,692.24c.25.28.53.84.45,1.2-.1.48-7.2,5.13-8.11,4.51-1.9-3.66,4.62-9.16,7.66-5.71Z"/>
          <path class="cls-2" d="M430.57,684.31c2.16-.49,4.38,8.4.59,9.6s-1.83-2.64-1.62-4.35c.13-1.04-.32-4.94,1.02-5.25Z"/>
          <path class="cls-2" d="M415.82,686.37c.98-.05,2.38-.41,2.76.95,1.07,3.84-8.79,3.87-7.19.3.52-1.17,3.09-1.18,4.44-1.25Z"/>
          <path class="cls-2" d="M402.89,693.59c-2.47,2.03-9.86-1.03-8.88-4.98,1.95-.05,2.55,2.25,4.29,2.94.55.22,1.96.49,2.59.54.92.08,2.27-1.04,2.44.56-.14.29-.2.75-.44.94Z"/>
          <path class="cls-2" d="M387.92,681.8c-1.19-1.06-3.58-2.91-1.53-4.13.72,1.07,7.01,5.3,6.84,6.05-.47,2.12-4.65-1.34-5.31-1.92Z"/>
          <path class="cls-2" d="M420,699.95c2.5.18,2.03,7.43,1.18,7.41-1.62-.49-2.4-7.36-1.18-7.41Z"/>
          <path class="cls-2" d="M123.34,679.79c.72.73,2.82,2.58,3.66,2.79,2.98.74,5.77-1.97,7.76,1.2-.04,1.41-1.03,2.52-2.29,3.04-4.4,1.84-9.11-1.19-11.89-4.46-.86-1.01-4.86-6.87-5.11-7.82-.16-.61.19-1,.23-1.57,3.54.91,5.26,4.39,7.64,6.82Z"/>
          <path class="cls-2" d="M128.21,699.95c1.85.15,4.72-2.83,5.63-4.34,1.15-1.91,1.22-4.77,4.02-5.37.83.09,1.28.58,1.04,1.4-.26.9-1.87,4.14-2.41,5.06-1,1.69-3.49,4.7-5.44,5.11-1.79.37-3.18.29-2.84-1.86Z"/>
          <path class="cls-2" d="M109.35,675.41c.67.64.59,7,.44,8.26-.43,3.52-2.4,3.36-2.69.4-.08-.88.4-1.75.41-2.68,0-1.2-.73-8.41,1.84-5.98Z"/>
          <path class="cls-2" d="M112.77,681.57c.68-.21.95.16,1.31.63.82,1.05,2.06,6.56,2.15,8.05.12,2.29-1.87.55-2.5-1.05-.47-1.19-2.47-7.17-.96-7.64Z"/>
          <path class="cls-2" d="M145.27,683.58c1.53-.83,6.98.91,6.39,2.86-.38,1.26-9.87.48-6.39-2.86Z"/>
          <path class="cls-2" d="M120.39,695.65c.9-.14,1.21.15,1.74.8.59.73,2.41,3.57,2.94,4.49.28.48.51.83-.2.97-2.1.43-4.99-4.27-4.49-6.25Z"/>
          <path class="cls-2" d="M112.96,668.27c-1.04-.45-4.84.6-5.08-.59-.53-2.67,5.81-3.24,5.08.59Z"/>
          <path class="cls-2" d="M151.62,704.99c-2.46,1.64-3.7-6.15-.35-4.47,1.18.6.88,4.11.35,4.47Z"/>
          <path class="cls-2" d="M115.29,696.05l1.19,3.9c-.72.78-2.75-3.52-2.34-3.91h1.15Z"/>
          <path class="cls-2" d="M338.34,701.65c-.15-.2-.65-.05-.64-.35l1.16-2.75c2.48-.27,5.07-.27,7.45-1.15,1.51-.56,5.61-5.58,6.6-2.66.9,2.66-5.23,7.21-7.42,8.11-2.69,1.09-5.32,1.16-7.15-1.19Z"/>
          <path class="cls-2" d="M306.35,697.3c2.66-.48,12.82.48,11.39,4.74-.14.5-.49.55-.93.64-1.45.28-9.92-.79-11.43-1.47-2.31-1.05-1.54-3.46.97-3.91Z"/>
          <path class="cls-2" d="M292.19,694.69c.78.74,1.04,2.27.1,2.82s-8.39-.89-10.22-.95c-1.3-.05-2.88.52-4.28.27-2.36-4.24,5.5-4,8.12-3.87,2.07.1,4.82.35,6.28,1.73Z"/>
          <path class="cls-2" d="M278.69,689.39c-.22.14-1.18.06-1.36-.4-.17-2.11-2.57-4.75-.38-6.24,2.04.3,2.71,6.01,1.74,6.64Z"/>
          <path class="cls-2" d="M409.62,631.89l-1.55-.15c-2.01-3.12-.85-7.1-1.17-10.52-.08-.81-.63-1.57-.73-2.43-.46-3.58-1.12-7.14-1.2-10.72,2.37-.38,3.02,2.24,3.63,4,2.02,5.89,2.98,13.89,1.03,19.83Z"/>
          <path class="cls-2" d="M36.31,633.52c.11.08.74,2.15.79,2.53.22,1.8.37,4.72.44,6.6.05,1.26.32,3.22-.61,4.12-2.55.54-4.14-12.42-1.9-13.24.29-.11,1.06-.15,1.28,0Z"/>
        </g>
      </g>
    </g>
  </g>
</svg>