<?xml version="1.0" encoding="UTF-8"?>
<svg id="Layer_2" data-name="Layer 2" xmlns="http://www.w3.org/2000/svg" viewBox="0 0 521.87 865.9">
  <defs>
    <style>
      .cls-1 {
        fill: #f9ecd8;
      }

      .cls-2 {
        fill: #aa7b1b;
      }
    </style>
  </defs>
  <g id="Layer_1-2" data-name="Layer 1">
    <g>
      <path class="cls-1" d="M521.83,794.17c0-.13,0-.26,0-.39-.65-.41-.39-1.48-.4-2.14-1.26-101.84.02-203.86.02-306.12.01-137.52-1.46-274.69-.02-411.33,0-.66-.25-1.74.4-2.14v-.39c-.11-10.91.35-23.84-.39-34.6-1.09-15.82-13.11-33.29-29.43-35.52-19.37-2.64-39.84-1.11-59.47-1.03-53.34.22-106.95-1.12-159.85-.09-12,.23-24.01.04-36.04,0-48.83-.16-98.18.29-147.35.09-19.63-.08-40.1-1.62-59.47,1.03C13.51,3.77,1.47,21.24.39,37.06c-.9,13.16.03,27.1.03,40.26-.02,91.68.45,183.44.37,275.62-.04,41.43-.66,83.11-.39,124.77.67,103.53.01,207.26.03,310.41,0,13.2-.89,27.08-.06,40.29,1.01,15.97,12.94,33.63,29.45,35.89,16.49,2.25,34.8,1.53,51.69,1.46,117.57-.51,233.44-.92,351.02-.43,19.63.08,40.1,1.62,59.47-1.03,16.32-2.23,28.34-19.7,29.43-35.51.74-10.75.28-23.69.39-34.6Z"/>
      <g id="ikI5WJ.tif">
        <g>
          <path class="cls-2" d="M521.83,71.65v.39c-.65.41-.39,1.48-.4,2.14-1.43,136.64.04,273.81.03,411.33,0,102.26-1.29,204.27-.03,306.12,0,.66-.25,1.74.4,2.14,0,.13,0,.26,0,.39-.11,10.91.35,23.84-.39,34.6-1.09,15.82-13.11,33.29-29.43,35.51-19.37,2.64-39.84,1.11-59.47,1.03-117.57-.49-233.44-.08-351.01.43-16.89.07-35.2.79-51.69-1.46-16.51-2.25-28.44-19.92-29.45-35.89-.84-13.21.06-27.09.06-40.29-.02-103.15.64-206.88-.03-310.41-.27-41.66.36-83.33.39-124.77.08-92.18-.39-183.94-.37-275.62,0-13.16-.93-27.1-.03-40.26C1.47,21.24,13.51,3.77,29.82,1.54,49.2-1.1,69.66.44,89.3.52c49.17.2,98.52-.25,147.35-.09,12.03.04,24.04.23,36.04,0,52.9-1.02,106.51.32,159.85.09,19.63-.08,40.1-1.62,59.47,1.03,16.32,2.23,28.34,19.7,29.43,35.51.74,10.75.28,23.69.39,34.6ZM261.11,8.32c-.11-.84.4-5.47-.58-5.47-1.21,1.39-.34,3.76-.58,5.47h1.17ZM255.12,5.23c-1.19.3-1.48,2.96,0,3.41,3.43,1.03,2.06-3.93,0-3.41ZM265.29,5.23c-1.43.55-2.32,3.18-.46,3.49,2.96.49,2.47-3.99.46-3.49ZM251.23,8.42c-2.48-2.57-4.77,2.84-1.23,3.03,1.72.09,2.25-1.97,1.23-3.03ZM269.81,8.42c-1.03,1.06-.49,3.12,1.23,3.03,3.54-.19,1.25-5.6-1.23-3.03ZM57.73,11.95c-2.3-3.19-7.85,2.43-4.4,4.98,2.97,2.2,6.84-1.59,4.4-4.98ZM251.18,13.63c-17.04,12.09.72,37.87,18.11,26.53s-1.53-38.3-18.11-26.53ZM465.66,11.95c-2.44,3.39,1.43,7.18,4.4,4.98,3.45-2.56-2.1-8.18-4.4-4.98ZM246.16,13.09c-.15-.26-1.83-1.16-2.24-.69-.85.65-1.58,1.46-1,2.56.71.83,1.87,1.5,2.97,1.01.48-.35.55-2.39.28-2.88ZM274.88,13.09c-.28.49-.21,2.53.28,2.88,1.1.49,2.26-.17,2.97-1.01.58-1.1-.15-1.9-1-2.56-.41-.48-2.1.43-2.24.69ZM42.21,35.3l-25.01-17.98,17.99,24.43c.11.88-.13.47-.59.58-4.25,1.05-9.14,1.24-13.49,1.97l3.64,2.02c2.45.85,4.79,1.99,7.19,2.97.87.35,3.2.46,3.26,1.47l-13.71,20.13,20.12-13.7c.88-.06.73,1.64,1.07,2.47,1.45,3.53,2.85,7.27,4.57,10.67.21.41-.2.74.82.56.52-4.24.73-9.45,1.94-13.51.13-.44-.26-.69.59-.57l22.28,17.19.51-1.28c-5.01-6.57-9.52-13.64-14.79-20.01-.6-.72-1.15-1.13-1.95-1.58l.28-.97,13.8-1.97c-3.9-2.82-9.08-4.43-13.6-5.93l-.35-.92,13.95-19.73c-2.93.91-18.91,13.81-20.12,13.71-.97-.08-1.51-3.17-1.98-4.32-1.04-2.56-2.09-5.2-3.24-7.7-.27-.59-.65-1.87-1.24-2.08l-1.96,14.07ZM506.58,17.31l-24.42,17.99c-.88.11-.47-.14-.58-.59-1.07-4.22-1.11-9.18-1.97-13.49-.59.21-.96,1.49-1.24,2.08-1.15,2.51-2.2,5.15-3.24,7.7-.47,1.15-1.01,4.24-1.98,4.32-1.21.1-17.19-12.8-20.12-13.71l13.95,19.73c-.15,1.37-.94.83-1.82,1.18-4.04,1.66-8.63,3.11-12.14,5.66l13.8,1.97.28.97c-.8.45-1.35.85-1.95,1.58-5.15,6.23-9.51,13.15-14.5,19.51l.03,1.6,22.48-17.01c.85-.13.46.13.59.57,1.22,4.06,1.42,9.27,1.94,13.51,1.02.18.61-.14.82-.56,1.72-3.4,3.12-7.14,4.57-10.67.34-.84.19-2.53,1.07-2.47l20.12,13.7-13.71-20.13c.07-1.01,2.39-1.11,3.26-1.47,2.4-.97,4.74-2.12,7.19-2.97l3.64-2.02c-4.35-.73-9.24-.91-13.49-1.97-.46-.11-.7.29-.59-.58l17.99-24.43ZM239.68,21.54c.84,1.35,5.02.82,2.83-2.25-2.05-2.87-3.81.67-2.83,2.25ZM281.36,21.54c.98-1.58-.78-5.12-2.83-2.25-2.19,3.07,1.99,3.59,2.83,2.25ZM36.65,23.08c1.69-1.7-.87-5.74-3.16-4.23-2.83,1.87,1,6.41,3.16,4.23ZM490.06,18.98c-2.05-1.9-5.17,2.24-3.32,4.1s5.88-1.73,3.32-4.1ZM113.3,22.73c1.05-1.63-.56-2.81-2.14-3.04-3.37-.49-11.36-.81-14.82-.74-.52,0-2.47.4-2.51.89.46.65.49,1.89,1.15,2.34,1.42.97,12.34,1.57,14.66,1.39.61-.05,3.47-.57,3.65-.85ZM410.09,22.73c.97,1.51,16.64.59,18.31-.55.67-.45.69-1.69,1.15-2.34-.04-.49-1.99-.88-2.51-.89-3.46-.07-11.45.25-14.82.74-.51.07-1.76.34-2.01.73l-.13,2.31ZM124.01,21.9c1.34,1.12,10.13.74,12.22.87,15.65.94,31.64,1.31,47.28,1.61,3.86.08,4.84-3.02,1.95-3.54-7.27-1.32-16.37.42-23.84-.81-3.99-.16-8.08.3-12.06.27-7.46-.04-17.53-1.1-24.7-.28-1.27.15-1.89,1.01-.85,1.87ZM399.37,21.9c1.04-.87.42-1.73-.85-1.87-7.16-.82-17.24.23-24.7.28-3.97.02-8.07-.44-12.06-.27-7.47,1.22-16.58-.52-23.84.81-2.89.53-1.91,3.62,1.95,3.54,15.64-.31,31.63-.67,47.28-1.61,2.09-.13,10.88.25,12.22-.87ZM93.42,23.57c-.34,2.52-.37,5.09-.77,7.6-.23,1.41-1.73,6.2-1.52,6.97.13.46.61.74.92,1.06,2.13-2.18,2.77-6.17,2.91-9.16.03-.54-.03-8.28-1.54-6.47ZM429.97,23.57c-1.51-1.81-1.57,5.93-1.54,6.47.14,2.99.78,6.98,2.91,9.16.31-.32.79-.6.92-1.06.21-.77-1.29-5.56-1.52-6.97-.4-2.5-.43-5.08-.77-7.6ZM230.62,26.69h12.51v-1.17c-1.76-.04-3.49.38-5.25.4-1.11.02-6.38-.41-6.67-.26-.51.26-.69.42-.58,1.03ZM290.42,26.69c.1-.6-.07-.77-.58-1.03-.3-.15-5.56.27-6.67.26-1.77-.02-3.49-.44-5.26-.4v1.17h12.51ZM254.07,565.26v17.79c.92.03,1.6-.97,2.12-1.6,5.03-6.1,10.16-17.06,13.04-24.49,1.2-3.12,4.62-12.33,4.76-15.19.08-1.7-1.75-3.91-1.93-5.48-.35-3.11,1.47-8.81,4.16-10.65,3.98-2.7,9.42-2.34,12.12,1.81,3.96,6.09,1.93,15.22-6.51,14.54-2.29,12.64-5.24,26.14-1.17,38.7.71.17.76-.24,1.11-.65,1.85-2.18,6.96-17.95,7.39-21.15s-.62-5.55,1.49-8.28c3.08-3.99,8.15-1.48,8.74,2.94.71,5.38-2.85,6.72-4.37,10.8s-3.38,13.16-4.09,17.8c-.12.75-.6,4.12-.51,4.51.05.21,1.36.92,1.79,1.44,2.44,2.89,2.64,10.4-1.1,12.23-.52.26-1.62.11-1.87.55-.86,1.53.02,3.77.04,5.39.04,3.89.19,7.9-.36,11.72,1.95,1.27,4.42,1.94,6.03,3.72,2.31,2.56,3.33,9.12.78,11.76-1.75,1.82-2.64.12-2.07,3.99.88,5.92,4.3,8.46,5.65,13.11,1.26,4.33-.79,5.06-.68,8.08.06,1.57,2.85,13.5,3.54,14.09.44.37,1.87.65,2.7,1.21,1.66,1.11,3.02,3.1,2.9,5.19-.77,13.93-22.25,23.15-33.24,28.15l-3.25,2.02,20.9.8c3.74-.5,7.45.42,11.04.59,1.25.06,5.7.32,6.56.16.98-.18,4.95-5.41,6.25-6.65,3.85-3.66,8.86-6.9,14.28-7.42.44-.31-3.72-3.94-3.92-4.19-1.56-1.97-4.25-5.93-5.47-8.1-1.86-3.33-3.05-8.71-4.89-11.53-1.23-1.87-2.1-1.6-3.87-1.99-3.18-.71,2.29-6.1,3.5-7.02,3.29-2.5,5.1-1.62,8.51-2.44,6.19-1.48,10.88-5.7,16.31-7.14s12.77,1.74,17.6,4.29c4.47,2.36,7.94,5.54,11.72,8.8-.54-2.7-.19-4.89-1.5-7.3-1.84-3.4-7.38-9.66-10.92-11.36-9.3-4.48-17.09-4.25-25.46-11.28-6.22-5.21-9.55-14.73-16.18-18.61-1.64-.96-3.79-.99-4.41-2.86-.14-1.17,3.98-1.89,5.15-2.11,4.09-.76,16.37-2.39,19.92-1.65,3.97.83,6.46,2.94,9.83,4.27,1.83.72,4,.86,5.86,1.57,3.84,1.46,9.16,6.57,11.63,9.87,1.8,2.41,3.51,5.35,4.53,8.18.62.11.37-.51.45-.94.15-.86.41-2.79.36-3.56-.27-4.32-4.15-8.17,4.67-5.87,4.46,1.16,8.24,4.92,12.02,5.97,6.34,1.76,12.12-.35,18.04,4.24,4.33,3.36,3.74,7.65,4.99,12.22.75,2.77,3.49,5.26,3.65,8.28.55.47,5.03-3.1,6.06-3.5.26-2.35-1.13-2-2.17-2.93-8.53-7.61-7.26-14.52-10.04-24.36-.94-3.34-2.6-6.54-3.99-9.7-.6-.43-3.72,1.41-4.45,1.86-1.66,1.03-6.7,6.16-8.5,4.85-.65-6.85-5.8-12.12-8.06-18.13-1.14-3.03-2.29-8.73-1.96-11.9.38-3.72,2.07-5.42,3.21-8.52,1.68-4.61,2.52-9.75,5.67-13.67-1.57.21-2.91.41-4.52.39s-3.01-.84-4.26-.81c-1.86.05-4.21,1.77-5.99,2.26-3.26.9-9.51.05-12.67-1.18-6.06-2.36-8.82-6.65-16.44-4.87-1.63.38-6.08,3.11-7.14,1.86-1.09-1.85.28-3.81,1.21-5.44,2.91-5.13,8.45-11.43,13.1-15.04,7.32-5.68,15.54-7.14,22.88-12.69l5.22-1.03c-4.18-3.62-6.87-6.68-8.7-12.01-2.17-6.3-3-13.28-8.54-18.03-2.43-2.08-8.73-4.1-2.01-6.43,5.04-1.75,16-1.79,21.76-2.47,2.95-.35,6.99-2.97,11.02-3.44,6.17-.73,9.75,2.96,14.75,5.12,3.13,1.35,6.14,1.83,9.26,3.64,2.49,1.44,4.49,3.43,6.63,5.29.03-2.85-.28-6.52,1.3-9.06.7-1.12,2.28-1.76,3.16-2.71,3.3-3.57,5.04-8.59,9.03-12.07,3.37-2.94,7.88-4.49,11.51-6.88,1.48-.97,3.03-2.71,4.58-3.63s7-3.27,8.53-3.21c4.33.17.32,4.59.04,7.02-1.01,8.7,3.84,11.73,5.54,18.71.41,1.66,1.43,6.62,1.46,8.11.02,1.23-.58,2.92-.97,4.11,3.29-.87,6.54-1.56,9.94-1.57,3.11-.01,6.02.56,9.01.58,2.91.01,6.4-.99,8.95-.92,1.3.04,2.2.86,3.36,1.13l-.02-67.81c.24-83.95-.19-168.36-.01-252.19.06-26.47-.3-53.38,0-80.15,0-.76.33-1.42.43-2.15-4.68-.9-9.58-1.5-14.16-2.85-26.24-7.69-52.85-31.82-61.17-58.45-1.43-4.58-2.57-9.79-2.07-14.55-3.82.92-7.95,1.07-11.9,1.19-26.41.82-52.94,0-79.36.38l-45.55,8.6,11.18,29.73-.53.76-1.63.19c-3.78-2.77-7.93-5.09-11.71-7.85-3.06-2.24-6.44-6.06-9.82-7.77-.4-.2-.72-.26-1.16-.21l-9.54,61.81c-2.51,1.15-2.75-.33-3.24-2.31-1.92-7.76-2.46-18.25-3.69-26.41-1.69-11.18-3.56-22.34-5.42-33.48l-22.29,16.23c-.62.25-2.08-.22-2.29-.84-.69-2.02,7.57-19.26,8.85-22.72.72-1.93,1.5-4.14,2.13-6.1.12-.39.57-.38-.07-.83-.59-.41-7.15-1.78-8.49-2.06-12.12-2.53-24.52-4.17-36.66-6.73-25.77-.37-51.65.42-77.4-.38-3.95-.12-8.08-.27-11.9-1.19.5,4.76-.64,9.97-2.07,14.55-8.33,26.63-34.93,50.76-61.17,58.45-4.59,1.34-9.48,1.95-14.16,2.85.93,4.91.05,10.07-.02,15.03-.4,28.84.38,57.39.42,86.01.12,77.83-.17,155.71,0,233.45.87,10.69-1.38,24.35-.04,34.8.15,1.14.83,1.44,1.01,2.12.26.96.16,2.48.57,3.24.79,1.48,10.22,3.23,12.22,4.3,1.56.84,3.42,2.81,4.98,3.81.11-1.91.33-4.18.83-6.02,1.41-5.15,7.21-7.44,10.76-10.93,1.32-1.29,2.46-3.33,3.68-4.64,4.77-5.14,14.77-13.45,22.28-11.86,4.96,1.05,1.1,4.59.76,7.84-1.09,10.25,2.84,13.28,5.26,21.72,1.57,5.48.45,10.45-.17,16.01,6.89-3.76,16.59-10.87,24.77-8.56,2.33.66,3.89,2.77,5.91,3.5,1.47.54,3.22-.15,4.69-.06,4.02.25,10.63,2.58,13.35,5.64.67.75.6,1.76,1.06,2.22.83.84,1.88.85,2.79,1.55,2.06,1.57,3.55,4.47,5.47,5.87,4.41,3.22,9.12,4.14,13.5,8.79,2.91,3.09,4.16,6.73-1.09,7.92-3.77.86-7.14.7-11.03,2.26-7.34,2.94-9.48,9.26-14.66,14.28-2.21,2.14-4.98,3.68-7.63,5.26,4.1,1.1,7.57,4.27,9.77,7.82.56.91.79,2.21,1.42,3.27,1.84,3.06,5.27,4.77,7.55,7.29,4.15,4.58,8.44,14.19,9,20.34.16,1.75.88,6.14-1.77,6.05-3.17-1.8-6.58-5.88-10.15-6.82-3.76-.99-8.89.1-12.7-1.38-.42.57,2.31,3.69,2.91,4.32,1.87,1.95,4.79,4.57,6.85,6.44.59.54,3.63,2.27,3.11,2.91l-.76.21c7.38,5.49,16.13,12.06,25.8,11.33-1.4-4.41-1.3-9.1-2.02-13.62-.98-6.16-2.64-12.17-3.46-18.35-4.76-1.21-5.73-7.61-5.07-11.79.41-2.58,4.69-5.05,7.22-4.93,7.73.35,11.27,8.78,6.89,14.77,2.85,6.7,5.14,13.99,8.08,20.71,1.18,2.69,2.73,5.42,3.95,8.18.16.37-.23.68.62.54,4.17-3.45,7.4-7.51,10.04-12.25,5.05-9.07,11.05-26.3,10.31-36.64-.19-2.68-1.58-2.74-2.94-4.49-3.32-4.3-3.98-11.64,1.6-14.42.99-.49,5.38-1.73,6.35-1.68,4.58.25,7.69,6.15,7.53,10.3-.08,2.06-.94,6.16-3.33,6.43-.74.79,3.84,12.08,4.69,13.79,3.5,6.97,15.38,23.5,23.31,24.77.63.1,2.52.38,2.88-.13,1.03-9.3,2.83-18.43,3.86-27.73.3-2.69-.53-4.6,1.56-7.04,3.48-4.04,10.13-1.06,9.76,4.26-.13,1.92-2.4,4.76-2.72,6.3ZM242.29,32.5c.92-2.77-2.45-4.83-3.26-1.69-.45,1.75,1.87,2.72,3.26,1.69ZM281.32,29.54c-1.5-1.3-3.32,1.3-2.56,2.96,2.2,1.54,4.57-1.21,2.56-2.96ZM242.93,35.4c-1.08.08-2.22,2.77-.31,3.35,3.27.99,2.19-3.49.31-3.35ZM278.12,35.4c-1.89-.15-2.96,4.33.31,3.35,1.91-.58.78-3.26-.31-3.35ZM245.66,39.33c-.82.09-1.21,1.61-.9,2.33,3.63,3.98,4.45-2.72.9-2.33ZM275.38,39.33c-3.55-.38-2.72,6.31.9,2.33.31-.73-.08-2.24-.9-2.33ZM251.14,42.81c-1.18.09-1.59,3.29.4,3.29,2.47-.27,1.09-3.4-.4-3.29ZM269.91,42.81c-1.49-.11-2.86,3.02-.4,3.29,1.98,0,1.58-3.2.4-3.29ZM257.5,45.15l-1.28-.77c-2.01,1.07-1.64,4.06,1.01,3.26l.27-2.49ZM259.54,45.26c-.53,3.39.39,8,0,11.53h1.95v-11.53c0-1.06-1.74-1.36-1.95,0ZM263.54,45.15l.27,2.49c2.65.8,3.02-2.19,1.01-3.26l-1.28.77ZM90.29,47.03l-1.76.39c-.44,2.07-6.84,11.7-6.7,12.72.05.38.6.66.84.96,1.97-.95,8.41-13.32,7.62-14.07ZM433.1,47.03c-.79.75,5.65,13.12,7.62,14.07.25-.3.79-.59.84-.96.13-1.02-6.26-10.65-6.7-12.72l-1.76-.39ZM32.17,74.51c-3.05,2.48-2.99,8.37.96,9.94,6.24,2.48,10.13-4.04,6.92-9.26-1.84-3-5.39-2.7-7.88-.67ZM491.22,74.51c-8.86-7.23-13.31,11.39-2.81,10.44,5.44-.5,6.56-7.38,2.81-10.44ZM48.46,88.47c-.76-.73-9.02,3.53-10.56,4.1-6.6,2.43-12.73,2.94-19.62,3.84-3.03,1.33-1.85,3.16-1.84,5.55.05,37.01-.05,74.88-.44,112.19-.05,4.47-.14,8.23-.41,12.53-.02.33.42,4.41.49,4.63.17.52.83.78,1.32.94,3.23-1.92,1.41-6.19,1.35-9.07-.24-10.82.31-21.63-.22-32.42l.29-91.47.59-.59c3.37-.45,7.09-.67,10.39-1.33s16.7-5.13,18.31-7.49c.32-.47.46-.8.36-1.39ZM506.45,97.22c-1.89-1.75-7.3-1.38-9.79-1.77-8.45-1.31-12.65-4.68-19.78-6.81-2.02-.6-2.8-.05-1.2,1.59,1.89,1.94,11.21,5.32,14.16,6.17,4.57,1.3,9.42,1.73,14.14,2.28l.59.59.29,91.47c-.53,10.79.02,21.61-.22,32.42-.06,2.88-1.89,7.15,1.35,9.07.49-.16,1.15-.41,1.32-.94.07-.22.51-4.31.49-4.63-.27-4.3-.37-8.06-.41-12.53-.39-37.3-.48-75.18-.44-112.19,0-1.13.5-2.19.46-3.14,0-.09-.89-1.53-.96-1.59ZM17.97,238.99c-.28-.25-1.46.47-1.74.8-1.06,1.27-.48,8.7-.23,10.75.15,1.22,1.08,2.14,1.67.86.67-1.46.93-11.84.29-12.41ZM505.81,251.89l1.19-.17c.38-2.28,1.48-9.89.33-11.71-.32-.51-1.09-.97-1.71-1.02-1,.02-.47,12.48.2,12.91ZM19.06,258.24c-6.55-1.94-7.36,8.29-1.33,7.62,3.25-.36,2.65-5.66,1.33-7.62ZM504.33,258.24c-1.32,1.96-1.93,7.26,1.33,7.62,6.03.67,5.22-9.56-1.33-7.62ZM19.06,272.32c-1.83-2.53-5.85,2.39-2.66,4.36,2.28,1.4,3.95-2.57,2.66-4.36ZM507.22,272.36c-2.53-2.68-4.71,2.67-2.31,4.19,2.21,1.4,4.54-1.83,2.31-4.19ZM15.93,360.28c-.44-.45-1.74-.59-2.37-.42-1.13.31-.66,1.22-.79,1.42s-.87.25-1.02.71c-.87,2.71,4.36,6.39,5.28,1.71.1-.52-.83-3.16-1.1-3.43ZM510.62,361.28c-.13-.2.34-1.11-.79-1.42-.63-.17-1.92-.03-2.37.42-.15.15-1.19,2.91-1.17,3.17.31,3.98,5.59,2.74,5.38-1.14-.05-.86-.88-.76-1.05-1.03ZM16.71,372.41c-1.8-1.68-6.36.44-7.23,2.55-1.07,2.61.44,6.67,3.32,7.42,3.78.98,6.07-2.16,5.56-5.53-.09-.57-1.36-4.17-1.65-4.44ZM511.54,372.44c-1.06-.52-3.68-.8-4.69-.16-.51.32-1.74,4.12-1.82,4.92-.13,1.28.83,4.39,2.04,4.99,4.15,2.07,8.56-3.06,6.85-7.24-.15-.36-2.15-2.4-2.37-2.51ZM16.32,389.19c-5.25.69-1.85,8.18,1.86,5.02,1.09-.93,1.46-3.03.62-4.12-.57-.74-1.59-1.02-2.48-.9ZM506.09,389.19c-3.2.58-2.15,6.39,1.38,5.74,3.67-.67,2.69-6.48-1.38-5.74ZM71.52,520.1c.95-3.5,2.81-7.23,4.77-10.28,1.43-2.23,5.55-6.31,6.35-8.12.68-1.55,2.14-13.45,2.01-15.34-.31-4.69-3.15-9.12-4.41-13.48-1.67-5.8-1.09-12.76.67-18.46l-9.97,14.86-.93-.65c-1.01-3.24,6.3-11.1,8.16-13.81-7.73,1.47-13.78,6.91-18.76,12.7-1.62,1.88-2.55,4.07-4.68,5.88-5.1,4.33-8.92,5.17-9.31,13.39-.04,1.28,1.25,2.52,1.78,3.89.88,2.31,1.16,4.95,2.36,7.02,2.35,4.04,6.48,8.22,8.08,12.64.89,2.45.82,4.84,1.28,7.34.28.97,3.44.96,3.64,1.91.23,1.09-.75,2.81-1.98,2.87,3.08,8.16,3.62,17.51,2.74,26.18l2.05-5.57c1.65-8.35,3.12-17.75,3.03-26.27-.04-3.2-1.08-6.37-.79-9.6-.41-.43-7.95,3.05-6.88-.8.52-1.86,8.96-4.33,10.79-5.69l2.31.67-.29.67,1.06.63c-.46,1.92-1.41,2.22-3.24,2.52-.44,3.94-.45,8.3-.41,12.36,0,.51-.03,2.42.56,2.54ZM460.85,470.45c-5.26.75-8.12,4.87-12.15,7.59-4.67,3.15-8.57,4.33-12.46,9.04-1.98,2.4-3.08,5.28-4.93,7.58-1.34,1.67-3.52,2.81-4.34,4.65-.54,1.21-1.92,6.94-1.62,7.99,4.87,5.04,8.06,11.26,11.86,17.1l-1.37-19.94c-2.05.41-6.43-.31-5.08-3.22.38-.81,2.24-.59,3.1-.91,2.38-.9,3.46-3.75,6.67-2.51l-.4,1.17,1.53.62c.04,2.94-2.71,3.05-3.87,5.05l1.57,24.44,4.29-13.12c-1.46-1.93-3.54-1.6-3.12-4.86,2.19.17,10.97.38,11.69,2.6,1.02,3.13-4.3,3.61-6.21,2.47l-2.55,8.99c2.93-2.24,6.39-3.59,9.19-6.05,2.89-2.55,4.61-6.33,7.41-8.62,1.38-1.13,4.1-1.94,4.73-3.48,1.81-4.39.83-10.25-.62-14.69-.76-2.31-2.8-4.68-3.63-6.93-1.81-4.88-1.68-10.2.31-14.97ZM24.62,480.61v42.42c0,2.52,11.23,10.89,10.95,12.5-.46.57-.49.64-1.2.43-2.79-.79-7.63-5.75-9.55-8.05-.45,2.47-.39,4.33,1.2,6.23,2.29,2.72,5.35,3.65,7.19,5.81,4.37,5.13,5.29,9.56,11.78,13.91,1.91,1.28,6.73,4.41,8.1,1.69-2.76-13.62-7.32-27.61-15.17-39.19-2.01-2.96-4.89-5.16-6.81-8.05-.51-.77-1.25-1.42-.99-2.46.25-.97,1.96-.37,2.52.14,1.32,1.18,4.79,5.62,6.04,7.26,6.68,8.73,12.17,20.02,15.08,30.66,1.11,4.05,1.3,8.29,1.84,12.43l1.46.49c1.13-4.51,2.4-8.75,2.74-13.49.46-6.58.01-13.44-3.13-19.35-1.83,1.03-5.63,1.58-5.49-1.38.14-2.81,4.56-2.87,6.52-3.67.39-.16.67.22.54-.62-1.63-1.1-1.5-2.93-2.2-4.45-2.9-6.29-8.38-11.17-10.85-16.52-.78-1.69-.98-3.77-1.62-5.42-2.24-5.8-6.9-7.46-12.22-9.28-1.15-.39-2.31-1.29-3.5-1.58-1.04-.26-2.21.15-3.23-.48ZM127.04,498.21c-.8-.64-8.24.05-9.92-.42-2.42-.68-4.35-3.39-6.42-4.15-6.11-2.25-19.51,4.67-24.32,8.67-3.58,2.98-13.77,16.42-15.33,20.64-.72,1.95-.49,4.85-1.08,6.93l5.92-9.91c2.86-3.03,5.6-6.1,9.09-8.46l1.02-6.65c1.94-.02,2.18.7,2.56,2.33.47,2,1.48,11.08-.39,11.98l-1.37-.04-2.16-3.32c-11.19,9.21-15.49,22.64-19.74,35.97,4.08-4.71,10.26-8.46,16.61-8.63,3.41-.09,7.3,1.8,10.95.48l2.92.91c-4.6,4.06-9.17,1.49-14.28,1.75-4.01.21-7.33,1.72-10.7,3.76-2.06,1.25-4.06,3.43-5.77,4.43-.53.31-1.19.06-1.24.11-.4.35-.81,2.43-1.23,3.05.22.18,4.44-2.04,5.16-2.38,5.62-2.64,12.01-4.75,18.48-4.64s9.77,2.35,17,.17c4.37-1.32,7.76-4.81,11.78-6.2,2.45-.85,5.49-.91,7.89-1.88,7.93-3.22,10.56-12.23,17.12-16.89,5.08-3.61,11.71-5.61,17.94-4.93,1.04-.88-5.73-4.6-6.23-4.91-2.15-1.34-2.97-1.78-5.25-2.96-4.51-2.35-5.33-5.59-9.49-7.72-2.73-1.4-5.82-2.49-8.93-2.29-6.44.43-12.85,2.29-18.97,4.19.6-1.62,2.55-2.78,4.04-3.58,4.71-2.52,8.87-3.17,13.76-4.62.57-.17.68.22.57-.79ZM421.14,508.2c-5.69-5.41-7.57-5.1-14.22-7.84-4.95-2.03-8.1-6.25-14.24-5.64-3.08.31-5.28,1.89-7.97,2.59-2.28.59-5.17.43-7.51.5l7.33,2.82c.65.53.51,2.96-.15,3.07-6.95-2.89-14.02-4.72-21.64-3.74,6.37,4.92,8.2,11.86,10.67,19.07,3.22,9.4,4.63,7.13,9.81,13.61,2.86,3.57,5.3,11.04,8.42,14.65,1.48,1.71,8.72,6.36,10.87,6.72,2.97.5,5.02-.7,7.77-1.03,11.21-1.35,17.37,6.44,22.22,15.22.24.43.43,1.06.99,1.15-.44-2.35-.17-4.76-.39-7.23-.39-4.4-1.13-9.87-2.34-14.08-.6-2.08-2.48-5.41-2.75-7.03-.04-.23-.1-.64.2-.59,4.21,6.12,4.79,14.28,6.06,21.5l.4-3.73c-.69-5.2-1.74-10.79-3.98-15.57-.92-1.97-2.41-3.63-3.08-5.72-1.15-.3-.61.72-1.14,1.38-1.87,2.34-4.62.11-4.34-2.36s2.54-5.94,2.55-8.81c.58-.86,2.45.26,2.89,1.02,1.15,1.98-.11,4.86.24,6.46.14.65,3.57,5.67,4.29,7.38,1.05,2.51,1.6,5.61,2.83,8.12l2.06,9.07c.02-1.99,1.07-4.08.82-6.08-.09-.75-.77-.39-.85-1.12-.96-8.39,1.77-17.2-2.63-25.11-3.42-6.15-8.15-13.88-13.19-18.67ZM499.15,508.37c-6.27.74-12.44,2.21-18.57,0-6.27-.58-12.43,1.4-17.8,4.47-5.06,2.89-7.05,9.58-11.73,12.9-3.39,2.41-5.76,1.99-8.08,6.38-1.51,2.87-1.78,6.17-2.45,9.29l.78,12.69,7.33-12.41c7.02-10.11,21.62-18.93,32.78-23.9,5.97-2.66,11.18-3.91,17.68-4.8l.05-4.64ZM499.15,516.97c-9.2.77-18.03,3.78-26.19,8.01-7.16,3.71-15.48,10.98-21.05,16.88-5.72,6.05-8.77,14.63-11.38,22.41,3.79-1.77,5.81-2.37,9.89-1.09,9.69,3.04,14.63,3.31,23.99-1.19,6.94-3.34,11.54-7.86,14.87-14.84,1.53-3.19,3.82-11.11,7.3-12.63,1.11-.49,2.02.11,2.4-.35l.18-17.21ZM59.41,558.41c3.37-10.7,5.1-23.35,1.07-34.11-.74-1.97-1.76-1.69-1.28.11.21.8.85,1.65,1.13,2.79,2.33,9.69,2.08,20.82-1.92,30.01l1,1.2ZM287.69,591.65c1.77.09,1.74,2.77,1.53,4.08-.12.8-1.43,2.38-.76,2.76.75.42.91-.14,1.38-.58,1.97-1.84,2.06-5.19.77-7.44l-.41-.34c-4.23,1.64-10-3.6-11.66-7.12-3.82-8.07-2.93-18.09-1.73-26.68.72-5.15,1.94-10.31,3.51-15.25,2.19-1.37,5.04-1.65,6.52-4.04,2.16-3.48.29-10.31-4.43-10.32-1.14,0-4.52,1.01-5.43,1.64-1.7,1.18-3.13,5.93-2.96,7.92.18,2.13,1.95,3.63,2.25,4.84.38,1.5-4.17,15.34-5.1,17.79-3.05,7.97-12,27.07-19.69,30.74-15.33,7.32-24.22-1.99-32.52-13.9-4.48-6.43-7.85-13.64-9.85-21.24-1.86.89-3.52.6-5.47.4,0,.6.41,1.14.4,1.75-.37,14.35-9.29,41.21-21.76,49.4-19.4,12.74-38.71-.25-52.86-14.25-4.18-4.13-8.01-8.99-10.6-14.23-1.39,1.24-2.69,2.29-4.67,2.36,2.55,11.55,2.93,23.43-.04,34.95-2.68,10.38-7.37,15.71-18.52,16.66-10.46.89-30.01-13.56-37.74-20.54-1.76-1.59-7.59-6.99-8.63-8.6-.53-.83.15-1.59.01-2.68-.41-3.38-2.54-6.63-5.74-7.97-2.24-.94-7.76.35-8.79,2.73s.32,7.31,2.3,8.84c3.14,2.44,6.21,0,8.36.6s12.16,13.19,13.99,15.75c4.73,6.62,10.22,15.99,8.17,24.45-.93,3.8-2.62,5.87-6.11,7.6.09,3.44,2.16,6.43,5.83,6.39.37-1.58-.84-1.09-1.73-1.98-.61-.61-2.89-4.69-1.2-4.66.6.01,2.66,4.35,4.61,3.85,3.7-3.87,3.83-9.72,4.18-14.81.58-.87,1.54,4.36,1.56,4.9.16,4.27-2.5,9.48-5.02,12.81l8.34,15.12,2.51-2.87c-1.31-1.16-1.89-2.5-2.65-4.02-.58-1.14-4.03-8.66-3.57-9.13.67-.08.87-.06,1.36.4.29.27,2.46,3.87,2.86,4.56,1.31,2.26,2.84,4.95,3.01,7.55,3.03-2.47,6.29-5.18,9.7-7.11,26.97-15.22,61.73-24.9,91.8-32.11,12.36-2.97,25.79-6.48,38.22-8.69,2.53-.45,8.32-1.32,3.94,2.38-31.05,6.81-61.52,13.99-91.47,24.63-15.74,5.59-47.83,15.19-55.98,30.41-1.71,3.19-1.37,5.73.2,8.95.2.4.65,1.77,1.24,1.48.26-.13,1.9-4.18,2.56-5.17,5.78-8.67,28.43-19.98,38.35-24.29s21.11-6.3,31.53-9.52c5.76-1.78,11.41-4.1,17.19-5.87,12.77-3.91,25.81-7.4,38.92-9.84l.6.87c-.12,1.48-2.76,1.92-3.95,2.32-8.61,2.89-18.04,4.63-26.79,7.22-9.16,2.71-18.08,6.24-27.15,9.21-20.54,6.72-40.32,11.61-58.12,24.75-3.72,2.75-7.53,6.1-9.33,10.46,2.28,3.33,2.46,7.23,4.02,10.81.3-.02,3.28-3.99,3.85-4.55,13.22-12.84,41.21-25.27,58.67-31.43,41.25-14.56,90.08-27.62,134.11-24.6,2.81.19,5.54,1.1,8.39,1.15-1.25-2.15-.81-5.01-1.36-7.43-.88-.56-1.8-1.12-2.74-1.56-8.55-4.04-25.68-3.15-35.18-2.33-5.63.48-13.24,2.73-18.38,2.76-3.88.03-2.61-2.9.09-3.46,6.21-1.29,13.25-1.21,19.51-2.77,11.2-.05,27.44-2.54,37.35,3.6.48.3,2.62,2.72,3.05,2.21.69-7.23-2.64-9.87-8.91-12-11.99-4.07-25.87-1.86-38.14-.06-5.53.81-11.05,2.03-16.53,3.06-2.46-.18-1.89-2.56.23-2.94,12.98-1.89,26.94-5.66,40.09-5.67,3.39,0,7.29,1.14,10.75,1.2-.93-1.77-1.16-13.51-.39-14.07.59-.11.89.13,1.09.66.41,1.07.69,4.76.81,6.2.2,2.34,1,5.51-.33,7.41l3.9,1.37-.45-17.53c-5.86-2.24-11.11-6.63-12.06-13.16.22-.45,1.05.62,1.18.78,2.99,3.92,4.87,8.05,10.04,9.92.54.15,1.44-1.64,1.51-1.89.35-1.27.03-2.67.57-3.93ZM201.42,550.47c3.89,3.19,9.56-.69,10.04-5.15.35-3.28-1.57-8.8-5.62-8.39-1.21.12-4.15,1.18-5.12,1.94-3.09,2.44-2.14,9.27.7,11.6ZM391.66,551.37c-3.77-3.77-6.24-8.55-9-13.08-6.65-3.39-9.65,2.19-14.58,4.55-5.86,2.81-12.73,3.88-17.96,8.52l-4.53,4.94-3.97,6.01c.3.23,4.03-.71,4.89-.77,8.63-.63,13.4,6.08,21.11,6.63,5.41.39,8.4-2.96,12.14-2.68,4.07.31,3.76,2.03,9.25.62,4.16-1.07,3.08-1.63,5.57-4.2,1.58-1.63,3.28-3.1,4.89-4.68-2.37.25-4.46-1.21-6.59-1.73-11.49-2.77-23.64-2.22-35.01.9-.55-.12-.84-1.14-.6-1.5s6.88-2.73,7.78-2.97c8.36-2.24,18.09-1.61,26.6-.57ZM499.15,576.01v-38.31c-4.81,3.39-5.75,9.53-8.39,14.47-3.37,6.3-7.34,9.91-13.49,13.48,3.48,2.53,5.52,6.2,8.03,9.55,1.4,1.87,3.69,3.56,4.08,5.89,3.28-2.03,5.17-6.82,9.77-5.08ZM38.44,553.97c-1.52-1.3-3.37-3.37-4.6-4.98-1.49-1.96-3-5.55-4.35-6.99-.93-1-3.84-1.95-4.86-3.54l.04,31.24c5.97,1.68,10.66,1.9,16.11-1.21,2.04-1.17,3.66-3.34,6.13-3.05-.13-2.24.57-4.31,1.57-6.25-3.49-.6-7.34-2.94-10.03-5.23ZM140.1,567.63c-2.44-2.95-6.14-4.94-8.19-7.64-1.25-1.65-1.86-4.14-2.91-5.69-2.69-3.96-8.79-6.26-13.46-5.63-2.78.38-3.88,2.43-6.08,3.69-11.59,6.63-18.82,1.11-30.3,2.89-5.05.78-10.57,3.28-15.06,5.7,2.68.99,5.81.9,8.62,1.54,4.88,1.11,11.28,3.74,15.58,6.31,6.66,3.98,11.67,10.08,20.36,9.54.61-.49-1.98-1.87-2.34-2.26-4.22-4.52-4.03-11.02-.4-15.83,1.6-2.13,5.38-3.27,7.98-2.98,7.93.89,14.35,10.39,7.69,16.56-.05.52,3.7,5.67,4.45,6.09,1.79,1,8.91.45,11.22.6,4.09.27,8.44,2.55,11.09,5.63-.58-6.19-4.3-13.77-8.24-18.54ZM292.97,550.99c-1.42.34-2.11,6.51-.4,6.64.85.07.22-2.59.28-3.2.08-.82.5-1.91.92-2.65.28-.44-.43-.88-.8-.79ZM250.16,555.68c-2.41-.19-3.09,3.55-1.75,5.08l.75-3.15,1-1.93ZM430.75,570.14c.73-.66-4.86-8.72-5.84-9.6-1.5-1.34-7.3-3.73-9.3-3.99-5.81-.78-14.38,2.14-18.47,6.36-1.53,1.58-6.61,9.22-7.5,11.26-1.53,3.5-1.6,7.62-2.78,11.3-1.77,5.51-4.21,5.85-3.75,12.6s4.37,10.59,6.21,16.64c1.03.12.62-.02.78-.57,3.39-11.2,7.29-22.95,17.1-30.31,1.46-1.1,6.23-3.91,4.29.1-1.12,2.32-4.8,5.39-6.54,7.54-4.08,5.04-7.01,9.49-9.46,15.56-.66,1.64-3.82,10.14-3.05,11.22,2.52-1.67,5.83-4.18,8.6-5.28,2.78-1.11,6.74-1.1,9.77-2.35,5.59-2.31,11.89-6.17,15.63-10.95,2.39-3.05,5.8-10.51,8.73-11.99,3.37-1.71,9.14-4.18,12.12-6.26,4.33-3.02,6.05-8.39,4.09-13.33-.89-2.24-1.12-2.71-3.63-2.65-5.26.12-8.22,6.69-14.09,7.42-2.95.36-4.06-.72-7.41.41-3.98,1.34-7.94,4.03-11.71,5.87l-.6-.97c.03-2.96,13.56-9.19,16.82-8.01ZM61.92,566.46c-1.01-1.18-3.82-5.65-4.64-6.11-2.21-1.26-4.43-.06-5.45,2.01-3.59,7.27,3.25,11.81,5.43,17.95.76,2.16.7,4.72,1.23,6.98,1.32,5.57,9.2,19.09,13.42,22.93,3.02,2.75,7.08,4.76,10.95,6.05-.92-1.34-1.66-3.33-2.74-4.49-1.22-1.32-3.5-2.15-4.68-3.52-4.18-4.85.91-11.12,6.26-8.99,2.46.98,7.55,9.67,9.6,12.29,1.84,2.36,4.1,4.43,5.7,6.99l1.07.04c1.27-2.56,2.03-4.72,2.38-7.59.52-4.37.61-9.58-.65-13.8-.54-1.82-2.07-4-2.38-5.83-.91-5.4.23-6.34-3.28-11.57-6.68-9.95-16.69-13.14-28.07-15.12l2.09,2.6c5.75,4.58,17.65,13.94,18.54,21.56.15,1.25-.17,2.91-1.77,2.17-.37-.17-3.03-5.87-3.69-6.9-5.37-8.27-13.39-10.74-19.3-17.64ZM291.59,559.98c-1.01-.18-.7.17-.95.78-.34.82-1.01,2.51-.02,3.12.62-.02,1.1-3.26.98-3.9ZM110.91,562.42c-3.32.4-5.4,1.54-5.41,5.18-.01,11.03,15.45,11.47,13.15.56-.88-4.17-3.55-6.24-7.74-5.74ZM435.05,565.06v-2.73h-.38v2.73h.38ZM14.96,568.08c2.09,2.58,6.73-.89,4.19-4-2.55-2.16-6.17,1.55-4.19,4ZM507.27,563.61c-3.67-1.56-5.38,4.46-1.48,5.22,2.08.4,3.69-1.46,3.08-3.49-.03-.11-1.5-1.68-1.61-1.73ZM159.08,563.89c-2.67.32-2.63,5.82-.58,6.64,1.35.54-.07-1.97-.11-2.23-.3-1.87.08-2.74.69-4.41ZM248.6,564.67l-1.18.26c-.07.52-.24,1.03-.33,1.55-.78,4.22-1.97,13.38-2.03,17.54-.03,2.21,1.25,3.05,1.58,1.17,1.19-6.72.82-13.78,1.96-20.52ZM290.03,566.63c-.83-.16-.91.39-1.19.95-.85,1.68-4.13,11.57-4.5,13.5-.4,2.1.71,2.82,1.59.8.66-1.51,4.62-14.65,4.1-15.25ZM473.68,567.47c-.77-.46-5.06,1.56-6.48,1.79-1.34.21-2.71-.1-4,.29,3.13,2.38,6.86,4.42,9.78,7.03.99.89,4.07,3.32,2.47,4.53-2.12,1.62-5.1-2.6-6.3-3.55-3.47-2.75-8.61-6.78-12.88-7.73-.43-.09-.84-.13-1.27-.09.19,3.65-.2,7.44-2.03,10.68-.77,1.35-2.97,3-2.6,4.29.06.2,1.96,2.87,2.28,3.23,4.24,4.71,15.05,4.79,21.08,7.06,4.02,1.51,8.84,5.55,12.34,7.98.33.23.39.54.98.38.05-7.81,3.61-16.62-1.59-23.53-3.55-4.72-6.51-7.62-11.13-11.25-.36-.28-.47-1.01-.63-1.11ZM43.58,639.34c2.25.42,5.62-.31,8.01,0-2.13-2.41-5.43-6.85-8.01-8.61-1.34-.91-3.58-1.42-5.02-2.41-7.88-5.39-1.7-15.44,4.91-9.72,1.49,1.29,2,3.46,3.03,4.9.97,1.35,3.56,3.61,4.88,4.89,4.05,3.91,8.4,7.76,13.3,10.54-.36-7.49-5.41-14.85-9.65-20.84-2.93-4.14-6.03-7.56-9.53-11.21-.31-.33-.49-.73-.6-1.15-12.79,7.38-19.3-16.4-4.86-17.25,1.84-.11,2.97.23,4.5,1.19-.34-5.4,1.75-9.92,4.69-14.27l-2.93-6.06c-.93-.36-1.43,1.1-2.06,1.55-6.26,4.39-12.4,5.14-19.63,2.37l.38,56.3c3.18,0,5.76.27,8.56,1.8,3.44,1.88,6.38,7.29,10.01,7.97ZM18.76,613.34v-34.8c0-.55-1.94-1.09-2.29.06-.41,1.34-.43,5.03-.47,6.61-.2,9.25.93,18.79.42,28.13.08,1.61,2.08.91,2.34,0ZM164.16,577.96l-1.52.62,1.13,5c2.98,1.03.28-4,.39-5.62ZM504.63,578.55v34.8c0,.44,1.98,1.93,2.34,0-.52-9.34.62-18.88.42-28.13-.03-1.58-.06-5.26-.47-6.61-.31-1-2.06-.81-2.29-.06ZM499.15,578.75c-3.9.08-5.13,4.21-8.62,5.34.24,2.95,1.08,5.94.8,8.92-.22,2.36-1.64,4.87-1.92,7.07-.3,2.39.15,5.15-.03,7.59-1.2,1.19-7.74-5.31-9.29-6.15-2.09-1.15-5.69-2.86-7.92-3.81-4.56-1.96-4.96-1.74-8.55,1.59-5.78,5.37-10.17,13.69-14.11,20.48,6.51-2.08,13.08-4.11,19.99-4.07l16,1.92.33,2.09c-6.41,2.49-11.12,7.75-15.98,12.4-.33.32-.72.52-1.18.57l.19.78c12.89,2.23,18.15-12.9,29.9-13.68l.39-41.05ZM111.79,580.31c-4.32,1.5-8.55.95-12.9,0,2.6,3.25,2.07,7.26,2.99,10.89,1.71,6.78,3.52,8.71,3.28,16.69-.16,5.33-1.47,9.59-5.43,13.33l3.32,5.25c6.67-2.06,8.42-11.89,9.41-17.94,1.57-9.56,1.71-18.79-.67-28.23ZM447.94,585.39l-2.35,1.04c1.09,12.78.31,25.69-3.11,38.05.13.16,3.13-2.11,3.3-2.37.5-.76.75-2.82,1.24-3.84,2.9-6.04,6.57-12.17,10.71-17.43,1.41-1.8,3.17-3.37,4.68-5.09-5.92-1.42-12.98-3.58-14.47-10.36ZM444.04,587.35c-.32-.43-1.94,1.4-1.97,1.75-.06.6.41,1.52.43,2.34.18,10.43-.7,21.43-3.26,31.57-.5,1.97-1.31,3.83-1.84,5.78,2.28-1.79,3.42-6.5,4.1-9.38,2.46-10.37,2.79-21.44,2.53-32.06ZM164.76,588.52c-.73.15-.5,1.06-.43,1.57.48,3.21,1.73,7.88,2.6,11.1.32,1.19.97,5.34,2.51,4.91l.44-1.18c-1.86-4.56-2.08-10.6-3.77-15.03-.21-.55-.63-1.53-1.35-1.38ZM439.74,590.47c-.36-.37-3.24,1.1-3.69,1.58-1.83,1.95-3.94,6.93-6.09,9.55-2.3,2.82-5.33,5.21-8.2,7.45-.15.61,4.84,4.67,5.63,5.69,3.52,4.52,5.79,12.45,3.75,17.95,1.71,1.29,3.85-5.48,4.19-6.56,3.57-11.26,4.69-23.89,4.41-35.66ZM79.4,602.15c1.81.31,2.26,1.57,3.07,2.99,2.61-.67-2.28-5.01-3.12-4.11l.05,1.12ZM85.21,608.07c-.17.73.25,1.08.53,1.62,1.58,3.02,5.36,7.98,7.51,10.86.89,1.2,2.45,3.6,3.34,4.47.41.4.5.83,1.31.64,1.16-.26-.41-2.13-.65-2.47-2.77-4.01-7.35-10.68-10.5-14.13-.44-.48-.78-1.12-1.55-.99ZM413.55,617.06c.18-1.81-1.19-3.29-2.34-4.5-3.48-.04,1.42,5.46,2.34,4.5ZM357.11,625.03c-6.04-5.54-7.45-3.97-14.2-6.72-6.66-2.72-5.12-3.35-12.8-3.19-4.35.09-8.41.06-12.72.77,1.83,1.72,3.85,2.85,5.62,4.73,3.79,4.02,5.79,8.8,10.22,12.46,5.37,4.43,9.79,5.68,16.2,7.64,3.23.99,7.77,4.46,10.54,6.66,3.7,2.95,6.42,6.86,9.6,10.33.07-5.46-4.43-11.27-8.15-15.11-7.4-7.62-14.66-11.41-23.81-16.26-4.4-2.33-2.5-3.89,1.76-3.32,4.54.6,14.95,8.19,18.67,11.43,3.23,2.81,6.27,6.42,9.18,9.58.1-1.63.78-3.32.16-4.84-1.84-4.46-6.7-10.88-10.28-14.17ZM427.18,624.82c.99-3.63-1.75-7.44-4.44-9.71-1.7-.05,1.32,4.52,1.56,5.08.6,1.43.93,2.96,1.33,4.45l1.55.17ZM43.38,624.48c1.36-1.07-2.31-6.1-4.29-5.47-.5.44,2.2,2.7,2.52,3.14.3.41.93,2.98,1.77,2.33ZM422.24,637.68c.71.78,1.79.12,1.84-.87.03-.63-1.31-4.44-1.64-5.39-1.52-4.34-3.71-9.32-7.13-12.41l-.82,1.19c1.92,2.5,3.52,5.27,4.72,8.2.68,1.66,2.51,8.71,3.03,9.28ZM480,619.8c-5.74.34-11.01-.79-16.81.2-7.78,1.33-14.43,3.71-20.51,8.8-1.55,1.3-2.96,3.32-4.53,4.46-3.39,2.44-8.13,3.78-11.51,6.86-3.55,3.23-4.73,7.49-5.27,12.12,3.6-.75,5.45,1.27,8.56,2.32.26-.73.74-1.43,1.24-2,3.56-4.12,7.26-9.1,11.11-12.84,1.15-1.12,7.68-6.97,8.59-7.41.63-.31,1.01-.55,1.77-.39l-.37,2.17c-7.86,5.98-13.71,13.89-20.34,21.09-.02.63,4.33,1.29,5.05,1.59,1.35.56,4.1,3.36,5.49,2.72,3.05-2.92,6.93-5.1,9.77-8.23,3.62-3.99,5.19-9.26,8.29-13.61,4.97-6.98,12.01-12.23,18.97-16.98.35-.24.72.06.51-.87ZM498.76,622.92c-9.85,2.11-14.44,13.09-24.87,14.03-2.42.22-5.12.14-7.06-1.47l-.51.12c-4.95,4.68-6.22,11.52-10.36,16.65-3.26,4.03-7.84,7.07-12.33,9.58l1.37,2.1c5.9-2.41,10.38-7.67,16.08-10.46,4.47-2.19,18.97-5.27,23.75-4.7,1.07.13,6.81,1.58,7.28,2.1.49.55.1,1.41.77,1.37l5.87-18.57v-10.75ZM19.83,624.98c-3.12-1.69-6.55.21-5.34,3.95,1.84,5.68,8.21,1.15,5.34-3.95ZM508.01,630.61c2.44-2.48,1.08-6.55-2.81-6.32-2.44.14-2.73,4.26-1.77,5.9s3.32,1.7,4.58.42ZM48.07,628.79c.66-.74-2.32-3.59-2.73-3.12-.53.95,2.35,3.56,2.73,3.12ZM383.62,638.01c-3.51-4.24-6.62-8.89-12.67-9.22,2.01,6.28-1.1,12.52-.4,18.96.34,3.09,2.77,6.55,3.09,9.81s-1.33,6.1-.55,9.16c.12.47,2.75,5.06,3.05,5.36.43.43,1.8.83,2.59,1.54,5.13,4.66,5,8.27,7.17,14.31,1.17,3.25,3.34,6.31,3.43,10.06l3.22-7.52,2.63-11.06c-3.07.31-5.68-1.78-3.53-4.7.32-.44,4.42-3.25,4.92-3.3,2.24-.22,3.39,1.73,2.56,3.74-.27.65-1.04,1.21-1.11,1.58-.12.58.58,1.91.65,2.73.3,3.81-.84,7.35-1.42,11-.07.42-.41,1.36.29,1.27,1.21-3.74,2.96-7.91,4.88-11.34.67-1.19,3.45-4.69,3.64-5.35.39-1.38-.05-3.33,1.07-4.8.96-1.26,3,1.19,3.23,2.22.35,1.53.42,7.91-.98,8.64-2.07,1.08-2.19-.72-3.44-1.87l-3.22,6.15-4.99,13.78c4.37-6.61,13.03-13.26,14.87-21.1.75-3.19,1.28-7.83.86-11.06-.28-2.18-3.26-11.31-4.29-13.3-.69-1.35-2.44-3.08-3.12-4.69-1.73-4.08-1-9.6-5.96-11.63-4.51-1.85-10.36-1.21-15.06-2.72,1.18,1.96,3.47,3.89,4.69,5.66,1.44,2.07,4.07,6.93,4.3,9.39.06.69.25,1.03-.6.99-2.4-.11-2.32-2.88-3.15-4.29-1.44-2.45-4.74-6.1-6.65-8.4ZM62.93,642.47c.2-1.19-.85-1.84-1.56-2.54-1.98-1.96-4.87-3.95-7.05-5.85-.67-.58-3.49-4.06-4.29-3.33-.17.74.42.93.78,1.37,1.72,2.09,4.97,5.21,7.03,7.04.76.68,4.3,4.07,5.08,3.32ZM35.02,638.33c-1.31-1.13-2.33-2.92-3.82-3.42-1.76-.58-4.06-.37-5.8-1.43l.06,1.5c6.72,2.13,10.73,10.16,18.09,10.63,2.76.18,5.4-.97,8.12.09,3.38,1.33-1.75,2.45-3.07,2.59-5.22.54-7.4.06-11.61-2.76-3.76-2.52-6.62-6.26-10.82-8.14,2.7,10.83,7.54,20.95,12.52,30.87,1.72-.66,3.66-.83,5.38-1.44,8.86-3.14,12.64-7.24,23.15-3.44.62.23,3.2,2.05,3.51,1.76l-2.78-5.05c-5.09,2.43-9.96-4.87-9.33-9.19.13-.93,1.01-1.58.71-2.68-.14-.52-4.08-5.33-4.62-5.56-4.66,1.02-10.09,1.81-14.58-.29-1.36-.64-3.87-2.96-5.13-4.05ZM20.3,642.1c-1.51-.22-2.59.96-2.65,2.42,5.17,21.79,16.16,42.21,30.84,59.02,7.03,8.05,22.47,22.46,32.74,25.23,2.32.62,4.15-.91,2.41-2.42-.79-.69-5.42-2.41-6.9-3.27-23.81-13.81-48.19-47.8-55.05-74.35-.58-2.23-.46-4.51-1.39-6.63ZM504.9,642.59c-.49-.41-1.18-.59-1.81-.49-.93,2.12-.81,4.39-1.39,6.63-6.86,26.55-31.24,60.54-55.05,74.35-1.48.86-6.11,2.58-6.9,3.27-.95.83-.77,2.02.28,2.54.8.39,1.35.1,2.12-.11,10.9-2.93,27-18.42,34.32-27.08,13.93-16.48,24.26-36.11,29.26-57.17.08-.57-.45-1.61-.84-1.93ZM267.76,647.95c-.64-1.49-1.42-5.18-3.53-4.08.42,5.6-1.67,3.92-2.97.15-10.72.57-21.36,1.42-31.91,3.25-23.16,4.01-49.63,11.57-71.91,19.17-19.49,6.65-50.41,19.59-64.66,34.43-3.93,4.09-6.22,7.57-4.83,13.54.66.17.78-.26,1.18-.58,3.21-2.57,6.9-7.84,10.33-10.78,4.44-3.8,12.78-9.26,17.93-12.18,1.64-.93,8.29-4.19,9.77-3.78.87.24,1.69,1.7,1.09,2.5-.56.74-7.17,3.56-8.76,4.55-8.41,5.23-18.2,12.11-25.14,19.23-.55.56-3.74,3.92-3.86,4.17-.28.61,1.04,5.61,1.48,6.14.22.27,2.36,1.49,2.63,1.28-.58-1.77-1.32-4.28-1.52-6.1-.05-.46-.32-1.67.54-1.32,1.57.64,2.46,6.68,3.52,8.2l1.69-2.07-2.27-8.87c2.92-.53,2.81,7.79,4.48,7.42.28-.06,1.36-1.21,1.32-1.68-.1-1.09-3.36-6.15-2.28-7.3,2.6-.65,3.11,6.04,4.11,6.26l10.16-5.86-.59-5.09c2.13-.61,2.38,2.27,2.74,3.91l1.4-.77c-.67-2.85-2.12-5.59-1.79-8.61.46.04.84-.21,1.2.24.88,1.11,2.41,6.9,2.73,7.17l2.94-1.15-2.18-8.21,1.5.07,3.02,6.99c3.73-1.14,7.13-3.11,10.73-4.51,25.94-10.08,52.76-18.85,80.04-24.33,10.31-2.07,20.81-3.46,31.13-5.54l-.95-6.69c3.09-.4,2.87,3.91,3.51,5.99l1.18.26c.33-.28-1.83-7.17-1.87-8.52-.01-.45-.05-1.13.51-1.25,1.71-.37,3.35,7.96,3.71,9.38l3.52-.39c.55-.56-1.86-7.11-.19-8.21,1.89-.39,2.41,6.38,2.88,7.59l.61.24,25.22-1.98-.78-7.04c3.17-.31,2.89,4.45,3.71,6.65,1,.69,2.23.76,3.33.38-.4-1.48-2.62-9.46.91-7.06.98.67,1.27,5.99,1.91,7.36l4.6.87c-.8-1.7-2.18-10.86-3.38-11.27-2.65.13-5.17-1.32-7.47-1.91-19.77-5.06-43.21.11-62.92,3.71-27.87,5.1-57.71,12.47-84.22,22.49-1.37.52-6.35,3.48-7.36,2.82-.75-.57-.04-1.47.4-1.97,2.73-3.09,19.53-8.95,24.24-10.55,20.66-6.99,43.98-12.63,65.42-16.67,21.19-4,42.96-8.89,64.43-4.14,3.26.72,10.47,4.72,7.16-2.86-.33-.75-3.31-4.64-3.89-4.9-1.26-.56-5.29-1.28-6.82-1.5-2.92-.42-6.07-.43-9.03-.63.21,1.31-.3,4.71-2.14,4.3-.76-.17.13-4.31-1.96-4.69-.67-.12-1.46.05-2.15,0-.04,1.67.49,3.82-1.55,4.3ZM491.73,653.81c-3.37-.46-7.35-1.71-10.75-1.59-3.27.11-18.08,3.76-20.79,5.42-2.11,1.3-4.47,3.73-6.64,5.09-1.9,1.2-3.89,2.2-5.99,3,1.83,3.31,4.17,5.84,8.04,6.3,9.07,1.08,13.46-2.68,21.87-3.36,2.15-.17,4.8-.46,6.65.73l6.44-12.86c-2.64-.42-5.31-1.09-8.01-.79-1.77.2-3.45,1.31-5.11,1.53-3.18.42-6.85-.55-9.93.42-1.93-2.65,8.27-1.89,9.14-2,2.41-.3,4.88-1.85,7.47-1.94,2.09-.07,5.44.48,7.23,1.59l.4-1.56ZM437.65,662.16c-2.08-1.12-4.83-1.43-6.97-2.22-5.98-2.21-7.23-5.58-14.14-2.56-1.14.5-2.18,1.2-3.2,1.89.4,2.32,1.47,4.51,1.77,6.86.56,4.27-.27,12.79-2.05,16.71-.38.83-4.08,5.89-3.8,6.16,1.6-.62,2.98-1.95,4.54-2.69,1.13-.54,4.79-1.45,5.22-1.81.58-.48.58-1.75,1.01-2.5,1.34-2.31,3.22-.7,2.91,1.53,7.41-2.48,13.89-3.1,21.5-.98,1.52.42,2.85,1.26,4.21,1.66,2.62.77,5.33,1.14,7.9,2.06,1.17-2.99-.41-6.17-2.17-8.58-2.22-3.03-4.39-3.65-6.78-5.73-.91-.79-1.6-2.33-2.8-3.06-4.97-3.03-10.16-.85-15.22.55,2.39-2.55,6.28-5.02,9.77-5.47l-1.7-1.81ZM366.9,670.37c-6.91-6.61-15.97-14.53-26.36-11.58-4.34,1.23-7.59,3.9-12.58,5.01-2.74.61-5.81.54-8.33,1.05-.62.13-4.09,2.06-4.19,2.46-.07.29,3.03,2.67,3.68,3.74,3.67,6.02,4.63,11.54,9.84,17.53,7.29,8.38,11.69,6.65,21.42,7.51,1.79.16,4.66,1.83,5.06,1.82.61,0,4.97-2.7,6.59-3.17s4.33-.88,6.01-1c4.35-.31,8.2.08,12.29,1.51l-2.97-5.05-6.8-6.49c-.01-1.22,4.71.38,5.43.81,2.6,1.54,7.41,7.52,8.42,10.34.64,1.78.31,3.84,1.97,5.07.75-3.93-2.09-7.2-3.4-10.68s-1.44-6.52-3.59-9.7c-2.87-4.24-5.38-2.74-8.81-5.26-1.5-1.1-2.47-2.77-3.69-3.93ZM10.94,659.68c-1.24.14-1.82.48-1.97,1.74-.5,4.17-.29,13.23.04,17.58.1,1.29,1.27,2.27,2.22,1.31,1.53-1.54.17-5.18.11-7.14s.31-12.99-.4-13.48ZM513.91,680.31l.49-19.27c-.12-.91-1.11-1.32-1.95-1.37-.71.5-.33,11.59-.4,13.48-.05,1.58-1.77,7.42.98,7.46l.88-.31ZM76.54,674.59c-1.54-.37-1.76-2.59-2.68-3.38-1.12-.96-7.11-3.82-8.67-4.23-9.11-2.39-12.07,3.11-19.79,5.46-1.53.47-2.38.05-2.97.17-1.39.29.55,2.65,1.23,3,6.15,3.15,13.23-6.86,20.32-3.51,4.74,2.24-3.25,2.14-3.84,2.25-4.38.83-7.15,4.88-12.62,4.42-.54-.05-2.55-1.17-2.19-.15.57,1.63,4.79,7.39,6.08,9.17,8.33,11.54,19.36,22.26,31.16,30.22.77.52,5.34,3.77,5.75,3.43-1.08-3.45-3.55-6.05-4.2-9.67-.14-.78-.51-3.93-.48-4.57.06-.96,1.09-2,1.1-3.14,0-1.02-.8-2.23-.72-3.33-1.7.7-2.95.02-4.48-.02-4.6-.1-7.8.59-12.28-1.4-5.35-2.37-4.41-6.78-8.64-10.12,3.55-2.14,6.39,3.09,8.79,4.89,3.75,2.81,8.85.71,13.27,1.59.77.15,1.28.94,2.17.76l-1.74-4.35c-5.07.37-7.85-4.65-8.04-9.15-.09-2.25.9-3.91,2.03-5.78.46-.76,1.95-1.63,1.42-2.55ZM481.96,672.58c-.66-.97-8.03.23-9.45.51-5.39,1.07-9.98,4.46-15.56,2.22.68,2.25,1.65,3.77,2.23,6.18.69,2.88.22,6.25,1.27,8.19,1.43,2.64,1.77,5.42,3.52,7.74l1.07-.34c2.38-3.11,5.03-6.1,7.32-9.28,2.73-3.79,7.1-9.87,9.22-13.84.25-.47.54-.74.38-1.37ZM303.19,678.19c-3.71-3.84-19.38-3.53-24.68-3.26-10.96.57-23.4,2.32-34.29,4.02-40.73,6.34-82.64,17.81-120.07,35.12-5.86,2.71-11.79,5.57-17.05,9.33,2.87-.4,6.48-.71,9.21-1.54,2.98-.9,6.35-3.15,9.29-4.39,36.84-15.58,77.68-27.39,117.07-34.6,12.27-2.25,36.62-6.81,48.17-4.24,3.75.83,6.95,2.52,6.15,6.96-.35,1.96-1.18,1.63-2.22,2.46-3.36,2.69-6.19,5.06-9.93,7.28-8.67,5.14-18.64,9.16-28.01,12.84l4.12.79c11.98-4.31,26.19-10.37,36.11-18.61,2.55-2.11,9.44-8.74,6.14-12.16ZM391.61,701.85c3.47-7.71,6.86-15.94,5.91-24.58-1.45,1.13-.6,3.84-.83,5.62-.77,5.97-2.99,13.75-6.2,18.82l1.12.14ZM290.03,684.3c.3-2.13-6.8-1.87-7.03-1.56l.65,1.1,6.38.46ZM278.31,682.74c-8.14.84-16.7,1.59-24.7,3.25-1.73.36-6.23.55-4.36,3.02l29.01-4.76.05-1.52ZM461.03,701.29c.37-.41,1.86-1.51,1.6-2.12-2.93-3.6-2.71-6.47-7.13-8.92-4.19-2.32-19.04-6.2-23.78-5.96-1.35.07-8.9,1.71-9.5,2.42-.46.54.2,5.43-2.79,4.05-2.53-1.17-.98-3.84-1.19-4.11-9.09,3.25-14.79,11.19-21.49,17.59,4.18-1.29,8.16-3.53,12.43-4.57,13.25-3.23,28.95-1.61,41.39,3.72,1.75.75,3.34,1.97,5.09,2.75.68.1,4.72-4.13,5.37-4.85ZM241.88,687.93c-1.2.08-9.27,1.33-5.39,3.22.91.44,6.76-.66,7.63-1.36,1.82-1.48-.88-1.95-2.24-1.86ZM10.4,810.06c.88-1.97.14-3.57.18-5.52.44-22.23.89-44.59,1.16-66.85.07-5.98-.1-12.01-.03-18.03.1-8.11,1.37-19.13.36-26.91-.07-.54-.4-2.07-.96-2.19-.72.11-1.84.72-2.05,1.43-.27.91-.41,5.16-.46,6.55-1.43,36.15-.07,72.55-1.16,108.73-.05,1.71-1.36,3.34,1.41,3.7.55.07,1.35-.47,1.55-.92ZM513.72,810.87c.66.23,1.16.11,1.76-.18,1.6-.77.49-2.07.47-3.41-.51-36.1.27-72.62-1.16-108.73-.05-1.38-.19-5.64-.46-6.55-.21-.71-1.33-1.32-2.05-1.43-.56.12-.89,1.65-.96,2.19-.61,4.73-.09,12.09-.05,17.12.26,31.38.92,63.19,1.55,94.66.03,1.45-.86,5.69.9,6.32ZM231.4,691.74c-.57-.16-.96-.25-1.57-.22-4.49.21-11.47,1.81-16.1,2.68-6.39,1.21-15.51,2.71-21.52,4.67-2.69.88-2.45,3.41.17,3.32,4.13-.13,13.23-3.36,17.89-4.41,5.67-1.27,11.63-2.16,17.21-3.51,1.47-.35,4.13-.39,3.9-2.54ZM379.78,717c1.42-2.45,2.53-5.5,3.29-8.25.41-1.47,1.8-6.2.96-7.21-.97-1.15-6.71-3.61-8.29-3.85-6.2-.96-19.95,1.36-21.72,8.58-.59,2.41.05,4.4-.9,6.92-1.35,3.58-4.44,5.75-6.19,8.67-3.75,6.29-1.45,15.8-3.05,22.76-.29,1.28-3.4,7.32-3.03,7.72,5.77-2.13,11.93.7,17.74.75,13.59.1,36.27-8.06,41.23-22.1,1.2-3.4-.2-3.36-.94-6-1.25-4.48-.99-8.88-3.63-12.8-.83-1.23-6.54-6.59-7.76-6.71-.57-.06-.63.19-.84.63-1.7,5.5-3.66,10.96-6.96,15.72-1.54,2.22-6.75,8.59-9.13,9.25-2.92.82.58-3.62,1.16-4.32,2.74-3.3,5.78-5.82,8.04-9.74ZM341.82,700.34c-1.22-.35-6.1,0-7.82,0-.45,0-1.81.88-2.54.79.2,2.19,3.05.78,4.48.76,1.21-.02,5.33.47,5.79.35s.74-.62,1.06-.92c0-.07-.9-.96-.97-.98ZM453.03,708.16c-7.22-2.78-15.02-6.49-22.85-7.06-11.68-.85-22.84.73-33.43,5.68.03,1.24,12.92,4.25,14.66,4.87,5.64,2.01,9.11,4.89,12.89,9.39,1.24,1.47,3.03,3.21,3.32,5.09h.58c5.66-3.73,11.62-6.96,17.13-11.02,1.69-1.25,3.82-2.67,5.35-4.03.46-.41,2.7-2.44,2.34-2.93ZM177.88,706.17c.59.85,8.41-1.41,8.16-2.86-.32-1.83-5.03-.11-6.22.36-.89.35-2.79,1.27-1.94,2.5ZM316.66,710.06c1.41.88,4.99-2.71,6.24-3.63.95-.7,4.65-1.92,3.32-3.77s-9.02,3.89-9.72,5.62c-.29.71-.14,1.13.16,1.79ZM156.45,710.99c-.36.35-.65,1.43-.32,1.88.32.38.75.38,1.2.4.96.06,11.18-3.24,11.57-3.71,1.02-1.26-.27-2.13-1.61-2.02-1,.08-10.43,3.05-10.84,3.45ZM417.3,719.26c-5.19-3.77-11.65-5.74-17.82-7.19l2.82,9.3,10.86,2.03c.69-.52-5.65-5.57-5.86-6.06-.59-1.39,2.18.13,2.46.28,2.92,1.57,5.74,4.1,7.7,6.77l6.65,1.36c-2.02-2.36-4.29-4.66-6.8-6.48ZM343.97,719.11c-2.38-.15-5.01-.88-7.28-1.13-7.21-.8-15.34-1.23-22.63-1.61-37.7-1.96-75.06-2.18-112.68-.11-4.2.23-9.04.05-13.18.5-2.02.22-3.89,1.62-5.89,1.92-7.1,1.07-16.27.59-23.79,1.26-23.91,2.11-47.56,7.11-70.27,14.53-5.92,1.94-22.26,8.57-25.65,13.44-4.71,6.76-1.17,15.75,1.42,22.68,4.22,11.29,11.17,24.71,13.26,36.39.71,3.99.55,8.33,1.88,12.2.41,1.2,3.79,6.22,4.85,5.48,1.9-8.94,10.71-10.25,17.62-13.86l17.19-5.29c.37,4.4-.53,8.74-.77,13.1-.17,3.15.19,13.32-1.38,15.44-.31.55-.53.35-.98.23-1.32-.34-2.99-1.93-4.51-2.16-9.69-1.51-22.95,1.49-30.75-4.73-6.19-4.93-5.46-13.02-6.67-20-.97-5.59-3-9.56-4.88-14.67-1.98-5.38-3.93-10.76-5.99-16.1-12.8.69-25.81,2.42-37.47,7.97,3.57,5.03,5.56,10.57,5.87,16.8.54,10.78-4.24,20.87-5.47,31.31-.54,4.54-.23,8.61.77,13.08,9.58-3.25,19.56-6.79,29.9-7.06s21.91,1.15,32.45,1.97c8.07.62,27.49,2.21,31.53-6.77,3.44-7.64-2.85-26.53,7.14-30,49.9-8.49,99.65-9.12,150.12-7.01,34.64,1.45,68.43,1.64,103.01,6.05,4.61.59,9.76,1.57,14.17,2.64,2.32.56,3.74,1.52,5.07,3.53.77,8.1.41,17.24,2.66,25.1.9,3.16,2.85,3.97,5.85,5.1,7.85,2.94,16.28,1.98,24.41,1.36,23.07-1.76,36.23-3.68,58.84,3.72.94.31,1.89,1.44,3.11,1.37,4.97-18.25-8.72-34.17-3.01-52.86.99-3.25,3.28-5.84,4.19-8.91-7.9-2.74-15.39-5.08-23.7-6.2-4.57-.62-9.2-.91-13.79-1.19-3.18,10.88-8.9,20.72-10.86,31.94-.98,5.59-.5,11.36-4.09,16.24-6.52,8.87-18.65,6.01-28.27,6.91-2.87.27-5.92.39-8.4,1.95-2.92-8.54-3.51-17.64-4.3-26.58,7.19,1.03,14.35,3.6,20.98,6.57,4.85,2.18,14.68,5.82,12.24,12.58.27.28,2.41-1.45,2.74-1.75,6.06-5.59,4.58-11.7,6.04-18.98,1.7-8.49,6.71-19.6,9.91-28.01,3.37-8.88,11.96-23.44,2.6-31.39-8.44-7.17-21.29-10.41-31.45-14.29l-21.11-4.49c1.11,4.84-3.47,10.71-6.66,14.15-10.48,11.33-26.35,16.71-41.62,15.56-3.3-.25-7.39-1.54-10.55-1.59-2.2-.03-7.28,2.05-8.38.57l-.33-1.07c1.67-3.9,4.1-8.32,4.18-12.63.11-5.38-.74-10.27.08-15.92.39-2.72.98-5.06,2.69-7.28ZM244.59,804.24c.2-.18.2-.68.48-.89-.36-.49-.96-.67-1.53-.8-1.71-.4-6.34-.5-8.41-.58-13.02-.5-27.82-.63-40.77-.28-6.05.17-12.14.85-18.16,1.48-2.21,2.61-.73,3.63,2.26,3.52,5.31-.19,10.68-.88,15.99-1.21,15.36-1.02,33.44,1.57,48.49-.77.54-.08,1.24-.08,1.66-.47ZM166.41,808.53c.67-.59,1.43-3.38.1-4.02-.29-.14-5.55.16-6.44.22-7.52.54-15.34,2.81-22.97,3.22-3.93.32-5.99,4.87-.48,4.6s12.5-2.06,18.36-2.75c2.16-.25,10.17-.16,11.43-1.28ZM339.26,805.16c-.33-.51-10.32-.99-11.49-.8s-2.5,1.1-2.2,2.48c.22,1.02,8.6,1.5,9.99,1.4,2.3-.17,3.99-.48,3.7-3.08ZM393.93,810.27c-1.79-.08-3.57-.93-5.25-1.2-10.95-1.77-23.69-3.31-34.74-3.96-1.9-.11-7.55-1.89-7.62,1.41-.04,1.91,2.17,1.86,3.76,2.07,11.92,1.57,24.56,2.14,36.64,3.62,1.09.13,5.72,1.22,6.12.94.23-.16.27-.67.45-.92l.71.33-.07-2.28ZM95.37,820.36c4.15-1.24,8.21-2.73,12.42-3.8,2.03-.52,7.57-1.13,8.79-1.76,1.29-.67.77-1.9-.64-1.85-3.8.15-12.69,2.87-16.58,4.18-1.66.56-4.47.98-4,3.23ZM405.24,813c-1.25.34-1.22,1.25.02,1.79,2.02.89,7.28,1.45,9.95,2.17,3.11.85,7.19,2.72,10.06,3.24,1.8.33,1.29-1.06-.1-1.86-2.99-1.73-11.11-3.68-14.72-4.43-.91-.19-4.69-1.04-5.2-.9ZM11.72,828.77c-.25-2.48.18-5.3,0-7.82l-.91-.53c-2.2.61-2.46,1.94-2.6,4.06-.47,6.93,1.84,15.4,5.92,21.04,1.17,1.62,2.32,3.17,4.44,3.24,3.26-.48-2.64-7.22-3.23-8.37-1.37-2.68-3.33-8.68-3.63-11.62ZM511.66,820.95v7.82c0,2.16-2.54,9.49-3.63,11.62-.59,1.15-6.48,7.89-3.23,8.37,2.13-.07,3.27-1.63,4.44-3.24,4.08-5.64,6.39-14.1,5.92-21.04-.14-2.11-.4-3.45-2.6-4.06l-.91.53ZM93.03,820.76c-2.37-.85-4.25,4.23-2.14,4.69.9.2,2.5-4.33,2.14-4.69ZM429.97,825.45c3.28.01,1.09-5.36-1.57-4.69-.27,1.82,1.67,2.85,1.57,4.69ZM493.68,853.99c-2.08-.32-3.66.97-5.65,1.36-2.58.5-9.72.28-11.29,2.13-1.66,1.95,4.19,1.68,5.38,1.6,3.21-.2,11.56-1,11.56-5.09ZM39.2,858.95c.67.56,2.29.84,3.19.92,7.5.63,20.55.39,28.16-.41,2.4-.25,4.34-2.41,1.58-2.75-10.82-1.33-22,.4-32.87-.61l-.96,1.2c0,.31.64,1.44.9,1.65ZM99.22,860.19c1.24-2.63-.17-2.71-2.36-3.18-2.03-.44-8.28-1.06-10.29-1-1.62.05-4.16,1.25-2.11,2.87s11.62.81,14.77,1.31ZM466.71,858.29c-3.61-.95-7.2-.38-10.71-.46-17.37-.39-34.9.22-52.42.24-88.07.06-175.72-.57-263.82-.16-10.33.05-20.66.19-30.9-.8l.2,1.17c-2.6.17-1.88,2.6-.61,3.96.55.58,3.68-.41,4.7-.45,15.62-.65,31.42.31,47.01.31,91.17,0,182.12-1.02,273.16-.7,10.62.04,21.32.89,31.94,0,.97-.82,1.5-1.76,1.46-3.11Z"/>
          <path class="cls-2" d="M88.73,742.95c-.11-1.73,1.87-2.21,2.2-3.94,12.85-3.53,25.47-8.05,38.43-11.12,8.54-2.02,17.89-4,26.6-3.9.76.44.7,2.31.36,3.09-1.07,1.52-4.07.82-5.65,1.03-21.03,2.75-41.37,10.14-61.96,14.85Z"/>
          <path class="cls-2" d="M219.97,792.12c-.85.71-11.06,1.53-13,1.65-4.95.32-10.34.04-15.24.4-7.21.53-13.97,2.16-21.51,2.18-.35,0-1.72-.14-1.77-.43-.33-1.81,1.6-2.11,3.04-2.43,10.93-2.46,24.21-2.81,35.47-3.62,3.01-.22,10.17-1.68,12.82-.31.98.51.79,2.05.18,2.56Z"/>
          <path class="cls-2" d="M95.74,835.64l.02,1.14c-8.41.75-16.56-1.96-24.82-2.73-6.21-.58-16.13-.46-22.24.43-1.51.22-9.8,2.52-10.4,1.92l.47-2.66c18.69-6.07,38.17-.86,56.96,1.91Z"/>
          <path class="cls-2" d="M397.14,801.98c-1.24-1.57,5.48-1.21,6.05-1.16,5.29.4,20.34,4.53,25.23,6.82,1.06.5,5.29,3.03,6.06,3.71,1.02.9,1.54,3.86-.1,4.27-1.76.28-2.16-1.55-3.05-2.29-9.03-7.5-23.53-7.01-34.2-11.34Z"/>
          <path class="cls-2" d="M94.2,809.8c.07-1.56,1.89-2.68,3.2-3.24,4.4-1.88,18.62-5.87,23.28-6.43,2.24-.27,3.52.68,1.63,2.42-1.41,1.3-13.01,3.78-15.79,4.54-1.9.52-11.26,4.21-12.33,2.71Z"/>
          <path class="cls-2" d="M492.51,839.91c-3.01.3-5.61-1.56-8.42-2.32s-9.41-1.42-11.26-2.81c-1.11-.84-1.31-1.61.06-2.2,2.5-1.08,17.41,2.89,19.25,4.8.53.55-.05,1.78.37,2.53Z"/>
          <path class="cls-2" d="M472.44,780.16c2.59-.87,9.19,1.08,11.85,2.1,2.13.81,9.38,3.58,5.35,5.99-5.49-2.87-11.53-4.32-17.45-6.01l-.71-.76c.19-.49.42-1.13.96-1.31Z"/>
          <path class="cls-2" d="M49.58,780.15l.44,1.89c-4.35,1.31-8.8,2.42-13.1,3.91-1.07.37-5.47,2.83-6.02,1.93-1.36-2.25,3.28-4.23,4.67-4.84,4.27-1.89,9.32-3.38,14-2.89Z"/>
          <path class="cls-2" d="M75.71,748.7c-1.6,1.28-4.04,2.2-5.71,3.48-1.47,1.12-2.45,2.88-4.2,3.63l-.92-.55c.94-3.66,4.21-6.77,7.3-8.71,1.84-1.16,5.49-3.97,6.21-.45-1.23.44-2.03,2.09-2.68,2.61Z"/>
          <path class="cls-2" d="M446.78,834.44c-.15-1,.62-1.01,1.3-1.24,2.31-.77,6.56-.94,9.07-1,1.42-.03,8.97.29,9.17,1.27-.93,2.4-3.87.99-5.65.96-4.62-.09-9.27.1-13.89.01Z"/>
          <path class="cls-2" d="M90.95,812.43c-.41.46-1.58.86-2.23,1.48-2.11,2.01-3.17,4.34-6.64,4.5-.75-3.12,3.18-5.62,5.59-6.72.87-.4,3.77-1.79,3.73-.18-.11.33-.22.66-.46.92Z"/>
          <path class="cls-2" d="M170.72,723.89c.35.29.53,2.28.29,2.63-1.15,1.64-9.12,1.85-7.04-1.56.67-1.1,5.79-1.89,6.75-1.07Z"/>
          <path class="cls-2" d="M378.42,799.6l-.05-1.52c2.94-.1,6.64-.83,9.52.06.93.29.81,1.5.29,2.12l-1.04.56-8.72-1.23Z"/>
          <path class="cls-2" d="M111.01,835.61c.86,2.31-5.97,2.18-6.25,1.95-.22-1.81,5.96-2.22,6.25-1.95Z"/>
          <path class="cls-2" d="M237,598.57c-.6-.65-.92-1.78-.48-2.59,3.28.31,5.61,1.53,9.11,1.1,5.69-.69,12.1-6.78,15.26-11.33,1.79-2.57,2.54-5.62,4.72-7.78,2.39,2.25.26,6.23-1.2,8.57-4.63,7.45-15.98,17.17-25.34,13.28-.43-.18-1.8-.96-2.07-1.25Z"/>
          <path class="cls-2" d="M108.83,631.3c.64-.57,2.31-2.55,2.92-.69.86,2.63-3.6,6.5-5.82,7.37-7.56,2.97-16.91,1.04-23.85-2.73-2.56-1.39-5.24-2.65-5.84-5.84.22-.4.49-.6.96-.64,1.16-.1,6.11,3.58,7.8,4.33,9,4.03,16.26,4.9,23.83-1.8Z"/>
          <path class="cls-2" d="M136.02,620.19c-6.42-1.87-10.53,6.25-7.9,11.62,1.93,3.92,6.1,1.44,8.67,3.83-3.71,2.74-11.14.83-12.32-3.7-.9-3.45-.7-9.34,1.91-11.99,2.42-2.46,9.78-5.17,9.63.25Z"/>
          <path class="cls-2" d="M220.06,598.68c-3.16-.28-8.15-.93-10.06,2.25-3.1,5.15-.81,12.7,5.98,12.23.39-.03,4.72-1.36,4.08.17-.58,1.39-4.66,2.24-6.06,2.19-2.46-.09-6.39-3.17-7.56-5.38-1.72-3.26-1.16-11.88,2.84-13.46,3.05-1.2,8.87-1.17,10.78,1.98Z"/>
          <path class="cls-2" d="M132.51,600.64c.48-.54,6.1,4.87,6.85,5.46,7.03,5.48,12.52,8.2,21.18,10.48.87.23,4.69.19,3.06,2.46-.63.87-6.07-.68-7.26-1.01-6.89-1.92-15.17-7.15-20.33-12.11-.75-.72-4.33-4.35-3.51-5.28Z"/>
          <path class="cls-2" d="M192.55,607.53c-.84.94-5.24,5.18-6.09,5.46-1.47.48-1.95-.68-1.53-1.92.15-.45,5.79-5.35,6.79-6.51,6.2-7.19,7.1-13.27,10.63-21.43.23-.53.26-1.31,1.09-1.25.94.2.23,2.92.09,3.6-1.31,6.64-6.46,17-10.99,22.05Z"/>
          <path class="cls-2" d="M118.34,671.7c-5.68,2.12-11.43,4.71-16.66,7.77-1.41.82-5.93,4.63-7.23,4.36-1.95-.4-.5-1.9.35-2.65,4.37-3.89,11.72-7.92,17.11-10.25,2.21-.96,7.5-3.81,6.43.77Z"/>
          <path class="cls-2" d="M278.31,633.09c-.02,3.25-3.7,1.59-5.65,1.54-3.14-.08-6.69-.14-9.8,0-3.99.18-8.16,1.24-12.05,1.17l-.66-.97c-.09-.93.75-1.72,1.57-1.96,1.36-.41,5.98-.83,7.65-.95,6.21-.47,12.89-.1,18.95,1.17Z"/>
          <path class="cls-2" d="M222.94,586.43c1.08,1.12,3.17,3.06,4.37,4.03,1.29,1.05,4.6,2.63,5.26,3.34.98,1.04.18,1.77-.98,1.71-3.13-.15-13.34-10.78-15.12-13.76-.38-.64-2.52-4.36-.44-3.48.96.41,5.51,6.71,6.91,8.15Z"/>
          <path class="cls-2" d="M120.2,603.77c.9,0,.91.67.99,1.35.56,4.93-2.25,14.15-4.37,18.73-.71,1.53-1.1,2.93-2.88,3.36-1.8-.12,1.55-5.27,1.84-5.97,1.23-3.07,2.31-7.09,2.94-10.35.28-1.42.39-6.85,1.49-7.12Z"/>
          <path class="cls-2" d="M227.7,630.84l.58.88c-.15,1.1-1.08,1.25-1.96,1.57-1.86.68-11.05,2.89-12.76,2.9-3.03.02-2.38-1.94.24-2.91,4.18-1.55,9.51-1.71,13.9-2.44Z"/>
          <path class="cls-2" d="M270.87,596.32c-1.97.23-4.14,3.83-3.89,5.65.13.95,1.07,1.82.77,2.96-5.5-.34-4.7-9.9.13-10.82,1.14-.22,3.35.72,2.99,2.21Z"/>
          <path class="cls-2" d="M182.15,613.54c-.29,2.2-2.99,3.57-4.81,4.37-1.39.61-8.27,3.07-8.84,1.24-.95-3.05,4.32-2.67,6.16-3.13,2.71-.68,4.86-2.07,7.48-2.48Z"/>
          <path class="cls-2" d="M72.7,637l-1.18-.26c-1.16-4.58-3.46-8.76-6-12.69-1.51-2.33-3.79-4.69-5.15-6.97-.31-.52-.77-.8-.57-1.58.78-.98,6.92,7.81,7.35,8.48,2.45,3.82,5.24,8.44,5.55,13.02Z"/>
          <path class="cls-2" d="M274,558.42c-.28,5.42-1.39,10.76-1.12,16.2.04.88,1.47,8.44.92,8.43-.69.05-.94-.66-1.17-1.17-1.64-3.61-1.25-19.05.41-22.68.27-.59-.06-.96.96-.78Z"/>
          <path class="cls-2" d="M86.38,661.63c.37-2.66,9.21-7.48,11.05-6.97,3.94,1.08-4.52,4.76-5.57,5.23-1.76.78-3.48,1.93-5.48,1.75Z"/>
          <path class="cls-2" d="M266.88,609.74c1.04,0,6.72.56,6.72,1.65-.31.36-.69.66-1.15.8-1.49.47-9.09.79-10.79.59-1.42-.17-1.96-1.05-.79-2,.77-.62,4.86-1.04,5.99-1.04Z"/>
          <path class="cls-2" d="M208.14,563.11c.67,0,4.41,8.22,4.95,9.5.28.65,1.64,3.15.51,3.39-.67.14-1.51-1.19-1.83-1.68-.78-1.2-4.25-8.84-4.25-9.86,0-.65.06-.97.61-1.36Z"/>
          <path class="cls-2" d="M119.97,586.97c.49,1.73.92,3.52,1.15,5.31.2,1.6.59,5.83.27,7.21-.14.57-.3,1.16-.8,1.53-.44,0-.88-1.75-.94-2.18-.37-2.63-.66-6.25-.83-8.94-.06-.98.07-1.98.02-2.95l1.14.02Z"/>
          <path class="cls-2" d="M223.86,609.9c-2.02,1.86-.98-2.39-1.15-3.5-.32-2.03-2.15-3.65-2.25-5.76,4.03-.28,6.14,6.75,3.41,9.26Z"/>
          <path class="cls-2" d="M131.6,623.38c.76-.24,1.59-.18,2.07.52-1.38,1.83-.68,5.18-1.22,6.98-.43,1.4-2.3.23-2.59-.8-.47-1.61-.21-6.08,1.75-6.69Z"/>
          <path class="cls-2" d="M215.71,602.25c.41,1.2-.62,2.09-.93,3.08-.23.75-.38,3.77-1.56,3.52-2.02-1.83-1.97-5.82.44-7.36l2.04.77Z"/>
          <path class="cls-2" d="M205.16,579.08l-1.12.06c-.38-1.38,1.62-10.93,2.54-10.94.92.81.66,2.55.54,3.67-.1.92-1.56,6.97-1.96,7.22Z"/>
          <path class="cls-2" d="M130.55,599.07c-.71.09-1.16,0-1.78-.37-.94-.55-6.83-7.04-6.04-7.84.79-.17,1.04.17,1.58.57.74.55,6.96,7.1,6.24,7.64Z"/>
          <path class="cls-2" d="M138.37,622.14c4.26-.77,5.54,9.66,3.32,10.16-1.5-.16-.44-1.47-.54-2.54-.09-.99-.33-2.84-.62-3.72-.55-1.67-2.14-2.24-2.15-3.9Z"/>
          <path class="cls-2" d="M38.97,592.51c.8-.24,2.45-.21,3.23.12,1.02.43,3.12,3.42,1,3.71-1.21-1.05-3.69-.73-4.72-1.54-.96-.77-.58-1.97.49-2.29Z"/>
          <path class="cls-2" d="M279.61,531.57c-.92.94-.52,2.3-2.48,1.82-.76-2.52,1.4-6.56,4.29-5.28,2.06.91-1.23,2.85-1.81,3.45Z"/>
          <path class="cls-2" d="M88.5,689.94c-.86.66-1.34,1.75-2.9,1.4-.95-2.03,5.22-7.7,5.5-4.49.11,1.23-1.69,2.39-2.6,3.09Z"/>
          <path class="cls-2" d="M288.8,637.33c-.67.42-5.13-.72-5.92-1.19-.57-.34-.87-.51-.63-1.26.6-1.93,5.65.29,6.85.93l-.29,1.52Z"/>
          <path class="cls-2" d="M97.72,644.03c-1.25,1.13-8.11-.15-7.81-1.75.15-.8,1.03-.29,1.41-.26.72.05,7.52.47,6.41,2.01Z"/>
          <path class="cls-2" d="M261.11,596.34c.79.8-2.12,3.6-2.77,4.07-.84.61-2.67,2.01-3.48.81-.15-.72,3.94-3.8,4.68-4.3.53-.36.75-.77,1.57-.57Z"/>
          <path class="cls-2" d="M91.07,650.29c-.78.75-6.05-2.98-5.08-3.91,1.54-1.04,5.94,3.08,5.08,3.91Z"/>
          <path class="cls-2" d="M46.52,599.85c-.1-.7-2.14-3.18-.59-3.51,1.2-.26,2.92,3.63.59,3.51Z"/>
          <path class="cls-2" d="M276.16,534.57c1.46-.29,1.19,3.91.39,3.9-1.24-.43-1.36-3.71-.39-3.9Z"/>
          <path class="cls-2" d="M232.11,650.77c1.56-.16,1.67,1.22.44,2.04-.68.45-5.07,1.39-6.21,1.61-3.51.66-7.15.78-10.66,1.46-2.51.48-11.78,3.52-13.48,2.74-.35-.16-.7-.38-.87-.75-.45-1.53,2.11-2.06,3.09-2.31,9.09-2.36,18.44-3.28,27.69-4.79Z"/>
          <path class="cls-2" d="M171.59,666.32c-.22-1.64.5-2.08,1.84-2.65,2.42-1.03,9.35-2.83,11.93-2.97,1.54-.08,1.52,1.37.43,2.03-1.35.82-10.21,3.16-12.14,3.49-.69.12-1.37.13-2.06.09Z"/>
          <path class="cls-2" d="M254.07,648.73c.11.91-.21,1.55-1.07,1.86-3.83.17-8.49,1.87-12.05.51-.7-.99.45-1.7,1.28-1.89.35-.08,2.85-.48,3.04-.48h8.79Z"/>
          <path class="cls-2" d="M286.02,649.97c1.02-.31,6.26.79,5.97,2.06-.45,1.96-5.93-.45-7.02-1.16.33-.32.59-.76,1.06-.9Z"/>
          <path class="cls-2" d="M266.88,659.38c.58.59,1.73,5.54.67,5.77-1.45.31-2.9-5.14-2.53-6.25.56-.02,1.47.09,1.86.48Z"/>
          <path class="cls-2" d="M197.79,657.72c.59,2.29-2.64,2.64-4.39,2.85-.33.04-.96.42-1.09-.32-.29-1.73,4.06-2.95,5.47-2.53Z"/>
          <path class="cls-2" d="M247.03,665.54c-1.69.35-2.68-4.72-2.34-5.08,2.71-.03,2.42,3.09,2.34,5.08Z"/>
          <path class="cls-2" d="M113.74,706.59c-.91,1.04-3.29-4.99-1.76-5.07,1.64-.09,2.02,3.91,1.76,5.07Z"/>
          <path class="cls-2" d="M108.61,538.52l.27,1.51c-3.11,2.6-7.21,3.82-11.16,4.31l.23-1.21c2.35-.3,8.51-5.94,10.66-4.61Z"/>
          <path class="cls-2" d="M407.69,522.44c.99-.16,2.56.22,3.14,1.06,1.28,1.86,2.18,11.72-1.3,11.39-.11-.01-1.84-1.01-1.84-1.12v-11.34Z"/>
          <path class="cls-2" d="M393.84,507.37c2.55,1.64,5.95,3.93,6.03,7.25l-1.79-.36-9.18-7.24-.36-1.18c1.66-1.71,3.81.58,5.3,1.53Z"/>
          <path class="cls-2" d="M393.53,520.6c1.35.01,4.11.69,2.57,2.18-2.81-.49-6.48,1.65-8.95,1.64-.62,0-.98-.08-1.35-.61,1.07-2.55,5.27-3.23,7.73-3.21Z"/>
          <path class="cls-2" d="M382.28,509.93c.13-5.27,9.2,1.94,8.99,2.93s-3.27-.13-3.9-.39c-1.85-.78-3-2.47-5.09-2.54Z"/>
          <path class="cls-2" d="M366.64,733.57c1.37,1.46-7.41,8.82-8.8,9.75-1.49,1-10.31,5.92-11.52,4.71-.06-.72-.09-1.15.4-1.75,1.13-1.38,7.95-4.45,9.9-5.74,1.15-.76,9.25-7.81,10.03-6.97Z"/>
          <path class="cls-2" d="M389.51,715.98c1.67,0,3.09,7.34,3.1,8.79.02,1.66-.93,6.69-3.09,6.48-2.56-.24-.31-4.88-.19-6.46.18-2.41-1.03-5.73-.81-7.42.09-.65.54-.99.99-1.38Z"/>
          <path class="cls-2" d="M409.64,590.48c-1.32,5-1.16,10.28-2.06,15.35-.36,2.01-2.19,1.14-2.79-.45-1.24-3.33,1.56-11.16,3.61-13.99.35-.48.41-1.09,1.24-.91Z"/>
          <path class="cls-2" d="M441.6,576.51c.07.03.92,1,.92,1.24-.07,3.17-5.37,5.73-8.08,4.54-.87-2.11,1.17-1.98,2.28-2.77,1.24-.88,3.43-3.54,4.88-3Z"/>
          <path class="cls-2" d="M400.26,565.06c-1.34-1.32,5.69-4.9,7.93-4.22,1.01.31,1.59,1.49.4,2.19-.67.39-8.02,2.33-8.33,2.03Z"/>
          <path class="cls-2" d="M445.6,577.18c-.63.12-.84-.13-1.08-.68-.14-.33-1.1-4.93-1.15-5.44-.04-.46.27-.86.28-1.31,3.13.4,3.11,5.18,1.95,7.43Z"/>
          <path class="cls-2" d="M374.46,645.6c-.27,3.96,2.46,7.65,3.1,11.17.2,1.1.8,8.89.42,9.16-.52-.03-1.32-.18-1.55-.69-.89-1.92-.42-6.92-.88-9.19-.7-3.49-3.15-4.3-2.15-9.38.14-.72.18-1.29,1.06-1.07Z"/>
          <path class="cls-2" d="M397.91,663.19c-1.26.22-1.49-.47-1.87-1.45-.31-.8-1.91-7.63-1.64-7.93,2.6-.21,4.14,8.74,3.51,9.38Z"/>
          <path class="cls-2" d="M373.29,643.25c-.53-.47-.12-5.06.03-6.02.07-.42.23-1.73.93-1.4,1.51.72,1.61,7.32-.97,7.43Z"/>
          <path class="cls-2" d="M464.76,538.87c2.84-.91,13.34-.43,14.88,2.12.53.88.68,2.62-.54,2.51-2.28-.69-4.6-1.48-6.9-2.09-1.91-.51-4.75-.71-6.45-1.37-.61-.23-1.13-.33-.98-1.17Z"/>
          <path class="cls-2" d="M458.01,539.35c.69-.13,3.54-.43,3.23.88-.14.58-6.77,2.97-5.29.19.3-.56,1.44-.95,2.06-1.07Z"/>
          <path class="cls-2" d="M365.08,679.61c-3.99-.36-7.5-2.26-11.25-3.4-8.84-2.69-17.81-5-27.05-5.78,1.74-1.92,5.1-1.89,7.55-2,5.77-.27,12.61,1.24,18.17,2.86,2.29.67,8.3,2.52,10.12,3.56,1.84,1.05,2.64,2.65,2.46,4.77Z"/>
          <path class="cls-2" d="M66.05,495.07c-.52.1-.9-.16-1.19-.56-1.78-2.46,1.12-19.04,3.74-22.1.83.62.65,1.64.58,2.53-.16,2.32-1.52,5.31-1.91,7.87-.26,1.7-.72,11.91-1.22,12.27Z"/>
          <path class="cls-2" d="M51.07,479.49l.89.58c.32,1.27-.77,2.02-1.16,3.07s-1.47,5.51-2.52,5.29c-1.69-1.75.59-8.75,2.79-8.94Z"/>
          <path class="cls-2" d="M80.13,485.69c-.29-.22-1.6-6.15-1.58-6.86.01-.65.02-.95.6-1.34,1.12,0,4.09,8.09.98,8.2Z"/>
          <path class="cls-2" d="M78.56,474.35c-.94,1.13-3-5.64-1.37-6.25,1.2.02,1.56,5.29,1.37,6.25Z"/>
          <path class="cls-2" d="M46.28,503.92c1.5,1.78,3.36,2.79,4.33,5.24.42,1.08,1.68,4.62,0,4.71-1.85.16-4.86-5.02-6.06-6.47-1.55-1.87-3.53-3.16-4.69-5.47-1.59-3.16-1.65-7.27-1.94-10.76.55-.04,1.04-.04,1.55.2,1.75.84,3.49,8.09,4.92,10.32.39.62,1.34,1.58,1.89,2.23Z"/>
          <path class="cls-2" d="M37.52,489.21c-.55.54-7.18-2.78-7.62-3.52-.29-.5-.22-1.02-.2-1.56.77-.79,8.46,2.67,7.81,5.08Z"/>
          <path class="cls-2" d="M93.39,583.4c-.06.08-1.06.39-1.28.35-.56-.11-3.78-5-4.57-5.97-.63-.77-4.19-3.63-3.5-4.51,2.29.31,10.7,8.28,9.34,10.13Z"/>
          <path class="cls-2" d="M54.53,564.68l2.86,6.92-.52,1.28c-2.76-1.14-4.65-5.96-2.34-8.2Z"/>
          <path class="cls-2" d="M451.47,485.3l-5.46,21.21c-1.27,1.29-1.98.01-2-1.47-.07-4.37,3.36-14.74,5.83-18.46.4-.61.73-1.42,1.64-1.29Z"/>
          <path class="cls-2" d="M452.64,482.56c-.39-1.14,1.88-6.08,2.92-5.86.62.48.58.49.42,1.18-.13.55-2.62,5.5-3.34,4.68Z"/>
          <path class="cls-2" d="M140.71,576.4c-.38.37-6.91-2.53-7.72-3.02-.58-.35-.63-.12-.49-1.08.35-.55.7-.61,1.32-.58,1.13.05,8.23,3.38,6.88,4.68Z"/>
          <path class="cls-2" d="M462.29,611.85c-.9.76-2.07,1.19-2.56-.15.03-1.64,3.02-5.85,4.78-5.52l.99,1.62c-.07.25-2.89,3.8-3.2,4.06Z"/>
          <path class="cls-2" d="M464.68,625.76c.39.37.52,1.95.08,2.42-1.04,1.13-4.75,1.31-6.26,2.17-.38-2.27,4.49-6.18,6.17-4.59Z"/>
          <path class="cls-2" d="M394,557.63c.06.04.38,1.22.37,1.38-.06,1.11-4.16,4.31-5.25,4.09s.07-1.97.37-2.36c.5-.67,3.9-3.56,4.51-3.11Z"/>
          <path class="cls-2" d="M481.43,584.75c.71.7,1.98,2.68,2.44,3.62.52,1.07,2.9,6.73,1.4,7.18-3.69-1.02-2.75-6.22-5.08-8.97-1.31-1.54-5.17-2.08-3.12-4.3,1.48.65,3.2,1.32,4.36,2.47Z"/>
          <path class="cls-2" d="M463.83,579.96c3.41-1.18,1.84,4.65,1.79,6.41-.03,1.12,1.02,2.72-.28,3.71-3.52-.01-2.94-9.63-1.51-10.12Z"/>
          <path class="cls-2" d="M459.28,586.96c-4.18.43-1.65-6.01-.58-8.21.94-1.93,1.53-3.24,3.19-1l-2.61,9.2Z"/>
          <path class="cls-2" d="M436.17,685.54l.03,1.87-10.13.41c.04-1.41,2.13-1.79,3.19-2.08,2.16-.6,4.77-1.08,6.92-.2Z"/>
          <path class="cls-2" d="M442.09,688.6c-.56-.56.05-.71.58-.78,1.4-.18,8.76,1.23,8.41,2.93-.49.71-.9.62-1.66.52-2.11-.28-4.99-2.46-7.33-2.67Z"/>
          <path class="cls-2" d="M411.6,694.86c.96,1.03-3.91,3.73-4.69,2.73.37-2.11,2.94-2.55,4.69-2.73Z"/>
          <path class="cls-2" d="M449.12,532.6c-1.92.32-2.57,2.83-3.73,3.9-.53.48-.58.69-1.16.03-1.33-1.98,3.65-7.99,4.89-3.92Z"/>
          <path class="cls-2" d="M339.12,631.3c1.09.91,2.16,1.89,3.29,2.77.09.43-.27.79-.65.92-2.89.92-7.03-3.78-8.33-6.01,1.96-1.82,4.16,1.03,5.69,2.32Z"/>
          <path class="cls-2" d="M426.3,711.44c-1.98-1.47-3.85-3.06-5.76-4.61-.41-.33-.97,0-.73-1.02,3.57-.25,9.68,2.09,10.92,5.69,1.75,5.07-3,.99-4.43-.06Z"/>
          <path class="cls-2" d="M407,703.94c1.36-1.2,7.92-1.05,6.9,2.01-.54,1.62-9.11-.07-6.9-2.01Z"/>
          <path class="cls-2" d="M462.8,658.89c.92.98-3.14,3.55-3.89,3.74-.7.18-.72.17-1.19-.43-.33-1.56,3.89-3.02,5.08-3.31Z"/>
          <path class="cls-2" d="M25.8,564.67h5.67c.62,0,1.07-.44,1.75.59,0,1.48-8.06,2.69-7.42-.59Z"/>
          <path class="cls-2" d="M109.64,565.85c.76-.02.68,4.41.71,5.16.02.37.52,1.31-.33,1.47-1.76.34-2.6-5.86-.39-6.64Z"/>
          <path class="cls-2" d="M207.44,540.55c1.2.95,2.54,4.46,1.09,5.73l-2.94-5.66c-.19-1.15,1.38-.45,1.85-.08Z"/>
        </g>
      </g>
    </g>
  </g>
</svg>