<?xml version="1.0" encoding="UTF-8"?>
<svg id="Layer_2" data-name="Layer 2" xmlns="http://www.w3.org/2000/svg" viewBox="0 0 596.65 536.72">
  <defs>
    <style>
      .cls-1 {
        fill: #c19a63;
      }
    </style>
  </defs>
  <g id="Elements">
    <g>
      <path class="cls-1" d="M298.05,536.72c-147.97,0-268.36-120.39-268.36-268.36S150.07,0,298.05,0s268.36,120.39,268.36,268.36-120.38,268.36-268.36,268.36ZM298.05,2.93C151.69,2.93,32.62,122,32.62,268.36s119.07,265.43,265.43,265.43,265.42-119.07,265.42-265.43S444.4,2.93,298.05,2.93Z"/>
      <path class="cls-1" d="M298.05,520.15c-126.5,0-233.88-94.49-249.77-219.78l-.18-1.43,30.58-30.58-30.58-30.58.18-1.43C64.17,111.05,171.55,16.57,298.05,16.57s233.87,94.48,249.77,219.78l.18,1.43-30.58,30.58,30.58,30.58-.18,1.43c-15.9,125.29-123.28,219.78-249.77,219.78ZM54.28,301.05c16.16,121.66,120.7,213.23,243.77,213.23s227.61-91.57,243.77-213.23l-32.69-32.69,32.69-32.69c-16.16-121.66-120.7-213.23-243.77-213.23S70.44,114.01,54.28,235.66l32.69,32.69-32.69,32.69Z"/>
      <path class="cls-1" d="M31.71,300.07L0,268.36l31.71-31.71,31.71,31.71-31.71,31.71ZM4.15,268.36l27.56,27.56,27.56-27.56-27.56-27.56-27.56,27.56Z"/>
      <path class="cls-1" d="M564.94,300.07l-31.71-31.71,31.71-31.71,31.71,31.71-31.71,31.71ZM537.38,268.36l27.56,27.56,27.56-27.56-27.56-27.56-27.56,27.56Z"/>
      <rect class="cls-1" x="296.58" y="33.18" width="2.93" height="23.97"/>
      <rect class="cls-1" x="296.58" y="479.57" width="2.93" height="23.97"/>
      <polygon class="cls-1" points="528.83 254.26 525.9 254.26 525.9 219.84 539.08 206.65 541.16 208.72 528.83 221.05 528.83 254.26"/>
      <polygon class="cls-1" points="539.08 330.07 525.9 316.88 525.9 282.45 528.83 282.45 528.83 315.67 541.16 328 539.08 330.07"/>
      <polygon class="cls-1" points="70.2 254.26 67.26 254.26 67.26 221.05 54.93 208.72 57.01 206.65 70.2 219.84 70.2 254.26"/>
      <polygon class="cls-1" points="57.01 330.07 54.93 328 67.26 315.67 67.26 282.45 70.2 282.45 70.2 316.88 57.01 330.07"/>
    </g>
  </g>
</svg>