<?xml version="1.0" encoding="UTF-8"?>
<svg id="Layer_2" data-name="Layer 2" xmlns="http://www.w3.org/2000/svg" viewBox="0 0 521.87 865.9">
  <defs>
    <style>
      .cls-1 {
        fill: #f9ecd8;
      }

      .cls-2 {
        fill: #aa7b1b;
      }
    </style>
  </defs>
  <g id="Layer_1-2" data-name="Layer 1">
    <g>
      <path class="cls-1" d="M521.83,794.17c0-.13,0-.26,0-.39-.65-.41-.39-1.48-.4-2.14-1.26-101.84.02-203.86.02-306.12.01-137.52-1.46-274.69-.02-411.33,0-.66-.25-1.74.4-2.14v-.39c-.11-10.91.35-23.84-.39-34.6-1.09-15.82-13.11-33.29-29.43-35.52-19.37-2.64-39.84-1.11-59.47-1.03-53.34.22-106.95-1.12-159.85-.09-12,.23-24.01.04-36.04,0-48.83-.16-98.18.29-147.35.09-19.63-.08-40.1-1.62-59.47,1.03C13.51,3.77,1.47,21.24.39,37.06c-.9,13.16.03,27.1.03,40.26-.02,91.68.45,183.44.37,275.62-.04,41.43-.66,83.11-.39,124.77.67,103.53.01,207.26.03,310.41,0,13.2-.89,27.08-.06,40.29,1.01,15.97,12.94,33.63,29.45,35.89,16.49,2.25,34.8,1.53,51.69,1.46,117.57-.51,233.44-.92,351.02-.43,19.63.08,40.1,1.62,59.47-1.03,16.32-2.23,28.34-19.7,29.43-35.51.74-10.75.28-23.69.39-34.6Z"/>
      <g id="uhDBbl.tif">
        <g>
          <path class="cls-2" d="M521.83,71.65v.39c-.65.41-.39,1.48-.4,2.14-1.43,136.64.04,273.81.03,411.33,0,102.26-1.29,204.27-.03,306.12,0,.66-.25,1.74.4,2.14,0,.13,0,.26,0,.39-.11,10.91.35,23.84-.39,34.6-1.09,15.82-13.11,33.29-29.43,35.51-19.37,2.64-39.84,1.11-59.47,1.03-117.57-.49-233.44-.08-351.01.43-16.89.07-35.2.79-51.69-1.46-16.51-2.25-28.44-19.92-29.45-35.89-.84-13.21.06-27.09.06-40.29-.02-103.15.64-206.88-.03-310.41-.27-41.66.36-83.33.39-124.77.08-92.18-.39-183.94-.37-275.62,0-13.16-.93-27.1-.03-40.26C1.47,21.24,13.51,3.77,29.82,1.54,49.2-1.1,69.66.44,89.3.52c49.17.2,98.52-.25,147.35-.09,12.03.04,24.04.23,36.04,0,52.9-1.02,106.51.32,159.85.09,19.63-.08,40.1-1.62,59.47,1.03,16.32,2.23,28.34,19.7,29.43,35.51.74,10.75.28,23.69.39,34.6ZM261.11,8.32c-.11-.84.4-5.47-.58-5.47-1.21,1.39-.34,3.76-.58,5.47h1.17ZM255.12,5.23c-1.19.3-1.48,2.96,0,3.41,3.43,1.03,2.06-3.93,0-3.41ZM265.29,5.23c-1.43.55-2.32,3.18-.46,3.49,2.96.49,2.47-3.99.46-3.49ZM251.23,8.42c-2.48-2.57-4.77,2.84-1.23,3.03,1.72.09,2.25-1.97,1.23-3.03ZM269.81,8.42c-1.03,1.06-.49,3.12,1.23,3.03,3.54-.19,1.25-5.6-1.23-3.03ZM57.73,11.95c-2.3-3.19-7.85,2.43-4.4,4.98,2.97,2.2,6.84-1.59,4.4-4.98ZM251.18,13.63c-17.04,12.09.72,37.87,18.11,26.53,17.97-11.72-1.53-38.3-18.11-26.53ZM465.66,11.95c-2.44,3.39,1.43,7.18,4.4,4.98,3.45-2.56-2.1-8.18-4.4-4.98ZM246.16,13.09c-.15-.26-1.83-1.16-2.24-.69-.85.65-1.58,1.46-1,2.56.71.83,1.87,1.5,2.97,1.01.48-.35.55-2.39.28-2.88ZM274.88,13.09c-.28.49-.21,2.53.28,2.88,1.1.49,2.26-.17,2.97-1.01.58-1.1-.15-1.9-1-2.56-.41-.48-2.1.43-2.24.69ZM42.21,35.3l-25.01-17.98,17.99,24.43c.11.88-.13.47-.59.58-4.25,1.05-9.14,1.24-13.49,1.97l3.64,2.02c2.45.85,4.79,1.99,7.19,2.97.87.35,3.2.46,3.26,1.47l-13.71,20.13,20.12-13.7c.88-.06.73,1.64,1.07,2.47,1.45,3.53,2.85,7.27,4.57,10.67.21.41-.2.74.82.56.52-4.24.73-9.45,1.94-13.51.13-.44-.26-.69.59-.57l22.28,17.19.51-1.28c-5.01-6.57-9.52-13.64-14.79-20.01-.6-.72-1.15-1.13-1.95-1.58l.28-.97,13.8-1.97c-3.9-2.82-9.08-4.43-13.6-5.93l-.35-.92,13.95-19.73c-2.93.91-18.91,13.81-20.12,13.71-.97-.08-1.51-3.17-1.98-4.32-1.04-2.56-2.09-5.2-3.24-7.7-.27-.59-.65-1.87-1.24-2.08l-1.96,14.07ZM506.58,17.31l-24.42,17.99c-.88.11-.47-.14-.58-.59-1.07-4.22-1.11-9.18-1.97-13.49-.59.21-.96,1.49-1.24,2.08-1.15,2.51-2.2,5.15-3.24,7.7-.47,1.15-1.01,4.24-1.98,4.32-1.21.1-17.19-12.8-20.12-13.71l13.95,19.73c-.15,1.37-.94.83-1.82,1.18-4.04,1.66-8.63,3.11-12.14,5.66l13.8,1.97.28.97c-.8.45-1.35.85-1.95,1.58-5.15,6.23-9.51,13.15-14.5,19.51l.03,1.6,22.48-17.01c.85-.13.46.13.59.57,1.22,4.06,1.42,9.27,1.94,13.51,1.02.18.61-.14.82-.56,1.72-3.4,3.12-7.14,4.57-10.67.34-.84.19-2.53,1.07-2.47l20.12,13.7-13.71-20.13c.07-1.01,2.39-1.11,3.26-1.47,2.4-.97,4.74-2.12,7.19-2.97l3.64-2.02c-4.35-.73-9.24-.91-13.49-1.97-.46-.11-.7.29-.59-.58l17.99-24.43ZM239.68,21.54c.84,1.35,5.02.82,2.83-2.25-2.05-2.87-3.81.67-2.83,2.25ZM281.36,21.54c.98-1.58-.78-5.12-2.83-2.25-2.19,3.07,1.99,3.59,2.83,2.25ZM36.65,23.08c1.69-1.7-.87-5.74-3.16-4.23-2.83,1.87,1,6.41,3.16,4.23ZM490.06,18.98c-2.05-1.9-5.17,2.24-3.32,4.1,1.92,1.93,5.88-1.73,3.32-4.1ZM113.3,22.73c1.05-1.63-.56-2.81-2.14-3.04-3.37-.49-11.36-.81-14.82-.74-.52,0-2.47.4-2.51.89.46.65.49,1.89,1.15,2.34,1.42.97,12.34,1.57,14.66,1.39.61-.05,3.47-.57,3.65-.85ZM410.09,22.73c.97,1.51,16.64.59,18.31-.55.67-.45.69-1.69,1.15-2.34-.04-.49-1.99-.88-2.51-.89-3.46-.07-11.45.25-14.82.74-.51.07-1.76.34-2.01.73l-.13,2.31ZM124.01,21.9c1.34,1.12,10.13.74,12.22.87,15.65.94,31.64,1.31,47.28,1.61,3.86.08,4.84-3.02,1.95-3.54-7.27-1.32-16.37.42-23.84-.81-3.99-.16-8.08.3-12.06.27-7.46-.04-17.53-1.1-24.7-.28-1.27.15-1.89,1.01-.85,1.87ZM399.37,21.9c1.04-.87.42-1.73-.85-1.87-7.16-.82-17.24.23-24.7.28-3.97.02-8.07-.44-12.06-.27-7.47,1.22-16.58-.52-23.84.81-2.89.53-1.91,3.62,1.95,3.54,15.64-.31,31.63-.67,47.28-1.61,2.09-.13,10.88.25,12.22-.87ZM93.42,23.57c-.34,2.52-.37,5.09-.77,7.6-.23,1.41-1.73,6.2-1.52,6.97.13.46.61.74.92,1.06,2.13-2.18,2.77-6.17,2.91-9.16.03-.54-.03-8.28-1.54-6.47ZM429.97,23.57c-1.51-1.81-1.57,5.93-1.54,6.47.14,2.99.78,6.98,2.91,9.16.31-.32.79-.6.92-1.06.21-.77-1.29-5.56-1.52-6.97-.4-2.5-.43-5.08-.77-7.6ZM230.62,26.69h12.51v-1.17c-1.76-.04-3.49.38-5.25.4-1.11.02-6.38-.41-6.67-.26-.51.26-.69.42-.58,1.03ZM290.42,26.69c.1-.6-.07-.77-.58-1.03-.3-.15-5.56.27-6.67.26-1.77-.02-3.49-.44-5.26-.4v1.17h12.51ZM249.77,51.72l-22.78,16.34c-.57-.19-1.58-.32-1.8-.95-.7-2.04,5.99-15.58,7.18-18.53,1.44-3.56,2.49-7.26,4.1-10.74-.07-.96-10-2.35-11.42-2.64-11.35-2.3-22.72-4.47-34.11-6.54-25.77-.37-51.65.42-77.4-.38-3.95-.12-8.08-.27-11.9-1.19.5,4.76-.64,9.97-2.07,14.55-8.33,26.63-34.93,50.76-61.17,58.45-4.59,1.34-9.48,1.95-14.16,2.85.93,4.91.05,10.07-.02,15.03-.4,28.84.38,57.39.42,86.01.12,77.83-.04,155.7,0,233.45.04,61.45-.8,123.42.13,184.85.04,2.77-.12,7.77.27,10.21.13.79,1.42,2.66,1.95,3.44,9.17,13.6,22.91,27,34.26,38.95,13.7,14.44,28.19,29.62,43.44,42.25.87.72,3.86,3.23,4.66,3.45.43.12,2.97.45,3.35.4,2.62-.36,8.78-1.15,11.07-1.8.5-.14,1.04-.15,1.32-.69.11-.39-2.72-6.45-3.18-7.34-1.78-3.41-7.89-14.2-10.6-16-9.19-6.12-21.95-10.94-31.68-16.38-4.51-2.52-8.65-5.91-13.38-8.14l.61-1.38c-1.5-.88-.83-3.27-2.18-4.85-1.28-1.49-5.58-2.79-6.42-3.74-.74-.82-.54-3.66-1.39-4.86-.46-.65-2.32-1.61-3.11-2.36-1.1-1.05-4.92-4.6-5.22-5.74-.25-.96,2.17-1.11,2.66-.71l53.39,30.67.57-.57-10.97-21.28c-.26.05-.65.3-.88.23-2.69-.78-8.74-6.2-11.46-8.02-7.54-5.04-18.65-11.06-25.16-17.06-.99-.91-2.47-1.9-2.17-3.33.5-2.42,2.66-1.68,4.52-2.15l-21.1-23.07c.47-.61.49-.58,1.18-.42,1.5.36,3.61,2.77,5.19,3.42l38.38,29.25.19-.58-20.43-39.59c-2.86-1.83-4.4-2.84-7.99-2.72-2.02.06-6.19,4.48-7.72,1.82-1.12-1.95-.74-11.32-1-14.25-.88-10.16-3.06-20.46-5.66-30.31-1.43-5.41-4.15-11.8-5.19-17.1-.08-.4-.48-2.46.49-2.05,3.73,5.08,7.52,10.2,11.55,15.04,5.98,7.18,12.66,14.44,19.74,20.53,4.21,3.62,8.82,6.81,13.04,10.42l.37,1.43c-.32,2.06-4.37,2.81-5.77,4.03-2.53,2.2-2.3,5.21-2.71,8.2l29.32,56.23c6.3,4.46,12.3,9.45,18.74,13.71,1.06.7,2.74,2.11,3.87,1.99-11.89-27.37-23.12-55.03-34.79-82.5-6.51-15.34-14.5-31.17-20.12-46.73-.63-1.74-1.4-3.6-1.38-5.46-2.54.39-5.23-.4-7.62-.43-3.38-.04-8.32,2.13-8.42-3.7-.12-7.19.74-14.61.42-21.89-.62-14.23-5.43-32.31-8.73-46.41-.36-1.53.21-1.75,1.68-1.28l8.04,12.68c10.78,12.4,20.4,26.85,32.01,38.37,1.4,1.39,5.42,4.08,5.91,5.84.42,1.52-3.76,4.45-4.9,5.79-.57.67-2.72,3.41-2.94,4.01-.66,1.79.31,2.41.43,3.77.46,5.18,1.27,5.04,3.06,9.51,2.44,6.1,4.55,12.36,6.93,18.48,15.8,40.54,32.07,80.93,49.8,120.67,17,13.8,34.81,26.55,53.58,37.88,13.15-.29,26.28-.88,39.38-1.11,14.79-.26,29.46-.07,44.21.4,3.93.12,8.19.82,12.09.81.59,0,1.42-.18,1.79-.69l74.27-127.37c0-.6-3.24-4.15-3.95-4.67-3.13-2.31-10.56-5.88-14.3-7.59-5.77-2.65-11.71-4.88-18.01-5.64-1.24-1.9-2.56-5.07-4.08-6.67-2.88-3.04-13.7-2.21-16.96-4.54-1.75-1.25-3.95-7.58-4.67-9.8-1.06-3.25-3.21-10.04-3.65-13.18-.33-2.42.99-1.6,1.49-3.22.2-.12.65.6,1.07.71,1.17.33,14.98-2.65,17.38-3.17,1.2-.26,3.78-1.49,4.74-1.34,1.26.2,3.86,4.95,4.96,6.33,2.23,2.81,4.83,5.39,7.03,8.24,1.7.84,6.25-2.45,8.96-.77,1.06.65,2.91,3.53,4.1,4.68,4.41,4.28,11.04,9.19,16.29,12.46,4.92,3.07,11.33,7.05,17.28,5.22,2.78-.86,1.54-.9,5.12-1.21,1.18-.1,2.83-1.15,4.16-1.24l.34-.42c-1.34-3.35,1.86-3.56,3.71-4.93,4.31-3.19,2.91-7.78,6.24-10.75.69-.62,1.76-.71,2.23-1.2.58-.6,3.62-6.36,4.34-7.67,1.22-2.21,2.23-4.32,3.52-6.65,10.8-19.41,23.17-38.7,31.41-59.28,1.98-4.95,2.65-3.97,5.27-7.24,2.19-2.75,2.33-7.92,6.94-8.89.96-7.01.84-14.37,2.88-21.17,1.32-1.68,3.81-7.47,5.52-8.2,1.37-.59,4.88-1.37,6.48-1.7,2.03-.42,3.95-.3,5.63-.59,4.48-.79,7.2-2.43,12.06-1.31,3.22.74,5.75,3.6,6.52,6.77l.88,5.57.4-326.07c-4.68-.9-9.58-1.5-14.16-2.85-26.24-7.69-52.85-31.82-61.17-58.45-1.43-4.58-2.57-9.79-2.07-14.55-3.82.92-7.95,1.07-11.9,1.19-26.27.82-52.68.02-78.99.36l-45.92,8.62c-.24.25,1.6,5.34,1.89,6.13,2.46,6.74,7.67,15.59,9.2,22.11.17.75.41,1.78-.44,2.26-.44.09-.96.36-1.4.28-.71-.13-10.54-6.91-11.94-7.94-3.06-2.24-6.44-6.06-9.82-7.77-.4-.2-.72-.26-1.16-.21l-9.07,61.11c-.26.89-1.18,1.19-2.04,1.07-1.39-.19-1.39-1.57-1.66-2.67-1.92-7.76-2.46-18.25-3.69-26.41-1.69-11.18-3.56-22.34-5.42-33.48ZM242.29,32.5c.92-2.77-2.45-4.83-3.26-1.69-.45,1.75,1.87,2.72,3.26,1.69ZM281.32,29.54c-1.5-1.3-3.32,1.3-2.56,2.96,2.2,1.54,4.57-1.21,2.56-2.96ZM242.93,35.4c-1.08.08-2.22,2.77-.31,3.35,3.27.99,2.19-3.49.31-3.35ZM278.12,35.4c-1.89-.15-2.96,4.33.31,3.35,1.91-.58.78-3.26-.31-3.35ZM245.66,39.33c-.82.09-1.21,1.61-.9,2.33,3.63,3.98,4.45-2.72.9-2.33ZM275.38,39.33c-3.55-.38-2.72,6.31.9,2.33.31-.73-.08-2.24-.9-2.33ZM251.14,42.81c-1.18.09-1.59,3.29.4,3.29,2.47-.27,1.09-3.4-.4-3.29ZM269.91,42.81c-1.49-.11-2.86,3.02-.4,3.29,1.98,0,1.58-3.2.4-3.29ZM257.5,45.15l-1.28-.77c-2.01,1.07-1.64,4.06,1.01,3.26l.27-2.49ZM259.54,45.26c-.53,3.39.39,8,0,11.53h1.95v-11.53c0-1.06-1.74-1.36-1.95,0ZM263.54,45.15l.27,2.49c2.65.8,3.02-2.19,1.01-3.26l-1.28.77ZM90.29,47.03l-1.76.39c-.44,2.07-6.84,11.7-6.7,12.72.05.38.6.66.84.96,1.97-.95,8.41-13.32,7.62-14.07ZM433.1,47.03c-.79.75,5.65,13.12,7.62,14.07.25-.3.79-.59.84-.96.13-1.02-6.26-10.65-6.7-12.72l-1.76-.39ZM32.17,74.51c-3.05,2.48-2.99,8.37.96,9.94,6.24,2.48,10.13-4.04,6.92-9.26-1.84-3-5.39-2.7-7.88-.67ZM491.22,74.51c-8.86-7.23-13.31,11.39-2.81,10.44,5.44-.5,6.56-7.38,2.81-10.44ZM48.46,88.47c-.76-.73-9.02,3.53-10.56,4.1-6.6,2.43-12.73,2.94-19.62,3.84-3.03,1.33-1.85,3.16-1.84,5.55.05,37.01-.05,74.88-.44,112.19-.05,4.47-.14,8.23-.41,12.53-.02.33.42,4.41.49,4.63.17.52.83.78,1.32.94,3.23-1.92,1.41-6.19,1.35-9.07-.24-10.82.31-21.63-.22-32.42l.29-91.47.59-.59c3.37-.45,7.09-.67,10.39-1.33s16.7-5.13,18.31-7.49c.32-.47.46-.8.36-1.39ZM506.45,97.22c-1.89-1.75-7.3-1.38-9.79-1.77-8.45-1.31-12.65-4.68-19.78-6.81-2.02-.6-2.8-.05-1.2,1.59,1.89,1.94,11.21,5.32,14.16,6.17,4.57,1.3,9.42,1.73,14.14,2.28l.59.59.29,91.47c-.53,10.79.02,21.61-.22,32.42-.06,2.88-1.89,7.15,1.35,9.07.49-.16,1.15-.41,1.32-.94.07-.22.51-4.31.49-4.63-.27-4.3-.37-8.06-.41-12.53-.39-37.3-.48-75.18-.44-112.19,0-1.13.5-2.19.46-3.14,0-.09-.89-1.53-.96-1.59ZM17.97,238.99c-.28-.25-1.46.47-1.74.8-1.06,1.27-.48,8.7-.23,10.75.15,1.22,1.08,2.14,1.67.86.67-1.46.93-11.84.29-12.41ZM505.81,251.89l1.19-.17c.38-2.28,1.48-9.89.33-11.71-.32-.51-1.09-.97-1.71-1.02-1,.02-.47,12.48.2,12.91ZM19.06,258.24c-6.55-1.94-7.36,8.29-1.33,7.62,3.25-.36,2.65-5.66,1.33-7.62ZM504.33,258.24c-1.32,1.96-1.93,7.26,1.33,7.62,6.03.67,5.22-9.56-1.33-7.62ZM19.06,272.32c-1.83-2.53-5.85,2.39-2.66,4.36,2.28,1.4,3.95-2.57,2.66-4.36ZM507.22,272.36c-2.53-2.68-4.71,2.67-2.31,4.19,2.21,1.4,4.54-1.83,2.31-4.19ZM15.93,360.28c-.44-.45-1.74-.59-2.37-.42-1.13.31-.66,1.22-.79,1.42s-.87.25-1.02.71c-.87,2.71,4.36,6.39,5.28,1.71.1-.52-.83-3.16-1.1-3.43ZM510.62,361.28c-.13-.2.34-1.11-.79-1.42-.63-.17-1.92-.03-2.37.42-.15.15-1.19,2.91-1.17,3.17.31,3.98,5.59,2.74,5.38-1.14-.05-.86-.88-.76-1.05-1.03ZM16.71,372.41c-1.8-1.68-6.36.44-7.23,2.55-1.07,2.61.44,6.67,3.32,7.42,3.78.98,6.07-2.16,5.56-5.53-.09-.57-1.36-4.17-1.65-4.44ZM511.54,372.44c-1.06-.52-3.68-.8-4.69-.16-.51.32-1.74,4.12-1.82,4.92-.13,1.28.83,4.39,2.04,4.99,4.15,2.07,8.56-3.06,6.85-7.24-.15-.36-2.15-2.4-2.37-2.51ZM16.32,389.19c-5.25.69-1.85,8.18,1.86,5.02,1.09-.93,1.46-3.03.62-4.12-.57-.74-1.59-1.02-2.48-.9ZM506.09,389.19c-3.2.58-2.15,6.39,1.38,5.74s2.69-6.48-1.38-5.74ZM492.82,422.83c-.11-.2-3.36-2.16-3.98-2.01-5.43,1.8-11.41,2.3-16.83,3.92-4.63,1.38-4.82,1.72-5.63,6.49-.51,3-1,7.09-1.24,10.11-.08.99-.38,8.38-.2,8.78.11.26.65.73.97.79,1-2.34-.48-7.99,2.74-8.21l-.4,12.31,5.64,2.97c2.56-2.82,6.57-4.59,9.82-6.67l.6.97c-.01,1.51-6.2,4.74-6.26,5.47-.03.33.73.65,1.28.51,1.02-.26,7.82-5.02,9.24-6.02,1.62-1.14,8.45-6.05,9.2-7.22,1.01-1.59.46-2.67.1-4.36-1.08-5.14-3.44-10.67-4.87-15.85-.17-.62.07-1.53-.17-1.97ZM493.98,649.02c1.04-3.72,2.64-7.32,3.59-11.07,2.91-11.47.25-24.9,1.6-36.7v-149.96c-3.22,2.35-5.82,5.37-9.65,6.79l-5.93,4.63c.29,2.19.32,4.83-.74,6.85-.58,1.11-3.01,2.54-3.42,3.25-.52.9-.58,2.79-1.09,3.99-2.08,4.84-6.25,6.77-9.06,10.49-1.53,2.02-2.77,5-4.2,7.14-11.39,17.06-20.97,33.72-30.74,51.74-1.9,3.51-3.07,4.21-3.84,8.27-.3,1.58-1.44,4.11-2.65,5.18-.62.55-1.58.71-1.82,1.01-1.89,2.5-.95,8.82-2.52,10.29-.46.43-1.34.45-1.58.78-.16.21.53,3.9.71,4.42.29.84,1.62,1.72,1.8,2.93.13.89-.39,1.5-.17,2.44,1.05,4.42,6.48,8.96,10.51,10.64,2.07.87,2.11-1.67,3.09-3.33,2.33-3.97,5.28-7.63,7.5-11.65.63-1.13,4.75-9.42,4.81-9.97.24-2.29-1.58-5.38-1.14-7.89-2.01-1.36-5.17-2.29-5.19-5.17,4.32-3.93,9.44-6.96,14.06-10.55,7.84-6.11,15.21-13.35,21.91-20.71,4.47-4.9,8.56-10.22,12.89-15.25.97.61.22,1.83,0,2.72-2.9,11.43-8.35,22.9-10.96,34.78-1.92,8.77-1.89,17.78-3.33,26.39-.9,5.41-5.81-.27-8.75-.59-7.59-.83-9.54,4.83-12.8,10.32-3.27,5.51-6.35,11.19-9.33,16.86,0,.25,3.97,1.83,4.62,2.05,2.27.8,9.65,2.08,10.78,2.9,1.88,1.35,2.27,7.11,2.96,7.59l19.06,3.41c.85,6.71,4.9,13.32,6.25,19.77.23,1.1.43,1.99.03,3.12l-23.48,5.09-12.02-14.61c-1.1-.46-5.6,2.45-8.5,1.1-.88-.41-1.99-2.58-2.82-3.44-.99-1.02-6.95-6.58-7.72-6.77-.33-.08-.61-.13-.89.12l-33.22,57.69,50.66-37.5c.75-.26,1.45,1.99.94,2.41l-9.38,10.65c1.28.71,4.51-1.71,4.27.75l-10.96,9.79v2.5c-1.19.36-2.21.98-3.21,1.68-14.96,10.5-29.7,21.75-45.11,31.31l-10.65,18.87c1.64.95,2.82.94,4.5.2,5.35-2.34,13.4-8.74,18.83-12.05,13.77-8.41,27.69-16.57,41.44-25.01,8.95-5.49,17.65-11.27,26.56-16.83,7.69-4.8,15.79-9.05,23.48-13.85ZM472.82,467.47c.58.44,1.46,2.14,2.48,1.63,1.07-.52,2.29-3.89,1.78-4.91-.41-.82-14.47-9.37-15.66-9.42-2.23-.08-3.22,2.65-4.48,4.14,2.26,1.13,4.6,1.67,6.79,2.99,2.86,1.73,6.4,3.52,9.09,5.56ZM457.8,479.36c1.37.8,6.36-1.82,8.03-2.17,3.31-.69,5.86,1.34,7.3-2.48.92-2.45.22-2.69-1.54-4.26-2.41-2.15-13.07-8.96-15.95-8.5-1.18.19-3.07,2.78-2.99,3.97.07,1.01,2.09,3.51,2.54,4.92.9,2.87.36,6.04,2.62,8.52ZM66.06,521.66l-3.42-18.26.53-1.67-14.7-35.19c.92,4.28,2.18,8.52,3.01,12.82,2.75,14.24,2.99,26.25,3.26,40.53.02,1.03-.77,2.08-.01,3.34,3.83-2.54,7.03-1.77,11.33-1.56ZM468.27,479.44c-3.72-.99-6.79,2.14-10.47,2.26-4.26.14-2.91-8.75-5.38-11.23-.32-.32-.35-.55-.95-.41l-9.38,16.81c5.97-.92,12.08-1.09,18.1-.44,1.12-.58,2.76-5.29,3.98-5.03,1.86.4-1.96,5.58-1.75,5.86l1.92.37,3.94-8.18ZM70.58,494.46c-1.32-1.43-3.2-2.66-4.3-4.5l-13.51-18.73,11.11,27.39,12.73,18.35c.8.57,3.98-4.52,5.09-5.26.71-.47,4.28-1.54,4.27-1.97-5.47-4.73-10.5-9.98-15.4-15.28ZM462.02,490.39c-5.23-.6-10.56-1.12-15.85-.8-1.23.07-5.25.48-6.15.89s-4.11,6.24-3.8,6.56c7.19-1.55,14.82-.79,22.02.35.72-.81,4.35-6.45,3.78-7ZM430.36,507.19c5.91-1.54,11.68-1.3,17.72-.84l3.97-6.19.94.63c.56,1.88-4,5.63-1.33,6.03s3.6-4.98,5.26-6.47c-.02-.75-5.52-1.33-6.43-1.38-2.69-.15-6.31-.15-9,.02-1.26.08-7.14.81-7.65,1.44l-3.5,6.76ZM446.38,509.15l-6.43-.4-11.28,1.64-4.17,7.36c5.74-1.59,11.84-1.43,17.71-.82.58-.18,4.56-7.41,4.17-7.78ZM75.43,525.57l1.51-5.2-8.53-11.22,6.16,15.92.87.5ZM451.08,509.54l-2.34-.22-4.69,8.03c1,0,1.66.71,2.56.04.51-.38,4.81-7.54,4.48-7.85ZM73.09,525.96l-6.64-15.63c.43,4.54,1.83,8.84,2.02,13.41.35.94,3.57,1.86,4.61,2.22ZM440.52,519.71c-5.93-.39-11.81.09-17.71.85l-4.96,8.13c3.74-1.04,7.66-1.07,11.52-.77,2.28.18,5.02,1.94,6.65-.39,1.23,1.3,1.05,2.76,3.34,2.55l5.45-9.4-2.66-.5c-.3.18-2.99,6.55-3.98,5.39-.71-1.24,2.78-5.46,2.34-5.86ZM464.76,568.58h5.67c.95,0,4.31,2.75,4.88,2.35.93-6.58,1.67-13.18,2.74-19.75,1.8-11.09,5.51-19.54,8.68-30.02.12-.38.64-1.19.12-1.45l-17.2,30.51c-.14.45.5.73.41,1.19-.46,2.27-5.95,16.56-5.29,17.18ZM457.18,560.61c4.04-4.24,7.7-8.84,11.81-13.02l14.14-25.15-16.78,18.19-18.78,14.06c1.21,1.35,2.87,1.5,4.11,2.92,1.21,1.39,1.83,3.68,3.12,5.09.4.1,2-1.7,2.39-2.1ZM157.52,714.02l-79.54-188.44c-1.68,2.59-1.96,4.52-5.53,2.78-.53-.2-.68.03-.53.53.48,1.53,2.05,3.54,2.34,5.28l1.36-1.95c.53.72,3.66,5.89,1.95,6.25l-1.75-1.95c.11,1.02.52,2.25.9,3.2,16.9,42.73,36.15,85.64,54.14,128.04,6.7,15.8,13.89,31.39,20.03,47.43l6.62-1.17ZM325.6,525.57l-17.98,3.71c2.72,2.56,2.07.58,2.98.26.33-.11,2.68-.41,2.88-.28l.39.99c-.21.24-4.12.14-3.12,1.17l12.69,6.65c.44-.27.47-.55.57-1,.32-1.34,1.98-11.09,1.58-11.51ZM335.24,536.26c-2.75-2.84-5.23-5.95-7.68-9.13.14,2.64-2.52,11.42-1.38,13.3l15.83,8.59c.34-.37-2.78-8.8-3.2-9.5-.32-.54-2.73-2.39-3.58-3.26ZM433.45,531.86c-5.57-1.05-11.27-1.48-16.92-.77l-4.54,7.77,7.19-.74,8.97,1.09c1.75-3.05,4.09-3.99,2.21.43l2.76.59,4.67-7.43c-.5-.29-1.62-.63-2.14-.59-.98.09-1.14,1.31-2.15,1.18l-.04-1.53ZM316.48,546.16c.27-.22.39-.75.72-1.02,1.87-1.51,3.91-2.84,5.66-4.51l-14.84-8.8c.15,1.48,1.42.79,2.15,2.34.15.32.67,2.26.59,2.35h-1.17c-.02.19,0,.37.02.56.06,1.04,2.79,10.39,3.31,11.17.46.68.43.2.77,0,.77-.46,2.07-1.49,2.8-2.09ZM384.24,562.72c-2.9-.79-5.99.16-8.74-1.23-9.03-6.85-18.44-12.37-26.45-20.46-.8-.8-1.38-2.41-2.55-2.56-.74-.09-5.52.68-5.59,1.37l4.46,12.31,1.74.6c-.42-1.68-3.69-8.92-2.95-9.98.89-.85,1.37-.32,1.86.51.31.53,3.31,8.31,3.37,8.77.05.33.17.63-.1.92l-1.4.56c4.44,2.74,9.89,4.58,14.33,7.17.73.43,3.56,1.87,3.07,2.81l-1.17.77-15.74-7.74-6.56,1.43-.52-2.23,3.46-.84-2.57-1.56-9.58,1.8,1.68,5.54c8.57,1.52,16.79,4.93,24.49,8.94,2.28,1.18,8.39,4.45,10.03,6,.87.83,2.69,4.23,2.93,5.48.52.58.72-.03.78-.58.22-1.85.06-6.94.82-8.19.38-.62,1.48-.42,1.14-1.59-1.48-.94-7.68-3.44-7.8-5.07-.03-.39.29-.94.42-1.33l2.18.25,12.61,6.73c.03-2.97,1.39-5.81,2.35-8.6ZM426.45,542c-3.86-.74-7.8-.88-11.73-.78l13.08,8.61,3.72-6.46-2.85-1c-1.85,4.3-5.77,5.02-2.22-.36ZM59.41,589.69c-.61-5.62-2.98-10.87-4.22-16.32-.13-.56.35-1.21.15-2.06-.88-3.7-11.58-23.93-14.1-28.16-.25-.43-.39-1.07-.98-1.16l6.92,26.11,2.07,23.54c.43.41,3.68-1.95,4.1-1.95h6.06ZM341.63,550.99l-16.68-8.92-9.9,7.36c-.03.58,1.39.68,1.8.73,3.47.43,6.73.71,10.18,1.55,1.23.3,3.31,1.55,4.23,1.57,1.44.04,7.8-1.32,9.52-1.79.4-.11.97.07.85-.5ZM426.44,557.24c0-.67.74-1.17.8-1.79.14-1.51-4.56-4.94-5.91-5.8-2.19-1.4-11.01-6.13-13.16-6.41-1.86-.25-2.95,2.43-2.06,3.26.75.7,4.85,1.5,6.36,2.25,2.46,1.21,6.26,3.25,8.62,4.67,1.7,1.02,2.92,2.45,4.37,3.45.33.23.41.53.98.38ZM76.59,577.94c.26-1.73-1.82-2.17-2.91-3.12-4.76-4.11-9.48-8.28-14.49-12.1l-15.42-18,12.34,24.21,13.26,15.66c2.33-2.86,3.11-5.88,7.21-6.66ZM401.16,562.21c.17.24.79.35,1.04.7,1.38,1.88,2.76,3.77,4.18,5.61,2.62-.48,13.51,2.37,14.81.48l1.75-8.8c-.22-1.54-7.12-5.63-8.74-6.54-2.96-1.66-5.98-3.42-9.43-3.85l-6.82,5.74c-.25.87,2.54,5.73,3.21,6.66ZM463.98,556.46l-9.2,9.4c-.47,1.07.92,3.77,1,5.07l8.2-14.46ZM457.72,571.7l4.48-1.58c.72-4.47,2.68-8.51,3.72-12.89l-8.2,14.46ZM419.02,572.1c-.61-.11-.9.06-1.38.37-1.48.95-3.69,3.95-5.25,5.3-2.71,2.35-5.96,4.57-8.79,6.85-2.92,2.35-5.93,6.09-9.57,7.25-4.79,1.53-1.63-8.02-1.3-9.92.82-4.72,1.3-9.53,2.18-14.24.32-1.68,2.01-6.39,1.86-7.53-.07-.49-.33-1.06-.93-.93-2.24,1.28-4.65,2.01-7.19,2.4-3.64,5.8-4.44,12.91-5.18,19.64-.95,8.67-.99,17.33,0,26,7.05-2.57,13.72-6.49,19.89-10.8,3.81-2.66,10.04-7.06,13.16-10.3.8-.83,3.86-4.89,4.03-5.78.27-1.49-1.94-6.22-1.51-8.32ZM14.96,568.08c2.09,2.58,6.73-.89,4.19-4-2.55-2.16-6.17,1.55-4.19,4ZM507.27,563.61c-3.67-1.56-5.38,4.46-1.48,5.22,2.08.4,3.69-1.46,3.08-3.49-.03-.11-1.5-1.68-1.61-1.73ZM404.56,570.54c-1.06-.99-3.55,3.88-3.12,4.3.35.35.91.06,1.27-.49.32-.49,2.12-3.55,1.85-3.8ZM454.66,573.99l-1.24-3.06-.95.81-12.71,22.8c.62.55,2.37,1.71,3.11,1.24s4.81-9.36,5.47-8.82c.06.58.36.93.23,1.56-.43,2.06-3.43,6-4.52,8.02l1.55.58,12.73-22.27.18-1.18-3.84.33ZM375.25,579.13c.84.15.93-.37,1.17-.98.18-.46,1.24-4.12.2-4.09-1.12.03-1.65,4.14-1.37,5.07ZM399.73,576.84c-.39.1-.59.46-.82.75-.81,1.01-6.81,11.63-6.86,12.33-.09,1.51.81,1.7,1.73.53,1.07-1.36,6.52-10.43,6.95-11.82.28-.92.49-2.19-1-1.79ZM18.76,613.34v-34.8c0-.55-1.94-1.09-2.29.06-.41,1.34-.43,5.03-.47,6.61-.2,9.25.93,18.79.42,28.13.08,1.61,2.08.91,2.34,0ZM504.63,578.55v34.8c0,.44,1.98,1.93,2.34,0-.52-9.34.62-18.88.42-28.13-.03-1.58-.06-5.26-.47-6.61-.31-1-2.06-.81-2.29-.06ZM61.75,578.36l-.74.54c2.49,3.9,4.06,9.24,6.52,13.03.25.38-.04.7.87.5l1-4.68c-2.7-3-5.72-5.77-7.65-9.39ZM66.05,593.21l-.49-2.05-6.54-12.03,2.94,12.11c.59,1.16,3.01,1.32,4.09,1.97ZM371.73,595.16l-3.32,4.29c-.37-.33-.83-.86-.83-1.36,0-1.38,3.86-7.28,4.53-9.01-.05-2.31.64-5.22-1.54-6.82l-71.93,127.65c.02,1.02,16.01.94,16.98.97,1.49.05,4.17,1.1,5.49,0l53.16-91.51.18-.9c-.51-2.04-.43-4.16-.87-6.21-.32-1.51-1.85-4.62-1.85-5.97v-11.14ZM375.63,604.55c.05-.04.26-1.02.26-1.29-.04-6.76-.44-13.58-.32-20.34l-1.1-.65c-.22.15-.76,4.5-.8,5.26-.23,3.84-.4,10.79.02,14.48.1.86.67,3.41,1.95,2.54ZM412.57,604.16c1.94-.09,3.92,0,5.86,0,3.95,0,16.49,11.28,20.88,13.12l8.8,8.79c.91,1,6.35-.04,6.42-.99-2.29-3.45-1.48-9.26-6.2-10.36l1.19,3.28-1.99.84-2.06-6.36c-4.22-3.2-9.85-5.72-13.93-8.94-3.18-2.5.44-3.12,2.59-1.41l13.22,9.06,1.23-1.89c1.62.18,10.08-2.05,10.66-1.21l-.02,1.29-.61.57-9.9,1.63c.11.37,1.7,1.5,1.81,1.52.43.08.93-.64,1.52-.73.75-.11,1.54.07,2.29-.05,1.19-.19,8.47-1.46,8.85-1.71,1.09-.69-1.27-4.95-1.67-5.99-12.21-1.8-22.72-8.58-34.01-13.09-2.1-.62-4.27-6.95-5.96-6.95l-5.67,6.46c0,.27,4.12,2.2,4.8,2.62,1.42.88,8.02,5.08,8.3,6.14.09.33-.02.64-.17.94-.33.48-1.15.72-1.7.59-1.35-.31-6.88-4.82-7.71-4.23-.49,3.55-5.06,4.63-7.43,6.85-.09,1.2.4.2.58.19ZM135.23,717.52c.14-.53-.12-.96-.29-1.43-1.62-4.4-5.76-11.28-8.08-15.77-8.85-17.13-18.13-34.07-27-51.19-9.78-18.88-18.97-38.13-29.31-56.7l-1.45,3.04-3.83-.3,63.77,122.9.92.64c.33-.31.58-.39.54-.91-.14-1.53-4.04-7.12-4.82-9.26-.38-1.04-.75-1.96-.59-3.12.71-.14.97.35,1.34.8,2.4,2.96,4.28,7.97,6.27,11.32.71.79,1.69.18,2.53-.02ZM416.88,595.96c-.55-.02-4.2,3.14-2.34,3.51,1.37.27,4.17-3.46,2.34-3.51ZM410.81,600.25l-14.04,8.05-.81,1.13c.47.6.49.6,1.19.42,1.33-.34,6.84-3.65,8.31-4.6.81-.52,6.36-3.91,5.35-5.01ZM411.99,605.72c-1.07-.78-6.5,1.75-7.3,2.85-.3.41-.31,1.21-.73,1.81-.64.93-3.87,6.04-4.35,6.21-.35.12-1.45.25-1.69-.13.72-1.48,2.16-3.26,2.15-4.89-2.97,1.67-6.35,4.12-9.47,5.38-2.76,1.12-6.27,1.69-9.18,2.54-1.52.44-2.69,1.26-4.52,1.15l-52.07,91.01,16.81,1.39,22.28-37.55,1.74-.98c1.84.55-1.14,5.8-1.68,6.91-5.31,10.8-12.86,20.47-18.65,31l-.18,1.19c1.08-.27,2.43.67,3.12-.17l63.72-107.73ZM392.83,611.2c-.58-.53-11.26,5.54-15,4.25-1.03-.35-1.44-5.96-2.12-7.26-.29-.55-.52-1.04-1.25-.89-.55.65.98,6.65,1.37,7.82s.3,2.03,1.65,2.26c2.55.43,12.48-3.02,14.54-4.83.45-.39.97-.6.81-1.33ZM424.04,610.88c-2.98-1.7-6.17-2.3-9.29-.63l-10.66,13.96c-15.16,27.28-31.66,53.89-46.49,81.34-.43.79-1.03,1.71-1.1,2.61,2.62-2.61,5.69-4.6,8.58-6.86,3.55-2.78,12.31-8.91,14.81-12.15,2.4-3.11,5.24-10.27,7.41-14.09,11.05-19.39,24.07-38.61,34.53-58.12.61-1.13,2.83-4.97,2.21-6.05ZM481.17,615.5c-2.88-.06-5.86-.36-8.68-.9-2.18-.42-6.07-2.12-7.59-2.22-3.15-.21-7.08,1.64-10.31,1.55l15.86,9.78c4.06-1.83,7.12-5.56,10.72-8.22ZM370.16,715.58c1.69-.02,5.49,1.6,6.61.16l57.04-99.21-4.5-3.33-.7.34-58.44,102.05ZM469.36,625.35l-16.33-9.46c1.45,2.85,2.15,7.05,3.74,9.74.63,1.06,3.85,3.42,5.06,4.72,2.01,2.17,4.24,5.25,5.67,7.82.62.11.37-.51.46-.94.33-1.64,1.82-11.17,1.41-11.88ZM488.99,634.26l-5.16-16.93-.89-.67-9.19,8.01,11.92,7.63c1.63.66-1.4-3.6.38-3.51,2.17,1.93.02,4.7,2.93,5.47ZM19.83,624.98c-3.12-1.69-6.55.21-5.34,3.95,1.84,5.68,8.21,1.15,5.34-3.95ZM508.01,630.61c2.44-2.48,1.08-6.55-2.81-6.32-2.44.14-2.73,4.26-1.77,5.9.96,1.64,3.32,1.7,4.58.42ZM485.08,634.26c-2.02-1.22-3.97-2.75-6.06-3.91-2.38-1.33-5-2.29-7.23-3.91-.17,1.92-2.6,12.37-1.96,13.29l17.98-3.91c-.37-1.12-2.04-1.14-2.74-1.56,1.7.59-2.5,2.4-3.52,1.56-.31-1.29,2.99-1.74,3.52-1.56ZM69.96,633.48c.69-.68-4.41-4.05-5.08-3.51-.71.57.55.87.74,1.01.51.38,4.07,2.77,4.34,2.51ZM84.43,642.86c.14-.75-.12-1.06-.56-1.59-.59-.72-9.99-6.71-10.72-6.82-.43-.07-.81.18-1.22.2-.79,1.16,3.21,3.32,4.09,3.91,1.1.73,7.63,5.05,8.41,4.29ZM20.3,642.1c-1.51-.22-2.59.96-2.65,2.42,5.17,21.79,16.16,42.21,30.84,59.02,7.03,8.05,22.47,22.46,32.74,25.23,2.32.62,4.15-.91,2.41-2.42-.79-.69-5.42-2.41-6.9-3.27-23.81-13.81-48.19-47.8-55.05-74.35-.58-2.23-.46-4.51-1.39-6.63ZM504.9,642.59c-.49-.41-1.18-.59-1.81-.49-.93,2.12-.81,4.39-1.39,6.63-6.86,26.55-31.24,60.54-55.05,74.35-1.48.86-6.11,2.58-6.9,3.27-.95.83-.77,2.02.28,2.54.8.39,1.35.1,2.12-.11,10.9-2.93,27-18.42,34.32-27.08,13.93-16.48,24.26-36.11,29.26-57.17.08-.57-.45-1.61-.84-1.93ZM33.39,650.91c-1.31-1.48-2.41-3.17-3.88-4.53-.47.25-.1,1.15-.01,1.58.73,3.47,5.12,6.32,7.45,8.95.87.98,3.78,4.33,4.09,5.31.17.54-.04.7-.57.57l-7.44-7.03c-.29-.06-.25.38-.19.58,1.46,4.43,6.04,12.26,8.58,16.44,13.57,22.37,30.6,40.81,53.97,53.15,1.75.72,6.04-1.56,8.19-1.36-1.57-1.89-3.12-3.96-4.83-5.72-21.57-22.23-44.85-44.71-65.37-67.94ZM111.79,689.78l-4.55-8.16c-14.16-7.67-27.72-16.39-41.71-24.36-3.54-2.02-7.14-4.04-10.82-5.79,1.02,1.65,3.76,2.46,4.64,4.15.6,1.14.51,3.49,1.09,4.09,1.81,1.86,11.42,5,12.45,6.6.26.4.2.75.18,1.18-2.16.24-3.87-1.65-5.86-2.34l1.41,3.08c14.58,6.81,28.25,15.38,43.14,21.55ZM491.34,654.59l-103.97,63.53c.96,1.16,2,.38,3-.13,4.81-2.41,9.91-6.36,14.62-9.22,22.63-13.73,45.94-26.45,68.16-40.91,1.63-1.13,1.94.33.81,1.6-.84.95-6.5,4.24-8.06,5.23-17.08,10.81-35.14,20.24-52.3,30.97-7.03,4.4-14.09,9.06-20.77,13.82l5.45.98c19.11-12.06,38.55-23.53,58-35.06,8.39-4.97,17.88-9.77,26.02-15.03,3.44-2.23,4.46-5.67,6.3-9.14-.49-.46-8.34,5.75-10.36,4.69l-.19-.78c3.2-1.74,8.84-4.22,11.43-6.65.54-.51,2.3-3.42,1.86-3.92ZM10.94,659.68c-1.24.14-1.82.48-1.97,1.74-.5,4.17-.29,13.23.04,17.58.1,1.29,1.27,2.27,2.22,1.31,1.53-1.54.17-5.18.11-7.14-.07-1.9.31-12.99-.4-13.48ZM513.91,680.31l.49-19.27c-.12-.91-1.11-1.32-1.95-1.37-.71.5-.33,11.59-.4,13.48-.05,1.58-1.77,7.42.98,7.46l.88-.31ZM112.18,662.8c.28-1.67-1.44-2.03-2.73-1.95-.33,1.08,2.32,2.37,2.73,1.95ZM433.49,662.41c-.25-.28-4.62,2.67-4.99,3.01s-.89.82-.48,1.29c.35.39,4.25-2.81,4.99-3.01.63-.04.6-1.16.48-1.29ZM125.86,671.4c.18-.95-.09-.98-.64-1.51-.87-.83-6.97-4.67-8.13-5.16-.61-.26-1.04-.52-1.78-.37-.15.82.53,1.08,1.04,1.5.95.77,8.89,6.16,9.51,5.54ZM406.91,680.79l2.09-.44,15.25-10.55c1.17-.69.73-2.07-.65-1.85-.78.12-8.83,5.71-10.18,6.66-1.23.87-5.45,3.6-6.12,4.43-.49.61-.46,1.02-.4,1.75ZM137.59,694.08l-5.64-12.92-18.98-12.88,9.18,18.38c5.47,1.81,10.25,5.03,15.44,7.42ZM478.05,679.23l-6.91,3.45c-17.38,10.55-35.42,20.05-52.6,30.95-3.04,1.93-7.38,4.37-10.2,6.33-.34.24-2.32,1.85-1.82,2.28,6.84,1.01,13.71,2.39,20.29,4.51,6.18-3.64,12.65-7.27,18.53-11.62,10.03-7.41,19.72-17.2,27.02-27.32,2-2.77,3.76-5.76,5.69-8.57ZM401.44,684.7c.53.54,3.44-1.48,1.75-2.34-1.42-.08-1.93,1.08-1.75,2.34ZM154,688.21c-.64.47-1.19-4.18-2.94-2.35-.58.8.74,4.24,2.33,3.55l.62-.8c1.74,5.49,4.63-.7.23-1.19l-.24.79ZM138.76,697.2c-4.57-3.46-10.01-5.85-15.24-8.2l.88,1.85c5.07,1.43,9.46,4.71,14.37,6.35ZM10.4,810.06c.88-1.97.14-3.57.18-5.52.44-22.23.89-44.59,1.16-66.85.07-5.98-.1-12.01-.03-18.03.1-8.11,1.37-19.13.36-26.91-.07-.54-.4-2.07-.96-2.19-.72.11-1.84.72-2.05,1.43-.27.91-.41,5.16-.46,6.55-1.43,36.15-.07,72.55-1.16,108.73-.05,1.71-1.36,3.34,1.41,3.7.55.07,1.35-.47,1.55-.92ZM513.72,810.87c.66.23,1.16.11,1.76-.18,1.6-.77.49-2.07.47-3.41-.51-36.1.27-72.62-1.16-108.73-.05-1.38-.19-5.64-.46-6.55-.21-.71-1.33-1.32-2.05-1.43-.56.12-.89,1.65-.96,2.19-.61,4.73-.09,12.09-.05,17.12.26,31.38.92,63.19,1.55,94.66.03,1.45-.86,5.69.9,6.32ZM179.8,711.28l-28.53-19.94,4.7,11.91c5.58,1.7,14.95,8.5,20.52,8.45,1.15-.01,2.18-.41,3.31-.42ZM158.31,691.74c-.94.94,3.59,4.21,3.9,2.53.02-1.02-3.44-2.99-3.9-2.53ZM139.83,699.66l-14.75-7.14c1.36,1.64,2.5,5.68,3.73,7.01.59.64,2.63,1.45,3.55,1.92,3.19,1.61,6.63,2.93,9.91,4.35.23-.24-2.1-5.86-2.45-6.15ZM185.66,710.5c1.12-1.14-3.6-3.96-4.57-4.62-4.38-2.97-9.15-5.41-13.55-8.35l-1.03.27c-.24,1.08,1.88,2.21,2.68,2.78,2.84,2.01,12.04,8.54,14.62,9.61.62.26,1.16.4,1.84.3ZM372.12,704.64c-.66-.13-1.03.33-1.52.63-1.11.68-6.42,4.64-7.07,5.44-.49.6-.46,1.02-.4,1.75.82.2,1.04-.22,1.57-.57,1.14-.77,6.2-4.8,6.85-5.66.41-.53.72-.81.56-1.58ZM144.92,711.77c-.45-.42-2.65-.93-3.5-1.39-3.09-1.66-6.01-3.68-9.3-4.97l6.12,11.69,8.34-1.53c-.7-.84-1.02-3.21-1.66-3.81ZM170.42,712.45l-13.29-6.25c1.78,8.54,6.1,7.28,13.29,6.25ZM435.83,826.23c.74.75,5.86-5.11,6.28-6.03,1.85-4.11,1.6-10.22,2.5-14.7,2.81-13.99,11.8-28.45,15.57-42.29,2.9-10.63.8-15.14-8.2-20.58-13.75-8.31-33.12-12.87-48.91-15.59-16.54-2.86-33.19-5.72-49.92-7.54-48.07-5.21-98.74-5.74-146.99-3.51-5.72.26-12.27.16-17.96.77-2.02.22-3.89,1.62-5.89,1.92-5.6.84-12.87.36-18.73.82-26.55,2.06-57.2,7.54-82,17.29-4.13,1.62-16.11,7.45-18.66,10.66-5.16,6.51-1.58,15.99.99,22.86,4.25,11.37,11.27,24.91,13.37,36.67.72,4.04.59,10.31,2.49,13.85.33.61,3.59,4.29,4.25,3.83,1.9-8.94,10.71-10.25,17.62-13.86l17.19-5.29c.37,4.4-.53,8.74-.77,13.1-.2,3.63.28,11.96-1.15,14.88-.17.35-.21.77-.64.94-.6.13-3.84-2.12-5.08-2.31-11.54-1.79-29.74,3.01-35.04-10.7-1.76-4.57-1.57-9.33-2.38-14.04-.97-5.59-3-9.56-4.88-14.67-1.98-5.38-3.93-10.76-5.99-16.1-12.79.69-25.82,2.42-37.47,7.97,3.57,5.03,5.56,10.57,5.87,16.8.54,10.78-4.24,20.87-5.47,31.31-.54,4.54-.23,8.61.77,13.08,9.58-3.25,19.56-6.79,29.9-7.06,10.52-.27,21.91,1.15,32.45,1.97,8.07.62,27.49,2.21,31.53-6.77,3.44-7.64-2.85-26.53,7.14-30,49.9-8.49,99.65-9.12,150.12-7.01,34.64,1.45,68.43,1.64,103.01,6.05,4.61.59,9.76,1.57,14.17,2.64,2.32.56,3.74,1.52,5.07,3.53.77,8.1.41,17.24,2.66,25.1.9,3.16,2.85,3.97,5.85,5.1,7.85,2.94,16.28,1.98,24.41,1.36,23.07-1.76,36.23-3.68,58.84,3.72.94.31,1.89,1.44,3.11,1.37,4.97-18.25-8.72-34.17-3.01-52.86.99-3.25,3.28-5.84,4.19-8.91-5.34-1.47-10.51-3.78-15.94-4.98-6.95-1.53-14.29-1.74-21.35-2.48-2.07,5.2-3.84,10.53-5.79,15.78-1,2.69-2.54,5.18-3.41,7.93-1.59,5.06-1.63,9.73-2.47,14.74-3.75,22.43-21.1,14.11-36.86,17.31-1.22.25-2.22.78-3.29,1.36-2.92-8.54-3.51-17.64-4.3-26.58,7.19,1.03,14.35,3.6,20.98,6.57,4.85,2.18,14.68,5.82,12.24,12.58ZM244.59,804.24c.2-.18.2-.68.48-.89-.36-.49-.96-.67-1.53-.8-1.71-.4-6.34-.5-8.41-.58-13.02-.5-27.82-.63-40.77-.28-6.05.17-12.14.85-18.16,1.48-2.21,2.61-.73,3.63,2.26,3.52,5.31-.19,10.68-.88,15.99-1.21,15.36-1.02,33.44,1.57,48.49-.77.54-.08,1.24-.08,1.66-.47ZM166.41,808.53c.67-.59,1.43-3.38.1-4.02-.29-.14-5.55.16-6.44.22-7.52.54-15.34,2.81-22.97,3.22-3.93.32-5.99,4.87-.48,4.6s12.5-2.06,18.36-2.75c2.16-.25,10.17-.16,11.43-1.28ZM339.26,805.16c-.33-.51-10.32-.99-11.49-.8s-2.5,1.1-2.2,2.48c.22,1.02,8.6,1.5,9.99,1.4,2.3-.17,3.99-.48,3.7-3.08ZM393.93,810.27c-1.79-.08-3.57-.93-5.25-1.2-10.95-1.77-23.69-3.31-34.74-3.96-1.9-.11-7.55-1.89-7.62,1.41-.04,1.91,2.17,1.86,3.76,2.07,11.92,1.57,24.56,2.14,36.64,3.62,1.09.13,5.72,1.22,6.12.94.23-.16.27-.67.45-.92l.71.33-.07-2.28ZM95.37,820.36c4.15-1.24,8.21-2.73,12.42-3.8,2.03-.52,7.57-1.13,8.79-1.76,1.29-.67.77-1.9-.64-1.85-3.8.15-12.69,2.87-16.58,4.18-1.66.56-4.47.98-4,3.23ZM405.24,813c-1.25.34-1.22,1.25.02,1.79,2.02.89,7.28,1.45,9.95,2.17,3.11.85,7.19,2.72,10.06,3.24,1.8.33,1.29-1.06-.1-1.86-2.99-1.73-11.11-3.68-14.72-4.43-.91-.19-4.69-1.04-5.2-.9ZM11.72,828.77c-.25-2.48.18-5.3,0-7.82l-.91-.53c-2.2.61-2.46,1.94-2.6,4.06-.47,6.93,1.84,15.4,5.92,21.04,1.17,1.62,2.32,3.17,4.44,3.24,3.26-.48-2.64-7.22-3.23-8.37-1.37-2.68-3.33-8.68-3.63-11.62ZM511.66,820.95v7.82c0,2.16-2.54,9.49-3.63,11.62-.59,1.15-6.48,7.89-3.23,8.37,2.13-.07,3.27-1.63,4.44-3.24,4.08-5.64,6.39-14.1,5.92-21.04-.14-2.11-.4-3.45-2.6-4.06l-.91.53ZM93.03,820.76c-2.37-.85-4.25,4.23-2.14,4.69.9.2,2.5-4.33,2.14-4.69ZM429.97,825.45c3.28.01,1.09-5.36-1.57-4.69-.27,1.82,1.67,2.85,1.57,4.69ZM493.68,853.99c-2.08-.32-3.66.97-5.65,1.36-2.58.5-9.72.28-11.29,2.13-1.66,1.95,4.19,1.68,5.38,1.6,3.21-.2,11.56-1,11.56-5.09ZM39.2,858.95c.67.56,2.29.84,3.19.92,7.5.63,20.55.39,28.16-.41,2.4-.25,4.34-2.41,1.58-2.75-10.82-1.33-22,.4-32.87-.61l-.96,1.2c0,.31.64,1.44.9,1.65ZM99.22,860.19c1.24-2.63-.17-2.71-2.36-3.18-2.03-.44-8.28-1.06-10.29-1-1.62.05-4.16,1.25-2.11,2.87,2.14,1.7,11.62.81,14.77,1.31ZM466.71,858.29c-3.61-.95-7.2-.38-10.71-.46-17.37-.39-34.9.22-52.42.24-88.07.06-175.72-.57-263.82-.16-10.33.05-20.66.19-30.9-.8l.2,1.17c-2.6.17-1.88,2.6-.61,3.96.55.58,3.68-.41,4.7-.45,15.62-.65,31.42.31,47.01.31,91.17,0,182.12-1.02,273.16-.7,10.62.04,21.32.89,31.94,0,.97-.82,1.5-1.76,1.46-3.11Z"/>
          <path class="cls-2" d="M88.73,742.95c-.88-.98,3.29-3.9,4.02-4.38,12.2-3.56,24.25-7.76,36.61-10.69,8.54-2.02,17.89-4,26.6-3.9.76.44.7,2.31.36,3.09-1.07,1.52-4.07.82-5.65,1.03-21.03,2.75-41.37,10.14-61.96,14.85Z"/>
          <path class="cls-2" d="M219.97,792.12c-.85.71-11.06,1.53-13,1.65-4.95.32-10.34.04-15.24.4-7.21.53-13.97,2.16-21.51,2.18-.35,0-1.72-.14-1.77-.43-.33-1.81,1.6-2.11,3.04-2.43,10.93-2.46,24.21-2.81,35.47-3.62,3.01-.22,10.17-1.68,12.82-.31.98.51.79,2.05.18,2.56Z"/>
          <path class="cls-2" d="M95.74,835.64l.02,1.14c-8.41.75-16.56-1.96-24.82-2.73-6.21-.58-16.13-.46-22.24.43-1.51.22-9.8,2.52-10.4,1.92l.47-2.66c18.69-6.07,38.17-.86,56.96,1.91Z"/>
          <path class="cls-2" d="M397.14,801.98c-1.24-1.57,5.48-1.21,6.05-1.16,5.29.4,20.34,4.53,25.23,6.82,1.06.5,5.29,3.03,6.06,3.71,1.02.9,1.54,3.86-.1,4.27-1.76.28-2.16-1.55-3.05-2.29-9.03-7.5-23.53-7.01-34.2-11.34Z"/>
          <path class="cls-2" d="M94.2,809.8c.07-1.56,1.89-2.68,3.2-3.24,4.4-1.88,18.62-5.87,23.28-6.43,2.24-.27,3.52.68,1.63,2.42-1.41,1.3-13.01,3.78-15.79,4.54-1.9.52-11.26,4.21-12.33,2.71Z"/>
          <path class="cls-2" d="M492.51,839.91c-3.01.3-5.61-1.56-8.42-2.32s-9.41-1.42-11.26-2.81c-1.11-.84-1.31-1.61.06-2.2,2.5-1.08,17.41,2.89,19.25,4.8.53.55-.05,1.78.37,2.53Z"/>
          <path class="cls-2" d="M472.44,780.16c2.59-.87,9.19,1.08,11.85,2.1,2.13.81,9.38,3.58,5.35,5.99-5.49-2.87-11.53-4.32-17.45-6.01l-.71-.76c.19-.49.42-1.13.96-1.31Z"/>
          <path class="cls-2" d="M49.58,780.15l.44,1.89c-4.35,1.31-8.8,2.42-13.1,3.91-1.07.37-5.47,2.83-6.02,1.93-1.36-2.25,3.28-4.23,4.67-4.84,4.27-1.89,9.32-3.38,14-2.89Z"/>
          <path class="cls-2" d="M75.71,748.7c-1.6,1.28-4.04,2.2-5.71,3.48-1.47,1.12-2.45,2.88-4.2,3.63l-.92-.55c.94-3.66,4.21-6.77,7.3-8.71,1.84-1.16,5.49-3.97,6.21-.45-1.23.44-2.03,2.09-2.68,2.61Z"/>
          <path class="cls-2" d="M446.78,834.44c-.15-1,.62-1.01,1.3-1.24,2.31-.77,6.56-.94,9.07-1,1.42-.03,8.97.29,9.17,1.27-.93,2.4-3.87.99-5.65.96-4.62-.09-9.27.1-13.89.01Z"/>
          <path class="cls-2" d="M90.95,812.43c-.41.46-1.58.86-2.23,1.48-2.11,2.01-3.17,4.34-6.64,4.5-.75-3.12,3.18-5.62,5.59-6.72.87-.4,3.77-1.79,3.73-.18-.11.33-.22.66-.46.92Z"/>
          <path class="cls-2" d="M170.72,723.89c.35.29.53,2.28.29,2.63-1.15,1.64-9.12,1.85-7.04-1.56.67-1.1,5.79-1.89,6.75-1.07Z"/>
          <path class="cls-2" d="M378.42,799.6l-.05-1.52c2.94-.1,6.64-.83,9.52.06.93.29.81,1.5.29,2.12l-1.04.56-8.72-1.23Z"/>
          <path class="cls-2" d="M111.01,835.61c.86,2.31-5.97,2.18-6.25,1.95-.22-1.81,5.96-2.22,6.25-1.95Z"/>
          <path class="cls-2" d="M333.86,652.29c2.93-.05,1.59,2.45.81,4.13-3.62,7.73-9.51,16.12-13.82,23.71-1.5,2.65-3.46,7.73-5.07,9.79-1.52,1.96-2.81.64-2.62-1.41l20.7-36.22Z"/>
          <path class="cls-2" d="M362.34,604.94c.19.13.37,1.5.24,1.96-.21.76-3.42,6.35-4.07,7.3-.23.33-1.23,1.93-1.33,1.99-1.25.69-1.86-.3-1.65-1.51.15-.9,4.75-8.72,5.46-9.34.37-.32.98-.65,1.35-.4Z"/>
          <path class="cls-2" d="M345.15,634.65c-.19-1.1.16-1.8.57-2.75.71-1.65,3.12-5.55,4.19-7.15.32-.47,1.5-2.32,2.08-2.22.81.15.36.94.2,1.36-.6,1.56-1.82,3.65-2.67,5.16-.54.96-2.51,4.74-3.01,5.2s-.69.48-1.36.4Z"/>
          <path class="cls-2" d="M341.6,639.77c.06.02.8.96.82,1.03.41,2.57-4.63,8.01-4.24,4.32.1-.93,2.36-5.78,3.42-5.35Z"/>
          <path class="cls-2" d="M373.94,658.54c1-.27,1.64.88,1.65,1.71.02.9-3.9,8.06-4.7,8.94-1.06,1.16-1.96,1.36-3.02.02-.25-1.04,4.97-10.37,6.07-10.67Z"/>
          <path class="cls-2" d="M396.74,624.88c.51.49-4.7,10.18-5.87,10.74-.52.24-1,.25-1.55.2-1.06-1.04,4.72-8.97,5.27-10.56l2.15-.38Z"/>
          <path class="cls-2" d="M385.61,642.08l.92.91c-2.07,2.54-3.77,8.43-5.86,10.57-.99,1.02-2.07.79-1.73-.55.22-.88,6.05-10.78,6.67-10.93Z"/>
          <path class="cls-2" d="M121.19,642.45c-3.01-8.49-7.5-16.4-10.48-24.9-.59-1.69-1.5-3.34-1.27-5.18l1.19.96c2.72,8.57,9.62,18.4,11.92,26.79.38,1.37.38,2.59-1.36,2.34Z"/>
          <path class="cls-2" d="M137.2,674.92c-.67.13-.98-.35-1.38-.77-1.36-1.46-8.03-16.57-8.32-18.68-.22-1.65.59-2.32,1.57-.77,1.26,2,3.27,6.66,4.28,9.01.65,1.5,4.44,10.52,3.84,11.21Z"/>
          <path class="cls-2" d="M105.15,599.47h-1.36c-1.09-2.32-2.12-4.69-3.13-7.05-1.12-2.61-3.47-7.58-3.95-10.13-.14-.76-.37-1.03.41-1.57l8.01,18.76Z"/>
          <path class="cls-2" d="M81.11,543.56l4.33,9.74-.81,1.19c-.6,0-3.72-7.84-3.93-8.96-.16-.83-.46-1.37.41-1.97Z"/>
          <path class="cls-2" d="M87.56,562.32c-.31-.81-2.66-4.71-.98-5.08,1.03-.23,3.51,5.27.98,5.08Z"/>
          <path class="cls-2" d="M107.88,605.72l-1.2-.23c-2.95-6.69,1.92-5.03,1.2.23Z"/>
          <path class="cls-2" d="M125.48,649.9c-.19-.77-2.75-4.31-.98-4.69,1.41-.3,2.8,5.97.98,4.69Z"/>
          <path class="cls-2" d="M90.49,566.24c.81.96,2.13,2.83.78,3.89-.81-.96-2.13-2.83-.78-3.89Z"/>
          <path class="cls-2" d="M45.08,666.18c11.85,10.77,22.92,24.85,33.67,36.9,3.3,3.69,7.01,7.11,10.17,10.94.88,1.06,3.22,3.25,1.37,4.13-.36.17-.77-.11-1.06-.33-11.61-13.9-24.42-26.83-36.28-40.53-1.59-1.84-8.29-9.25-8.7-10.84-.11-.42-.1-.86-.08-1.28.54.03.59.74.91,1.03Z"/>
          <path class="cls-2" d="M494.82,443.42l-.94.41c-.75-.03-2.45-8.13-2.92-9.56-.42-1.29-2.19-6.21-3.14-6.63-1.52-.68-6.44-.01-8.28.3-2.08.36-8,2.8-9.32,2.05-.82-1.1,1-1.82,1.77-2.17,2.72-1.21,11.73-3.76,14.53-3.88,3.97-.16,5.25,5.29,6.28,8.49.58,1.8,2.83,9.75,2.03,10.98Z"/>
          <path class="cls-2" d="M470.23,433.31c.77.59-.62,4.28-.99,5.08-.27.58.06.97-.96.78-.52-.78.59-6.9,1.95-5.86Z"/>
          <path class="cls-2" d="M491.34,445.42c.35,1.34-3.94,4.98-4.69,4.3l2.9-3.93,1.78-.36Z"/>
          <path class="cls-2" d="M119.6,695.64c-.23.16-1.15.02-1.37-.38-3.37-7.64-8.38-14.74-11.59-22.42-.27-.65-1.49-3.33-1.1-3.78.89-.19.86.46,1.18.96,3.83,5.92,9.79,16.6,12.57,23.01.22.52.87,2.23.32,2.61Z"/>
          <path class="cls-2" d="M91.86,641.3c1.09.66,1.75,2.15,2.41,3.26,1.17,1.96,5.81,10.23,6.11,11.88.14.78.21,1.17-.51,1.67-.23-.01-2.05-3.34-2.35-3.89-1.45-2.63-4.5-8.05-5.36-10.67-.25-.77-.41-1.42-.3-2.24Z"/>
          <path class="cls-2" d="M74.85,608.47c.45.02,4.07,6.93,4.32,7.8s.43,1.38-.41,1.96c-.31-.02-2.78-4.72-3.11-5.48-.19-.43-2.04-4.34-.8-4.28Z"/>
          <path class="cls-2" d="M71.53,604.16c-.81.17-.89-.41-1.26-.89-.93-1.2-2.09-3.04-1.86-4.58.71-.82,3.94,4.51,3.12,5.47Z"/>
          <path class="cls-2" d="M82.86,624.88c-.66.75-3.75-3.27-1.76-4.29,1.22,1.09,1.95,2.65,1.76,4.29Z"/>
          <path class="cls-2" d="M103.58,663.19c-.7.83-3.21-3.99-1.75-4.3,1.16-.25,2.12,3.39,1.75,4.3Z"/>
          <path class="cls-2" d="M123.51,701.9c-.59.7-2.93-3.07-2.34-3.91,1.68-.67,2.81,3.36,2.34,3.91Z"/>
          <path class="cls-2" d="M86.38,631.91c-.78.28-1.65-1.53-1.78-1.93-.65-1.91.97-1.87,1.61-.04.22.64.21,1.31.17,1.97Z"/>
          <path class="cls-2" d="M339.58,557.54c-.51.44-4.83,1.71-4.97.68-.03-.19.5-.93.87-1.1.65-.32,4.74-1.56,4.41-.25-.12.21-.14.54-.3.68Z"/>
          <path class="cls-2" d="M449.91,625.27c-.06-1.97-1.69-3.52-.78-5.47,1.06-.8,3.25,5.71.78,5.47Z"/>
          <path class="cls-2" d="M386.19,574.44c.99-.14,1.78.37,1.95,1.38l-2.15,24.03c-.85-.05-1.29-2.97-1.36-3.71-.64-7.02.55-14.76,1.56-21.69Z"/>
          <path class="cls-2" d="M408.76,587.82c.81-.21,1.52-.26,2.05.5-.04,1.61-15.35,11.31-17.71,12.38-1.14.52-3.26,1.76-4.17.52,4.01-2.97,8.41-5.38,12.55-8.16,1.59-1.07,5.91-4.88,7.27-5.24Z"/>
          <path class="cls-2" d="M388.89,570.49l-1.47-.02c-1.09-.66.52-5.44,1.16-6.35.35-.49.68-.82,1.32-.63,1.64.5-1.03,5.73-1.01,6.99Z"/>
          <path class="cls-2" d="M418.63,579.92c1.02,1.03-3.49,6.6-5.47,5.47-.92-.86,4.4-6.55,5.47-5.47Z"/>
          <path class="cls-2" d="M413.55,648.34c.07.69.02,1.27-.22,1.93-2.02,5.55-10.01,18.32-13.56,23.59-.84,1.25-.76,2.43-2.19.42l14.72-25.03,1.24-.91Z"/>
          <path class="cls-2" d="M382.15,702.94c-1,1.02-2.3,1.11-1.61-.63,1.09-2.77,3.85-7.1,5.49-9.76,1-1.62,3.2-5.47,4.3-6.64.31-.33.56-.93,1.13-.81,1.28.27-.43,3.27-.77,3.91-1.55,2.96-6.53,11.87-8.55,13.93Z"/>
          <path class="cls-2" d="M429.19,620.19c.12.69-.09,1.22-.3,1.84-.91,2.66-4.65,8.65-6.27,11.32-.75,1.23-1.73,3.89-3.19,3.64-.66-.65,3.55-7.68,4.23-8.86,1.32-2.29,2.98-5.11,4.53-7.21.32-.44,0-.97,1.01-.74Z"/>
          <path class="cls-2" d="M418.24,637.78c.84.64-.83,4.19-1.76,4.68-1.84-.87.96-5.28,1.76-4.68Z"/>
          <path class="cls-2" d="M395.38,677.27c2.16-.45-.6,4.44-1.56,4.3s-.14-1.57,0-1.94c.36-.9.77-1.74,1.55-2.36Z"/>
          <path class="cls-2" d="M64.1,519.31c-.25.39-6.19.02-5.86-1.36.42-1.75,7.03-.43,5.86,1.36Z"/>
          <path class="cls-2" d="M85.4,673.86c1.34.76,9.91,4.57,9.96,5.55.06,1.1-2.91-.17-3.22-.29-1.03-.39-7.72-3.91-7.71-4.4l.97-.86Z"/>
          <path class="cls-2" d="M80.91,671.41l-.38.98c-.91.95-5.07-1.94-5.08-2.36-.06-1.89,4.91,1.21,5.46,1.38Z"/>
          <path class="cls-2" d="M417.36,565.16c.54.52.7,1.53-.15,1.8-.97.31-8.02,0-8.76-.5l-.37-2.17c1.65.25,8.46.08,9.28.88Z"/>
          <path class="cls-2" d="M403.79,562.32c-.42-1.47-1.87-2.01-1.94-3.75-.15-3.47,2.83,1.61,3.06,2.84l-1.12.91Z"/>
          <path class="cls-2" d="M405.15,551.77c1.62.97-.6,2.86-1.56,2.73-1.51-.21,1.34-2.45,1.56-2.73Z"/>
          <path class="cls-2" d="M469.77,564.76c4.34-.11,3.46,2.46-1.71,1.88-3.12-.35-.41-1.82,1.71-1.88Z"/>
          <path class="cls-2" d="M74.82,500.39c.82.96,2.21,2.25,2.56,3.5.25.86-.65.67-1.16.38-.3-.17-4.32-4.58-4.68-5.09-.35-.48-.74-.92-.79-1.55.58-.86.86-.42,1.54.02,1,.65,1.78,1.85,2.54,2.74Z"/>
          <path class="cls-2" d="M81.05,509.39c-1.01-.66-3.97-3.39-2.28-4.54.56-.12,5.04,3.98,3.12,5.07-.27-.2-.56-.35-.84-.53Z"/>
          <path class="cls-2" d="M57.46,587.73l-4.91-.37-.17-1.19c.32-.39,5.95-.63,5.08,1.56Z"/>
          <path class="cls-2" d="M456.16,550.98c-.75-.68,5.12-5.89,5.83-6.09.52-.15,1.09-.08,1.2.43s-4.67,4.59-5.46,5.09c-.52.33-.74.79-1.57.57Z"/>
          <path class="cls-2" d="M454.09,551.45c.72-.18,1.24.08,1.28.9-.75.74-3.09,3.15-4.09,2.94-.93-.2-.25-1.1.02-1.53.4-.62,2.14-2.14,2.79-2.3Z"/>
          <path class="cls-2" d="M68.4,573.27l-6.07-5.07c-.49-.36.13-1.13.41-1.18,1.04-.21,6.55,5.29,5.66,6.25Z"/>
          <path class="cls-2" d="M72.88,575.84c.15.22,1.28,1.02.6,1.73-.48.5-4.77-2.47-3.9-3.91,1.54-.14,2.54,1.04,3.3,2.18Z"/>
          <path class="cls-2" d="M454.6,463.8c1.06-1.23,3.56,5.77,3.72,6.25.35,1.06.94,5.26,1.6,5.46,3.47-1.02,7.34-2.15,10.96-2.31.72-.03,1.29.11,1.31.95-.27,1.13-5.05,1.16-6.34,1.48-2.3.57-4.65,2.8-7.1,1.41-2.06-1.17-1.76-5.04-2.3-7.08-.56-2.09-2.25-3.87-1.85-6.16Z"/>
          <path class="cls-2" d="M452.24,474.36c.78.53-1.87,6.61-3.29,6.24-1.79-.46,1.46-5.41,2.1-5.99.34-.31.96-.41,1.19-.25Z"/>
          <path class="cls-2" d="M451.47,582.65l.45-1.69c.62-.47,2.21-4.06,2.86-3.77,1.83.8-2.39,6.4-3.31,5.47Z"/>
          <path class="cls-2" d="M456.16,495.07l.8-3.49c3.22-.03,1.87,3.93-.8,3.49Z"/>
        </g>
      </g>
    </g>
  </g>
</svg>