<?xml version="1.0" encoding="UTF-8"?>
<svg id="Layer_1" data-name="Layer 1" xmlns="http://www.w3.org/2000/svg" viewBox="0 0 110 110">
  <defs>
    <style>
      .cls-1 {
        fill: #f5f5f5;
      }
    </style>
  </defs>
  <path class="cls-1" d="M33.01,70.06c-.12,0-.25-.05-.34-.14l-21.79-20.59c-.16-.15-.2-.4-.1-.6l14.47-27.4c.1-.2.32-.3.54-.26l28.6,5.79c.23.05.39.24.4.47l1.01,26.87c0,.17-.08.33-.22.43l-22.28,15.34c-.09.06-.19.09-.28.09h0ZM11.84,48.86l21.22,20.06,21.73-14.95-.98-26.21-27.84-5.63-14.12,26.74h-.01Z"/>
  <path class="cls-1" d="M80.08,67.8c-.08,0-.16-.02-.23-.06l-24.78-13.08c-.16-.08-.26-.25-.27-.42l-1.01-26.87c0-.23.14-.43.36-.5l27.02-7.91c.2-.06.42.02.55.19l17.47,24.53c.13.18.12.43-.02.6l-18.7,23.34c-.1.12-.24.19-.39.19h0ZM55.79,53.91l24.16,12.76,18.21-22.72-17.04-23.93-26.31,7.71.98,26.2v-.02Z"/>
  <path class="cls-1" d="M54.29,27.85h-.1l-28.6-5.79c-.2-.04-.36-.2-.39-.4-.04-.2.05-.41.23-.51l12.85-8c.07-.05.16-.07.25-.08l26.55-1.02c.07,0,.15.01.21.04l16.21,6.89c.19.08.32.28.3.49-.01.21-.16.39-.36.45l-27.02,7.91s-.09.02-.14.02h0ZM27.03,21.32l27.24,5.51,25.56-7.49-14.82-6.3-26.31,1.01-11.67,7.26h0Z"/>
  <path class="cls-1" d="M41.86,96.4c-.21,0-.41-.14-.47-.34l-8.85-26.34c-.07-.21,0-.44.19-.57l22.28-15.34c.15-.11.35-.12.52-.03l24.78,13.08c.21.11.31.35.25.57l-7.32,27.45c-.06.21-.24.36-.46.37l-30.89,1.15h-.03ZM33.6,69.76l8.61,25.63,30.15-1.12,7.12-26.7-24.16-12.76s-21.72,14.95-21.72,14.95Z"/>
  <path class="cls-1" d="M41.86,96.4c-.08,0-.15-.02-.23-.05l-14.43-7.28c-.08-.04-.15-.1-.19-.17l-15.32-23.49c-.05-.07-.08-.16-.08-.25l-.89-16.17c-.01-.21.1-.4.29-.48.19-.09.41-.05.56.1l22.04,21.34c.06.06.1.12.13.2l8.6,25.6c.06.19,0,.4-.15.54-.09.08-.21.12-.33.12h0ZM27.78,88.24l13.22,6.67-8.18-24.33-21.03-20.37.82,14.76,15.17,23.26h0Z"/>
  <path class="cls-1" d="M72.76,95.25c-.1,0-.2-.03-.29-.09-.17-.12-.25-.33-.19-.54l7.32-27.45c.02-.07.05-.13.09-.18l18.7-23.34c.13-.17.36-.23.56-.16s.33.26.33.47v18.23c0,.08-.02.16-.06.24l-12.74,23.75c-.04.07-.1.13-.16.18l-13.28,8.81c-.08.06-.18.08-.28.08ZM80.54,67.53l-6.95,26.07,12.07-8.01,12.62-23.52v-16.69s-17.74,22.15-17.74,22.15Z"/>
</svg>